<svg xmlns="http://www.w3.org/2000/svg" width="64" height="64" viewBox="0 0 64 64">
    <g fill="#30C7DB" fill-rule="evenodd">
        <circle cx="32" cy="32" r="32" fill-opacity=".1"/>
        <g fill-rule="nonzero">
            <path d="M39.193 14.128a.776.776 0 1 0-.852 1.298c2.11 1.387 3.474 3.369 3.954 5.7a11.02 11.02 0 0 0-1.207-.797c-2.297-1.303-4.709-1.506-6.976-.59-3.182 1.288-4.754.581-5.661-.063a5.827 5.827 0 0 1-.752-.643.776.776 0 1 0-1.098 1.098c.138.138.275.265.413.385-.818 1.138-2.732 1.64-3.86 1.8-.43-.84-1.255-2.79-.588-4.29 1.46-3.287 5.966-4.453 9.38-4.453 1.621 0 3.245.327 4.696.945a.776.776 0 1 0 .608-1.428 13.64 13.64 0 0 0-5.304-1.07c-6.2 0-9.644 2.777-10.8 5.375-1.036 2.332.322 5.1.781 5.924l-.063.65a2.827 2.827 0 0 0-2.46 2.8c0 1.247.804 2.307 1.932 2.68a7.446 7.446 0 0 0 3.028 6.658l.164.12a6.774 6.774 0 0 0-3.924 6.136v9.261c0 .429.348.777.777.777h20.005a.776.776 0 0 0 .776-.777v-9.261a6.73 6.73 0 0 0-1.118-3.724.776.776 0 1 0-1.295.856c.563.851.86 1.843.86 2.868v4.186h-2.323V43.64a.776.776 0 1 0-1.553 0v7.208h-10.7V43.64a.776.776 0 1 0-1.552 0v2.909h-2.324v-4.186a5.218 5.218 0 0 1 2.959-4.698c.116.696.346 1.37.683 1.99a.776.776 0 1 0 1.364-.742 4.759 4.759 0 0 1-.426-1.083l1.229.893a5.8 5.8 0 0 0 6.835 0l1.231-.894a4.81 4.81 0 0 1-4.648 3.594 4.75 4.75 0 0 1-2.992-1.046.776.776 0 1 0-.968 1.214 6.373 6.373 0 0 0 3.96 1.385c3.149 0 5.768-2.302 6.268-5.31.229.109.45.236.664.38a.773.773 0 0 0 1.078-.208.776.776 0 0 0-.208-1.078 6.756 6.756 0 0 0-.947-.534l.164-.12a7.446 7.446 0 0 0 3.028-6.657 2.818 2.818 0 0 0 1.932-2.68 2.827 2.827 0 0 0-2.46-2.8l-.087-.9a.777.777 0 0 0-1.546.15l.61 6.323a5.887 5.887 0 0 1-2.39 5.309l-3.601 2.616a4.249 4.249 0 0 1-5.01 0l-3.602-2.616a5.888 5.888 0 0 1-2.39-5.309l.55-5.7c1.19-.18 3.663-.748 4.86-2.449 1.748.888 3.851.816 6.398-.214 1.823-.738 3.703-.578 5.586.477a9.587 9.587 0 0 1 2.39 1.905.776.776 0 0 0 1.37-.498c0-3.708-1.721-6.881-4.848-8.935zm-17.699 13.68a1.269 1.269 0 0 1 .212-2.197l-.212 2.197zM38.286 48.1h2.323v2.747h-2.323V48.1zm-13.805 0v2.747h-2.323V48.1h2.323zM41.81 26.768c0 .43-.211.809-.537 1.04l-.212-2.197c.44.2.749.643.749 1.157z"/>
            <path d="M27.477 27.494a.776.776 0 0 0-.776.776v1.052a.776.776 0 1 0 1.553 0V28.27a.776.776 0 0 0-.777-.776zM37.343 25.176a2.885 2.885 0 0 0-2.054-.85c-.776 0-1.505.302-2.053.85a.776.776 0 0 0 1.098 1.098c.255-.255.594-.395.955-.395.36 0 .7.14.955.395a.775.775 0 0 0 1.098 0 .776.776 0 0 0 0-1.098zM29.53 25.176a2.885 2.885 0 0 0-2.053-.85c-.775 0-1.505.302-2.053.85a.776.776 0 1 0 1.098 1.098c.255-.255.594-.395.955-.395s.7.14.955.395a.774.774 0 0 0 1.098 0 .776.776 0 0 0 0-1.098zM35.29 27.494a.776.776 0 0 0-.777.776v1.052a.776.776 0 1 0 1.553 0V28.27a.776.776 0 0 0-.777-.776zM33.638 33.49a.777.777 0 0 0-1.098 0 1.638 1.638 0 0 1-2.314 0 .777.777 0 0 0-1.098 1.098 3.18 3.18 0 0 0 2.255.932 3.18 3.18 0 0 0 2.255-.932.776.776 0 0 0 0-1.098zM32.041 27.581a.776.776 0 0 0-.776.777v1.856h-.54a.776.776 0 1 0 0 1.552h1.316a.776.776 0 0 0 .777-.776v-2.632a.776.776 0 0 0-.777-.777z"/>
        </g>
    </g>
</svg>
