<?xml version="1.0" encoding="UTF-8"?>
<svg width="86px" height="52px" viewBox="0 0 86 52" version="1.1" xmlns="http://www.w3.org/2000/svg" xmlns:xlink="http://www.w3.org/1999/xlink">
    <!-- Generator: sketchtool 61.2 (101010) - https://sketch.com -->
    <title>A2626B48-91A5-4E6A-875E-BFF7E463C611</title>
    <desc>Created with sketchtool.</desc>
    <g id="Proceso-E-Commerce-Propuesta" stroke="none" stroke-width="1" fill="none" fill-rule="evenodd">
        <g id="Oncosalud_Wireframes_Desktop_CheckoutPago" transform="translate(-984.000000, -285.000000)">
            <g id="American-Express" transform="translate(965.000000, 279.000000)">
                <g id="Group-6" transform="translate(19.000000, 6.000000)">
                    <rect id="VISA" x="0" y="0" width="86" height="52"></rect>
                    <g id="american-express" transform="translate(18.000000, 8.000000)" fill-rule="nonzero">
                        <path d="M50.9634783,32.1127409 C50.9634783,33.775525 49.6147378,35.1234783 47.9509594,35.1234783 L3.01251889,35.1234783 C1.34874049,35.1234783 0,33.775525 0,32.1127409 L0,3.01063785 C0,1.34795326 1.34874049,0 3.01251889,0 L47.9509594,0 C49.6148373,0 50.9634783,1.34795326 50.9634783,3.01063785 L50.9634783,32.1127409 L50.9634783,32.1127409 Z" id="Path" fill="#306FC5"></path>
                        <path d="M2.00310226,32.11265 L2.00310226,3.01062932 C2.00310226,1.34794945 3.2647113,0 4.82077647,0 L2.81739493,0 C1.26142286,0 0,1.34784997 0,3.01062932 L0,32.1127495 C0,33.7755288 1.26142286,35.1234783 2.81748803,35.1234783 L4.82086957,35.1234783 C3.2648044,35.1234783 2.00310226,33.7754293 2.00310226,32.11265 Z" id="Path" fill="#202121" opacity="0.15"></path>
                        <g id="Group" transform="translate(4.132174, 10.330435)" fill="#FFFFFF">
                            <polygon id="Path" points="3.8657113 3.90802824 5.39817183 3.90802824 4.63214191 1.89231059"></polygon>
                            <polygon id="Path" points="12.0154602 10.6746071 12.0154602 11.6106165 14.5928348 11.6106165 14.5928348 12.6186824 12.0154602 12.6186824 12.0154602 13.6988047 14.8713183 13.6988047 16.1947158 12.1866541 14.9410393 10.6746071"></polygon>
                            <polygon id="Path" points="32.1456083 1.89231059 31.309657 3.90802824 32.9119388 3.90802824"></polygon>
                            <polygon id="Path" points="19.4685997 14.2741176 19.4685997 10.1708329 17.6574553 12.1866541"></polygon>
                            <path d="M22.8817252,11.3228047 C22.8120042,10.89088 22.53312,10.6746071 22.1149941,10.6746071 L20.6525551,10.6746071 L20.6525551,11.9703812 L22.1851158,11.9703812 C22.6029412,11.9704847 22.8817252,11.7546259 22.8817252,11.3228047 Z" id="Path"></path>
                            <path d="M27.7571896,11.8267859 C27.8965315,11.7546259 27.9664529,11.5384565 27.9664529,11.3229082 C28.0361739,11.0352 27.8965315,10.8909835 27.7571896,10.8189271 C27.6182483,10.7468706 27.408985,10.7468706 27.2003228,10.7468706 L25.8069037,10.7468706 L25.8069037,11.8988424 L27.2002226,11.8988424 C27.4088849,11.8988424 27.6181482,11.8988424 27.7571896,11.8267859 Z" id="Path"></path>
                            <path d="M37.787303,0.0204988235 L37.787303,0.884348235 L37.3696779,0.0204988235 L34.0961948,0.0204988235 L34.0961948,0.884348235 L33.6780689,0.0204988235 L29.2201294,0.0204988235 C28.4539993,0.0204988235 27.8268104,0.164611765 27.2698435,0.452527059 L27.2698435,0.0204988235 L24.1355019,0.0204988235 L24.1355019,0.0925552941 L24.1355019,0.452527059 C23.7872974,0.164715294 23.3693718,0.0204988235 22.8121043,0.0204988235 L11.5976348,0.0204988235 L10.831104,1.82025412 L10.0650741,0.0204988235 L7.55762087,0.0204988235 L6.51270678,0.0204988235 L6.51270678,0.884348235 L6.16440209,0.0204988235 L6.09468104,0.0204988235 L3.09958122,0.0204988235 L1.70626226,3.40384 L0.104381217,7.0752 L0.074930087,7.14736 L0.104381217,7.14736 L3.6568487,7.14736 L3.70132591,7.14736 L3.72656974,7.0752 L4.14469565,5.99559529 L5.05016765,5.99559529 L5.46809322,7.14736 L9.50770643,7.14736 L9.50770643,7.0752 L9.50770643,6.28351059 L9.85621148,7.14725647 L11.8760181,7.14725647 L12.2241224,6.28351059 L12.2241224,7.0752 L12.2241224,7.14736 L13.8262038,7.14736 L21.8366108,7.14736 L21.9063318,7.14736 L21.9063318,5.27554824 L22.0459743,5.27554824 C22.1851158,5.27554824 22.1851158,5.27554824 22.1851158,5.49161412 L22.1851158,7.07530353 L27.2003228,7.07530353 L27.2003228,6.64337882 C27.6182483,6.85965176 28.244736,7.07530353 29.0806873,7.07530353 L31.1706157,7.07530353 L31.5885412,5.92374588 L32.5634337,5.92374588 L32.9813593,7.07530353 L37.0211729,7.07530353 L37.0211729,6.35556706 L37.0211729,5.99569882 L37.6483617,7.07530353 L37.787303,7.07530353 L37.8572243,7.07530353 L40.9220452,7.07530353 L40.9220452,0.0204988235 L37.7875033,0.0204988235 L37.7875033,0.0204988235 L37.787303,0.0204988235 L37.787303,0.0204988235 Z M14.1747089,6.06775529 L13.4779993,6.06775529 L13.0601739,6.06775529 L13.0601739,5.63614118 L13.0601739,2.10827294 L12.9904529,2.27340235 L12.9904529,2.27143529 L11.3700397,6.06775529 L11.3187506,6.06775529 L10.9462038,6.06775529 L10.3434574,6.06775529 L8.6718553,2.10827294 L8.6718553,6.06775529 L6.303744,6.06775529 L5.81619757,4.98794353 L3.44768557,4.98794353 L2.96003896,6.06775529 L1.73561322,6.06775529 L3.79619061,1.02846118 L5.53741357,1.02846118 L7.48769948,5.85158588 L7.48769948,1.02846118 L7.90552487,1.02846118 L9.3331033,1.02846118 L9.36596035,1.10062118 L9.36836452,1.10062118 L10.2471903,3.07741176 L10.8782859,4.55850353 L10.9006247,4.48385882 L12.2936431,1.02856471 L14.1747089,1.02856471 L14.1747089,6.06775529 L14.1747089,6.06775529 L14.1747089,6.06775529 Z M18.9810532,2.10827294 L16.2644369,2.10827294 L16.2644369,3.04407529 L18.9113322,3.04407529 L18.9113322,4.05183059 L16.2644369,4.05183059 L16.2644369,5.06 L18.9810532,5.06 L18.9810532,6.13950118 L15.0803812,6.13950118 L15.0803812,1.02856471 L18.9810532,1.02856471 L18.9810532,2.10827294 L18.9810532,2.10827294 Z M23.9491784,3.96455529 C23.9509816,3.96621176 23.9532856,3.96735059 23.9554894,3.96890353 C23.9818351,3.99768471 24.0043743,4.02656941 24.0236077,4.05421176 C24.1570393,4.23497412 24.2649266,4.50384 24.270336,4.89808 C24.2707367,4.90491294 24.2710372,4.91164235 24.2714379,4.91847529 C24.2714379,4.92240941 24.2721391,4.92582588 24.2721391,4.92986353 C24.2721391,4.93214118 24.2719388,4.93390118 24.2719388,4.93607529 C24.2735416,4.97572706 24.2745433,5.01620706 24.2745433,5.06 L24.2745433,6.06785882 L23.2299297,6.06785882 L23.2299297,5.49171765 C23.2299297,5.20380235 23.2299297,4.77177412 23.0206664,4.48385882 C22.9548522,4.41584 22.8882365,4.37101176 22.8157106,4.33912471 C22.7113294,4.26924235 22.5134859,4.26810353 22.1851158,4.26810353 L20.9309384,4.26810353 L20.9309384,6.06785882 L19.7470831,6.06785882 L19.7470831,1.02856471 L22.3941788,1.02856471 C23.0206664,1.02856471 23.4387923,1.02856471 23.7871972,1.24452706 C24.1284897,1.45634824 24.3346477,1.80762353 24.3424612,2.36388706 C24.3263332,3.13000471 23.8505071,3.55033412 23.5084132,3.69206588 C23.5084132,3.69206588 23.7408167,3.74041412 23.9491784,3.96455529 Z M26.2947506,6.06775529 L25.1104946,6.06775529 L25.1104946,1.02846118 L26.2947506,1.02846118 L26.2947506,6.06775529 Z M39.8775318,6.06775529 L38.344871,6.06775529 L36.1160014,2.25217882 L36.1160014,5.41966118 L36.1086887,5.41220706 L36.1086887,6.07086118 L34.9319457,6.07086118 L34.9319457,6.06785882 L33.7476897,6.06785882 L33.3297642,4.98804706 L30.8916313,4.98804706 L30.4737057,6.13960471 L29.1503082,6.13960471 C28.5934414,6.13960471 27.8964313,5.99580235 27.4787061,5.56387765 C27.0607805,5.13195294 26.8520181,4.55601882 26.8520181,3.62032 C26.8520181,2.90048 26.9911597,2.18012235 27.4787061,1.60439529 C27.8267103,1.17216 28.4538991,1.02856471 29.219929,1.02856471 L30.3346643,1.02856471 L30.3346643,2.10827294 L29.219929,2.10827294 C28.8020035,2.10827294 28.5934414,2.18001882 28.3142567,2.39639529 C28.1056946,2.61225412 27.9662525,3.04407529 27.9662525,3.54795294 C27.9662525,4.12399059 28.0359736,4.48385882 28.3142567,4.77177412 C28.5237203,4.98804706 28.8021037,5.06010353 29.1503082,5.06010353 L29.6378546,5.06010353 L31.2397357,1.10082824 L31.9366456,1.10082824 L32.9812591,1.10082824 L34.9318456,5.92395294 L34.9318456,5.67796706 L34.9318456,4.05203765 L34.9318456,3.90823529 L34.9318456,1.10093176 L36.6730685,1.10093176 L38.6926748,4.62817882 L38.6926748,1.10093176 L39.8773315,1.10093176 L39.8773315,6.06796235 L39.8775318,6.06796235 L39.8775318,6.06775529 L39.8775318,6.06775529 Z" id="Shape"></path>
                            <path d="M22.9559541,3.12731294 C22.9762894,3.10484706 22.9947214,3.07937882 23.0103485,3.05018353 C23.0734581,2.94696471 23.1457837,2.76102588 23.106816,2.50727529 C23.1052132,2.48398118 23.1011061,2.46244706 23.0962977,2.44163765 C23.0949955,2.43584 23.0951958,2.43076706 23.0936932,2.42496941 L23.092992,2.42507294 C23.0583318,2.30176941 22.9698783,2.22598588 22.881625,2.18001882 C22.7419826,2.10827294 22.5330198,2.10827294 22.3241572,2.10827294 L20.9308383,2.10827294 L20.9308383,3.26024471 L22.3241572,3.26024471 C22.5330198,3.26024471 22.7420828,3.26024471 22.881625,3.18808471 C22.9025614,3.17711059 22.9211937,3.16220235 22.9391249,3.14532706 L22.9393252,3.14625882 C22.9394254,3.14615529 22.9465377,3.13849412 22.9559541,3.12731294 Z" id="Path"></path>
                            <path d="M43.9868661,13.2666729 C43.9868661,12.7627953 43.8477245,12.2587106 43.6388619,11.8988424 L43.6388619,8.65951059 L43.6356563,8.65951059 L43.6356563,8.44323765 C43.6356563,8.44323765 40.7160877,8.44323765 40.2815332,8.44323765 C39.8471791,8.44323765 39.320064,8.87505882 39.320064,8.87505882 L39.320064,8.44323765 L36.1161016,8.44323765 C35.6282546,8.44323765 35.001767,8.58735059 34.7227826,8.87505882 L34.7227826,8.44323765 L29.0112668,8.44323765 L29.0112668,8.65951059 L29.0112668,8.87495529 C28.5936417,8.51529412 27.8268104,8.44313412 27.4788063,8.44313412 L23.717376,8.44313412 L23.717376,8.65940706 L23.717376,8.87485176 C23.3691715,8.51519059 22.5329197,8.44303059 22.1147937,8.44303059 L17.9361391,8.44303059 L16.9607457,9.52294588 L16.0551736,8.44303059 L15.7635673,8.44303059 L15.2890435,8.44303059 L9.78649043,8.44303059 L9.78649043,8.65930353 L9.78649043,9.22799059 L9.78649043,15.7142118 L15.9161322,15.7142118 L16.9232807,14.6730165 L17.7962963,15.7142118 L17.8662177,15.7142118 L21.3981496,15.7142118 L21.5582275,15.7142118 L21.6279485,15.7142118 L21.6972689,15.7142118 L21.6972689,14.9943718 L21.6972689,14.0585694 L22.0457739,14.0585694 C22.5329197,14.0585694 23.1601085,14.0585694 23.647655,13.8422965 L23.647655,15.6418447 L23.647655,15.7861647 L26.7821969,15.7861647 L26.7821969,15.6418447 L26.7821969,13.9143529 L26.9211381,13.9143529 C27.1304014,13.9143529 27.1304014,13.9143529 27.1304014,14.1303153 L27.1304014,15.6418447 L27.1304014,15.7861647 L36.6031471,15.7861647 C37.2305363,15.7861647 37.857024,15.6418447 38.2052285,15.3539294 L38.2052285,15.6418447 L38.2052285,15.7861647 L41.2006289,15.7861647 C41.8271165,15.7861647 42.4545057,15.7142118 42.8724313,15.4260894 C43.5137447,15.0284329 43.9179464,14.3245365 43.9780508,13.4850165 C43.9808557,13.4601694 43.9843617,13.4353224 43.9868661,13.4103718 L43.9824584,13.4063341 C43.985063,13.3597459 43.9868661,13.3136753 43.9868661,13.2666729 Z M22.0458741,12.8348518 L20.652455,12.8348518 L20.652455,13.0502965 L20.652455,13.4824282 L20.652455,13.9144565 L20.652455,14.7063529 L18.3629802,14.7063529 L17.0304668,13.1224565 L17.0258588,13.1277365 L16.9607457,13.0502965 L15.4283854,14.7063529 L10.9705461,14.7063529 L10.9705461,9.66726588 L15.4981064,9.66726588 L16.7350539,11.0675012 L16.9951054,11.3606965 L17.0303666,11.3229082 L18.4933064,9.66736941 L22.1849155,9.66736941 C22.9013593,9.66736941 23.7036522,9.85009882 24.00768,10.6034824 C24.0442435,10.7526682 24.0654803,10.9185224 24.0654803,11.1069459 C24.0654803,12.5466259 23.0902873,12.8348518 22.0458741,12.8348518 Z M29.0112668,12.7626918 C29.1504083,12.9781365 29.2201294,13.2665694 29.2201294,13.6987012 L29.2201294,14.7062494 L28.0361739,14.7062494 L28.0361739,14.0585694 C28.0361739,13.7701365 28.0361739,13.2665694 27.8269106,13.0502965 C27.6879694,12.8348518 27.408985,12.8348518 26.99136,12.8348518 L25.7376835,12.8348518 L25.7376835,14.7063529 L24.5536278,14.7063529 L24.5536278,9.59520941 L27.2003228,9.59520941 C27.7571896,9.59520941 28.244736,9.59520941 28.5936417,9.81096471 C28.9416459,10.0271341 29.2201294,10.3871059 29.2201294,10.96304 C29.2201294,11.7547294 28.7327833,12.1866541 28.3843784,12.3308706 C28.7327833,12.4742588 28.9416459,12.6186824 29.0112668,12.7626918 Z M33.8176111,10.6746071 L31.1006943,10.6746071 L31.1006943,11.6105129 L33.7476897,11.6105129 L33.7476897,12.6185788 L31.1006943,12.6185788 L31.1006943,13.6265412 L33.8176111,13.6265412 L33.8176111,14.7062494 L29.9169391,14.7062494 L29.9169391,9.59510588 L33.8176111,9.59510588 L33.8176111,10.6746071 Z M36.7428897,14.7063529 L34.5138198,14.7063529 L34.5138198,13.6266447 L36.7428897,13.6266447 C36.9514518,13.6266447 37.0910943,13.6266447 37.2307367,13.4825318 C37.3004577,13.4103718 37.3696779,13.2666729 37.3696779,13.12256 C37.3696779,12.97824 37.3004577,12.8349553 37.2307367,12.7627953 C37.1608153,12.6908424 37.021273,12.6187859 36.8124104,12.6187859 C35.6978755,12.5467294 34.3744779,12.6187859 34.3744779,11.0352 C34.3744779,10.3152565 34.7924035,9.52325647 36.0462803,9.52325647 L38.3447708,9.52325647 L38.3447708,10.7468706 L36.1856223,10.7468706 C35.9767597,10.7468706 35.8372174,10.7468706 35.6977753,10.8189271 C35.5588341,10.8910871 35.5588341,11.0352 35.5588341,11.1790024 C35.5588341,11.3950682 35.6977753,11.4671247 35.8371172,11.53856 C35.9767597,11.61072 36.1159012,11.61072 36.2550428,11.61072 L36.8820313,11.61072 C37.5090198,11.61072 37.9268452,11.7547294 38.2054289,12.0427482 C38.4144918,12.2588141 38.5538337,12.6187859 38.5538337,13.12256 C38.5538337,14.2020612 37.9269454,14.7063529 36.7428897,14.7063529 Z M42.7331896,14.2020612 C42.4549064,14.4903906 41.9670595,14.7063529 41.2702497,14.7063529 L39.0417809,14.7063529 L39.0417809,13.6266447 L41.2701496,13.6266447 C41.4792125,13.6266447 41.618855,13.6266447 41.7579965,13.4825318 C41.827417,13.4103718 41.8973384,13.2666729 41.8973384,13.12256 C41.8973384,12.97824 41.827417,12.8349553 41.7579965,12.7627953 C41.6882755,12.6908424 41.5491339,12.6187859 41.340071,12.6187859 C40.2259367,12.5467294 38.9021384,12.6187859 38.9021384,11.0353035 C38.9021384,10.3510776 39.280896,9.73300706 40.2150177,9.54944941 C40.3267117,9.53350588 40.4447165,9.52325647 40.5739409,9.52325647 L42.8727318,9.52325647 L42.8727318,10.7468706 L41.340071,10.7468706 L40.7830038,10.7468706 L40.7132828,10.7468706 C40.5042198,10.7468706 40.3650783,10.7468706 40.2259367,10.8189271 C40.155815,10.8910871 40.0860939,11.0352 40.0860939,11.1790024 C40.0860939,11.3950682 40.155815,11.4671247 40.3650783,11.53856 C40.5042198,11.61072 40.6435617,11.61072 40.7830038,11.61072 L40.852224,11.61072 L41.4096918,11.61072 C41.7141203,11.61072 41.94432,11.6495435 42.1549857,11.7260518 C42.3479207,11.7982118 42.9866296,12.0934776 43.1294776,12.8642541 C43.1418991,12.9450071 43.151015,13.02928 43.151015,13.12256 C43.151015,13.5545882 43.011673,13.9144565 42.7331896,14.2020612 Z" id="Shape"></path>
                        </g>
                    </g>
                </g>
            </g>
        </g>
    </g>
</svg>