<?xml version="1.0" encoding="UTF-8"?>
<svg width="37px" height="36px" viewBox="0 0 37 36" version="1.1" xmlns="http://www.w3.org/2000/svg" xmlns:xlink="http://www.w3.org/1999/xlink">
    <!-- Generator: sketchtool 61.2 (101010) - https://sketch.com -->
    <title>1F14A568-B6CB-455E-B3FE-46C593C34E19</title>
    <desc>Created with sketchtool.</desc>
    <g id="Asset-Artboard-Page" stroke="none" stroke-width="1" fill="none" fill-rule="evenodd">
        <g id="icon/arrow/arrow-right" transform="translate(0.673175, 0.000000)" fill-rule="nonzero">
            <rect id="frame" x="0" y="0" width="36" height="36"></rect>
            <path d="M19.0606602,6.43933983 L29.5606602,16.9393398 L29.5804319,16.9594848 C29.6019232,16.9817954 29.62273,17.0047699 29.6428184,17.0283747 L29.5606602,16.9393398 C29.602113,16.9807927 29.6406325,17.0240681 29.6762186,17.0689082 C29.6941842,17.0916916 29.7117784,17.1152595 29.7286822,17.1393471 C29.741077,17.1568032 29.7525798,17.1739497 29.7636909,17.1912748 C29.7755937,17.21006 29.7875605,17.2296748 29.799083,17.2495789 C29.8118317,17.2713838 29.82372,17.2931944 29.8350271,17.3152263 C29.9405188,17.5208009 30,17.7534541 30,18 C30,18.2465459 29.9405188,18.4791991 29.8351238,18.6843923 C29.82372,18.7068056 29.8118317,18.7286162 29.7993622,18.7501827 C29.7875605,18.7703252 29.7755937,18.78994 29.7631961,18.8092518 C29.7525798,18.8260503 29.741077,18.8431968 29.7291823,18.8601522 C29.7117784,18.8847405 29.6941842,18.9083084 29.6759284,18.9313277 C29.6654457,18.9446661 29.654404,18.9580971 29.6430934,18.9713775 C29.62273,18.9952301 29.6019232,19.0182046 29.5804319,19.0405152 C29.574071,19.0471234 29.5674044,19.0539159 29.5606602,19.0606602 L19.0606602,29.5606602 C18.4748737,30.1464466 17.5251263,30.1464466 16.9393398,29.5606602 C16.3535534,28.9748737 16.3535534,28.0251263 16.9393398,27.4393398 L24.878,19.5 L7.5,19.5 C6.67157288,19.5 6,18.8284271 6,18 C6,17.1715729 6.67157288,16.5 7.5,16.5 L24.878,16.5 L16.9393398,8.56066017 C16.3535534,7.97487373 16.3535534,7.02512627 16.9393398,6.43933983 C17.5251263,5.85355339 18.4748737,5.85355339 19.0606602,6.43933983 Z" id="Combined-Shape" fill="#30C7DB"></path>
        </g>
    </g>
</svg>