<?xml version="1.0" encoding="UTF-8"?>
<svg width="17px" height="16px" viewBox="0 0 17 16" version="1.1" xmlns="http://www.w3.org/2000/svg" xmlns:xlink="http://www.w3.org/1999/xlink">
    <!-- Generator: sketchtool 61.2 (101010) - https://sketch.com -->
    <title>AF2A8E25-056B-4DE8-B776-DECA40D1753D</title>
    <desc>Created with sketchtool.</desc>
    <g id="Asset-Artboard-Page" stroke="none" stroke-width="1" fill="none" fill-rule="evenodd">
        <g id="icon/arrow/arrow-right" transform="translate(8.673175, 8.000000) scale(-1, 1) translate(-8.673175, -8.000000) translate(0.673175, 0.000000)" fill-rule="nonzero">
            <rect id="frame" x="0" y="0" width="16" height="16"></rect>
            <path d="M8.47140452,2.86192881 L13.1380712,7.52859548 L13.1508544,7.54173289 C13.1669869,7.55877207 13.1822297,7.57666229 13.1965083,7.59532916 L13.1380712,7.52859548 C13.1669989,7.5575232 13.1927124,7.58844797 13.2152118,7.620926 C13.2259554,7.63650954 13.2364055,7.65307675 13.2461258,7.67011416 C13.2546618,7.68502002 13.2622049,7.69952309 13.2691793,7.71422867 C13.3102209,7.80048544 13.3333333,7.89754363 13.3333333,8 C13.3333333,8.06882404 13.3229042,8.13521224 13.3035401,8.19767044 C13.2995302,8.21051471 13.2950012,8.22370582 13.2900468,8.23677253 C13.2831791,8.25486357 13.27566,8.27230876 13.267437,8.28935064 C13.2619539,8.30078986 13.2562114,8.31189135 13.2501362,8.3228579 C13.2393951,8.34211892 13.2278198,8.36074461 13.2153832,8.37872913 C13.2091753,8.38781838 13.2022658,8.39728451 13.1950759,8.40660402 C13.1808408,8.42496395 13.1662529,8.44200321 13.1508544,8.45826711 C13.1468853,8.46246738 13.1425162,8.46695953 13.1380712,8.47140452 L8.47140452,13.1380712 C8.21105499,13.3984207 7.78894501,13.3984207 7.52859548,13.1380712 C7.26824595,12.8777217 7.26824595,12.4556117 7.52859548,12.1952621 L11.0576667,8.66566667 L3.33333333,8.66666667 C2.9651435,8.66666667 2.66666667,8.36818983 2.66666667,8 C2.66666667,7.63181017 2.9651435,7.33333333 3.33333333,7.33333333 L11.0566667,7.33266667 L7.52859548,3.80473785 C7.26824595,3.54438833 7.26824595,3.12227834 7.52859548,2.86192881 C7.78894501,2.60157928 8.21105499,2.60157928 8.47140452,2.86192881 Z" id="Combined-Shape" fill="#30C7DB"></path>
        </g>
    </g>
</svg>