<svg xmlns="http://www.w3.org/2000/svg" width="24" height="24" viewBox="0 0 24 24">
    <g fill="none" fill-rule="nonzero">
        <path d="M0 0h24v24H0z"/>
        <path d="M12.559 11.484h1.03v1.031h-1.03z"/>
        <path fill="#30C7DB" d="M13.105 11.669l.3.3c.01.01.014.022.013.034v.004c0 .025-.016.046-.037.05l-.276.274a.043.043 0 0 1-.061-.06l.212-.215-.483.001c-.023 0-.043-.022-.043-.05 0-.028.02-.05.043-.05h.497l-.226-.227a.043.043 0 0 1 .06-.061z"/>
        <g fill="#30C7DB" stroke="#30C7DB" stroke-width=".5">
            <path d="M22.908 14.43L19.2 8.252l3.327-.924a.645.645 0 1 0-.345-1.242l-4.135 1.149h-.001l-5.402 1.5v-7.09a.645.645 0 0 0-1.29 0v7.449l-5.733 1.592H5.62L1.472 11.84a.645.645 0 0 0 .345 1.242l2.586-.719-3.31 5.52a.645.645 0 0 0-.093.331A4.792 4.792 0 0 0 5.787 23a4.792 4.792 0 0 0 4.786-4.787.644.644 0 0 0-.091-.331l-3.707-6.178L16.83 8.91l-3.312 5.52a.645.645 0 0 0-.091.33 4.792 4.792 0 0 0 4.786 4.787c1.279 0 2.48-.498 3.385-1.402A4.755 4.755 0 0 0 23 14.762a.643.643 0 0 0-.092-.332zM5.787 21.71a3.503 3.503 0 0 1-3.438-2.852h6.875a3.503 3.503 0 0 1-3.437 2.853zM8.79 17.57H2.783l3.004-5.007L8.79 17.57zm9.422-8.459l3.004 5.007h-6.008l3.004-5.007zm0 9.15a3.503 3.503 0 0 1-3.437-2.854h6.875a3.503 3.503 0 0 1-3.438 2.853z"/>
        </g>
    </g>
</svg>
