<svg xmlns="http://www.w3.org/2000/svg" width="35" height="24" viewBox="0 0 35 24">
    <g fill="#7990B0" fill-rule="nonzero">
        <path d="M34.182 4.295h-2.327V.81a.727.727 0 0 0-.728-.727c-8.123-.226-12.363 2.182-13.694 3.113C16.087 2.25 11.869-.142 3.738.084a.727.727 0 0 0-.727.727v3.484H.727A.727.727 0 0 0 0 5.022v18.182c0 .401.326.727.727.727h33.455a.727.727 0 0 0 .727-.727V5.022a.727.727 0 0 0-.727-.727zM1.455 22.44V5.713h1.6v13.964a.727.727 0 0 0 .218.523c.14.135.329.209.523.204 5.659-.131 9.353 1.076 11.331 2.036H1.455zm15.272-.807c-1.774-1.04-5.563-2.662-11.92-2.662H4.51V1.517c7.498-.059 11.273 2.261 12.218 2.909v17.207zm1.455-17.164c.953-.683 4.734-2.974 12.218-2.909v17.455c-6.545-.044-10.422 1.607-12.218 2.662V4.469zM33.455 22.44H19.782c1.985-.96 5.636-2.182 11.33-2.007a.727.727 0 0 0 .524-.204.727.727 0 0 0 .219-.523V5.749h1.6V22.44z"/>
        <path d="M29.018 4.484c-3.32.066-6.57.96-9.454 2.603a.745.745 0 1 0 .8 1.259 18.669 18.669 0 0 1 8.654-2.408.727.727 0 0 0 0-1.454zM29.018 7.524c-3.32.066-6.57.96-9.454 2.603a.727.727 0 0 0 .727 1.244 18.67 18.67 0 0 1 8.727-2.393.727.727 0 0 0 0-1.454zM29.018 10.527c-3.32.067-6.57.962-9.454 2.604a.727.727 0 0 0 .727 1.244 18.67 18.67 0 0 1 8.727-2.393.727.727 0 0 0 0-1.455zM29.018 13.597c-3.32.065-6.57.96-9.454 2.603a.727.727 0 0 0 .727 1.244 18.67 18.67 0 0 1 8.727-2.393.727.727 0 0 0 0-1.454zM15.49 7.102a19.905 19.905 0 0 0-9.454-2.604.727.727 0 0 0 0 1.455l.059-.015c3.042.088 6.017.914 8.669 2.408a.727.727 0 0 0 .727-1.244zM15.49 10.127a19.905 19.905 0 0 0-9.454-2.603.727.727 0 0 0 0 1.454h.059c3.04.083 6.016.904 8.669 2.393a.727.727 0 0 0 .727-1.244zM15.49 13.167a19.913 19.913 0 0 0-9.454-2.603.727.727 0 0 0 0 1.454l.059-.036c3.044.094 6.019.928 8.669 2.43a.727.727 0 0 0 .727-1.245zM15.49 16.207a19.905 19.905 0 0 0-9.454-2.603.727.727 0 0 0 0 1.454l.059-.007c3.041.085 6.016.909 8.669 2.4a.727.727 0 0 0 .727-1.244z"/>
    </g>
</svg>
