<?xml version="1.0" encoding="UTF-8"?>
<svg width="18px" height="18px" viewBox="0 0 18 18" version="1.1" xmlns="http://www.w3.org/2000/svg" xmlns:xlink="http://www.w3.org/1999/xlink">
    <!-- Generator: sketchtool 61.2 (101010) - https://sketch.com -->
    <title>8EFF9963-CF2E-4477-AEB5-F05A55349DE6</title>
    <desc>Created with sketchtool.</desc>
    <g id="Proceso-E-Commerce-Propuesta" stroke="none" stroke-width="1" fill="none" fill-rule="evenodd">
        <g id="Oncosalud_Wireframes_Desktop_SeresQueridos4_+60años" transform="translate(-989.000000, -88.000000)" fill="#30C7DB" fill-rule="nonzero">
            <g id="Group-13">
                <g id="close" transform="translate(989.000000, 88.000000)">
                    <path d="M10.5855,8.99475 L17.6595,1.92075 C18.099,1.481625 18.099,0.769125 17.6595,0.33 C17.22,-0.1095 16.50825,-0.1095 16.06875,0.33 L8.99475,7.404 L1.920375,0.33 C1.480875,-0.1095 0.769125,-0.1095 0.329625,0.33 C-0.109875,0.769125 -0.109875,1.481625 0.329625,1.92075 L7.404,8.99475 L0.329625,16.06875 C-0.109875,16.507875 -0.109875,17.220375 0.329625,17.6595 C0.549375,17.878875 0.837375,17.98875 1.125,17.98875 C1.412625,17.98875 1.700625,17.878875 1.920375,17.659125 L8.99475,10.585125 L16.06875,17.659125 C16.2885,17.878875 16.5765,17.98875 16.864125,17.98875 C17.15175,17.98875 17.43975,17.878875 17.6595,17.659125 C18.099,17.22 18.099,16.5075 17.6595,16.068375 L10.5855,8.99475 Z" id="Shape"></path>
                </g>
            </g>
        </g>
    </g>
</svg>