<?xml version="1.0" encoding="UTF-8"?>
<svg width="64px" height="64px" viewBox="0 0 64 64" version="1.1" xmlns="http://www.w3.org/2000/svg" xmlns:xlink="http://www.w3.org/1999/xlink">
    <!-- Generator: sketchtool 61.2 (101010) - https://sketch.com -->
    <title>D68F8B1C-C5D4-42A8-A48D-201617AAC2E2</title>
    <desc>Created with sketchtool.</desc>
    <g id="Proceso-E-Commerce-Propuesta" stroke="none" stroke-width="1" fill="none" fill-rule="evenodd">
        <g id="Oncosalud_Wireframes_Desktop_Correo-2" transform="translate(-688.000000, -112.000000)">
            <g id="Group-13">
                <g id="correo_icon_envio" transform="translate(688.000000, 112.000000)">
                    <circle id="Oval" fill-opacity="0.1" fill="#30C7DB" cx="32" cy="32" r="32"></circle>
                    <g id="email-(1)" transform="translate(14.305882, 17.317647)" fill-rule="nonzero">
                        <path d="M35.4410379,4.08353697 C33.0195742,3.01367929 30.7259857,1.67507241 28.6035017,0.0928076777 C28.4381408,-0.0308351565 28.211412,-0.0308351565 28.0460512,0.0928076777 C25.9235672,1.67507241 23.6299786,3.01367929 21.2085149,4.08353697 C20.7822647,4.27398913 20.5080741,4.69721624 20.5083764,5.16397527 L20.5083764,8.45577531 L3.55994458,8.45577531 C1.76788009,8.45849603 0.256052419,9.79105681 0.0290212873,11.5689129 C0.000906919098,11.6447915 -0.00665071168,11.7267162 0.00665071168,11.8065248 C0.00272074182,11.8760549 -9.28321478e-07,11.9455851 -9.28321478e-07,12.0157199 L-9.28321478e-07,26.520922 C-0.000604610152,27.3564932 0.29414282,28.1654616 0.83194357,28.8048369 C0.867917893,28.8776924 0.923239741,28.9390603 0.991862936,28.98229 C1.66177098,29.6842423 2.58984761,30.0811689 3.55994458,30.0808668 L25.2291724,30.0808668 C26.1983626,30.0811689 27.1255322,29.6851493 27.7954402,28.9844061 C27.8643658,28.9411765 27.9196876,28.8795063 27.9553596,28.8063484 C28.4943695,28.1669732 28.7897216,27.3574002 28.789117,26.520922 L28.789117,17.7371457 C30.0013603,17.3030356 31.1501196,16.7093085 32.2051644,15.9713818 C34.780199,14.1509006 36.1411767,11.7330646 36.1411767,8.9793677 L36.1411767,5.16397527 C36.1411767,4.69721624 35.8672881,4.27398913 35.4410379,4.08353697 Z M3.55994458,9.3844565 L20.5189571,9.3844565 C20.6244615,11.5933997 21.5939539,13.572591 23.351858,15.1820632 L15.9000378,21.6477642 C15.0354453,22.3853886 13.7630432,22.3859932 12.8978461,21.6489734 L0.971003905,11.5501701 C1.19773267,10.2977201 2.28724025,9.38627029 3.55994458,9.3844565 L3.55994458,9.3844565 Z M27.8604379,26.520922 C27.8610404,26.9967502 27.7316539,27.4635093 27.4867867,27.8710165 L20.9040937,21.1740521 C20.7245245,20.9911576 20.4303817,20.9884368 20.2474871,21.1683084 C20.0645925,21.3481798 20.0621741,21.6420204 20.2420456,21.824915 L26.8743166,28.5726666 C26.4084645,28.9481295 25.8277365,29.15279 25.2294747,29.1521867 L3.55994458,29.1521867 C2.96017131,29.15279 2.37853634,28.9472226 1.91207959,28.5702481 L8.50777178,21.8240081 C8.68492251,21.6402066 8.68038792,21.3481798 8.49809802,21.1698199 C8.31550575,20.9914599 8.02347901,20.9938784 7.84390983,21.174959 L1.30021411,27.8673889 C1.05655626,27.4604862 0.928076623,26.9949364 0.92867907,26.520922 L0.92867907,12.7309737 L12.2977705,22.3581812 C13.5109208,23.3902506 15.2942184,23.3881346 16.5046479,22.353042 L24.0716463,15.7875803 C24.1502456,15.8480413 24.2297519,15.9078978 24.3107696,15.9671495 C25.3969518,16.7558635 26.5928707,17.3807281 27.8604379,17.8217911 L27.8604379,26.520922 Z" id="Shape" fill="#30C7DB"></path>
                        <path d="M35.2124999,8.9793677 C35.2124999,10.8536592 34.5271696,12.5118025 33.1725406,13.9287064 L33.1725406,13.9027081 C33.1725406,13.6463534 32.9645547,13.4383675 32.7082,13.4383675 C32.4518453,13.4383675 32.2438594,13.6463534 32.2438594,13.9027081 L32.2438594,14.3522358 C32.2438594,14.4716463 32.2898098,14.5865223 32.3726414,14.6726792 C32.1570979,14.8522484 31.9297644,15.0269807 31.6903388,15.1977831 C30.6428517,15.9305706 29.4974178,16.5128102 28.2875929,16.9263635 C28.2507117,16.9290843 28.2141327,16.9366419 28.178763,16.9481295 C26.9855649,16.53246 25.8597809,15.9435697 24.8373851,15.2011085 C24.6236554,15.0439098 24.4202041,14.8830835 24.2267288,14.718025 C24.3394886,14.6303565 24.4056934,14.4952261 24.4056934,14.3522358 L24.4056934,13.9027081 C24.4056934,13.6463534 24.1977075,13.4383675 23.9413528,13.4383675 C23.6849981,13.4383675 23.4770122,13.6463534 23.4770122,13.9027081 L23.4770122,14.007608 C22.1226855,12.5740773 21.4370529,10.8887266 21.4370529,8.97906541 L21.4370529,5.16367299 C21.436453,5.06361007 21.4947979,4.97261618 21.5860939,4.93150269 C23.9649326,3.87978331 26.2240585,2.57594154 28.3247764,1.04265019 C30.4254944,2.57624382 32.6846203,3.88008567 35.0637612,4.93210734 C35.154755,4.97322083 35.2130998,5.06421464 35.2124999,5.16427764 L35.2124999,8.9793677 Z" id="Path" fill="#FFFFFF"></path>
                        <path d="M28.3247764,13.4383675 C28.0684217,13.4383675 27.8604358,13.6463534 27.8604358,13.9027081 L27.8604358,14.3522358 C27.8604358,14.6088928 28.0684217,14.8165764 28.3247764,14.8165764 C28.5811311,14.8165764 28.789117,14.6088928 28.789117,14.3522358 L28.789117,13.9027081 C28.789117,13.6463534 28.5811311,13.4383675 28.3247764,13.4383675 Z" id="Path" fill="#30C7DB"></path>
                        <path d="M29.7858168,13.4383675 C29.5294621,13.4383675 29.3214762,13.6463534 29.3214762,13.9027081 L29.3214762,14.3522358 C29.3214762,14.6088928 29.5294621,14.8165764 29.7858168,14.8165764 C30.0424738,14.8165764 30.2501574,14.6088928 30.2501574,14.3522358 L30.2501574,13.9027081 C30.2501574,13.6463534 30.0424738,13.4383675 29.7858168,13.4383675 Z" id="Path" fill="#30C7DB"></path>
                        <path d="M31.2471596,13.4383675 C30.9908049,13.4383675 30.782819,13.6463534 30.782819,13.9027081 L30.782819,14.3522358 C30.782819,14.6088928 30.9908049,14.8165764 31.2471596,14.8165764 C31.5035143,14.8165764 31.7115002,14.6088928 31.7115002,14.3522358 L31.7115002,13.9027081 C31.7115002,13.6463534 31.5035143,13.4383675 31.2471596,13.4383675 Z" id="Path" fill="#30C7DB"></path>
                        <path d="M26.863736,13.4383675 C26.607079,13.4383675 26.3993954,13.6463534 26.3993954,13.9027081 L26.3993954,14.3522358 C26.3993954,14.6088928 26.607079,14.8165764 26.863736,14.8165764 C27.1200907,14.8165764 27.3280766,14.6088928 27.3280766,14.3522358 L27.3280766,13.9027081 C27.3280766,13.6463534 27.1200907,13.4383675 26.863736,13.4383675 Z" id="Path" fill="#30C7DB"></path>
                        <path d="M25.4023932,13.4383675 C25.1460385,13.4383675 24.9380526,13.6463534 24.9380526,13.9027081 L24.9380526,14.3522358 C24.9380526,14.6088928 25.1460385,14.8165764 25.4023932,14.8165764 C25.6587479,14.8165764 25.8667338,14.6088928 25.8667338,14.3522358 L25.8667338,13.9027081 C25.8667338,13.6463534 25.6587479,13.4383675 25.4023932,13.4383675 Z" id="Path" fill="#30C7DB"></path>
                        <path d="M30.9481799,7.81851621 C31.068195,7.70182641 31.1162615,7.52951255 31.0736365,7.36747703 C31.0310115,7.2057438 30.904648,7.07938024 30.7426125,7.03675524 C30.5808792,6.99413024 30.4085653,7.04189448 30.2915732,7.16190958 L27.6935634,9.75991937 L26.3576773,8.42373093 C26.2409875,8.3028089 26.0683713,8.25444009 25.9060335,8.29706516 C25.7436957,8.33938779 25.6170299,8.466356 25.5744049,8.62869381 C25.5317798,8.79103162 25.5804509,8.96364783 25.7010706,9.08003527 L27.3655624,10.7448293 C27.5469455,10.9262124 27.840786,10.9262124 28.0221691,10.7448293 L30.9481799,7.81851621 Z" id="Path" fill="#30C7DB"></path>
                    </g>
                </g>
            </g>
        </g>
    </g>
</svg>