<?xml version="1.0" encoding="UTF-8"?>
<svg width="86px" height="52px" viewBox="0 0 86 52" version="1.1" xmlns="http://www.w3.org/2000/svg" xmlns:xlink="http://www.w3.org/1999/xlink">
    <!-- Generator: sketchtool 61.2 (101010) - https://sketch.com -->
    <title>B991B939-3574-415A-8B60-020B253FBA80</title>
    <desc>Created with sketchtool.</desc>
    <defs>
        <polygon id="path-1" points="0.052316 0.13948 27.317796 0.13948 27.317796 21.736744 0.052316 21.736744"></polygon>
        <polygon id="path-3" points="0.10527 0.043406 4.83131 0.043406 4.83131 4.62 0.10527 4.62"></polygon>
        <polygon id="path-5" points="0.108394 0.207108 1.41724 0.207108 1.41724 1.515448 0.108394 1.515448"></polygon>
    </defs>
    <g id="Proceso-E-Commerce-Propuesta" stroke="none" stroke-width="1" fill="none" fill-rule="evenodd">
        <g id="Oncosalud_Wireframes_Desktop_CheckoutPago" transform="translate(-1122.000000, -285.000000)">
            <g id="Diners-Club" transform="translate(1103.000000, 279.000000)">
                <g id="Group-7" transform="translate(19.000000, 6.000000)">
                    <rect id="VISA" x="0" y="0" width="86" height="52"></rect>
                    <g id="Group-82" transform="translate(16.000000, 6.000000)">
                        <g id="Group-3" transform="translate(13.200000, 0.080520)">
                            <mask id="mask-2" fill="white">
                                <use xlink:href="#path-1"></use>
                            </mask>
                            <g id="Clip-2"></g>
                            <path d="M16.025196,21.736744 C21.929116,21.765436 27.317796,16.923236 27.317796,11.031856 C27.317796,4.590476 21.929116,0.137676 16.025196,0.139435478 L10.944076,0.139435478 C4.970196,0.137676 0.052316,4.591136 0.052316,11.031856 C0.052316,16.924556 4.970196,21.765436 10.944076,21.736744 L16.025196,21.736744 Z" id="Fill-1" fill="#0064A7" mask="url(#mask-2)"></path>
                        </g>
                        <path d="M24.16821,1.112848 C18.70913,1.114608 14.28493,5.539248 14.28383,10.999648 C14.28493,16.459388 18.70913,20.882928 24.16821,20.884688 C29.62905,20.882928 34.05391,16.459388 34.05457,10.999648 C34.05391,5.539248 29.62905,1.114608 24.16821,1.112848 M17.90283,10.999648 C17.90811,8.331488 19.57483,6.056028 21.92487,5.151168 L21.92487,16.846588 C19.57483,15.942388 17.90811,13.668468 17.90283,10.999648 M26.41067,16.848568 L26.41067,5.151168 C28.76203,6.052948 30.43139,8.329508 30.43535,10.999648 C30.43139,13.669788 28.76203,15.945028 26.41067,16.848568" id="Fill-4" fill="#FEFEFE"></path>
                        <path d="M1.089154,23.83194 C1.089154,22.80498 0.553234,22.87252 0.039974,22.86174 L0.039974,22.56474 C0.485034,22.58674 0.941314,22.58674 1.387254,22.58674 C1.866634,22.58674 2.517394,22.56474 3.362854,22.56474 C6.319654,22.56474 7.929614,24.53924 7.929614,26.56126 C7.929614,27.69228 7.267414,30.53512 3.225354,30.53512 C2.643454,30.53512 2.106214,30.51224 1.569634,30.51224 C1.056374,30.51224 0.553234,30.52346 0.039974,30.53512 L0.039974,30.23812 C0.724394,30.16948 1.056374,30.1466 1.089154,29.37022 L1.089154,23.83194 Z M2.208294,29.18762 C2.208294,30.06674 2.837054,30.16948 3.396074,30.16948 C5.863154,30.16948 6.672974,28.3085 6.672974,26.6068 C6.672974,24.4717 5.302814,22.93082 3.099514,22.93082 C2.630474,22.93082 2.414874,22.96448 2.208294,22.97636 L2.208294,29.18762 Z" id="Fill-6" fill="#0064A7"></path>
                        <path d="M8.329596,30.238142 L8.546516,30.238142 C8.865516,30.238142 9.094096,30.238142 9.094096,29.860402 L9.094096,26.766762 C9.094096,26.264722 8.923156,26.195202 8.500316,25.967942 L8.500316,25.785342 C9.036896,25.624522 9.676876,25.408482 9.721976,25.374162 C9.802496,25.328622 9.870256,25.316522 9.927896,25.316522 C9.984216,25.316522 10.007756,25.385162 10.007756,25.477122 L10.007756,29.860402 C10.007756,30.238142 10.258996,30.238142 10.579096,30.238142 L10.772696,30.238142 L10.772696,30.535142 C10.384176,30.535142 9.984216,30.512262 9.574356,30.512262 C9.162956,30.512262 8.751776,30.523482 8.329596,30.535142 L8.329596,30.238142 Z M9.551476,23.558722 C9.254036,23.558722 8.991796,23.284602 8.991796,22.987602 C8.991796,22.701382 9.266356,22.438482 9.551476,22.438482 C9.847376,22.438482 10.110716,22.679162 10.110716,22.987602 C10.110716,23.296042 9.859036,23.558722 9.551476,23.558722 L9.551476,23.558722 Z" id="Fill-8" fill="#0064A7"></path>
                        <path d="M11.857648,26.835028 C11.857648,26.413068 11.731588,26.299108 11.195888,26.082188 L11.195888,25.865268 C11.686268,25.705328 12.153768,25.556608 12.702448,25.316588 C12.736768,25.316588 12.770208,25.340128 12.770208,25.430328 L12.770208,26.172828 C13.421628,25.705328 13.981528,25.316588 14.747568,25.316588 C15.717108,25.316588 16.059648,26.024548 16.059648,26.915328 L16.059648,29.860468 C16.059648,30.238208 16.310888,30.238208 16.630548,30.238208 L16.836468,30.238208 L16.836468,30.534988 C16.435628,30.534988 16.036328,30.512328 15.626248,30.512328 C15.214408,30.512328 14.803668,30.523548 14.392268,30.534988 L14.392268,30.238208 L14.597968,30.238208 C14.918068,30.238208 15.145108,30.238208 15.145108,29.860468 L15.145108,26.904108 C15.145108,26.252908 14.747568,25.933468 14.095928,25.933468 C13.730728,25.933468 13.148168,26.230028 12.770208,26.481928 L12.770208,29.860468 C12.770208,30.238208 13.022548,30.238208 13.342428,30.238208 L13.547688,30.238208 L13.547688,30.534988 C13.148168,30.534988 12.747988,30.512328 12.336808,30.512328 C11.926288,30.512328 11.514668,30.523548 11.103928,30.534988 L11.103928,30.238208 L11.309848,30.238208 C11.629508,30.238208 11.857648,30.238208 11.857648,29.860468 L11.857648,26.835028 Z" id="Fill-10" fill="#0064A7"></path>
                        <path d="M17.704632,27.38373 C17.680872,27.48691 17.680872,27.65741 17.704632,28.04637 C17.771952,29.13075 18.469792,30.02109 19.381912,30.02109 C20.010892,30.02109 20.502372,29.67833 20.924112,29.25637 L21.083392,29.41609 C20.558032,30.11261 19.907492,30.70661 18.972052,30.70661 C17.155732,30.70661 16.790532,28.94771 16.790532,28.21731 C16.790532,25.97859 18.297312,25.31661 19.096132,25.31661 C20.021892,25.31661 21.016072,25.89873 21.026412,27.10917 C21.026412,27.17825 21.026412,27.24623 21.016072,27.31531 L20.912232,27.38373 L17.704632,27.38373 Z M19.725772,27.01809 C20.010892,27.01809 20.044112,26.86937 20.044112,26.73275 C20.044112,26.15063 19.690352,25.68225 19.050812,25.68225 C18.354732,25.68225 17.875352,26.19529 17.738292,27.01809 L19.725772,27.01809 Z" id="Fill-12" fill="#0064A7"></path>
                        <path d="M21.28951,30.238142 L21.59773,30.238142 C21.91673,30.238142 22.14531,30.238142 22.14531,29.860402 L22.14531,26.652802 C22.14531,26.299262 21.72291,26.229962 21.55131,26.138882 L21.55131,25.967942 C22.38489,25.613742 22.84183,25.316522 22.94611,25.316522 C23.01299,25.316522 23.04731,25.350842 23.04731,25.465682 L23.04731,26.493082 L23.07173,26.493082 C23.35619,26.047802 23.83623,25.316522 24.53231,25.316522 C24.81809,25.316522 25.18307,25.510342 25.18307,25.921522 C25.18307,26.229962 24.96659,26.504962 24.64693,26.504962 C24.29163,26.504962 24.29163,26.229962 23.89255,26.229962 C23.69807,26.229962 23.05897,26.493082 23.05897,27.178382 L23.05897,29.860402 C23.05897,30.238142 23.28689,30.238142 23.60699,30.238142 L24.24587,30.238142 L24.24587,30.535142 C23.61777,30.523482 23.13993,30.512262 22.64823,30.512262 C22.18029,30.512262 21.70047,30.523482 21.28951,30.535142 L21.28951,30.238142 Z" id="Fill-14" fill="#0064A7"></path>
                        <path d="M25.68544,28.947798 C25.83416,29.701078 26.29044,30.340838 27.12446,30.340838 C27.79722,30.340838 28.04802,29.929658 28.04802,29.530358 C28.04802,28.182858 25.56004,28.616478 25.56004,26.778818 C25.56004,26.138838 26.0744,25.316478 27.32994,25.316478 C27.6947,25.316478 28.18552,25.419658 28.6308,25.648238 L28.71088,26.811818 L28.44864,26.811818 C28.33446,26.093298 27.93494,25.682558 27.20344,25.682558 C26.7465,25.682558 26.31332,25.945238 26.31332,26.435838 C26.31332,27.772558 28.96234,27.360498 28.96234,29.153278 C28.96234,29.906338 28.35734,30.706478 26.99818,30.706478 C26.54146,30.706478 26.00466,30.546758 25.60558,30.318398 L25.4793,29.005438 L25.68544,28.947798 Z" id="Fill-16" fill="#0064A7"></path>
                        <path d="M39.272574,24.631156 L38.987674,24.631156 C38.770314,23.296196 37.822334,22.758956 36.544354,22.758956 C35.230514,22.758956 33.323114,23.637636 33.323114,26.378176 C33.323114,28.685756 34.968934,30.340816 36.726294,30.340816 C37.856434,30.340816 38.793414,29.564876 39.021994,28.365216 L39.284454,28.433416 L39.021994,30.100576 C38.542394,30.398456 37.251874,30.706456 36.497934,30.706456 C33.826694,30.706456 32.137094,28.982096 32.137094,26.413156 C32.137094,24.072136 34.226214,22.392876 36.463834,22.392876 C37.388714,22.392876 38.279494,22.690756 39.158174,22.999196 L39.272574,24.631156 Z" id="Fill-18" fill="#0064A7"></path>
                        <path d="M39.684216,30.238142 L39.900256,30.238142 C40.220796,30.238142 40.449596,30.238142 40.449596,29.860402 L40.449596,23.501522 C40.449596,22.759022 40.277996,22.736142 39.844376,22.610742 L39.844376,22.428142 C40.300876,22.279862 40.780256,22.074602 41.020056,21.936662 C41.145016,21.868682 41.236976,21.810602 41.270636,21.810602 C41.339716,21.810602 41.363036,21.879902 41.363036,21.971422 L41.363036,29.860402 C41.363036,30.238142 41.613836,30.238142 41.934156,30.238142 L42.127096,30.238142 L42.127096,30.535142 C41.739896,30.535142 41.339716,30.512262 40.928976,30.512262 C40.518236,30.512262 40.107056,30.523482 39.684216,30.535142 L39.684216,30.238142 Z" id="Fill-20" fill="#0064A7"></path>
                        <path d="M47.01554,29.906426 C47.01554,30.112566 47.14028,30.123346 47.33432,30.123346 C47.4716,30.123346 47.64254,30.112566 47.79148,30.112566 L47.79148,30.352806 C47.3,30.398346 46.36368,30.638146 46.14676,30.706566 L46.08956,30.672026 L46.08956,29.747366 C45.40536,30.306826 44.87956,30.706566 44.06798,30.706566 C43.45132,30.706566 42.81244,30.306826 42.81244,29.348286 L42.81244,26.424266 C42.81244,26.127266 42.7669,25.841926 42.12824,25.785386 L42.12824,25.567806 C42.53942,25.556806 43.45132,25.488386 43.60048,25.488386 C43.72698,25.488386 43.72698,25.567806 43.72698,25.819266 L43.72698,28.764846 C43.72698,29.107606 43.72698,30.089466 44.71962,30.089466 C45.1077,30.089466 45.62162,29.792466 46.10078,29.393826 L46.10078,26.321086 C46.10078,26.093386 45.55298,25.968426 45.14268,25.854026 L45.14268,25.648326 C46.16898,25.579466 46.8094,25.488386 46.92358,25.488386 C47.01554,25.488386 47.01554,25.567806 47.01554,25.694306 L47.01554,29.906426 Z" id="Fill-22" fill="#0064A7"></path>
                        <path d="M49.287304,26.138486 C49.743584,25.750846 50.360684,25.316566 50.988564,25.316566 C52.313184,25.316566 53.112004,26.470686 53.112004,27.714566 C53.112004,29.210346 52.015744,30.706566 50.382684,30.706566 C49.538544,30.706566 49.093044,30.432446 48.795824,30.306826 L48.453724,30.569066 L48.214804,30.443886 C48.315784,29.770246 48.374084,29.107606 48.374084,28.411086 L48.374084,23.501566 C48.374084,22.759066 48.201824,22.736186 47.768424,22.610786 L47.768424,22.428186 C48.226024,22.279906 48.704744,22.074426 48.944324,21.936926 C49.070164,21.868726 49.161024,21.811086 49.196224,21.811086 C49.264644,21.811086 49.287304,21.879946 49.287304,21.971466 L49.287304,26.138486 Z M49.287304,29.244226 C49.287304,29.678286 49.698044,30.409566 50.463204,30.409566 C51.684864,30.409566 52.198344,29.210346 52.198344,28.193726 C52.198344,26.960846 51.262904,25.933446 50.372564,25.933446 C49.948624,25.933446 49.595304,26.208006 49.287304,26.470686 L49.287304,29.244226 Z" id="Fill-24" fill="#0064A7"></path>
                        <path d="M0.026972,37.17373 L0.114312,37.17373 C0.337832,37.17373 0.573672,37.14315 0.573672,36.82019 L0.573672,33.56529 C0.573672,33.24123 0.337832,33.21021 0.114312,33.21021 L0.026972,33.21021 L0.026972,33.02387 C0.269412,33.02387 0.642092,33.04873 0.947452,33.04873 C1.257652,33.04873 1.630112,33.02387 1.922052,33.02387 L1.922052,33.21021 L1.834712,33.21021 C1.612072,33.21021 1.375352,33.24123 1.375352,33.56529 L1.375352,36.82019 C1.375352,37.14315 1.612072,37.17373 1.834712,37.17373 L1.922052,37.17373 L1.922052,37.36117 C1.623952,37.36117 1.250392,37.33653 0.940852,37.33653 C0.636152,37.33653 0.269412,37.36117 0.026972,37.36117 L0.026972,37.17373 Z" id="Fill-26" fill="#0064A7"></path>
                        <path d="M1.922206,37.387284 C1.621686,37.387284 1.249886,37.362424 0.940566,37.362424 C0.636526,37.362424 0.270886,37.387284 0.026906,37.387284 L6.6e-05,37.387284 L6.6e-05,37.360664 L6.6e-05,37.174104 L6.6e-05,37.147044 L0.026906,37.147044 L0.113586,37.147044 C0.339526,37.141984 0.544346,37.123944 0.546546,36.820124 L0.546546,33.565224 C0.544346,33.260964 0.339526,33.241164 0.113586,33.237424 L6.6e-05,33.237424 L6.6e-05,33.210364 L6.6e-05,32.996744 L0.026906,32.996744 C0.270886,32.996744 0.643566,33.021164 0.947386,33.021164 C1.256486,33.021164 1.628286,32.996744 1.922206,32.996744 L1.949706,32.996744 L1.949706,33.024684 L1.949706,33.237424 L1.922206,33.237424 L1.835306,33.237424 C1.609586,33.241164 1.403666,33.260964 1.402346,33.565224 L1.402346,36.820124 C1.403666,37.123944 1.609586,37.141984 1.835306,37.147044 L1.949706,37.147044 L1.949706,37.174104 L1.949706,37.387284 L1.922206,37.387284 Z M1.895366,37.334484 L1.895586,37.201604 L1.835306,37.201604 C1.613546,37.201604 1.349106,37.162884 1.348006,36.820124 L1.348006,33.565224 C1.349106,33.221804 1.613546,33.183304 1.835306,33.183304 L1.895366,33.183304 L1.895366,33.050864 C1.608266,33.051304 1.248786,33.075724 0.947386,33.075724 C0.652366,33.075724 0.295086,33.052624 0.054626,33.050864 L0.054626,33.183304 L0.113586,33.183304 C0.335346,33.183304 0.600006,33.221804 0.600006,33.565224 L0.600006,36.820124 C0.600006,37.162884 0.335346,37.201604 0.113586,37.201604 L0.054626,37.201604 L0.054626,37.334484 C0.295086,37.331844 0.645986,37.309184 0.940566,37.309184 C1.243066,37.309184 1.602326,37.332724 1.895366,37.334484 L1.895366,37.334484 Z" id="Fill-28" fill="#0064A7"></path>
                        <path d="M6.190404,36.136474 L6.202944,36.123934 L6.202944,33.794574 C6.202944,33.285054 5.848304,33.210254 5.662184,33.210254 L5.525344,33.210254 L5.525344,33.023914 C5.817504,33.023914 6.103504,33.048774 6.395224,33.048774 C6.649544,33.048774 6.905404,33.023914 7.159284,33.023914 L7.159284,33.210254 L7.066664,33.210254 C6.805084,33.210254 6.513144,33.260194 6.513144,33.999614 L6.513144,36.827054 C6.513144,37.043974 6.519524,37.261334 6.549884,37.453834 L6.314044,37.453834 L3.114804,33.887414 L3.114804,36.447554 C3.114804,36.987654 3.219524,37.173774 3.698464,37.173774 L3.803844,37.173774 L3.803844,37.360994 C3.536984,37.360994 3.270124,37.336574 3.002384,37.336574 C2.723864,37.336574 2.437644,37.360994 2.157804,37.360994 L2.157804,37.173774 L2.244704,37.173774 C2.673484,37.173774 2.803724,36.882494 2.803724,36.385734 L2.803724,33.768834 C2.803724,33.421674 2.517284,33.210254 2.238984,33.210254 L2.157804,33.210254 L2.157804,33.023914 C2.393644,33.023914 2.636084,33.048774 2.871704,33.048774 C3.058264,33.048774 3.238884,33.023914 3.425004,33.023914 L6.190404,36.136474 Z" id="Fill-30" fill="#0064A7"></path>
                        <path d="M6.550038,37.48052 L6.293738,37.4715 L3.141138,33.95744 L3.141138,36.44762 C3.148618,36.98772 3.230678,37.14106 3.698398,37.147 L3.831498,37.147 L3.831498,37.17362 L3.831498,37.38724 L3.803778,37.38724 C3.535158,37.38724 3.267638,37.36238 3.002538,37.36238 C2.724458,37.36238 2.439118,37.38724 2.157298,37.38724 L2.130238,37.38724 L2.130238,37.36062 L2.130238,37.147 L2.157298,37.147 L2.244858,37.147 C2.655378,37.14458 2.772638,36.88102 2.777478,36.38558 L2.777478,33.76934 C2.776158,33.4389 2.505118,33.23738 2.238918,33.23738 L2.130238,33.23738 L2.130238,33.209 L2.130238,32.99714 L2.157298,32.99714 C2.394898,32.99714 2.637778,33.02112 2.871198,33.02112 C3.056438,33.02112 3.235958,32.99714 3.445398,33.0066 L6.176038,36.08022 L6.176038,33.79508 C6.172738,33.30096 5.843178,33.24112 5.662118,33.23738 L5.497778,33.23738 L5.497778,33.209 L5.497778,32.99714 L5.525278,32.99714 C5.818538,32.99714 6.104758,33.02112 6.395158,33.02112 C6.648158,33.02112 6.902698,32.99714 7.159438,32.99714 L7.186498,32.99714 L7.186498,33.0242 L7.186498,33.23738 L7.159438,33.23738 L7.066818,33.23738 C6.810298,33.2442 6.547178,33.26708 6.539918,33.99924 L6.539918,36.8269 C6.539918,37.0436 6.546298,37.26008 6.576438,37.44906 L6.582158,37.48052 L6.550038,37.48052 Z M6.313978,37.4264 L6.519678,37.4264 C6.491518,37.2394 6.486898,37.03282 6.486898,36.8269 L6.486898,33.99924 C6.486898,33.2541 6.799078,33.18326 7.066818,33.18326 L7.132378,33.18326 L7.132378,33.05082 C6.887518,33.05258 6.641998,33.07546 6.395158,33.07546 C6.110918,33.07546 5.833938,33.05258 5.552998,33.05082 L5.552558,33.18326 L5.662118,33.18326 C5.853078,33.18326 6.229718,33.2684 6.229718,33.79508 L6.221578,36.14292 L6.209038,36.1559 L6.187918,36.17504 L3.424938,33.05082 C3.240578,33.05082 3.060618,33.07546 2.871198,33.07546 C2.643498,33.07546 2.410298,33.05258 2.184798,33.05082 L2.183918,33.18326 L2.238918,33.18326 C2.530418,33.18326 2.830278,33.4059 2.830278,33.76934 L2.830278,36.38558 C2.830278,36.88278 2.691678,37.20046 2.244858,37.20244 L2.184798,37.20046 L2.184798,37.33444 C2.454298,37.3318 2.731058,37.30914 3.002538,37.30914 C3.261918,37.30914 3.520638,37.3318 3.776938,37.33444 L3.776938,37.20244 L3.698398,37.20244 C3.209558,37.20046 3.088338,36.98772 3.087678,36.44762 L3.087678,33.81752 L6.313978,37.4264 Z" id="Fill-32" fill="#0064A7"></path>
                        <path d="M8.090038,33.334466 C7.623418,33.334466 7.605818,33.446666 7.512538,33.899426 L7.325978,33.899426 C7.350618,33.725846 7.381638,33.551826 7.400998,33.371426 C7.425638,33.197406 7.437958,33.023826 7.437958,32.844086 L7.586898,32.844086 C7.637058,33.030646 7.792158,33.023826 7.960678,33.023826 L11.165418,33.023826 C11.333938,33.023826 11.488818,33.018326 11.501358,32.831326 L11.649858,32.856186 C11.625878,33.023826 11.600798,33.191906 11.582318,33.359326 C11.570218,33.527406 11.570218,33.695486 11.570218,33.862466 L11.383658,33.931766 C11.370898,33.701866 11.339658,33.334466 10.923638,33.334466 L9.905038,33.334466 L9.905038,36.639966 C9.905038,37.119126 10.122618,37.173686 10.419838,37.173686 L10.538418,37.173686 L10.538418,37.361126 C10.296198,37.361126 9.861038,37.336486 9.525978,37.336486 C9.153298,37.336486 8.717698,37.361126 8.475038,37.361126 L8.475038,37.173686 L8.593618,37.173686 C8.936378,37.173686 9.109078,37.143326 9.109078,36.652946 L9.109078,33.334466 L8.090038,33.334466 Z" id="Fill-34" fill="#0064A7"></path>
                        <path d="M10.539056,37.387284 C10.294636,37.387284 9.860136,37.362424 9.525956,37.362424 C9.153716,37.362424 8.719216,37.387284 8.475236,37.387284 L8.449276,37.387284 L8.449276,37.361104 L8.449276,37.147044 L8.475236,37.147044 L8.593596,37.147044 C8.936356,37.138904 9.073856,37.134724 9.081556,36.652924 L9.081556,33.361504 L8.090016,33.361504 L8.090016,33.334884 L8.090016,33.306944 L9.135676,33.306944 L9.135676,36.652924 C9.135676,37.151444 8.934816,37.201604 8.593596,37.202484 L8.502076,37.202484 L8.502076,37.333164 C8.747156,37.331844 9.165376,37.309184 9.525956,37.309184 C9.850016,37.309184 10.265156,37.331844 10.510896,37.333164 L10.510896,37.202484 L10.419816,37.202484 C10.119736,37.201604 9.878176,37.128124 9.878176,36.640164 L9.878176,33.306944 L10.923836,33.306944 C11.340956,33.308264 11.395296,33.662684 11.409156,33.893464 L11.543136,33.844184 C11.543136,33.682484 11.544016,33.519684 11.555236,33.356004 C11.573276,33.196064 11.596156,33.037664 11.619696,32.879044 L11.524656,32.863204 C11.495616,33.043604 11.321156,33.053064 11.164956,33.051304 L7.960656,33.051304 L7.928316,33.051304 C7.782456,33.051304 7.622736,33.044484 7.567296,32.870904 L7.464556,32.870904 C7.463676,33.042724 7.451576,33.209044 7.427596,33.374924 C7.409556,33.545424 7.381176,33.709544 7.358296,33.873664 L7.490956,33.873664 C7.573016,33.440924 7.626256,33.300564 8.090016,33.306944 L8.090016,33.334884 L8.090016,33.361504 C7.630436,33.369644 7.640336,33.447084 7.538916,33.906444 L7.534296,33.927344 L7.512516,33.927344 L7.294936,33.927344 L7.298456,33.895224 C7.323756,33.721644 7.355216,33.547624 7.373696,33.367224 C7.399216,33.194744 7.411096,33.022484 7.411096,32.844284 L7.411096,32.816784 L7.437936,32.816784 L7.608216,32.816784 L7.612836,32.836364 C7.655076,32.993224 7.770136,32.994104 7.928316,32.996744 L7.960656,32.996744 L11.164956,32.996744 C11.337876,32.994104 11.464156,32.991684 11.474716,32.829104 L11.477136,32.799844 L11.505296,32.805564 L11.680416,32.833504 L11.676236,32.860564 C11.651816,33.026884 11.627176,33.194744 11.608916,33.361504 C11.596816,33.527384 11.596816,33.694584 11.596816,33.862664 L11.596816,33.881364 L11.579216,33.888844 L11.359216,33.969144 L11.357456,33.932624 C11.340956,33.699644 11.316316,33.361504 10.923836,33.361504 L9.932076,33.361504 L9.932076,36.640164 C9.938016,37.108324 10.123696,37.141104 10.419816,37.147044 L10.565456,37.147044 L10.565456,37.173664 L10.565456,37.387284 L10.539056,37.387284 Z" id="Fill-36" fill="#0064A7"></path>
                        <path d="M11.848408,37.17373 L11.935748,37.17373 C12.159268,37.17373 12.395108,37.14315 12.395108,36.82019 L12.395108,33.56529 C12.395108,33.24123 12.159268,33.21021 11.935748,33.21021 L11.848408,33.21021 L11.848408,33.02387 C12.226588,33.02387 12.874048,33.04873 13.394568,33.04873 C13.917508,33.04873 14.562768,33.02387 14.985168,33.02387 C14.974388,33.29073 14.980548,33.70191 14.998588,33.97471 L14.811588,34.02465 C14.781448,33.62073 14.707088,33.29799 14.054128,33.29799 L13.191288,33.29799 L13.191288,34.92511 L13.929828,34.92511 C14.302508,34.92511 14.383688,34.71457 14.420648,34.37863 L14.606768,34.37863 C14.594228,34.62129 14.588068,34.86329 14.588068,35.10573 C14.588068,35.34201 14.594228,35.57785 14.606768,35.81369 L14.420648,35.85065 C14.383688,35.47863 14.364768,35.23619 13.935548,35.23619 L13.191288,35.23619 L13.191288,36.68335 C13.191288,37.08727 13.550548,37.08727 13.948088,37.08727 C14.694108,37.08727 15.023228,37.03755 15.209568,36.32981 L15.383148,36.37227 C15.302408,36.70271 15.228048,37.03117 15.172608,37.36117 C14.774628,37.36117 14.060288,37.33653 13.501708,37.33653 C12.941588,37.33653 12.202608,37.36117 11.848408,37.36117 L11.848408,37.17373 Z" id="Fill-38" fill="#0064A7"></path>
                        <path d="M15.172256,37.387284 C14.773616,37.387284 14.058836,37.361984 13.501136,37.361984 C12.941456,37.361984 12.203136,37.387284 11.848496,37.387284 L11.821876,37.387284 L11.821876,37.361104 L11.821876,37.173664 L11.821876,37.147044 L11.848496,37.147044 L11.935836,37.147044 C12.160896,37.143304 12.364836,37.123944 12.367696,36.820124 L12.367696,33.565224 C12.364836,33.261844 12.160896,33.241604 11.935836,33.237424 L11.821876,33.237424 L11.821876,33.210364 L11.821876,32.997184 L11.848496,32.997184 C12.227556,32.997184 12.874136,33.021164 13.394656,33.021164 C13.917156,33.021164 14.562196,32.997184 14.985036,32.997184 L15.012756,32.997184 L15.011876,33.025124 C15.007256,33.118844 15.005496,33.229284 15.005496,33.346104 C15.005496,33.560824 15.011876,33.795564 15.024416,33.972664 L15.024856,33.995324 L15.004396,34.001264 L14.786376,34.058024 L14.784616,34.026344 C14.748096,33.623304 14.693976,33.330264 14.054216,33.324544 L13.217116,33.324544 L13.216676,34.897324 L13.929916,34.897324 C14.287636,34.893804 14.351656,34.710764 14.393676,34.375924 L14.395876,34.351064 L14.420296,34.351064 L14.634356,34.351064 L14.633476,34.379444 C14.621816,34.621444 14.614116,34.863224 14.614116,35.105664 C14.614116,35.340624 14.621816,35.576684 14.633476,35.812964 L14.634356,35.834744 L14.611916,35.840024 L14.395876,35.882924 L14.393676,35.854104 C14.351216,35.474384 14.348136,35.266704 13.935636,35.262084 L13.217116,35.262084 L13.217116,36.683504 C13.217556,37.060364 13.543596,37.058604 13.948396,37.060364 C14.696176,37.055964 14.996476,37.019444 15.183476,36.322044 L15.189856,36.297184 L15.215596,36.301804 L15.415136,36.353064 L15.409416,36.379244 C15.328236,36.707484 15.254316,37.036604 15.198876,37.365284 L15.194036,37.387284 L15.172256,37.387284 Z M15.149376,37.333164 C15.203496,37.019444 15.274556,36.705284 15.350896,36.392664 L15.228136,36.362084 C15.042016,37.057284 14.681876,37.119104 13.948396,37.114484 C13.557016,37.114484 13.165196,37.114484 13.163436,36.683504 L13.163436,35.209284 L13.935636,35.209284 C14.369476,35.204444 14.413476,35.466244 14.444056,35.819784 L14.578916,35.791404 C14.566816,35.563264 14.561096,35.333804 14.561096,35.105664 C14.561096,34.871804 14.566816,34.639044 14.578916,34.404744 L14.444056,34.404744 C14.409516,34.729244 14.308096,34.956064 13.929916,34.952324 L13.163436,34.952324 L13.163436,33.269984 L14.054216,33.269984 C14.700576,33.265364 14.807936,33.599104 14.835436,33.989824 L14.969416,33.954184 C14.958636,33.778404 14.951816,33.553564 14.951816,33.346104 C14.951816,33.239404 14.954016,33.138864 14.957316,33.051304 C14.535136,33.052624 13.905936,33.075284 13.394656,33.075284 C12.884256,33.075284 12.255936,33.052624 11.875336,33.051304 L11.875336,33.183304 L11.935836,33.183304 C12.157156,33.183304 12.421376,33.221804 12.422696,33.565224 L12.422696,36.820124 C12.421376,37.162884 12.157156,37.200284 11.935836,37.202484 L11.875336,37.202484 L11.875336,37.333164 C12.237456,37.332724 12.955096,37.309184 13.501136,37.309184 C14.049376,37.309184 14.748976,37.332724 15.149376,37.333164 L15.149376,37.333164 Z" id="Fill-40" fill="#0064A7"></path>
                        <path d="M16.221986,33.682088 C16.221986,33.229108 15.973386,33.210628 15.780446,33.210628 L15.668466,33.210628 L15.668466,33.023848 C15.867566,33.023848 16.252566,33.048708 16.631626,33.048708 C17.004086,33.048708 17.302406,33.023848 17.631746,33.023848 C18.413846,33.023848 19.110806,33.234828 19.110806,34.118128 C19.110806,34.676488 18.737906,35.017928 18.247306,35.211748 L19.309246,36.800808 C19.483486,37.063708 19.607126,37.137188 19.912046,37.173708 L19.912046,37.361148 C19.706786,37.361148 19.507906,37.336508 19.303306,37.336508 C19.110806,37.336508 18.911486,37.361148 18.719426,37.361148 C18.241146,36.733708 17.830406,36.062488 17.426926,35.347048 L17.017506,35.347048 L17.017506,36.677388 C17.017506,37.156108 17.240806,37.173708 17.525706,37.173708 L17.638126,37.173708 L17.638126,37.361148 C17.283266,37.361148 16.924226,37.336508 16.569366,37.336508 C16.271046,37.336508 15.979106,37.361148 15.668466,37.361148 L15.668466,37.173708 L15.780446,37.173708 C16.011006,37.173708 16.221986,37.069208 16.221986,36.839088 L16.221986,33.682088 Z M17.017506,35.123308 L17.320666,35.123308 C17.942826,35.123308 18.277666,34.887688 18.277666,34.154208 C18.277666,33.602228 17.923906,33.248028 17.370166,33.248028 C17.183386,33.248028 17.104186,33.266948 17.017506,33.272668 L17.017506,35.123308 Z" id="Fill-42" fill="#0064A7"></path>
                        <path d="M19.912156,37.387284 C19.703816,37.387284 19.506256,37.362424 19.302096,37.362424 C19.112676,37.362424 18.914456,37.387284 18.697536,37.376944 C18.221016,36.751704 17.812476,36.084444 17.410976,35.375164 L17.043796,35.375164 L17.043796,36.676684 C17.050396,37.144184 17.238276,37.140224 17.525816,37.147044 L17.665076,37.147044 L17.665076,37.173664 L17.665076,37.387284 L17.637136,37.387284 C17.282056,37.387284 16.921256,37.362424 16.568816,37.362424 C16.272036,37.362424 15.980536,37.387284 15.668356,37.387284 L15.641516,37.387284 L15.641516,37.360664 L15.641516,37.147044 L15.668356,37.147044 L15.780776,37.147044 C16.004516,37.145284 16.192836,37.048264 16.194156,36.839044 L16.194156,33.682044 C16.189316,33.241604 15.973716,33.243804 15.780776,33.237424 L15.641516,33.237424 L15.641516,33.210364 L15.641516,32.996744 L15.668356,32.996744 C15.869656,32.996744 16.253116,33.021164 16.631956,33.021164 C17.002876,33.021164 17.300976,32.996744 17.631856,32.996744 C18.415056,32.998504 19.135776,33.214544 19.137756,34.116984 C19.137756,34.677764 18.767496,35.027784 18.287896,35.223364 L19.331576,36.786244 C19.505156,37.043864 19.613616,37.108324 19.916116,37.147044 L19.938336,37.150564 L19.938336,37.173664 L19.938336,37.387284 L19.912156,37.387284 Z M17.016956,35.320824 L17.441556,35.320824 L17.449256,35.334244 C17.854056,36.047924 18.261936,36.718704 18.719536,37.334484 C18.909176,37.334484 19.108716,37.309184 19.302096,37.309184 C19.500536,37.309184 19.691936,37.330524 19.885096,37.333164 L19.885096,37.197424 C19.593376,37.161344 19.457196,37.074004 19.287356,36.816164 L18.205836,35.198944 L18.236856,35.186404 C18.722836,34.994784 19.082756,34.662584 19.083416,34.116984 C19.082756,33.255024 18.412636,33.054824 17.631856,33.050864 C17.304276,33.050864 17.005956,33.075724 16.631956,33.075724 C16.266756,33.075724 15.898476,33.052624 15.694756,33.050864 L15.694756,33.183304 L15.780776,33.183304 C15.973716,33.183304 16.248276,33.215424 16.248276,33.682044 L16.248276,36.839044 C16.248276,37.088744 16.014416,37.201604 15.780776,37.202484 L15.694756,37.202484 L15.694756,37.333164 C15.993736,37.332724 16.277536,37.309184 16.568816,37.309184 C16.916416,37.309184 17.266656,37.332724 17.610736,37.333164 L17.610736,37.202484 L17.525816,37.202484 C17.242236,37.201604 16.989896,37.166844 16.989896,36.676684 L16.989896,35.320824 L17.016956,35.320824 Z M17.016956,35.149884 L16.989896,35.149884 L16.989896,33.248204 L17.013656,33.245564 C17.098356,33.238744 17.182396,33.221804 17.370056,33.221804 C17.936116,33.221804 18.304176,33.589204 18.305056,34.155704 C18.303516,34.897324 17.947556,35.149444 17.320776,35.149884 L17.016956,35.149884 Z M17.320776,35.096644 C17.936116,35.091364 18.245876,34.877964 18.251816,34.155704 C18.248516,33.613404 17.911476,33.276364 17.370056,33.274384 C17.202196,33.274384 17.123216,33.289344 17.043796,33.296604 L17.043796,35.096644 L17.320776,35.096644 Z" id="Fill-44" fill="#0064A7"></path>
                        <path d="M24.130392,36.136474 L24.141612,36.123934 L24.141612,33.794574 C24.141612,33.285054 23.787852,33.210254 23.601732,33.210254 L23.465552,33.210254 L23.465552,33.023914 C23.757272,33.023914 24.042392,33.048774 24.335212,33.048774 C24.590192,33.048774 24.843632,33.023914 25.100152,33.023914 L25.100152,33.210254 L25.006432,33.210254 C24.745732,33.210254 24.453352,33.260194 24.453352,33.999614 L24.453352,36.827054 C24.453352,37.043974 24.459512,37.261334 24.490312,37.453834 L24.254252,37.453834 L21.055012,33.887414 L21.055012,36.447554 C21.055012,36.987654 21.160392,37.173774 21.639112,37.173774 L21.744272,37.173774 L21.744272,37.360994 C21.477412,37.360994 21.210332,37.336574 20.943692,37.336574 C20.663192,37.336574 20.377192,37.360994 20.098232,37.360994 L20.098232,37.173774 L20.184252,37.173774 C20.613472,37.173774 20.744152,36.882494 20.744152,36.385734 L20.744152,33.768834 C20.744152,33.421674 20.458372,33.210254 20.178972,33.210254 L20.098232,33.210254 L20.098232,33.023914 C20.333192,33.023914 20.576732,33.048774 20.812352,33.048774 C20.997812,33.048774 21.178432,33.023914 21.365212,33.023914 L24.130392,36.136474 Z" id="Fill-46" fill="#0064A7"></path>
                        <path d="M24.490246,37.48052 L24.234386,37.47194 L21.081126,33.95744 L21.081126,36.44718 C21.088826,36.98772 21.170446,37.14106 21.639046,37.147 L21.770606,37.147 L21.770606,37.17362 L21.770606,37.38724 L21.743986,37.38724 C21.474926,37.38724 21.208286,37.36194 20.942086,37.36194 C20.664446,37.36194 20.377566,37.38724 20.098166,37.38724 L20.069786,37.38724 L20.069786,37.36106 L20.069786,37.147 L20.098166,37.147 L20.184186,37.147 C20.594266,37.14546 20.712186,36.88102 20.716146,36.38448 L20.716146,33.7689 C20.715486,33.43802 20.444446,33.23738 20.178906,33.23738 L20.069786,33.23738 L20.069786,33.21032 L20.069786,32.9967 L20.098166,32.9967 C20.334886,32.9967 20.577986,33.02112 20.812506,33.02112 C20.994886,33.02112 21.175066,32.9967 21.383626,33.00484 L24.114706,36.08022 L24.114706,33.79464 C24.113166,33.30096 23.782286,33.24002 23.601666,33.23738 L23.437546,33.23738 L23.437546,33.21032 L23.437546,32.9967 L23.464826,32.9967 C23.758306,32.9967 24.044526,33.02112 24.334926,33.02112 C24.587926,33.02112 24.842906,32.9967 25.098986,32.9967 L25.126486,32.9967 L25.126486,33.02464 L25.126486,33.23738 L25.098986,33.23738 L25.006586,33.23738 C24.750066,33.24376 24.486066,33.26708 24.479686,33.99924 L24.479686,36.8269 C24.479686,37.0436 24.485406,37.25876 24.516646,37.44994 L24.519946,37.48052 L24.490246,37.48052 Z M24.254406,37.4264 L24.458566,37.4264 C24.431506,37.23984 24.425786,37.03282 24.425786,36.8269 L24.425786,33.99924 C24.426006,33.2541 24.740606,33.18502 25.006586,33.18326 L25.071486,33.18326 L25.071486,33.05082 C24.827506,33.05258 24.581766,33.07546 24.334926,33.07546 C24.049806,33.07546 23.772826,33.05258 23.491446,33.05082 L23.491446,33.18326 L23.601666,33.18326 C23.793066,33.18502 24.169486,33.2684 24.169486,33.79464 L24.160686,36.14292 L24.148806,36.1559 L24.129446,36.17592 L21.364926,33.05082 C21.180346,33.05082 21.000606,33.07546 20.812506,33.07546 C20.581946,33.07546 20.350506,33.05258 20.123466,33.05082 L20.123466,33.18326 L20.178906,33.18326 C20.470626,33.18502 20.769826,33.40502 20.769826,33.7689 L20.769826,36.38448 C20.769826,36.88322 20.629906,37.20046 20.184186,37.20244 L20.123466,37.20156 L20.123466,37.33312 C20.392746,37.3318 20.669286,37.30914 20.942086,37.30914 C21.202566,37.30914 21.460626,37.3318 21.717586,37.33312 L21.717586,37.20244 L21.639046,37.20244 C21.149546,37.20156 21.027666,36.98772 21.026346,36.44718 L21.026346,33.81862 L24.254406,37.4264 Z" id="Fill-48" fill="#0064A7"></path>
                        <path d="M26.099216,36.47248 C26.036076,36.68346 25.960836,36.84582 25.960836,36.9567 C25.960836,37.14326 26.222856,37.17384 26.427456,37.17384 L26.496316,37.17384 L26.496316,37.36106 C26.247276,37.34786 25.993396,37.33664 25.743696,37.33664 C25.519956,37.33664 25.297536,37.34786 25.073136,37.36106 L25.073136,37.17384 L25.110976,37.17384 C25.352756,37.17384 25.558236,37.03106 25.650196,36.76992 L26.645036,33.91938 C26.725776,33.68904 26.838196,33.3784 26.875596,33.14806 C27.073816,33.08008 27.322636,32.956 27.440556,32.8812 C27.459696,32.8746 27.470696,32.86822 27.490056,32.86822 C27.508536,32.86822 27.520196,32.86822 27.533836,32.88758 C27.552316,32.93708 27.570356,32.9934 27.590156,33.04268 L28.733276,36.29208 C28.807856,36.50944 28.881556,36.73934 28.962296,36.92634 C29.037096,37.10036 29.167996,37.17384 29.373256,37.17384 L29.410216,37.17384 L29.410216,37.36106 C29.130596,37.34786 28.850536,37.33664 28.553096,37.33664 C28.248616,37.33664 27.937096,37.34786 27.620736,37.36106 L27.620736,37.17384 L27.689156,37.17384 C27.831276,37.17384 28.074596,37.14964 28.074596,36.9941 C28.074596,36.91336 28.018936,36.74572 27.948976,36.5464 L27.707416,35.82612 L26.296996,35.82612 L26.099216,36.47248 Z M27.005836,33.71984 L26.992856,33.71984 L26.415356,35.47852 L27.576516,35.47852 L27.005836,33.71984 Z" id="Fill-50" fill="#0064A7"></path>
                        <path d="M29.408236,37.387284 C29.129056,37.375184 28.849216,37.361984 28.553096,37.361984 C28.248616,37.361984 27.939076,37.375184 27.621616,37.387284 L27.593236,37.388604 L27.593236,37.361104 L27.593236,37.145724 L27.620736,37.145724 L27.688936,37.145724 C27.833036,37.145724 28.046436,37.113604 28.046656,36.994144 C28.047976,36.923744 27.992096,36.753024 27.923676,36.555024 L27.687616,35.852344 L26.316796,35.852344 L26.123636,36.480224 C26.060936,36.692084 25.986136,36.856204 25.986796,36.957624 C25.988776,37.109204 26.221316,37.145724 26.427456,37.145724 L26.522496,37.145724 L26.522496,37.174104 L26.522496,37.388604 L26.494556,37.387284 C26.245736,37.375184 25.992516,37.361984 25.744576,37.361984 C25.522156,37.361984 25.297536,37.375184 25.075116,37.387284 L25.046516,37.388604 L25.046516,37.361104 L25.046516,37.145724 L25.073136,37.145724 L25.110096,37.145724 C25.341976,37.145284 25.534696,37.013944 25.624456,36.761604 L26.619076,33.909744 C26.700256,33.679404 26.812456,33.369644 26.866136,33.122144 C27.060836,33.055924 27.310536,32.930964 27.430436,32.855724 C27.447596,32.849784 27.464756,32.841204 27.490056,32.841204 C27.505456,32.840324 27.538676,32.844724 27.558916,32.877724 C27.576516,32.928324 27.595876,32.983764 27.615016,33.034144 L28.759016,36.283324 C28.832056,36.501344 28.905976,36.730804 28.987156,36.914724 C29.059316,37.080384 29.173716,37.145284 29.373036,37.145724 L29.436616,37.145724 L29.436616,37.174104 L29.436616,37.388604 L29.408236,37.387284 Z M27.647356,37.331844 C27.955136,37.321064 28.256536,37.309184 28.553096,37.309184 C28.841956,37.309184 29.112116,37.321064 29.382496,37.331844 L29.382496,37.201604 L29.373036,37.201604 C29.160736,37.203364 29.013776,37.119544 28.937216,36.936504 C28.856476,36.748404 28.780576,36.518064 28.707536,36.300264 L27.563976,33.051304 C27.544836,33.001804 27.526796,32.945704 27.510736,32.901264 C27.505456,32.895324 27.506776,32.895324 27.501276,32.895324 L27.490056,32.895324 C27.477516,32.895324 27.469816,32.899284 27.453976,32.903464 C27.334296,32.980904 27.084816,33.103224 26.901116,33.152284 C26.863056,33.386804 26.750636,33.697664 26.669896,33.927784 L25.675936,36.779204 C25.581116,37.049144 25.363096,37.202484 25.110096,37.201604 L25.100636,37.201604 L25.100636,37.331844 C25.313376,37.321064 25.528536,37.309184 25.744576,37.309184 C25.984376,37.309184 26.230116,37.321064 26.467056,37.331844 L26.467056,37.201604 L26.427456,37.201604 C26.224616,37.199404 25.942356,37.176744 25.934656,36.957624 C25.935096,36.833324 26.010996,36.674484 26.072156,36.464824 L26.099216,36.472524 L26.072156,36.463944 L26.276976,35.799544 L27.725676,35.799544 L27.974936,36.537864 C28.044016,36.737624 28.101216,36.902624 28.101216,36.994144 C28.092196,37.184884 27.829516,37.198304 27.688936,37.201604 L27.647356,37.201604 L27.647356,37.331844 Z M26.377736,35.504744 L26.972616,33.692384 L26.992856,33.692384 L27.005836,33.692384 L27.005836,33.719884 L26.999016,33.721644 L27.005836,33.719884 L27.005836,33.692384 L27.024756,33.692384 L27.614796,35.504744 L26.377736,35.504744 Z M26.451876,35.451064 L27.539556,35.451064 L26.998576,33.786544 L26.451876,35.451064 Z" id="Fill-52" fill="#0064A7"></path>
                        <path d="M29.683456,33.334466 C29.217276,33.334466 29.198796,33.446666 29.105516,33.899426 L28.918296,33.899426 C28.943156,33.725846 28.974616,33.551826 28.993976,33.371426 C29.018616,33.197406 29.030276,33.023826 29.030276,32.844086 L29.179876,32.844086 C29.229596,33.030646 29.385576,33.023826 29.552556,33.023826 L32.758836,33.023826 C32.925596,33.023826 33.080696,33.018326 33.093676,32.831326 L33.242836,32.856186 C33.218636,33.023826 33.193996,33.191906 33.175296,33.359326 C33.161656,33.527406 33.161656,33.695486 33.161656,33.862466 L32.975316,33.931766 C32.964096,33.701866 32.933076,33.334466 32.516396,33.334466 L31.497356,33.334466 L31.497356,36.639966 C31.497356,37.119126 31.715156,37.173686 32.012816,37.173686 L32.131176,37.173686 L32.131176,37.361126 C31.888736,37.361126 31.454456,37.336486 31.118296,37.336486 C30.746276,37.336486 30.310676,37.361126 30.068236,37.361126 L30.068236,37.173686 L30.186156,37.173686 C30.528476,37.173686 30.702276,37.143326 30.702276,36.652946 L30.702276,33.334466 L29.683456,33.334466 Z" id="Fill-54" fill="#0064A7"></path>
                        <path d="M32.131176,37.387284 C31.887196,37.387284 31.452036,37.362424 31.118296,37.362424 C30.746936,37.362424 30.311776,37.387284 30.068236,37.387284 L30.040736,37.387284 L30.040736,37.361104 L30.040736,37.147044 L30.068236,37.147044 L30.186156,37.147044 C30.528476,37.138904 30.665976,37.134724 30.674556,36.652924 L30.673896,33.361504 L29.683456,33.361504 L29.683456,33.334884 L29.683456,33.306944 L30.728676,33.306944 L30.728676,36.652924 C30.728676,37.151444 30.526936,37.200284 30.186156,37.201604 L30.094636,37.201604 L30.094636,37.334484 C30.340156,37.331844 30.757716,37.309184 31.118296,37.309184 C31.443016,37.309184 31.858376,37.331844 32.103896,37.334484 L32.103676,37.201604 L32.012156,37.201604 C31.713616,37.200284 31.471176,37.128564 31.470296,36.640164 L31.470296,33.306944 L32.516396,33.306944 C32.933296,33.308264 32.988076,33.662684 32.999956,33.893464 L33.135256,33.844184 C33.135256,33.682484 33.135696,33.519684 33.148236,33.356444 C33.165396,33.196944 33.188716,33.037664 33.211376,32.879484 L33.117216,32.863204 C33.089056,33.043604 32.913716,33.053504 32.759056,33.051304 L29.552556,33.051304 L29.520876,33.051304 C29.374796,33.052624 29.215736,33.044484 29.159416,32.870024 L29.057776,32.870024 C29.056236,33.042284 29.044356,33.209044 29.019716,33.374924 C29.003216,33.545864 28.973076,33.710424 28.949536,33.873664 L29.083076,33.873664 C29.164696,33.440924 29.218816,33.300124 29.683456,33.306944 L29.683456,33.334884 L29.683456,33.361504 C29.222556,33.369204 29.233116,33.447084 29.131476,33.906444 L29.126856,33.927344 L29.105516,33.927344 L28.887056,33.927344 L28.890796,33.896544 C28.917196,33.721644 28.947116,33.547624 28.966036,33.367884 C28.991556,33.194744 29.003216,33.022484 29.003216,32.844284 L29.003216,32.816784 L29.030276,32.816784 L29.199676,32.816784 L29.205176,32.836364 C29.248296,32.993224 29.362036,32.994104 29.520876,32.996744 C29.532096,32.996744 29.541556,32.997184 29.552556,32.997184 L32.759056,32.997184 C32.930216,32.994104 33.056056,32.991684 33.066616,32.829544 L33.068376,32.799844 L33.097636,32.805564 L33.273636,32.833504 L33.269016,32.860564 C33.243716,33.026884 33.219956,33.194744 33.201256,33.361504 C33.188716,33.527384 33.188716,33.695464 33.188716,33.862664 L33.188716,33.881364 L33.170676,33.888844 L32.950676,33.969144 L32.949796,33.932624 C32.933296,33.699644 32.908876,33.361504 32.516396,33.361504 L31.524196,33.361504 L31.524196,36.640164 C31.530796,37.108324 31.716476,37.141104 32.012156,37.147044 L32.157356,37.147044 L32.157356,37.173664 L32.157356,37.387284 L32.131176,37.387284 Z" id="Fill-56" fill="#0064A7"></path>
                        <path d="M33.47179,37.17373 L33.55869,37.17373 C33.78309,37.17373 34.01783,37.14315 34.01783,36.82019 L34.01783,33.56529 C34.01783,33.24123 33.78309,33.21021 33.55869,33.21021 L33.47179,33.21021 L33.47179,33.02387 C33.71467,33.02387 34.08669,33.04873 34.39073,33.04873 C34.70225,33.04873 35.07515,33.02387 35.36731,33.02387 L35.36731,33.21021 L35.28041,33.21021 C35.05623,33.21021 34.81973,33.24123 34.81973,33.56529 L34.81973,36.82019 C34.81973,37.14315 35.05623,37.17373 35.28041,37.17373 L35.36731,37.17373 L35.36731,37.36117 C35.06899,37.36117 34.69587,37.33653 34.38567,37.33653 C34.08075,37.33653 33.71467,37.36117 33.47179,37.36117 L33.47179,37.17373 Z" id="Fill-58" fill="#0064A7"></path>
                        <path d="M35.367156,37.387284 C35.067076,37.387284 34.695056,37.361984 34.385296,37.361984 C34.081476,37.361984 33.714956,37.387284 33.471856,37.387284 L33.445016,37.387284 L33.445016,37.361104 L33.445016,37.173664 L33.445016,37.147044 L33.471856,37.147044 L33.558536,37.147044 C33.782936,37.143304 33.989076,37.123944 33.990396,36.820124 L33.990396,33.565224 C33.989076,33.261844 33.782936,33.241164 33.558536,33.237424 L33.445016,33.237424 L33.445016,33.210364 L33.445016,32.997184 L33.471856,32.997184 C33.714956,32.997184 34.088076,33.021164 34.390796,33.021164 C34.700556,33.021164 35.073236,32.997184 35.367156,32.997184 L35.393336,32.997184 L35.393336,33.024244 L35.393336,33.237424 L35.367156,33.237424 L35.280256,33.237424 C35.052996,33.241164 34.849276,33.261844 34.846636,33.565224 L34.846636,36.820124 C34.849276,37.123944 35.052996,37.143304 35.280256,37.147044 L35.393336,37.147044 L35.393336,37.173664 L35.393336,37.387284 L35.367156,37.387284 Z M35.339216,37.333164 L35.339216,37.201604 L35.280256,37.201604 C35.057836,37.201604 34.793616,37.162884 34.793616,36.820124 L34.793616,33.565224 C34.793616,33.221804 35.057836,33.183304 35.280256,33.183304 L35.339216,33.183304 L35.339216,33.051304 C35.052336,33.052624 34.693296,33.075284 34.390796,33.075284 C34.095996,33.075284 33.740036,33.052624 33.499136,33.051304 L33.499136,33.183304 L33.558536,33.183304 C33.779856,33.183304 34.044516,33.221804 34.045396,33.565224 L34.045396,36.820124 C34.044516,37.162884 33.779856,37.201604 33.558536,37.201604 L33.499136,37.201604 L33.499136,37.333164 C33.738936,37.330524 34.089836,37.309184 34.385296,37.309184 C34.686476,37.309184 35.046176,37.331844 35.339216,37.333164 L35.339216,37.333164 Z" id="Fill-60" fill="#0064A7"></path>
                        <path d="M37.84473,32.930986 C39.16935,32.930986 40.22491,33.752026 40.22491,35.075106 C40.22491,36.503786 39.19993,37.453966 37.87685,37.453966 C36.55905,37.453966 35.55299,36.559226 35.55299,35.223386 C35.55299,33.931766 36.55311,32.930986 37.84473,32.930986 M37.93889,37.180506 C39.14449,37.180506 39.35437,36.117466 39.35437,35.211726 C39.35437,34.303346 38.86487,33.204226 37.83285,33.204226 C36.74561,33.204226 36.42265,34.173546 36.42265,35.005586 C36.42265,36.117466 36.93217,37.180506 37.93889,37.180506" id="Fill-62" fill="#0064A7"></path>
                        <g id="Group-66" transform="translate(35.420000, 32.860520)">
                            <mask id="mask-4" fill="white">
                                <use xlink:href="#path-3"></use>
                            </mask>
                            <g id="Clip-65"></g>
                            <path d="M0.10527,2.362866 C0.10835,1.055846 1.11903,0.045606 2.42473,0.043406 L2.42473,0.070466 L2.42473,0.097086 C1.14719,0.097086 0.15939,1.084886 0.15807,2.362866 C0.16027,3.683746 1.15203,4.565066 2.45663,4.565946 C3.76695,4.565066 4.77719,3.628746 4.77895,2.213266 C4.77807,0.906686 3.73857,0.098846 2.42473,0.097086 L2.42473,0.070466 L2.42473,0.043406 C3.75859,0.044726 4.82911,0.873906 4.83131,2.213266 C4.83021,3.657566 3.79247,4.617426 2.45663,4.620066 C1.12761,4.617426 0.10835,3.713886 0.10527,2.362866 M0.97537,2.145066 C0.97713,1.308846 1.30361,0.316206 2.41307,0.316206 C3.46797,0.318406 3.95989,1.437766 3.96209,2.351206 C3.95989,3.256946 3.74693,4.345946 2.51889,4.345946 L2.51889,4.319986 L2.51889,4.292926 C3.70051,4.291826 3.90489,3.256946 3.90797,2.351206 C3.90797,1.450746 3.42287,0.372526 2.41307,0.370766 C1.34717,0.372086 1.03169,1.317426 1.02949,2.145066 C1.03037,3.251446 1.53483,4.290946 2.51889,4.292926 L2.51889,4.319986 L2.51889,4.345946 C1.48753,4.345066 0.97713,3.263106 0.97537,2.145066" id="Fill-64" fill="#0064A7" mask="url(#mask-4)"></path>
                        </g>
                        <path d="M44.411642,36.136474 L44.424622,36.123934 L44.424622,33.794574 C44.424622,33.285054 44.069102,33.210254 43.882762,33.210254 L43.748122,33.210254 L43.748122,33.023914 C44.039182,33.023914 44.325182,33.048774 44.616242,33.048774 C44.872102,33.048774 45.126642,33.023914 45.381622,33.023914 L45.381622,33.210254 L45.287682,33.210254 C45.027422,33.210254 44.734602,33.260194 44.734602,33.999614 L44.734602,36.827054 C44.734602,37.043974 44.740762,37.261334 44.772662,37.453834 L44.536162,37.453834 L41.336262,33.887414 L41.336262,36.447554 C41.336262,36.987654 41.441642,37.173774 41.920142,37.173774 L42.025962,37.173774 L42.025962,37.360994 C41.758662,37.360994 41.492022,37.336574 41.225162,37.336574 C40.945102,37.336574 40.658662,37.360994 40.378822,37.360994 L40.378822,37.173774 L40.466602,37.173774 C40.896042,37.173774 41.025182,36.882494 41.025182,36.385734 L41.025182,33.768834 C41.025182,33.421674 40.740502,33.210254 40.460222,33.210254 L40.378822,33.210254 L40.378822,33.023914 C40.615542,33.023914 40.857762,33.048774 41.093602,33.048774 C41.279722,33.048774 41.459682,33.023914 41.646682,33.023914 L44.411642,36.136474 Z" id="Fill-67" fill="#0064A7"></path>
                        <path d="M44.772574,37.48052 L44.515394,37.4715 L41.362794,33.95744 L41.362794,36.44762 C41.370054,36.98772 41.452554,37.14018 41.918954,37.1459 L42.053154,37.1459 L42.053154,37.17406 L42.053154,37.38724 L42.026094,37.38724 C41.757254,37.38724 41.490394,37.36238 41.224854,37.36238 C40.946114,37.36238 40.660994,37.38724 40.378514,37.38724 L40.352994,37.38724 L40.352994,37.36062 L40.352994,37.1459 L40.378514,37.1459 L40.466734,37.1459 C40.876154,37.14458 40.994074,36.88102 40.998694,36.38558 L40.998694,33.7689 C40.998034,33.43802 40.726994,33.23738 40.460134,33.23738 L40.352994,33.23738 L40.352994,33.21032 L40.352994,32.99714 L40.378514,32.99714 C40.616554,32.99714 40.859214,33.02112 41.093514,33.02112 C41.277654,33.02112 41.456734,32.99714 41.667274,33.0066 L44.397034,36.08022 L44.397034,33.79508 C44.395494,33.30096 44.064614,33.24112 43.882894,33.23738 L43.719434,33.23738 L43.719434,33.21032 L43.719434,32.99714 L43.747594,32.99714 C44.039754,32.99714 44.326634,33.02112 44.615714,33.02112 C44.870034,33.02112 45.123694,32.99714 45.381534,32.99714 L45.408154,32.99714 L45.408154,33.0242 L45.408154,33.23738 L45.381534,33.23738 L45.287594,33.23738 C45.032174,33.2442 44.767954,33.26752 44.762234,33.99924 L44.762234,36.8269 C44.762234,37.0436 44.767074,37.26008 44.797434,37.44994 L44.802714,37.48052 L44.772574,37.48052 Z M44.536514,37.4264 L44.740014,37.4264 C44.713174,37.2394 44.708114,37.03282 44.708114,36.8269 L44.708114,33.99924 C44.708114,33.25234 45.021614,33.18502 45.287594,33.18326 L45.354694,33.18326 L45.354694,33.05082 C45.108954,33.05258 44.864094,33.07546 44.615714,33.07546 C44.332574,33.07546 44.055154,33.05258 43.773994,33.05082 L43.773994,33.18326 L43.882894,33.18326 C44.074954,33.18502 44.450054,33.2695 44.450054,33.79508 L44.443454,36.14292 L44.431574,36.1559 L44.411554,36.17592 L41.646594,33.05082 C41.463114,33.05082 41.281834,33.07546 41.093514,33.07546 C40.864494,33.07546 40.631514,33.05258 40.405134,33.05082 L40.405134,33.18326 L40.460134,33.18326 C40.752074,33.18502 41.051934,33.40502 41.051934,33.7689 L41.051934,36.38558 C41.051934,36.88278 40.913334,37.20046 40.466734,37.20244 L40.405134,37.20156 L40.405134,37.33312 C40.675294,37.3318 40.951614,37.30914 41.224854,37.30914 C41.484014,37.30914 41.741194,37.3318 41.999474,37.33312 L41.999474,37.20244 L41.918954,37.20244 C41.431214,37.20156 41.309114,36.98772 41.309114,36.44762 L41.309114,33.81752 L44.536514,37.4264 Z" id="Fill-69" fill="#0064A7"></path>
                        <path d="M46.379608,36.47248 C46.318888,36.68346 46.243428,36.84582 46.243428,36.9567 C46.243428,37.14326 46.505228,37.17384 46.709168,37.17384 L46.778248,37.17384 L46.778248,37.36106 C46.529648,37.34786 46.274448,37.33664 46.026068,37.33664 C45.802108,37.33664 45.578808,37.34786 45.356168,37.36106 L45.356168,37.17384 L45.391368,37.17384 C45.634468,37.17384 45.840388,37.03106 45.931908,36.76992 L46.927408,33.91938 C47.008148,33.68904 47.120348,33.3784 47.156648,33.14806 C47.355748,33.08008 47.603908,32.956 47.722928,32.8812 C47.740748,32.8746 47.753288,32.86822 47.772208,32.86822 C47.790688,32.86822 47.802788,32.86822 47.814888,32.88758 C47.833808,32.93708 47.852948,32.9934 47.871648,33.04268 L49.014328,36.29208 C49.088468,36.50944 49.162828,36.73934 49.244668,36.92634 C49.319028,37.10036 49.450148,37.17384 49.654748,37.17384 L49.692588,37.17384 L49.692588,37.36106 C49.412748,37.34786 49.132908,37.33664 48.834148,37.33664 C48.530328,37.33664 48.219028,37.34786 47.902448,37.36106 L47.902448,37.17384 L47.970648,37.17384 C48.112988,37.17384 48.356528,37.14964 48.356528,36.9941 C48.356528,36.91336 48.300428,36.74572 48.231128,36.5464 L47.989788,35.82612 L46.579148,35.82612 L46.379608,36.47248 Z M47.287988,33.71984 L47.275228,33.71984 L46.696408,35.47852 L47.859768,35.47852 L47.287988,33.71984 Z" id="Fill-71" fill="#0064A7"></path>
                        <path d="M49.689926,37.387284 C49.410086,37.376064 49.130906,37.362424 48.834126,37.362424 C48.531406,37.362424 48.220106,37.376064 47.903306,37.387284 L47.875806,37.388604 L47.875806,37.360664 L47.875806,37.147044 L47.902426,37.147044 L47.970406,37.147044 C48.115166,37.147044 48.328786,37.113604 48.329226,36.994144 C48.330546,36.923744 48.274666,36.753904 48.205366,36.555024 L47.969086,35.852344 L46.597606,35.852344 L46.405766,36.480224 C46.343286,36.692964 46.269146,36.856204 46.270466,36.956744 C46.270466,37.109204 46.503446,37.147044 46.708926,37.147044 L46.803746,37.147044 L46.803746,37.173664 L46.803746,37.388604 L46.776246,37.387284 C46.527866,37.376064 46.273546,37.362424 46.026046,37.362424 C45.803406,37.362424 45.579886,37.376064 45.356146,37.387284 L45.329086,37.388604 L45.329086,37.360664 L45.329086,37.147044 L45.356146,37.147044 L45.391346,37.147044 C45.623446,37.145724 45.817046,37.013064 45.907466,36.761604 L46.901426,33.909744 C46.981286,33.679404 47.093046,33.369644 47.148046,33.122584 C47.343406,33.055264 47.592666,32.930964 47.713666,32.855724 C47.729726,32.849784 47.746886,32.842084 47.771966,32.842084 C47.788466,32.840324 47.820806,32.844724 47.840166,32.879044 C47.858646,32.927664 47.877126,32.983764 47.897586,33.034144 L49.040266,36.283324 C49.114626,36.501344 49.188986,36.730804 49.269286,36.915384 C49.342326,37.080384 49.455406,37.145284 49.653846,37.147044 L49.718306,37.147044 L49.718306,37.173664 L49.718306,37.388604 L49.689926,37.387284 Z M47.928826,37.332724 C48.236386,37.321064 48.538886,37.309184 48.834126,37.309184 C49.123646,37.309184 49.394026,37.321064 49.664626,37.331844 L49.663746,37.201604 L49.653846,37.201604 C49.443306,37.202484 49.296786,37.119544 49.219346,36.936504 C49.137286,36.748404 49.063366,36.518064 48.989226,36.301144 L47.845666,33.051304 C47.827186,33.001804 47.808046,32.945704 47.793306,32.902584 C47.788026,32.895324 47.788466,32.895324 47.784286,32.895324 L47.771966,32.895324 C47.758986,32.895324 47.752166,32.899724 47.736986,32.903904 C47.615766,32.980024 47.367386,33.104544 47.183246,33.152284 C47.144966,33.386804 47.032326,33.697224 46.952026,33.927784 L45.956746,36.779204 C45.862806,37.049144 45.645666,37.202484 45.391346,37.201604 L45.382326,37.201604 L45.382326,37.331844 C45.596386,37.321064 45.809786,37.309184 46.026046,37.309184 C46.266726,37.309184 46.512026,37.321064 46.751166,37.331844 L46.751166,37.201604 L46.708926,37.201604 C46.506746,37.199404 46.223606,37.177624 46.215906,36.956744 C46.217226,36.833324 46.294226,36.675364 46.354286,36.464824 L46.379586,36.472524 L46.354286,36.463944 L46.559326,35.799544 L48.007806,35.799544 L48.256626,36.537864 C48.325706,36.738064 48.382026,36.902624 48.382026,36.994144 C48.372566,37.184884 48.111866,37.198304 47.970406,37.201604 L47.928826,37.201604 L47.928826,37.332724 Z M46.659866,35.504304 L47.255626,33.692384 L47.274546,33.692384 L47.287966,33.692384 L47.287966,33.719884 L47.281146,33.721644 L47.287966,33.719884 L47.287966,33.692384 L47.307326,33.692384 L47.894726,35.504304 L46.659866,35.504304 Z M46.734446,35.451064 L47.821246,35.451064 L47.280706,33.787424 L46.734446,35.451064 Z" id="Fill-73" fill="#0064A7"></path>
                        <path d="M51.257844,36.75177 C51.257844,37.00103 51.430544,37.07495 51.629424,37.10025 C51.884404,37.11917 52.163804,37.11917 52.450464,37.08727 C52.710724,37.05647 52.934684,36.90775 53.046004,36.75177 C53.145224,36.61471 53.201104,36.44113 53.238724,36.30451 L53.419124,36.30451 C53.350924,36.65849 53.263364,37.00741 53.188784,37.36117 C52.643184,37.36117 52.094944,37.33653 51.549344,37.33653 C51.001544,37.33653 50.455724,37.36117 49.908804,37.36117 L49.908804,37.17373 L49.994604,37.17373 C50.218784,37.17373 50.461884,37.14315 50.461884,36.75771 L50.461884,33.56529 C50.461884,33.24123 50.218784,33.21021 49.994604,33.21021 L49.908804,33.21021 L49.908804,33.02387 C50.237264,33.02387 50.561104,33.04873 50.890004,33.04873 C51.207464,33.04873 51.517884,33.02387 51.834904,33.02387 L51.834904,33.21021 L51.678704,33.21021 C51.443304,33.21021 51.257844,33.21725 51.257844,33.54593 L51.257844,36.75177 Z" id="Fill-75" fill="#0064A7"></path>
                        <path d="M53.188872,37.387284 C52.641072,37.387284 52.094152,37.362424 51.549212,37.362424 C51.002512,37.362424 50.455592,37.387284 49.907352,37.387284 L49.881612,37.387284 L49.881612,37.360664 L49.881612,37.147044 L49.907352,37.147044 L49.994472,37.147044 C50.219752,37.141984 50.432492,37.126364 50.434912,36.757864 L50.434912,33.564344 C50.432492,33.261844 50.220632,33.241164 49.994472,33.237424 L49.881612,33.237424 L49.881612,33.210364 L49.881612,32.997184 L49.907352,32.997184 C50.238232,32.997184 50.561852,33.021164 50.890092,33.021164 C51.205572,33.021164 51.515992,32.997184 51.834992,32.997184 L51.860292,32.997184 L51.860292,33.024244 L51.860292,33.237424 L51.834992,33.237424 L51.678572,33.237424 C51.438332,33.243804 51.288072,33.233024 51.283232,33.545864 L51.283232,36.751704 C51.285212,36.983364 51.436572,37.045624 51.630832,37.073124 C51.740392,37.080824 51.855452,37.085224 51.975132,37.085224 C52.127592,37.085224 52.285772,37.077964 52.445932,37.060804 C52.698932,37.031104 52.917172,36.885024 53.024312,36.736304 C53.119792,36.603864 53.174792,36.433364 53.211752,36.298064 L53.217692,36.277384 L53.238152,36.277384 L53.451332,36.277384 L53.445832,36.310164 C53.375652,36.665464 53.290292,37.012624 53.215052,37.366164 L53.209552,37.387284 L53.188872,37.387284 Z M53.166212,37.333164 C53.238152,36.996344 53.319552,36.666784 53.386212,36.331064 L53.258612,36.331064 C53.220332,36.466144 53.165112,36.632684 53.067212,36.768424 C52.951272,36.929244 52.721372,37.081264 52.451652,37.114484 C52.288852,37.130764 52.128252,37.139784 51.975132,37.139784 C51.855232,37.139784 51.738192,37.134284 51.626212,37.126364 C51.423812,37.103704 51.228232,37.017244 51.228672,36.751704 L51.228672,33.545864 C51.228672,33.200464 51.447352,33.183304 51.678572,33.183304 L51.807052,33.183304 L51.807052,33.051304 C51.501032,33.052624 51.199412,33.075724 50.890092,33.075724 C50.568232,33.075724 50.253412,33.052624 49.935292,33.051304 L49.935292,33.183304 L49.994472,33.183304 C50.216232,33.183304 50.487932,33.221804 50.487932,33.564344 L50.487932,36.757864 C50.487932,37.160024 50.217992,37.201604 49.994472,37.201604 L49.935292,37.201604 L49.935292,37.333164 C50.472092,37.332724 51.009552,37.309184 51.549212,37.309184 C52.089312,37.309184 52.628532,37.332724 53.166212,37.333164 L53.166212,37.333164 Z" id="Fill-77" fill="#0064A7"></path>
                        <g id="Group-81" transform="translate(52.580000, 32.640520)">
                            <mask id="mask-6" fill="white">
                                <use xlink:href="#path-5"></use>
                            </mask>
                            <g id="Clip-80"></g>
                            <path d="M0.763114,0.207108 C1.137774,0.207108 1.417394,0.495088 1.417394,0.863148 C1.417394,1.230108 1.137774,1.515448 0.763114,1.515448 C0.389334,1.515448 0.108394,1.230108 0.108394,0.863148 C0.108394,0.495088 0.389334,0.207108 0.763114,0.207108 L0.763114,0.207108 Z M0.763114,1.393568 C1.056154,1.393568 1.280554,1.144308 1.280554,0.863148 C1.280554,0.581328 1.059234,0.329648 0.763114,0.329648 C0.469194,0.329648 0.244574,0.581328 0.244574,0.863148 C0.244574,1.144308 0.469194,1.393568 0.763114,1.393568 L0.763114,1.393568 Z M0.437734,1.208328 L0.437734,1.175988 C0.518034,1.164548 0.532774,1.166968 0.532774,1.117248 L0.532774,0.633028 C0.532774,0.565048 0.525514,0.541508 0.440154,0.545248 L0.440154,0.512248 L0.775434,0.512248 C0.890714,0.512248 0.996314,0.566808 0.996314,0.685388 C0.996314,0.782848 0.932074,0.854568 0.841654,0.882948 L0.949234,1.032988 C0.999174,1.100528 1.056154,1.164548 1.093554,1.187208 L1.093554,1.208328 L0.965514,1.208328 C0.904794,1.208328 0.850894,1.079408 0.730994,0.907148 L0.657954,0.907148 L0.657954,1.124068 C0.657954,1.166968 0.673354,1.164548 0.754094,1.175988 L0.754094,1.208328 L0.437734,1.208328 Z M0.657954,0.863148 L0.735614,0.863148 C0.819874,0.863148 0.859254,0.799128 0.859254,0.696608 C0.859254,0.592108 0.798314,0.555588 0.730994,0.555588 L0.657954,0.555588 L0.657954,0.863148 Z" id="Fill-79" fill="#0064A7" mask="url(#mask-6)"></path>
                        </g>
                    </g>
                </g>
            </g>
        </g>
    </g>
</svg>