<?xml version="1.0" encoding="UTF-8"?>
<svg width="54px" height="54px" viewBox="0 0 54 54" version="1.1" xmlns="http://www.w3.org/2000/svg" xmlns:xlink="http://www.w3.org/1999/xlink">
    <!-- Generator: sketchtool 61.2 (101010) - https://sketch.com -->
    <title>C35F3123-DDE5-4D6E-8A87-BE139E472616</title>
    <desc>Created with sketchtool.</desc>
    <g id="Proceso-E-Commerce-Propuesta" stroke="none" stroke-width="1" fill="none" fill-rule="evenodd">
        <g id="Oncosalud_Wireframes_Desktop_Correo" transform="translate(-213.000000, -208.000000)">
            <g id="enviar_cotizacion" transform="translate(213.000000, 208.000000)">
                <circle id="Oval" fill-opacity="0.1" fill="#30C7DB" cx="27" cy="27" r="27"></circle>
                <g id="send" transform="translate(12.000000, 9.000000)" fill-rule="nonzero">
                    <path d="M28.820669,14.4110198 L1.55346579,14.4115681 C0.955051132,14.8159023 0.561407784,15.5006662 0.561407784,16.2775362 L0.561407784,33.1537612 C0.561407784,34.3963694 1.56881679,35.4037784 2.81169902,35.4037784 L27.5632582,35.4037784 C28.8061404,35.4037784 29.8135494,34.3963694 29.8135494,33.1537612 L29.8135494,16.2775362 C29.8135494,15.5003921 29.4196319,14.8153541 28.820669,14.4110198 Z" id="Path" fill="#FFFFFF"></path>
                    <path d="M28.3845363,13.8882636 L26.4377013,12.1659369 L3.93670759,12.1664852 L1.99042084,13.8882636 C1.23109492,14.5598696 1.23109492,15.7446374 1.99042084,16.4162435 L15.1876156,28.0906744 L28.3845363,16.4162435 C29.1438623,15.7446374 29.1438623,14.5598696 28.3845363,13.8882636 Z" id="Path" fill="#FFFFFF"></path>
                    <path d="M3.93670759,5.58913245 L3.93670759,18.1380219 L15.1876156,28.0906744 L26.4382496,18.1380219 L26.4382496,1.08882408 C26.4382496,0.778240593 26.1863288,0.526319797 25.8757452,0.526319797 L8.99952032,0.526319797 L3.93670759,5.58913245 Z" id="Path" fill="#FFFFFF"></path>
                    <polygon id="Path" fill="#FFFFFF" points="3.93670759 5.58913245 8.99952032 5.58913245 8.99952032 0.526319797"></polygon>
                    <path d="M17.4239265,24.4437168 C16.1470528,23.3140481 14.2281785,23.3140481 12.9510306,24.4437168 L1.2650864,34.7815148 C1.66859825,35.1650156 2.21109136,35.4037784 2.81169902,35.4037784 L27.5632582,35.4037784 C28.1641399,35.4037784 28.7063589,35.1650156 29.1098708,34.7815148 L17.4239265,24.4437168 Z" id="Path" fill="#FFFFFF"></path>
                    <path d="M28.7332231,13.494072 L26.9645694,11.9293672 L26.9645694,0.526319797 C26.9645694,0.235747409 26.7290961,0 26.4382496,0 L8.99952032,0 C8.85999069,0 8.72621774,0.0553731936 8.62753278,0.154058156 L3.56444602,5.21714499 C3.46576106,5.31555584 3.41038779,5.4496029 3.41038779,5.58913245 L3.41038779,11.9293672 L1.64173397,13.494072 C0.494521309,14.4650224 0.0350879865,15.238877 0.0350879865,16.1289606 L0.0350879865,33.1537612 C0.0350879865,34.6847487 1.28071151,35.9300982 2.81142492,35.9300982 L27.5632582,35.9300982 C29.0942457,35.9300982 30.3398692,34.6844746 30.3398692,33.1537612 L30.3398692,16.0352098 C30.3398692,14.8189177 29.2694115,13.9650186 28.7332231,13.494072 Z M26.9645694,13.3348055 L28.0358494,14.2824553 C28.2885926,14.5061412 28.427848,14.8150799 28.427848,15.1522536 C28.427848,15.4897012 28.2885926,15.79864 28.0358494,16.0220518 L26.9645694,16.9697016 L26.9645694,13.3348055 Z M8.47320052,1.7968887 L8.47320052,5.06281266 L5.20727649,5.06281266 L8.47320052,1.7968887 Z M4.46302739,6.11545225 L8.99952032,6.11545225 C9.29036681,6.11545225 9.52584011,5.87970484 9.52584011,5.58913245 L9.52584011,1.05263959 L25.9119298,1.05263959 L25.9119298,17.9009039 L18.3671903,24.5752967 L17.7726134,24.0495252 C16.2989179,22.7457872 14.0760392,22.7457872 12.6023438,24.0495252 L12.0077669,24.5752967 L4.46302739,17.901178 L4.46302739,6.11545225 Z M2.33910771,14.2824553 L3.41038779,13.3348055 L3.41038779,16.9699757 L2.33910771,16.0223259 C2.08636459,15.79864 1.94710914,15.4897012 1.94738285,15.1522536 C1.94710914,14.8150799 2.08636459,14.5061412 2.33910771,14.2824553 Z M1.08772758,33.1537612 L1.08772758,16.2775362 C1.08772758,16.2114721 1.09211358,16.1456822 1.09951497,16.0809887 C1.22670892,16.3559359 1.40982435,16.6053896 1.64173397,16.8107091 L11.2136271,25.278153 L1.32539388,34.0252043 C1.17462515,33.7694458 1.08772758,33.471472 1.08772758,33.1537612 Z M29.2872296,33.1537612 C29.2872296,33.471472 29.200332,33.7694458 29.0495633,34.0254784 L21.1616195,27.0476292 C20.9439643,26.8551935 20.6114508,26.8754787 20.418741,27.093134 C20.2263053,27.3107891 20.2465906,27.6433026 20.4642457,27.8360124 L28.2581647,34.7308017 C28.0454438,34.8248266 27.8105188,34.8774586 27.5632582,34.8774586 L2.81169902,34.8774586 C2.5644384,34.8774586 2.32951332,34.8248266 2.1167924,34.7308017 L13.2999917,24.8379084 C14.3759319,23.8858727 15.9990253,23.8858727 17.0752396,24.8379084 L18.777007,26.3436765 C18.9949363,26.5361122 19.3274498,26.5158269 19.5201596,26.2981718 C19.7125953,26.0802424 19.69231,25.747729 19.4746549,25.5550192 L19.1616042,25.278153 L28.7334973,16.8107091 C28.9654069,16.6056637 29.1485224,16.3562101 29.2757163,16.0809887 C29.2831177,16.1459563 29.2872296,16.2114721 29.2872296,16.2775362 L29.2872296,33.1537612 Z" id="Shape" fill="#30C7DB"></path>
                    <path d="M15.7989141,7.39095537 C15.8616888,7.67467465 16.1426668,7.85395237 16.4266602,7.7906295 L19.725205,7.05761949 L9.19003707,17.5927874 C8.98444343,17.7983811 8.98444343,18.131717 9.19003707,18.3373107 C9.29283392,18.4398334 9.42742926,18.4913689 9.56202453,18.4913689 C9.69689405,18.4913689 9.83148932,18.4401075 9.93428617,18.3373107 L20.4694541,7.8018686 L19.7364442,11.1004135 C19.6736695,11.3841327 19.852399,11.6653849 20.1361182,11.7284336 C20.1744957,11.7369315 20.2128732,11.7410434 20.2507024,11.7410434 C20.4922065,11.7410434 20.7095875,11.5741013 20.7641384,11.3287595 L21.889147,6.26567269 C21.9280727,6.08995865 21.8748925,5.90656912 21.7474244,5.77937517 C21.6202305,5.65218121 21.4368408,5.59872684 21.2611268,5.63792672 L16.1983141,6.76293529 C15.9145949,6.82598398 15.7358654,7.10723615 15.7989141,7.39095537 L15.7989141,7.39095537 Z" id="Path" fill="#30C7DB"></path>
                </g>
            </g>
        </g>
    </g>
</svg>