<svg width="25px" height="24px" viewBox="0 0 25 24" version="1.1" xmlns="http://www.w3.org/2000/svg" xmlns:xlink="http://www.w3.org/1999/xlink">
    <g id="Asset-Artboard-Page" stroke="none" stroke-width="1" fill="none" fill-rule="evenodd">
        <g id="icon/general/circle-icon/interface/eye-off" transform="translate(0.913428, 0.000000)" fill-rule="nonzero">
            <g id="eye-off">
                <rect id="frame" x="0" y="0" width="24" height="24"></rect>
                <path d="M2.57441438,12.7074746 C3.149187,13.5974451 3.82824869,14.4880178 4.6045372,15.3160589 C6.77619226,17.6324909 9.25480244,19 11.9836527,19.0001336 C13.9193433,18.968486 15.7941245,18.3183094 17.3337818,17.1447017 C17.7730129,16.8098966 18.4004933,16.8945506 18.7352983,17.3337818 C19.0701034,17.7730129 18.9854494,18.4004933 18.5462182,18.7352983 C16.6670554,20.167695 14.3788716,20.9612403 11.9999999,21 C8.62019756,21 5.66130774,19.3675091 3.1454628,16.6839411 C2.28112631,15.7619822 1.5305005,14.7775549 0.894335622,13.7925254 C0.50996726,13.1973744 0.246140906,12.7283498 0.105572809,12.4472136 C-0.0397387988,12.1565904 -0.034789519,11.8134847 0.11884433,11.5271737 C1.43015373,9.08342688 3.24890853,6.9483669 5.45309907,5.26522251 C5.89204256,4.93004038 6.51959537,5.01415558 6.85477749,5.45309907 C7.18995962,5.89204256 7.10584442,6.51959537 6.66690093,6.85477749 C4.83187447,8.25602409 3.2946054,10.0063852 2.14255627,12.0031874 C2.26800116,12.2199461 2.41207332,12.4561078 2.57441438,12.7074746 Z M21.4255856,11.2925254 C20.850813,10.4025549 20.1717513,9.51198221 19.3954628,8.68394113 C17.2238077,6.36750906 14.7451976,5 11.9976501,4.99999724 C11.368229,4.99851813 10.7407705,5.07022768 10.1279132,5.21368145 C9.5901638,5.33955444 9.05219155,5.00566263 8.92631855,4.46791322 C8.80044556,3.9301638 9.13433737,3.39219155 9.67208678,3.26631855 C10.4358941,3.08753134 11.2178991,2.99815934 12,2.99997214 C15.3798024,2.99997214 18.3386923,4.63249094 20.8545372,7.31605887 C21.7188737,8.23801779 22.4694995,9.22244509 23.1056644,10.2074746 C23.4900327,10.8026256 23.7538591,11.2716502 23.8944272,11.5527864 C24.0394855,11.842903 24.0348204,12.1853547 23.881913,12.4714122 C23.2420806,13.6684038 22.4790254,14.7953232 21.6051562,15.8338447 C21.2495706,16.2564288 20.6187395,16.3107418 20.1961553,15.9551562 C19.7735712,15.5995706 19.7192582,14.9687395 20.0748438,14.5461553 C20.7439122,13.7510227 21.3405972,12.8981486 21.8579836,11.9977456 C21.7324123,11.7807317 21.5881596,11.5442529 21.4255856,11.2925254 Z M1.70710678,0.292893219 L23.7071068,22.2928932 C24.0976311,22.6834175 24.0976311,23.3165825 23.7071068,23.7071068 C23.3165825,24.0976311 22.6834175,24.0976311 22.2928932,23.7071068 L14.0489794,15.4645626 C13.1338506,16.0378644 12.010311,16.2249577 10.9354035,15.9504452 C9.51815892,15.5885058 8.41149424,14.4818411 8.04955483,13.0645965 C7.77504233,11.989689 7.96213562,10.8661494 8.53543743,9.95102065 L0.292893219,1.70710678 C-0.0976310729,1.31658249 -0.0976310729,0.683417511 0.292893219,0.292893219 C0.683417511,-0.0976310729 1.31658249,-0.0976310729 1.70710678,0.292893219 Z M9.98736084,12.5697148 C10.1683305,13.2783371 10.7216629,13.8316695 11.4302852,14.0126392 C11.8090557,14.1093705 12.1999034,14.0914684 12.5578418,13.9721284 L10.0278716,11.4421582 C9.90853162,11.8000966 9.8906295,12.1909443 9.98736084,12.5697148 Z" id="Combined-Shape" fill="#30C7DB"></path>
            </g>
        </g>
    </g>
</svg>