<svg xmlns="http://www.w3.org/2000/svg" xmlns:xlink="http://www.w3.org/1999/xlink" width="38px" height="38px" viewBox="0 0 41 40" version="1.1">
                                    <defs>
                                        <path d="M0.322004157,1.68706799 C0.322004157,2.45647726 0.742841274,3.08295069 1.26091727,3.08295069 L1.26091727,3.08295069 C1.77899326,3.08295069 2.19983038,2.45647726 2.19983038,1.68706799 L2.19983038,1.68706799 C2.19983038,0.917127352 1.77899326,0.291185277 1.26091727,0.291185277 L1.26091727,0.291185277 C0.743372634,0.291185277 0.322004157,0.917127352 0.322004157,1.68706799 L0.322004157,1.68706799 Z" id="_path-1"/>
                                        <path d="M0.326255037,1.68706799 C0.326255037,2.45647726 0.747092153,3.08295069 1.26516815,3.08295069 L1.26516815,3.08295069 C1.78218142,3.08295069 2.2035499,2.45647726 2.2035499,1.68706799 L2.2035499,1.68706799 C2.2035499,0.917127352 1.78218142,0.291185277 1.26516815,0.291185277 L1.26516815,0.291185277 C0.747092153,0.291185277 0.326255037,0.917127352 0.326255037,1.68706799 L0.326255037,1.68706799 Z" id="_path-3"/>
                                    </defs>
                                    <g id="Symbols" stroke="none" stroke-width="1" fill="none" fill-rule="evenodd">
                                        <g id="card/desktop/firma/colapsed" transform="translate(-361.000000, -16.000000)">
                                            <g id="_Group-18" transform="translate(363.000000, 17.000000)">
                                                <g id="_Group-3" transform="translate(13.120000, 18.860000)">
                                                    <mask id="_mask-2" fill="white">
                                                        <use xlink:href="#_path-1"/>
                                                    </mask>
                                                    <g id="Clip-2"/>
                                                    <polygon id="Fill-1" fill="#30C7DB" mask="url(#_mask-2)" points="-2.33426446 5.73975067 4.85663036 5.73975067 4.85663036 -2.3656147 -2.33426446 -2.3656147"/>
                                                </g>
                                                <g id="_Group-6" transform="translate(22.140000, 18.860000)">
                                                    <mask id="_mask-4" fill="white">
                                                        <use xlink:href="#_path-3"/>
                                                    </mask>
                                                    <g id="Clip-5"/>
                                                    <polygon id="Fill-4" fill="#30C7DB" mask="url(#_mask-4)" points="-2.33054494 5.73975067 4.86088124 5.73975067 4.86088124 -2.3656147 -2.33054494 -2.3656147"/>
                                                </g>
                                                <g id="_Group-17" transform="translate(0.000000, 0.474682)">
                                                    <path d="M29.7680587,22.4965098 C29.77904,21.6412675 29.7738108,20.7860253 29.747142,19.935998 C30.2020802,20.1915276 30.5053724,20.6712977 30.5053724,21.2240762 C30.5053724,21.7664249 30.2073094,22.2409801 29.7680587,22.4965098 M28.2149938,25.1873939 C28.0842644,27.7218313 26.0658029,29.7243497 23.5249468,29.8442922 C20.4287523,29.9903091 17.2912474,29.9903091 14.1955758,29.8442922 C11.6541968,29.7243497 9.63573527,27.7218313 9.5050059,25.1873939 C9.40565157,23.2996031 9.38996405,21.3857378 9.45271415,19.4875173 C10.4415511,18.9190941 11.183571,17.7613881 11.659426,16.0404739 C11.8581346,15.310389 12.4124272,14.7471807 13.1340533,14.5333702 C13.8556794,14.3143447 14.6248911,14.4812212 15.1943482,14.976636 C16.2401832,15.889242 17.5474769,16.3481525 18.8599998,16.3481525 C20.1725227,16.3481525 21.4850456,15.889242 22.5308806,14.976636 C23.0956315,14.4812212 23.8643202,14.3143447 24.5859464,14.5333702 C25.3080954,14.7471807 25.8618651,15.310389 26.0605737,16.0404739 C26.5416578,17.7613881 27.2789715,18.9190941 28.2672855,19.4875173 C28.3300356,21.3753081 28.314871,23.2943882 28.2149938,25.1873939 M7.95194094,22.4965098 C7.51269025,22.2409801 7.21462728,21.7664249 7.21462728,21.2240762 C7.21462728,20.6712977 7.51791942,20.1915276 7.97285764,19.9412128 C7.94723469,20.7912402 7.94148259,21.6412675 7.95194094,22.4965098 M30.8714146,18.9347387 C31.0962692,18.1629348 31.4832281,16.661046 31.7028535,14.9714211 C32.136875,11.5973861 31.6819368,9.21939552 30.3484971,7.88438324 C28.6908487,6.23126258 26.5887204,6.88833893 25.3128017,7.70707693 C24.0839456,6.38770933 20.360773,3.72289967 11.2358628,5.5272522 C10.4415511,5.68369895 9.73508959,5.93401375 9.1285053,6.2781966 C8.77292141,6.47636249 8.65265038,6.92484317 8.85135903,7.27945581 C9.05006768,7.62885355 9.49977672,7.75401095 9.85536062,7.55063018 C10.3207572,7.28988559 10.8855081,7.09171971 11.5234674,6.96134741 C14.5563889,6.36684976 18.8390831,5.93401375 22.0445674,7.26902602 C23.9113828,8.04604489 24.5336546,9.07859344 24.5336546,9.07859344 C24.6434673,9.27154444 24.8322405,9.40713162 25.0513429,9.44885075 C25.2709683,9.485355 25.4958228,9.4227763 25.6631564,9.27675933 C25.6683856,9.27154444 26.2441177,8.78134462 27.0018252,8.50495536 C27.9326183,8.1659874 28.6908487,8.30678947 29.3078913,8.92214669 C31.1590193,10.7630035 30.2229969,15.8162335 29.5222875,18.3245964 C29.3967873,18.3037369 29.2712871,18.2933071 29.1405577,18.2880922 C28.2672855,17.8917604 27.7548264,16.6454013 27.4776801,15.649357 C27.1430129,14.4342872 26.217449,13.4903918 25.0048033,13.1253494 C23.796341,12.7655219 22.5099639,13.047126 21.5582541,13.8762938 C20.0208767,15.216521 17.699123,15.216521 16.1617456,13.8762938 C15.2100357,13.047126 13.9236587,12.7655219 12.7104901,13.1253494 C11.5025507,13.4903918 10.5769868,14.4342872 10.2370904,15.649357 C9.96517329,16.6454013 9.45271415,17.8917604 8.57944193,18.2880922 C8.43825421,18.2933071 8.29706649,18.3089517 8.15587877,18.3350262 C8.11927454,18.0482072 8.08267032,17.7561732 8.04606609,17.4589244 C7.66433632,14.5072957 7.2721482,11.4513692 8.20869343,9.37062738 C8.37550411,9.00558496 8.21339969,8.56753406 7.84212827,8.40065752 C7.47085685,8.23899588 7.03683533,8.40065752 6.86950173,8.77091483 C5.76091665,11.2271288 6.17925064,14.491651 6.58712629,17.6466605 C6.64464721,18.1160008 6.70739731,18.5644814 6.75968906,19.0077472 C6.13741724,19.5448811 5.73999995,20.3375446 5.73999995,21.2240762 C5.73999995,22.6008076 6.70216814,23.7637285 7.98854517,24.076622 C7.99900352,24.4729537 8.01469104,24.8692855 8.03560774,25.2604024 C8.15587877,27.5758143 9.4840892,29.5418285 11.4084256,30.5639472 C12.7842215,30.9597575 14.2096946,31.1584449 15.6414427,31.1558374 L22.1345092,31.1438432 C23.5510927,31.2205021 24.9697678,31.0239007 26.312097,30.5639472 C28.2359105,29.5418285 29.5641209,27.5758143 29.6843919,25.2604024 C29.7053086,24.8692855 29.7209962,24.4729537 29.7319774,24.076622 C31.0183545,23.7637285 31.9799997,22.6008076 31.9799997,21.2240762 C31.9799997,20.2958255 31.5459782,19.4718726 30.8714146,18.9347387" id="Fill-7" fill="#30C7DB"/>
                                                    <path d="M6.85675794,0.345318397 L2.08706398,0.345318397 C0.934307992,0.345318397 2.18491889e-15,1.28036439 2.18491889e-15,2.43312038 L2.18491889e-15,7.41019234" id="Stroke-9" stroke="#30C7DB" stroke-width="2.21399998" stroke-linecap="round"/>
                                                    <path d="M37.4048737,7.30657714 L37.4048737,2.53688318 C37.4048737,1.38412719 36.4698277,0.449819196 35.3178097,0.449819196 L30.3399997,0.449819196" id="Stroke-11" stroke="#30C7DB" stroke-width="2.21399998" stroke-linecap="round"/>
                                                    <path d="M0,29.9695975 L0,34.7392915 C0,35.8913095 0.934307992,36.8263555 2.08706398,36.8263555 L7.06487394,36.8263555" id="Stroke-13" stroke="#30C7DB" stroke-width="2.21399998" stroke-linecap="round"/>
                                                    <path d="M30.3399997,36.9301921 L35.1104317,36.9301921 C36.2624497,36.9301921 37.1974957,35.9958841 37.1974957,34.8431281 L37.1974957,29.8653181" id="Stroke-15" stroke="#30C7DB" stroke-width="2.21399998" stroke-linecap="round"/>
                                                </g>
                                            </g>
                                        </g>
                                    </g>
                                </svg>