<svg width="54px" height="54px" viewBox="0 0 54 54" version="1.1" xmlns="http://www.w3.org/2000/svg" xmlns:xlink="http://www.w3.org/1999/xlink">
    <defs>
        <path d="M0.290247652,1.52068696 C0.290247652,2.214216 0.669581217,2.77890574 1.13656383,2.77890574 L1.13656383,2.77890574 C1.60354643,2.77890574 1.98288,2.214216 1.98288,1.52068696 L1.98288,1.52068696 C1.98288,0.826678957 1.60354643,0.262468174 1.13656383,0.262468174 L1.13656383,0.262468174 C0.670060174,0.262468174 0.290247652,0.826678957 0.290247652,1.52068696 L0.290247652,1.52068696 Z" id="path-1"></path>
        <path d="M0.294079304,1.52068696 C0.294079304,2.214216 0.67341287,2.77890574 1.14039548,2.77890574 L1.14039548,2.77890574 C1.60642017,2.77890574 1.9862327,2.214216 1.9862327,1.52068696 L1.9862327,1.52068696 C1.9862327,0.826678957 1.60642017,0.262468174 1.14039548,0.262468174 L1.14039548,0.262468174 C0.67341287,0.262468174 0.294079304,0.826678957 0.294079304,1.52068696 L0.294079304,1.52068696 Z" id="path-3"></path>
    </defs>
    <g id="Proceso-E-Commerce-Propuesta" stroke="none" stroke-width="1" fill="none" fill-rule="evenodd">
        <g id="Oncosalud_Wireframes_Desktop_CheckoutResumen-Copy" transform="translate(-213.000000, -270.000000)">
            <g id="Group-4" transform="translate(213.000000, 270.000000)">
                <circle id="Oval" fill-opacity="0.1" fill="#30C7DB" cx="27" cy="27" r="27"></circle>
                <g id="Group-18" transform="translate(10.000000, 10.000000)">
                    <g id="Group-3" transform="translate(11.826087, 17.000000)">
                        <mask id="mask-2" fill="white">
                            <use xlink:href="#path-1"></use>
                        </mask>
                        <g id="Clip-2"></g>
                        <polygon id="Fill-1" fill="#30C7DB" mask="url(#mask-2)" points="-2.104056 5.17368835 4.37766261 5.17368835 4.37766261 -2.13231443 -2.104056 -2.13231443"></polygon>
                    </g>
                    <g id="Group-6" transform="translate(19.956522, 17.000000)">
                        <mask id="mask-4" fill="white">
                            <use xlink:href="#path-3"></use>
                        </mask>
                        <g id="Clip-5"></g>
                        <polygon id="Fill-4" fill="#30C7DB" mask="url(#mask-4)" points="-2.1007033 5.17368835 4.38149426 5.17368835 4.38149426 -2.13231443 -2.1007033 -2.13231443"></polygon>
                    </g>
                    <g id="Group-17" transform="translate(0.000000, 0.427868)">
                        <path d="M26.8322907,20.2778722 C26.842189,19.5069752 26.8374755,18.7360781 26.8134368,17.9698817 C27.2235084,18.2002107 27.4968895,18.6326651 27.4968895,19.1309278 C27.4968895,19.6197894 27.2282219,20.0475432 26.8322907,20.2778722 M25.4323912,22.7033775 C25.3145546,24.9878651 23.4951566,26.7928923 21.2048833,26.9010059 C18.4140399,27.0326225 15.5859601,27.0326225 12.7955881,26.9010059 C10.5048434,26.7928923 8.68544544,24.9878651 8.56760878,22.7033775 C8.47805292,21.0017633 8.46391252,19.2766462 8.52047412,17.5656308 C9.4117906,17.0532663 10.0806315,16.0097349 10.5095569,14.4585397 C10.6886686,13.8004568 11.188296,13.2927929 11.8387544,13.1000687 C12.4892127,12.9026438 13.1825636,13.0530627 13.6958601,13.4996189 C14.6385534,14.3222225 15.81692,14.7358746 17,14.7358746 C18.18308,14.7358746 19.3661601,14.3222225 20.3088533,13.4996189 C20.8179077,13.0530627 21.5107873,12.9026438 22.1612456,13.1000687 C22.8121753,13.2927929 23.3113314,13.8004568 23.4904431,14.4585397 C23.924082,16.0097349 24.5886807,17.0532663 25.4795259,17.5656308 C25.5360875,19.267245 25.5224184,20.9970627 25.4323912,22.7033775 M7.16770929,20.2778722 C6.77177812,20.0475432 6.50311054,19.6197894 6.50311054,19.1309278 C6.50311054,18.6326651 6.77649159,18.2002107 7.18656316,17.9745823 C7.16346717,18.7407787 7.15828236,19.5069752 7.16770929,20.2778722 M27.8268321,17.0673681 C28.0295112,16.3716805 28.3783077,15.0179101 28.5762732,13.4949184 C28.9674909,10.4536355 28.5574194,8.3101657 27.3554855,7.10681423 C25.8613167,5.61672666 23.9665032,6.20900121 22.8164174,6.94699411 C21.7087528,5.75774441 18.3527648,3.35574205 10.1277661,4.98214678 C9.4117906,5.12316453 8.7750013,5.34879293 8.22823921,5.65903198 C7.9077235,5.83765447 7.79931377,6.24190535 7.97842549,6.56154559 C8.15753721,6.87648523 8.56289532,6.98929943 8.88341102,6.80597636 C9.30290953,6.57094677 9.81196389,6.39232429 10.3870068,6.2748095 C13.1208172,5.73894204 16.9811461,5.34879293 19.870501,6.55214441 C21.5532084,7.25253257 22.1141109,8.18324973 22.1141109,8.18324973 C22.2130937,8.35717162 22.3832499,8.47938701 22.5807441,8.51699174 C22.7787097,8.54989588 22.9813887,8.49348878 23.1322197,8.36187221 C23.1369331,8.35717162 23.6558858,7.915316 24.338867,7.66618464 C25.177864,7.36064618 25.8613167,7.48756216 26.4175057,8.04223198 C28.0860727,9.70154085 27.2423623,14.2564142 26.6107578,16.5173988 C26.4976346,16.4985965 26.3845114,16.4891953 26.2666748,16.4844947 C25.4795259,16.1272497 25.0176062,15.0038083 24.7677925,14.1059953 C24.4661306,13.0107574 23.6318471,12.1599503 22.5387943,11.8309089 C21.4495122,11.5065681 20.2899995,11.7604 19.4321486,12.5077941 C18.0463895,13.7158462 15.9536105,13.7158462 14.5678514,12.5077941 C13.7100005,11.7604 12.5504878,11.5065681 11.4569636,11.8309089 C10.3681529,12.1599503 9.53386937,13.0107574 9.22749406,14.1059953 C8.98239382,15.0038083 8.52047412,16.1272497 7.73332525,16.4844947 C7.60606166,16.4891953 7.47879807,16.5032971 7.35153448,16.5268 C7.31854021,16.2682675 7.28554595,16.0050343 7.25255168,15.7371006 C6.90846864,13.0765657 6.55495867,10.322019 7.39914049,8.44648286 C7.54950006,8.11744144 7.40338261,7.72259174 7.0687265,7.57217281 C6.73407039,7.42645446 6.34285269,7.57217281 6.19202177,7.90591482 C5.19276691,10.1198935 5.56984421,13.0624639 5.93749458,15.9063219 C5.98934271,16.3293752 6.04590431,16.733626 6.09303897,17.1331763 C5.53213648,17.6173373 5.17391304,18.3318272 5.17391304,19.1309278 C5.17391304,20.371884 6.04119084,21.420116 7.20070355,21.7021515 C7.21013049,22.0593964 7.22427089,22.4166414 7.24312475,22.7691858 C7.35153448,24.8562485 8.54875492,26.6283716 10.2833105,27.5496876 C11.5234235,27.9064625 12.8083144,28.085555 14.0988615,28.0832047 L19.9515726,28.0723934 C21.2284506,28.1414921 22.507214,27.9642798 23.7171608,27.5496876 C25.4512451,26.6283716 26.6484655,24.8562485 26.7568752,22.7691858 C26.7757291,22.4166414 26.7898695,22.0593964 26.7997678,21.7021515 C27.9592805,21.420116 28.826087,20.371884 28.826087,19.1309278 C28.826087,18.2942225 28.4348693,17.551529 27.8268321,17.0673681" id="Fill-7" fill="#30C7DB"></path>
                        <path d="M6.18053478,0.311262609 L1.88123478,0.311262609 C0.842165217,0.311262609 1.9694391e-15,1.15409304 1.9694391e-15,2.19316261 L1.9694391e-15,6.6793887" id="Stroke-9" stroke="#30C7DB" stroke-width="1.99565217" stroke-linecap="round"></path>
                        <path d="M33.7159522,6.58599217 L33.7159522,2.28669217 C33.7159522,1.24762261 32.8731217,0.405457391 31.8347174,0.405457391 L27.3478261,0.405457391" id="Stroke-11" stroke="#30C7DB" stroke-width="1.99565217" stroke-linecap="round"></path>
                        <path d="M0,27.0139535 L0,31.3132535 C0,32.3516578 0.842165217,33.1944883 1.88123478,33.1944883 L6.36812609,33.1944883" id="Stroke-13" stroke="#30C7DB" stroke-width="1.99565217" stroke-linecap="round"></path>
                        <path d="M27.3478261,33.2880843 L31.6477913,33.2880843 C32.6861957,33.2880843 33.5290261,32.4459191 33.5290261,31.4068496 L33.5290261,26.9199583" id="Stroke-15" stroke="#30C7DB" stroke-width="1.99565217" stroke-linecap="round"></path>
                    </g>
                </g>
            </g>
        </g>
    </g>
</svg>