<?xml version="1.0" encoding="UTF-8"?>
<svg width="20px" height="18px" viewBox="0 0 20 18" version="1.1" xmlns="http://www.w3.org/2000/svg" xmlns:xlink="http://www.w3.org/1999/xlink">
    <!-- Generator: sketchtool 61.2 (101010) - https://sketch.com -->
    <title>B25D1190-B271-431A-8119-0E8DD511ACA3</title>
    <desc>Created with sketchtool.</desc>
    <g id="Proceso-E-Commerce-Propuesta" stroke="none" stroke-width="1" fill="none" fill-rule="evenodd">
        <g id="Oncosalud_Wireframes_Desktop_Checkout1_collapse" transform="translate(-829.000000, -167.000000)" fill-rule="nonzero">
            <g id="Steppers" transform="translate(557.000000, 152.000000)">
                <g id="Step_04" transform="translate(262.000000, 4.000000)">
                    <g id="icon/general/heart" transform="translate(10.000000, 10.000000)">
                        <rect id="frame" x="0" y="0" width="20" height="20"></rect>
                        <path d="M20,7.02277058 C20,8.4433343 19.4265525,9.80567867 18.4060199,10.8097964 L11.0081911,18.0920524 C10.6813776,18.4137603 10.1515081,18.4137603 9.82469455,18.0920524 L2.42686575,10.8097964 C0.30215584,8.71827978 0.302155865,5.32726138 2.4268658,3.23574479 C4.55157574,1.14422819 7.99641118,1.14422817 10.1211212,3.23574474 L10.4164429,3.52645276 L10.7116256,3.23588148 C11.7318181,2.2311555 13.1157835,1.66666667 14.5588922,1.66666667 C16.0019355,1.66666667 17.3858408,2.23110428 18.4060199,3.23574473 C19.4266045,4.23998611 20,5.60227131 20,7.02277058 Z" id="Shape" fill="#FFFFFF"></path>
                    </g>
                </g>
            </g>
        </g>
    </g>
</svg>