<?xml version="1.0" encoding="UTF-8"?>
<svg width="25px" height="24px" viewBox="0 0 25 24" version="1.1" xmlns="http://www.w3.org/2000/svg" xmlns:xlink="http://www.w3.org/1999/xlink">
    <!-- Generator: sketchtool 61.2 (101010) - https://sketch.com -->
    <title>4FAD2698-264F-4441-AF7D-CF63723376C9</title>
    <desc>Created with sketchtool.</desc>
    <g id="Asset-Artboard-Page" stroke="none" stroke-width="1" fill="none" fill-rule="evenodd">
        <g id="icon/general/help-circle" transform="translate(0.791469, 0.000000)" fill-rule="nonzero">
            <rect id="frame" x="0" y="0" width="24" height="24"></rect>
            <path d="M12,1 C18.0751322,1 23,5.92486775 23,12 C23,18.0751322 18.0751322,23 12,23 C5.92486775,23 1,18.0751322 1,12 C1,5.92486775 5.92486775,1 12,1 Z M12,3 C7.02943725,3 3,7.02943725 3,12 C3,16.9705627 7.02943725,21 12,21 C16.9705627,21 21,16.9705627 21,12 C21,7.02943725 16.9705627,3 12,3 Z M12,16 C12.5522847,16 13,16.4477153 13,17 C13,17.5522847 12.5522847,18 12,18 C11.4477153,18 11,17.5522847 11,17 C11,16.4477153 11.4477153,16 12,16 Z M12.596234,6.05310594 C14.5186242,6.38284698 15.9229047,8.05102704 15.9200045,10 C15.9200045,11.2797249 15.1618117,12.2906426 13.9747002,13.0820503 C13.3257812,13.5146629 12.6882584,13.7980064 12.2362278,13.9486833 C11.7122844,14.1233311 11.1459645,13.8401711 10.9713167,13.3162278 C10.7966689,12.7922844 11.0798289,12.2259645 11.6037722,12.0513167 C11.6686405,12.029694 11.8031012,11.9784708 11.9826115,11.8986885 C12.2857144,11.7639761 12.5884437,11.6025204 12.8652998,11.4179497 C13.5531883,10.9593574 13.92,10.4702751 13.9200011,9.9985102 C13.921454,9.02327881 13.2193138,8.18918878 12.2581187,8.02431827 C11.2969235,7.85944775 10.356959,8.41187316 10.0333344,9.33184353 C9.85006232,9.85283276 9.2791457,10.1266066 8.75815647,9.94333444 C8.23716724,9.76006232 7.96339344,9.1891457 8.14666556,8.66815647 C8.79391472,6.82821572 10.6738437,5.7233649 12.596234,6.05310594 Z" id="Oval" fill="#30C7DB"></path>
        </g>
    </g>
</svg>