<?xml version="1.0" encoding="UTF-8"?>
<svg width="54px" height="54px" viewBox="0 0 54 54" version="1.1" xmlns="http://www.w3.org/2000/svg" xmlns:xlink="http://www.w3.org/1999/xlink">
    <!-- Generator: sketchtool 61.2 (101010) - https://sketch.com -->
    <title>1C69B106-6E54-4A9A-827D-11784B39E061</title>
    <desc>Created with sketchtool.</desc>
    <g id="Proceso-E-Commerce-Propuesta" stroke="none" stroke-width="1" fill="none" fill-rule="evenodd">
        <g id="Oncosalud_Wireframes_Desktop_FiltroSelectedPreguntas4" transform="translate(-213.000000, -240.000000)">
            <g id="icon_enfermedad_oncologica" transform="translate(213.000000, 240.000000)">
                <circle id="Oval" fill-opacity="0.1" fill="#30C7DB" cx="27" cy="27" r="27"></circle>
                <g id="patient" transform="translate(13.000000, 9.000000)" fill-rule="nonzero">
                    <path d="M6.60733594,5.23933594 L6.60733594,3.8671875 C6.60733594,3.67382812 6.44913281,3.515625 6.25577344,3.515625 L1.95517969,3.515625 C1.76182031,3.515625 1.60361719,3.67382812 1.60361719,3.8671875 L1.60361719,5.23933594 L6.60733594,5.23933594 Z" id="Path" fill="#48C1E1"></path>
                    <path d="M26.4732891,23.1240938 L23.3770078,23.1240938 C22.0922578,24.739875 20.1890391,25.8084141 18.0648984,25.8084141 C15.9407578,25.8084141 14.0376094,24.739875 12.7527891,23.1240938 L9.65650781,23.1240938 C8.76065625,23.1240938 8.03172656,23.8530234 8.03172656,24.748875 L8.03172656,35.0663906 C8.03172656,35.2906875 8.213625,35.4725859 8.43792188,35.4725859 L27.691875,35.4725859 C27.9161719,35.4725859 28.0980703,35.2906875 28.0980703,35.0663906 L28.0980703,24.7489453 C28.0980703,23.8530234 27.3691406,23.1240938 26.4732891,23.1240938 Z" id="Path" fill="#FFFFFF"></path>
                    <path d="M21.495375,32.8444453 L19.8630703,32.8444453 L20.2968281,32.4107578 C20.5867266,32.1206484 20.5889766,31.6483594 20.3016797,31.3611328 C20.0143125,31.0738359 19.5419531,31.0760156 19.2519844,31.3660547 L18.1582031,32.4597656 C18.2124844,32.5288125 18.2451797,32.6157187 18.2451797,32.7104297 L18.2451797,35.4726562 L21.495375,35.4726562 C21.9055078,35.4726562 22.2409688,35.137125 22.2409688,34.7269922 L22.2409688,33.5901094 C22.2409688,33.1799766 21.9055078,32.8444453 21.495375,32.8444453 Z" id="Path" fill="#FFFFFF"></path>
                    <path d="M17.8389844,32.3042344 L11.5484062,32.3042344 L11.5484062,28.6365234 C11.5484062,28.1885625 11.1839062,27.8241328 10.7359453,27.8241328 L8.84411719,27.8241328 C8.39615625,27.8241328 8.03165625,28.1885625 8.03165625,28.6365234 L8.03165625,35.0664609 C8.03165625,35.2907578 8.21355469,35.4726562 8.43785156,35.4726562 L18.2451094,35.4726562 L18.2451094,32.7104297 C18.2451094,32.4861328 18.0632812,32.3042344 17.8389844,32.3042344 Z" id="Path" fill="#FFFFFF"></path>
                    <path d="M10.6768828,23.1240938 L11.4810469,24.1353281 C13.1475938,26.2312031 15.5472891,27.4331953 18.0648984,27.4331953 C20.5825781,27.4331953 22.9822031,26.2312031 24.6488203,24.1353281 L25.4529141,23.1240938 L10.6768828,23.1240938 Z" id="Path" fill="#FFFFFF"></path>
                    <path d="M23.6698594,32.3789063 C23.5998984,32.3789063 23.5340859,32.351625 23.4845859,32.3022656 L21.4490391,30.2667188 C21.2036484,30.0212578 21.0685078,29.6945156 21.0685078,29.3466797 C21.0685078,28.9989141 21.2036484,28.6721719 21.4490391,28.4267109 C21.6947813,28.1809688 22.0215234,28.0456172 22.3690781,28.0456172 C22.7165625,28.0456172 23.0433047,28.1809688 23.2890469,28.4267109 L23.6773125,28.8149063 L24.0656484,28.4267109 C24.31125,28.1809688 24.6379922,28.0456172 24.9855469,28.0456172 C25.3331016,28.0456172 25.6598438,28.1809688 25.9055156,28.4267109 C26.1512578,28.6723828 26.2866094,28.9991953 26.2866094,29.3466797 C26.2866094,29.6942344 26.1512578,30.0209063 25.9054453,30.2667188 L23.8542188,32.3028984 C23.805,32.3519063 23.7393984,32.3789063 23.6698594,32.3789063 Z" id="Path" fill="#FFFFFF"></path>
                    <path d="M18.0648984,2.80209375 C18.712125,2.80209375 19.3397344,2.89764844 19.9377422,3.07645312 C20.4584062,2.52105469 20.7838828,1.73784375 20.7838828,0.870539062 C20.7838828,0.680976562 20.6301797,0.52734375 20.4407578,0.52734375 L15.6890391,0.52734375 C15.4995469,0.52734375 15.3459141,0.681046875 15.3459141,0.870539062 C15.3459141,1.73777344 15.6714609,2.52098437 16.192125,3.07645312 C16.7900625,2.89764844 17.4176016,2.80209375 18.0648984,2.80209375 Z" id="Path" fill="#FFFFFF"></path>
                    <path d="M18.0648984,2.80209375 C18.0981563,2.80209375 18.1312031,2.80300781 18.1643203,2.80357031 C17.7771094,2.27721094 17.5429688,1.60453125 17.5429688,0.870609375 C17.5429688,0.681046875 17.6966016,0.527414062 17.8860938,0.527414062 L15.6890391,0.527414062 C15.4995469,0.527414062 15.3459141,0.681117187 15.3459141,0.870609375 C15.3459141,1.73784375 15.6714609,2.52105469 16.192125,3.07652344 C16.7900625,2.89764844 17.4176016,2.80209375 18.0648984,2.80209375 Z" id="Path" fill="#000000" opacity="0.1"></path>
                    <g id="Group" transform="translate(8.789062, 13.921875)" fill="#FFFFFF">
                        <path d="M11.5505156,7.91198438 C10.8371953,8.18479687 10.072125,8.33526562 9.27576563,8.33526562 C8.47947656,8.33526562 7.71433594,8.18479687 7.00101563,7.91198438 L7.00101563,9.20228906 L3.96365625,9.20228906 C5.24840625,10.8180703 7.151625,11.8866094 9.27576563,11.8866094 C11.3999063,11.8866094 13.3030547,10.8180703 14.587875,9.20228906 L11.5505156,9.20228906 L11.5505156,7.91198438 L11.5505156,7.91198438 Z" id="Path"></path>
                        <path d="M2.26996875,0.849234375 L2.26996875,0.0489375 L1.92353906,0.0489375 C0.869203125,0.0489375 0.0144140625,0.903726563 0.0144140625,1.9580625 C0.0144140625,3.01239844 0.869203125,3.8671875 1.92353906,3.8671875 L2.89771875,3.8671875 C2.4946875,2.92971094 2.26996875,1.90371094 2.26996875,0.849234375 Z" id="Path"></path>
                        <path d="M16.6280625,0.0488671875 L16.2816328,0.0488671875 L16.2816328,0.849164062 C16.2816328,1.90364063 16.0569141,2.92964062 15.6538125,3.86711719 L16.6279922,3.86711719 C17.6823281,3.86711719 18.5371172,3.01232812 18.5371172,1.95799219 C18.5371172,0.90365625 17.6823984,0.0488671875 16.6280625,0.0488671875 Z" id="Path"></path>
                    </g>
                    <path d="M11.0590313,13.0961953 L11.0590313,14.7711094 C11.0590313,18.7121953 14.1956016,22.2571406 18.0648984,22.2571406 C21.934125,22.2571406 25.0707656,18.712125 25.0707656,14.7711094 L25.0707656,13.0961953 L11.0590313,13.0961953 L11.0590313,13.0961953 Z" id="Path" fill="#FFFFFF"></path>
                    <g id="Group" opacity="0.1" transform="translate(11.039062, 13.078125)" fill="#000000">
                        <path d="M1.79296875,1.69298438 L1.79296875,0.0180703125 L0.01996875,0.0180703125 L0.01996875,1.69298438 C0.01996875,5.63407031 3.15653906,9.17901562 7.02583594,9.17901562 C7.32614063,9.17901562 7.62194531,9.15757031 7.91233594,9.11636719 C4.46160938,8.62628906 1.79296875,5.32814063 1.79296875,1.69298438 Z" id="Path"></path>
                    </g>
                    <path d="M2.93653125,15.0203672 L2.93653125,16.5863672 C2.93653125,16.7797266 3.09473437,16.9379297 3.28809375,16.9379297 L4.92285937,16.9379297 C5.11621875,16.9379297 5.27442187,16.7797266 5.27442187,16.5863672 L5.27442187,15.0203672 L2.93653125,15.0203672 Z" id="Path" fill="#48C1E1"></path>
                    <rect id="Rectangle" fill="#FFFFFF" x="0.58921875" y="6.85546875" width="7.03195313" height="6.3984375"></rect>
                    <g id="Group" opacity="0.1" transform="translate(0.562500, 5.203125)" fill="#000000">
                        <path d="M1.78558594,9.46567969 L1.78558594,0.387773437 C1.78558594,0.194414063 1.94378906,0.0362109375 2.13714844,0.0362109375 L0.378492187,0.0362109375 C0.185132812,0.0362109375 0.0269296875,0.194414063 0.0269296875,0.387773437 L0.0269296875,9.46567969 C0.0269296875,9.65903906 0.185132812,9.81724219 0.378492187,9.81724219 L2.13714844,9.81724219 C1.94378906,9.81724219 1.78558594,9.65903906 1.78558594,9.46567969 Z" id="Path"></path>
                    </g>
                    <path d="M10.8075234,10.0558828 L25.3222734,10.0558828 C25.3324688,10.0558828 25.3422422,10.0571484 25.3523672,10.0574297 C24.8743125,5.96200781 21.7940625,2.80209375 18.0649687,2.80209375 C14.335875,2.80209375 11.2555547,5.96200781 10.7775,10.0574297 C10.7875547,10.0571484 10.7973984,10.0558828 10.8075234,10.0558828 Z" id="Path" fill="#FFFFFF"></path>
                    <path d="M10.8075234,10.0558828 L12.9581016,10.0558828 C13.3891875,6.36813281 15.9303516,3.43940625 19.1551641,2.89385156 C18.7993828,2.83366406 18.435375,2.80209375 18.0648984,2.80209375 C14.3358047,2.80209375 11.2554844,5.96200781 10.7774297,10.0574297 C10.7875547,10.0571484 10.7973984,10.0558828 10.8075234,10.0558828 Z" id="Path" fill="#000000" opacity="0.1"></path>
                    <path d="M26.3769609,12.0415078 C26.3769609,12.6215859 25.9023516,13.0961953 25.3222734,13.0961953 L10.8075234,13.0961953 C10.2274453,13.0961953 9.75283594,12.6215859 9.75283594,12.0415078 L9.75283594,11.1105703 C9.75283594,10.5304922 10.2274453,10.0558828 10.8075234,10.0558828 L25.3222734,10.0558828 C25.9023516,10.0558828 26.3769609,10.5304922 26.3769609,11.1105703 L26.3769609,12.0415078 Z" id="Path" fill="#FFFFFF"></path>
                    <g id="Group" opacity="0.1" transform="translate(9.703125, 10.054688)" fill="#000000">
                        <path d="M2.25478125,1.98682031 L2.25478125,1.05588281 C2.25478125,0.475804687 2.72939063,0.0011953125 3.30946875,0.0011953125 L1.10439844,0.0011953125 C0.524320313,0.0011953125 0.0497109375,0.475804687 0.0497109375,1.05588281 L0.0497109375,1.98682031 C0.0497109375,2.56689844 0.524320313,3.04150781 1.10439844,3.04150781 L3.30946875,3.04150781 C2.72939063,3.04150781 2.25478125,2.56689844 2.25478125,1.98682031 Z" id="Path"></path>
                    </g>
                    <path d="M26.4732891,22.59675 L20.8669922,22.59675 L20.8669922,22.1898516 C21.8017266,21.7770469 22.6643906,21.1565391 23.4069609,20.3488594 C23.9638359,19.7432578 24.4253672,19.0544766 24.77925,18.3163359 L25.4171953,18.3163359 C26.7606563,18.3163359 27.8536641,17.2233281 27.8536641,15.8798672 C27.8536641,14.7144375 27.0310078,13.7380078 25.9360313,13.4995078 C26.5043672,13.2593906 26.9043047,12.6962578 26.9043047,12.0414375 L26.9043047,11.1105 C26.9043047,10.4130703 26.4505781,9.820125 25.8229688,9.61017188 C25.329375,6.47289844 23.3742656,3.89889844 20.7833203,2.82044531 C21.1166016,2.25928125 21.3112266,1.58969531 21.3112266,0.870539063 C21.3112266,0.390515625 20.9207109,5.68434189e-14 20.4407578,5.68434189e-14 L15.6890391,5.68434189e-14 C15.2090859,5.68434189e-14 14.8185703,0.390515625 14.8185703,0.870539063 C14.8185703,1.58969531 15.0131953,2.25928125 15.3464766,2.82044531 C12.7555313,3.89889844 10.8004219,6.47296875 10.3068281,9.61017188 C9.67921875,9.820125 9.22549219,10.4131406 9.22549219,11.1105 L9.22549219,12.0414375 C9.22549219,12.6962578 9.62542969,13.2593906 10.1937656,13.4995078 C9.09878906,13.7380078 8.27613281,14.7144375 8.27613281,15.8798672 C8.27613281,17.2233281 9.36914062,18.3163359 10.7126016,18.3163359 L11.3505469,18.3163359 C11.7043594,19.0545469 12.1659609,19.7432578 12.7228359,20.3488594 C13.4654766,21.1565391 14.3281406,21.7769766 15.2628047,22.1898516 L15.2628047,22.59675 L9.65650781,22.59675 C8.46984375,22.59675 7.50438281,23.5622109 7.50438281,24.748875 L7.50438281,31.6143984 L6.21485156,31.6143984 C5.34248438,31.6143984 4.63282031,30.9047344 4.63282031,30.0323672 L4.63282031,17.4652734 L4.92285937,17.4652734 C5.40752344,17.4652734 5.80176563,17.0710313 5.80176563,16.5863672 L5.80176563,15.5477109 L7.26996094,15.5477109 C7.754625,15.5477109 8.14886719,15.1534688 8.14886719,14.6688047 L8.14886719,5.59089844 C8.14886719,5.10623438 7.754625,4.71199219 7.26996094,4.71199219 L7.13467969,4.71199219 L7.13467969,3.8671875 C7.13467969,3.38252344 6.7404375,2.98828125 6.25577344,2.98828125 L1.95517969,2.98828125 C1.47051563,2.98828125 1.07627344,3.38252344 1.07627344,3.8671875 L1.07627344,4.71199219 L0.940992188,4.71199219 C0.456328125,4.71199219 0.0620859375,5.10623438 0.0620859375,5.59089844 L0.0620859375,14.6688047 C0.0620859375,15.1534688 0.456328125,15.5477109 0.940992188,15.5477109 L2.4091875,15.5477109 L2.4091875,16.5863672 C2.4091875,17.0710313 2.80342969,17.4652734 3.28809375,17.4652734 L3.57813281,17.4652734 L3.57813281,30.0324375 C3.57813281,31.4863594 4.76092969,32.6691563 6.21485156,32.6691563 L7.50438281,32.6691563 L7.50438281,35.0664609 C7.50438281,35.5812188 7.92316406,36 8.43792188,36 L27.691875,36 C28.2066328,36 28.6254141,35.5812188 28.6254141,35.0664609 L28.6254141,24.7489453 C28.6254141,23.5622109 27.6599531,22.59675 26.4732891,22.59675 Z M1.11677344,7.3828125 L3.83203125,7.3828125 C4.12326563,7.3828125 4.359375,7.14670313 4.359375,6.85546875 C4.359375,6.56423438 4.12326563,6.328125 3.83203125,6.328125 L1.11677344,6.328125 L1.11677344,5.76667969 L7.09417969,5.76667969 L7.09417969,6.328125 L6.43359375,6.328125 C6.14235938,6.328125 5.90625,6.56423438 5.90625,6.85546875 C5.90625,7.14670313 6.14235938,7.3828125 6.43359375,7.3828125 L7.09417969,7.3828125 L7.09417969,12.7265625 L1.11677344,12.7265625 L1.11677344,7.3828125 Z M2.13096094,4.04296875 L6.07999219,4.04296875 L6.07999219,4.71199219 L2.13096094,4.71199219 L2.13096094,4.04296875 Z M1.11677344,13.78125 L7.09417969,13.78125 L7.09417969,14.4930234 L1.11677344,14.4930234 L1.11677344,13.78125 Z M3.463875,15.5477109 L4.74707813,15.5477109 L4.74707813,16.4105859 L3.463875,16.4105859 L3.463875,15.5477109 Z M12.5039531,23.6514375 C13.9513359,25.3605234 15.9641016,26.3357578 18.0648984,26.3357578 C20.165625,26.3357578 22.1783906,25.3605234 23.6258437,23.6514375 L24.3598359,23.6514375 L24.2360156,23.8071094 C22.6700859,25.7764219 20.4207891,26.9058516 18.0648281,26.9058516 C15.7089375,26.9058516 13.4596406,25.7763516 11.8937109,23.8071094 L11.7698906,23.6514375 L12.5039531,23.6514375 L12.5039531,23.6514375 Z M26.7989766,15.8799375 C26.7989766,16.6418438 26.1791016,17.2617188 25.4171953,17.2617188 L25.2,17.2617188 C25.4602266,16.4557969 25.5980391,15.6133125 25.5980391,14.7711094 L25.5980391,14.511375 C26.2745859,14.6003906 26.7989766,15.1794844 26.7989766,15.8799375 Z M15.8790234,1.0546875 L20.2507031,1.0546875 C20.2166719,1.59440625 20.0336484,2.08708594 19.7494453,2.47964063 C19.2064922,2.345625 18.6428672,2.27482031 18.0648984,2.27482031 C17.4868594,2.27482031 16.9232344,2.345625 16.3802813,2.47964063 C16.0960781,2.08708594 15.913125,1.59440625 15.8790234,1.0546875 Z M18.0648984,3.3294375 C21.3381562,3.3294375 24.0804844,5.99069531 24.7391719,9.52853906 L22.9570312,9.52853906 C22.6657969,9.52853906 22.4296875,9.76464844 22.4296875,10.0558828 C22.4296875,10.3471172 22.6657969,10.5832266 22.9570312,10.5832266 L25.3222734,10.5832266 C25.6130859,10.5832266 25.8496172,10.8197578 25.8496172,11.1105703 L25.8496172,12.0415078 C25.8496172,12.3323203 25.6130859,12.5688516 25.3222734,12.5688516 L10.8075234,12.5688516 C10.5167109,12.5688516 10.2801797,12.3323203 10.2801797,12.0415078 L10.2801797,11.1105703 C10.2801797,10.8197578 10.5167109,10.5832266 10.8075234,10.5832266 L20.0742188,10.5832266 C20.3654531,10.5832266 20.6015625,10.3471172 20.6015625,10.0558828 C20.6015625,9.76464844 20.3654531,9.52853906 20.0742188,9.52853906 L11.390625,9.52853906 C12.0493125,5.99069531 14.7916406,3.3294375 18.0648984,3.3294375 Z M10.7126016,17.2617188 C9.95069531,17.2617188 9.33082031,16.6418438 9.33082031,15.8799375 C9.33082031,15.1794844 9.85521094,14.6004609 10.5316875,14.511375 L10.5316875,14.7711094 C10.5316875,15.6133125 10.6695,16.4557969 10.9297266,17.2617188 L10.7126016,17.2617188 L10.7126016,17.2617188 Z M13.4992266,19.6350469 C12.2835937,18.3129609 11.586375,16.5401016 11.586375,14.7710391 L11.586375,13.6234688 L24.5433516,13.6234688 L24.5433516,14.7710391 C24.5433516,16.5401016 23.8462031,18.3129609 22.6305,19.6350469 C21.3885,20.9858203 19.7670938,21.7297969 18.0648281,21.7297969 C16.3626328,21.7297969 14.7411562,20.9858906 13.4992266,19.6350469 Z M18.0648984,22.7844844 C18.6596016,22.7844844 19.2450234,22.7074219 19.8123047,22.5587813 L19.8123047,23.1241641 C19.8123047,23.4153984 20.0484141,23.6515078 20.3396484,23.6515078 L22.1613047,23.6515078 C20.9999531,24.6979688 19.5556641,25.2811406 18.0649688,25.2811406 C16.5742031,25.2811406 15.1299844,24.6979688 13.9686328,23.6515078 L15.7902891,23.6515078 C16.0815234,23.6515078 16.3176328,23.4153984 16.3176328,23.1241641 L16.3176328,22.5587813 C16.8847734,22.7074219 17.470125,22.7844844 18.0648984,22.7844844 Z M19.375875,33.0462422 C19.4575078,33.2432578 19.6498125,33.3717891 19.8630703,33.3717891 L21.495375,33.3717891 C21.6137109,33.3717891 21.713625,33.4717734 21.713625,33.5901094 L21.713625,34.7269922 C21.713625,34.8453281 21.6136406,34.9453125 21.495375,34.9453125 L18.7725234,34.9453125 L18.7725234,32.7104297 C18.7725234,32.6725313 18.7695703,32.6353359 18.7652109,32.5985625 L19.6249922,31.7388516 C19.6811016,31.6827422 19.7470547,31.674375 19.7814375,31.674375 C19.8142031,31.674375 19.8769922,31.6821094 19.9289531,31.734 C20.0099531,31.815 20.0076328,31.9541484 19.9240313,32.0378203 L19.4902734,32.4715781 C19.3393828,32.6223281 19.2942422,32.8492266 19.375875,33.0462422 Z M27.5707266,34.9453125 L22.7489063,34.9453125 C22.7613516,34.8743672 22.7683125,34.8015234 22.7683125,34.7269922 L22.7683125,33.5901094 C22.7683125,32.8881797 22.1972344,32.3171016 21.495375,32.3171016 L20.9669063,32.3171016 C21.12975,31.8679453 21.0325078,31.3460156 20.6745469,30.9881953 C20.4368906,30.7506094 20.1197109,30.6196875 19.7813672,30.6196875 C19.4402813,30.6196875 19.1198672,30.7522969 18.8791172,30.9931172 L18.0662344,31.8060703 C17.9933203,31.7877188 17.9174531,31.7768906 17.8389844,31.7768906 L16.4179688,31.7768906 C16.1267344,31.7768906 15.890625,32.013 15.890625,32.3042344 C15.890625,32.5954688 16.1267344,32.8315781 16.4179688,32.8315781 L17.7178359,32.8315781 L17.7178359,34.9453125 L8.559,34.9453125 L8.559,28.3514766 L10.7360156,28.3514766 C10.8932344,28.3514766 11.0211328,28.4793047 11.0211328,28.6365234 L11.0211328,32.3042344 C11.0211328,32.5954688 11.2572422,32.8315781 11.5484766,32.8315781 L13.9570313,32.8315781 C14.2482656,32.8315781 14.484375,32.5954688 14.484375,32.3042344 C14.484375,32.013 14.2482656,31.7768906 13.9570313,31.7768906 L12.07575,31.7768906 L12.07575,28.6365234 C12.07575,27.8978203 11.4747187,27.2967891 10.7359453,27.2967891 L8.559,27.2967891 L8.559,24.7489453 C8.559,24.1437656 9.05132813,23.6515078 9.6564375,23.6515078 L10.4224219,23.6515078 L11.0681719,24.4636172 C12.8353359,26.6859844 15.3855,27.9606094 18.0647578,27.9606094 C20.7440859,27.9606094 23.29425,26.6859844 25.0614141,24.4636172 L25.7072344,23.6515078 L26.4732891,23.6515078 C27.0783984,23.6515078 27.5707266,24.1438359 27.5707266,24.7489453 L27.5707266,34.9453125 Z" id="Shape" fill="#30C7DB"></path>
                    <path d="M24.9856172,27.5182734 C24.4970859,27.5182734 24.0379453,27.7085391 23.6929219,28.0537031 L23.6773828,28.0692422 L23.6619141,28.0537734 C23.3165391,27.7083984 22.8574688,27.5182031 22.3690781,27.5182031 C21.8806875,27.5182031 21.4214766,27.7083984 21.0761719,28.0537734 C20.7311484,28.3987969 20.5411641,28.8578672 20.5411641,29.3466094 C20.5411641,29.8353516 20.7311484,30.2944922 21.0761719,30.6395156 L23.1121406,32.6754844 C23.2612734,32.8242656 23.4593438,32.9061797 23.6699297,32.9061797 C23.8798828,32.9061797 24.0773906,32.8246875 24.2258906,32.6771016 L26.2784531,30.6395859 C26.6238984,30.2942109 26.8140938,29.8350703 26.8140938,29.3466094 C26.8140938,28.8581484 26.6238984,28.3990078 26.2785938,28.0538437 C25.9332188,27.7084688 25.4740078,27.5182734 24.9856172,27.5182734 Z M25.5339844,29.8924453 L23.6704922,31.7423672 L21.8219766,29.8938516 C21.6761484,29.7480234 21.5958516,29.5536797 21.5958516,29.3466797 C21.5958516,29.1396797 21.6761484,28.9454063 21.8219063,28.7996484 C21.9680859,28.6534688 22.1623594,28.5730313 22.3690781,28.5730313 C22.5757266,28.5730313 22.77,28.6535391 22.9161797,28.7997188 L23.3044453,29.1879141 C23.5103906,29.3937891 23.8441641,29.3937891 24.0501094,29.1879141 L24.4386563,28.7995078 C24.5846953,28.6533984 24.7788984,28.5729609 24.9855469,28.5729609 C25.1921953,28.5729609 25.3865391,28.6534688 25.5326484,28.7996484 C25.6787578,28.9456875 25.7592656,29.1399609 25.7592656,29.3466094 C25.7592656,29.5533281 25.6788281,29.7476016 25.5339844,29.8924453 Z" id="Shape" fill="#30C7DB"></path>
                    <path d="M16.3882969,14.6271797 C16.1823516,14.4212344 15.8484375,14.4212344 15.6425625,14.6271797 C15.1813125,15.0884297 14.4308672,15.0884297 13.9696172,14.6271797 C13.7636719,14.4212344 13.4297578,14.4212344 13.2238828,14.6271797 C13.0179375,14.833125 13.0179375,15.1670391 13.2238828,15.3729141 C13.6601016,15.8091328 14.2331484,16.0272422 14.806125,16.0272422 C15.3791016,16.0272422 15.9521484,15.8091328 16.3883672,15.3729141 C16.5942422,15.1670391 16.5942422,14.833125 16.3882969,14.6271797 Z" id="Path" fill="#30C7DB"></path>
                    <path d="M21.3237422,16.0273125 C21.8967187,16.0273125 22.4697656,15.8092031 22.9059844,15.3729844 C23.1119297,15.1670391 23.1119297,14.833125 22.9059844,14.62725 C22.7000391,14.4213047 22.366125,14.4213047 22.16025,14.62725 C21.699,15.0885 20.9485547,15.0885 20.4873047,14.62725 C20.2813594,14.4213047 19.9474453,14.4213047 19.7415703,14.62725 C19.535625,14.8331953 19.535625,15.1671094 19.7415703,15.3729844 C20.1777187,15.8092031 20.7507656,16.0273125 21.3237422,16.0273125 Z" id="Path" fill="#30C7DB"></path>
                    <path d="M18.4164609,17.7278203 L18.8772891,17.7278203 C19.1685234,17.7278203 19.4046328,17.4917109 19.4046328,17.2004766 C19.4046328,16.9092422 19.1685234,16.6731328 18.8772891,16.6731328 L18.5922422,16.6731328 L18.5922422,15.4944141 C18.5922422,15.2031797 18.3561328,14.9670703 18.0648984,14.9670703 C17.7736641,14.9670703 17.5375547,15.2031797 17.5375547,15.4944141 L17.5375547,16.8489141 C17.5375547,17.3335781 17.9317969,17.7278203 18.4164609,17.7278203 Z" id="Path" fill="#30C7DB"></path>
                    <path d="M20.4065859,19.3676484 C20.6125312,19.1617031 20.6125312,18.8277891 20.4065859,18.6218438 C20.2006406,18.4158984 19.8667266,18.4158984 19.6607812,18.6218438 C18.78075,19.501875 17.3489063,19.501875 16.468875,18.6218438 C16.2629297,18.4158984 15.9290156,18.4158984 15.7231406,18.6218438 C15.5171953,18.8277891 15.5171953,19.1617031 15.7231406,19.3676484 C16.36875,20.0132578 17.2167891,20.3360625 18.0648281,20.3360625 C18.9129375,20.3360625 19.7609766,20.0132578 20.4065859,19.3676484 Z" id="Path" fill="#30C7DB"></path>
                    <path d="M5.24594531,9.59385938 L4.60933594,9.59385938 L4.60933594,8.95725 C4.60933594,8.66601562 4.37322656,8.42990625 4.08199219,8.42990625 C3.79075781,8.42990625 3.55464844,8.66601562 3.55464844,8.95725 L3.55464844,9.59385938 L2.91803906,9.59385938 C2.62680469,9.59385938 2.39069531,9.82996875 2.39069531,10.1212031 C2.39069531,10.4124375 2.62680469,10.6485469 2.91803906,10.6485469 L3.55464844,10.6485469 L3.55464844,11.2851562 C3.55464844,11.5763906 3.79075781,11.8125 4.08199219,11.8125 C4.37322656,11.8125 4.60933594,11.5763906 4.60933594,11.2851562 L4.60933594,10.6485469 L5.24594531,10.6485469 C5.53717969,10.6485469 5.77328906,10.4124375 5.77328906,10.1212031 C5.77328906,9.82996875 5.53717969,9.59385938 5.24594531,9.59385938 Z" id="Path" fill="#30C7DB"></path>
                </g>
            </g>
        </g>
    </g>
</svg>