<?xml version="1.0" encoding="UTF-8"?>
<svg width="54px" height="54px" viewBox="0 0 54 54" version="1.1" xmlns="http://www.w3.org/2000/svg" xmlns:xlink="http://www.w3.org/1999/xlink">
    <!-- Generator: sketchtool 61.2 (101010) - https://sketch.com -->
    <title>6A8758FA-998D-4853-BCE1-510B83628B87</title>
    <desc>Created with sketchtool.</desc>
    <g id="Proceso-E-Commerce-Propuesta" stroke="none" stroke-width="1" fill="none" fill-rule="evenodd">
        <g id="Oncosalud_Wireframes_Desktop_FiltroSelectedPreguntas2" transform="translate(-213.000000, -278.000000)">
            <g id="icon_years_old" transform="translate(213.000000, 278.000000)">
                <circle id="Oval" fill-opacity="0.1" fill="#30C7DB" cx="27" cy="27" r="27"></circle>
                <g id="age-range" transform="translate(9.000000, 9.000000)" fill-rule="nonzero">
                    <circle id="Oval" fill="#FFFFFF" cx="14.8239844" cy="14.8111875" r="14.2468594"></circle>
                    <path d="M24.9546094,11.6012812 L24.9546094,11.59875 C24.9519375,11.5903125 24.9487031,11.5822969 24.9460312,11.5738594 C23.3959219,6.72525 18.6354844,3.68254687 13.6385156,4.24814062 C7.78035937,4.9100625 3.60351562,10.2040312 4.25925,15.9953906 C4.87279687,21.4284375 9.50146875,25.5166875 14.9674219,25.4406094 C22.1333906,25.3369687 27.0943594,18.3545156 24.9546094,11.6012812 L24.9546094,11.6012812 Z" id="Path" fill="#FFFFFF"></path>
                    <circle id="Oval" fill="#FFFFFF" cx="26.7200156" cy="27.0144844" r="8.4211875"></circle>
                    <polygon id="Path" fill="#FFFFFF" points="33.5808281 27.0144844 31.030875 28.4866875 28.4809219 29.9588906 28.4809219 27.0144844 28.4809219 24.0700781 31.030875 25.5422813"></polygon>
                    <polygon id="Path" fill="#FFFFFF" points="19.8590625 27.0144844 22.4090156 25.5422813 24.9591094 24.0700781 24.9591094 27.0144844 24.9591094 29.9588906 22.4090156 28.4866875"></polygon>
                    <g id="Group" fill="#30C7DB">
                        <path d="M10.7303906,10.0624219 L9.99070313,10.0624219 C9.94289063,10.0624219 9.89789063,10.0736719 9.85570313,10.0961719 L8.04023438,11.0678906 C7.92492188,11.1297656 7.86726563,11.2619531 7.89960938,11.3885156 L8.00367188,11.7991406 C8.04867188,11.9777344 8.25117188,12.0663281 8.41429688,11.9791406 L9.74320313,11.2605469 L9.77273438,11.2605469 L9.77273438,19.2747656 C9.77273438,19.4322656 9.90070312,19.5588281 10.0567969,19.5588281 L10.7303906,19.5588281 C10.8878906,19.5588281 11.0144531,19.4322656 11.0144531,19.2747656 L11.0144531,10.3464844 C11.0144531,10.1903906 10.8878906,10.0624219 10.7303906,10.0624219 Z" id="Path"></path>
                        <path d="M17.5450781,14.5033594 L17.5450781,14.4597656 C18.7136719,13.9057031 19.1088281,13.0436719 19.1088281,12.2392969 C19.1088281,11.0566406 18.1877344,9.90210937 16.3469531,9.90210937 C14.6819531,9.90210937 13.4107031,10.9244531 13.4107031,12.4291406 C13.4107031,13.2475781 13.8635156,14.0660156 14.9153906,14.5624219 L14.9294531,14.6060156 C13.7608594,15.1024219 13.0450781,15.9503906 13.0450781,17.1485156 C13.0450781,18.5364844 14.2432031,19.7191406 16.2302344,19.7191406 C18.0414844,19.7191406 19.4589844,18.6096094 19.4589844,16.9586719 C19.4589844,15.8041406 18.7291406,14.9716406 17.5450781,14.5033594 L17.5450781,14.5033594 Z M14.6228906,12.3419531 C14.6228906,11.5235156 15.2078906,10.8217969 16.2738281,10.8217969 C17.4283594,10.8217969 17.8811719,11.6107031 17.8811719,12.3714844 C17.8811719,13.2025781 17.2975781,13.7749219 16.5213281,14.0646094 C16.4650781,14.0842969 16.4032031,14.0871094 16.3455469,14.0702344 C15.3007031,13.7749219 14.6228906,13.2658594 14.6228906,12.3419531 L14.6228906,12.3419531 Z M16.2597656,18.7853906 C15.0475781,18.7853906 14.3163281,17.9374219 14.3599219,16.9727344 C14.3599219,16.0910156 14.9294531,15.3738281 15.9855469,15.0405469 C16.0403906,15.0236719 16.0994531,15.0236719 16.1542969,15.0391406 C17.3903906,15.4047656 18.1582031,15.9616406 18.1582031,17.0894531 C18.1582031,18.0682031 17.4142969,18.7853906 16.2597656,18.7853906 Z" id="Shape"></path>
                        <path d="M19.4702344,8.77710938 L21.1633594,8.77710938 L21.1633594,10.4702344 C21.1633594,11.2134375 22.2883594,11.2145625 22.2883594,10.4702344 L22.2883594,8.77710938 L23.9814844,8.77710938 C24.7246875,8.77710938 24.7258125,7.65210938 23.9814844,7.65210938 L22.2883594,7.65210938 L22.2883594,5.95898438 C22.2883594,5.21578125 21.1633594,5.21465625 21.1633594,5.95898438 L21.1633594,7.65210938 L19.4702344,7.65210938 C18.7270312,7.65210938 18.7259062,8.77710938 19.4702344,8.77710938 Z" id="Path"></path>
                        <path d="M29.1986719,18.3789844 C31.5206719,9.03360937 24.4071562,0.002109375 14.8239844,0.002109375 C6.65789063,0.002109375 0.014765625,6.64523437 0.014765625,14.8113281 C0.014765625,24.2686406 8.80720313,31.321125 18.0232031,29.2717969 C19.0272656,33.1361719 22.5457031,35.9978906 26.7194531,35.9978906 C31.6736719,35.9978906 35.7039844,31.9675781 35.7039844,27.0147656 C35.7039844,22.9197656 32.9505469,19.4561719 29.1986719,18.3789844 Z M26.7194531,34.8728906 C22.3845469,34.8728906 18.8613281,31.3453125 18.8613281,27.0147656 C18.8613281,22.6390781 22.4243437,19.1552344 26.7194531,19.1552344 C31.0431094,19.1552344 34.5789844,22.6707188 34.5789844,27.0147656 C34.5789844,31.3474219 31.0535156,34.8728906 26.7194531,34.8728906 Z M1.13976562,14.8113281 C1.13976562,7.26539063 7.27804687,1.12710938 14.8239844,1.12710938 C23.6922188,1.12710938 30.2678438,9.493875 28.0989844,18.1357031 C27.2109375,17.9997188 26.3358281,17.9994375 25.5213281,18.1103906 C26.3271094,15.5186719 26.1625781,12.7188281 25.0164844,10.1875781 C24.7096406,9.50976563 23.6844844,9.97410938 23.9913281,10.6516406 C25.1121094,13.1252344 25.1894531,15.8842969 24.2374219,18.3789844 C21.3503906,19.2100781 19.0553906,21.4544531 18.1525781,24.3105469 C18.0583594,24.3442969 17.9627344,24.3752344 17.8671094,24.4061719 C15.3035156,25.2189844 12.5767969,24.9855469 10.1903906,23.7480469 C5.26289063,21.1928906 3.33210938,15.1052344 5.88726563,10.1777344 C8.44242188,5.24882813 14.5300781,3.31945313 19.4575781,5.87460938 C20.1214688,6.2173125 20.6378438,5.21971875 19.9750781,4.87476563 C14.4977344,2.03554688 7.72945313,4.18148438 4.88882813,9.65882813 C2.04820313,15.1375781 4.19414063,21.9058594 9.67289063,24.7464844 C12.2132813,26.0631563 15.1022813,26.3602969 17.8502344,25.5846094 C17.7181875,26.4088125 17.6961094,27.2728125 17.8094531,28.1664844 C9.26451563,30.0806719 1.13976562,23.5437188 1.13976562,14.8113281 Z" id="Shape"></path>
                        <path d="M33.8617969,26.5267969 L28.7613281,23.5821094 C28.5883594,23.4822656 28.3732031,23.4822656 28.1988281,23.5821094 C28.0258594,23.6833594 27.9175781,23.8689844 27.9175781,24.0700781 L27.9175781,26.4522656 L25.5213281,26.4522656 C25.5213281,25.5872813 25.5213281,24.9526406 25.5213281,24.0700781 C25.5213281,23.6387813 25.0550156,23.3659688 24.6775781,23.5821094 L19.5771094,26.5267969 C19.267875,26.7077813 19.083375,27.2172656 19.7261719,27.5871094 C20.6904375,28.1444062 20.06325,27.7821562 24.6775781,30.4460156 C25.0460156,30.6599062 25.5213281,30.3967969 25.5213281,29.9580469 L25.5213281,27.5772656 L27.9175781,27.5772656 L27.9175781,29.9580469 C27.9175781,30.4011563 28.4014687,30.6583594 28.7613281,30.4460156 L33.8617969,27.5013281 C34.2344531,27.288 34.23825,26.7453281 33.8617969,26.5267969 Z M24.3963281,28.9849219 C20.9280937,26.9827031 21.8027812,27.4874062 20.9974219,27.0232031 C21.8864531,26.5699687 21.2871094,26.84025 24.3963281,25.0446094 L24.3963281,28.9849219 Z M29.0425781,28.9849219 L29.0425781,25.0446094 L32.4555469,27.0147656 L29.0425781,28.9849219 Z" id="Shape"></path>
                    </g>
                </g>
            </g>
        </g>
    </g>
</svg>