<?xml version="1.0" encoding="UTF-8"?>
<svg width="54px" height="54px" viewBox="0 0 54 54" version="1.1" xmlns="http://www.w3.org/2000/svg" xmlns:xlink="http://www.w3.org/1999/xlink">
    <!-- Generator: sketchtool 61.2 (101010) - https://sketch.com -->
    <title>D2D4350F-715E-4D56-943A-923B8D26F11E</title>
    <desc>Created with sketchtool.</desc>
    <g id="Proceso-E-Commerce-Propuesta" stroke="none" stroke-width="1" fill="none" fill-rule="evenodd">
        <g id="Oncosalud_Wireframes_Desktop_Cotización" transform="translate(-213.000000, -208.000000)" fill="#30C7DB">
            <g id="icon_programas_para_ti" transform="translate(213.000000, 208.000000)">
                <circle id="Oval" fill-opacity="0.1" cx="27" cy="27" r="27"></circle>
                <g id="care" transform="translate(6.000000, 9.000000)" fill-rule="nonzero">
                    <path d="M25.3454101,30.8338341 L22.1270599,30.8338341 C21.6690138,30.8338341 21.2976498,31.2051152 21.2976498,31.6632442 C21.2976498,32.1213733 21.6690138,32.4926544 22.1270599,32.4926544 L25.3454101,32.4926544 C25.8421106,32.4926544 26.2462396,32.8967005 26.2462396,33.3934009 C26.2462396,33.8901014 25.8421935,34.2941475 25.3454101,34.2941475 L16.6818525,34.2941475 C15.3795484,34.2941475 14.1548848,33.7199724 13.3220737,32.7187742 L11.2502488,30.22847 C10.1385622,28.8921567 8.52063594,28.10953 6.78948387,28.0600092 L6.78948387,23.1604424 L9.84334562,23.1604424 C11.3493733,23.1604424 12.7753548,23.7364424 13.8587558,24.7822673 L18.3303871,29.0985346 C18.6465069,29.4037051 18.6612719,29.9146728 18.363235,30.2375115 C18.0594747,30.5664885 17.5438618,30.5879724 17.2138065,30.2854562 L13.7031429,27.0673548 C13.3656221,26.757871 12.8408848,26.7805991 12.5314009,27.1182857 C12.2218341,27.4559724 12.2446452,27.9806267 12.5823318,28.2901106 L16.0929954,31.508212 C16.56647,31.9422028 17.1656129,32.1565438 17.7632627,32.1565438 C18.4305069,32.1565438 19.0958433,31.8893641 19.5821751,31.362553 C20.4868203,30.3825069 20.4421106,28.8315207 19.48247,27.9051429 L15.0108387,23.5888756 C13.6165438,22.2429401 11.7813733,21.5017051 9.84334562,21.5017051 L6.62839631,21.5017051 C6.31634101,20.7631244 5.58447926,20.243447 4.73358525,20.243447 L0.829410138,20.243447 C0.371364055,20.243447 0,20.6147281 0,21.0728571 L0,27.1378618 C0,27.5959078 0.371364055,27.9672719 0.829410138,27.9672719 C1.28745622,27.9672719 1.65882028,27.5959908 1.65882028,27.1378618 L1.65882028,21.9021843 L4.7336682,21.9021843 C4.95265438,21.9021843 5.13074654,22.0803594 5.13074654,22.2992627 L5.13074654,28.9470691 C5.13074654,29.1659724 4.95265438,29.3441475 4.7336682,29.3441475 L3.87223963,29.3441475 C3.41419355,29.3441475 3.04282949,29.7154286 3.04282949,30.1735576 C3.04282949,30.6316037 3.41419355,31.0029677 3.87223963,31.0029677 L4.73358525,31.0029677 C5.59592627,31.0029677 6.33541935,30.469106 6.64025806,29.714682 C7.93327189,29.7220645 9.14756682,30.2946636 9.97506912,31.2893917 L12.046894,33.7796959 C13.1959078,35.1608848 14.8852535,35.9529677 16.6818525,35.9529677 L25.3454101,35.9529677 C26.7567097,35.9529677 27.904977,34.8047834 27.904977,33.3934009 C27.904977,31.9820184 26.7567097,30.8338341 25.3454101,30.8338341 Z" id="Path"></path>
                    <path d="M41.6406359,7.70881106 C41.1825899,7.70881106 40.8112258,8.08009217 40.8112258,8.5382212 L40.8112258,14.0978986 L37.7363779,14.0978986 C37.5173917,14.0978986 37.3392995,13.9197235 37.3392995,13.7008203 L37.3392995,7.05301382 C37.3392995,6.8341106 37.5173917,6.65593548 37.7363779,6.65593548 L38.5369217,6.65593548 C38.9949677,6.65593548 39.3663318,6.28465438 39.3663318,5.82652535 C39.3663318,5.36847926 38.9949677,4.99711521 38.5369217,4.99711521 L37.7363779,4.99711521 C36.8740369,4.99711521 36.1345438,5.53097696 35.8297051,6.28540092 C34.5366912,6.27801843 33.3223963,5.70541935 32.494894,4.71069124 L30.4230691,2.22047005 C29.2741382,0.839281106 27.5847097,0.0471152074 25.7880276,0.0471152074 L17.1246359,0.0471152074 C15.7133364,0.0471152074 14.5650691,1.19529954 14.5650691,2.60659908 C14.5650691,4.01789862 15.7133364,5.16608295 17.1246359,5.16608295 L20.667235,5.16608295 C21.1252811,5.16608295 21.4966452,4.79480184 21.4966452,4.33667281 C21.4966452,3.87854378 21.1252811,3.50726267 20.667235,3.50726267 L17.1246359,3.50726267 C16.6279355,3.50726267 16.2238065,3.10321659 16.2238065,2.60651613 C16.2238065,2.10989862 16.6278525,1.70576959 17.1246359,1.70576959 L25.7881106,1.70576959 C27.0904977,1.70576959 28.3151613,2.2799447 29.1479724,3.28114286 L31.2197972,5.77136406 C32.3314009,7.10767742 33.9494101,7.89030415 35.6805622,7.93990783 L35.6805622,12.8394747 L32.6267005,12.8394747 C31.1206728,12.8394747 29.6946912,12.2634747 28.6112903,11.2176498 L24.139659,6.90138249 C23.8235392,6.59621198 23.8087742,6.08532719 24.1068111,5.76240553 C24.4105714,5.43334562 24.9261843,5.4119447 25.2562396,5.71446083 L28.7669862,8.93256221 C29.1046728,9.24204608 29.6291613,9.21931797 29.9388111,8.88163134 C30.2482949,8.5439447 30.2254839,8.01929032 29.8877972,7.70980645 L26.3770507,4.49178802 C25.375023,3.57329032 23.8099355,3.63873733 22.887871,4.637447 C21.9832258,5.61757604 22.0279355,7.16856221 22.987576,8.09485714 L27.4592074,12.4111244 C28.8535023,13.7570599 30.6886728,14.4982949 32.6267005,14.4982949 L35.8416498,14.4982949 C36.1537051,15.2368756 36.8855668,15.756553 37.7364608,15.756553 L41.6407189,15.756553 C42.098765,15.756553 42.470129,15.3852719 42.470129,14.9271429 L42.470129,8.5380553 C42.470129,8.08009217 42.098682,7.70881106 41.6406359,7.70881106 Z" id="Path"></path>
                    <path d="M26.7791889,28.2561014 C26.5905622,27.8387005 26.1003318,27.6524793 25.6832627,27.841023 C25.2632074,28.0239263 25.0710968,28.5126636 25.254,28.932553 C25.389871,29.2446912 25.6947926,29.4309954 26.0148111,29.4309954 C26.1253825,29.4309954 26.2376959,29.408765 26.34553,29.3618157 C26.3490138,29.3603226 26.3599631,29.3554286 26.3633641,29.3539355 C26.7808479,29.1653917 26.9677327,28.6735853 26.7791889,28.2561014 Z" id="Path"></path>
                    <path d="M28.840894,26.8597327 C28.5697327,26.4914378 28.0485622,26.4147926 27.6798525,26.6847097 C27.3103134,26.9552903 27.2300184,27.4743041 27.5005991,27.8438433 C27.6630968,28.0657327 27.9149309,28.1833548 28.1704147,28.1833548 C28.3404608,28.1833548 28.5120829,28.1312627 28.6597327,28.0231797 C28.6610599,28.0222673 28.6688571,28.0164608 28.6701014,28.0155484 C29.0374839,27.7434747 29.1119724,27.2278618 28.840894,26.8597327 Z" id="Path"></path>
                    <path d="M24.460424,29.1872074 C24.3659447,28.7405253 23.9273917,28.4545161 23.4802949,28.5469217 C23.0336959,28.6355945 22.7417143,29.0681751 22.827318,29.5161014 C22.9032995,29.9134286 23.2509401,30.1898986 23.6410507,30.1898986 C23.6926452,30.1898986 23.7451521,30.1850046 23.797659,30.1749677 C23.8030507,30.1738894 23.8166544,30.1711521 23.822129,30.1699908 C24.2700553,30.0750138 24.555235,29.6352166 24.460424,29.1872074 Z" id="Path"></path>
                    <path d="M30.5735392,25.0557512 C30.233447,24.7490046 29.7091244,24.7759631 29.402212,25.1161382 C29.3981475,25.1207005 29.3886083,25.1314839 29.3846267,25.1360461 C29.0853456,25.4828571 29.124,26.0065991 29.4708111,26.3057972 C29.6275023,26.4410046 29.8202765,26.5071982 30.0121382,26.5071982 C30.2424885,26.5071982 30.4715115,26.4118065 30.6352535,26.2256682 C30.9406728,25.8854931 30.9132166,25.3620829 30.5735392,25.0557512 Z M30.1566488,25.8106 L30.0181106,25.6716498 L30.1681106,25.8216498 L30.1566488,25.8106 Z" id="Shape"></path>
                    <path d="M32.6845991,20.560894 C32.2462949,20.4279263 31.7826083,20.6780184 31.6496406,21.1164055 C31.5149309,21.554212 31.7606267,22.0183134 32.1984332,22.153023 C32.2796406,22.1780737 32.3617604,22.1899355 32.442553,22.1899355 C32.7970783,22.1899355 33.1253088,21.9608295 33.2349677,21.6042304 L33.2384516,21.5928664 C33.3713364,21.1544793 33.1229032,20.6937788 32.6845991,20.560894 Z" id="Path"></path>
                    <path d="M33.7469309,16.280212 C33.745106,16.2696774 33.7431152,16.2591429 33.7408756,16.2486083 C33.6472258,15.8003502 33.2079263,15.5135945 32.7598341,15.6070783 C32.313318,15.7001475 32.0262304,16.1367926 32.1161475,16.5832258 C32.192212,16.978977 32.539023,17.2559447 32.9295484,17.2559447 C32.9780737,17.2559447 33.0273456,17.2517143 33.0767005,17.2428387 C33.5276129,17.162129 33.8276406,16.7311244 33.7469309,16.280212 Z" id="Path"></path>
                    <path d="M32.9862857,18.0797972 C32.5314747,18.0396498 32.1275115,18.3768387 32.0872811,18.8330599 C32.0865346,18.841106 32.0853733,18.857447 32.0848756,18.8654931 C32.058,19.3227926 32.4068018,19.7153088 32.8641014,19.7421843 C32.8806912,19.7431797 32.8971152,19.7436774 32.9135392,19.7436774 C33.3453733,19.7436774 33.7082765,19.4097235 33.7400461,18.9748203 C33.777871,18.5202581 33.4412627,18.1199447 32.9862857,18.0797972 Z" id="Path"></path>
                    <path d="M31.8726912,22.9209677 C31.4745346,22.6952627 30.9680461,22.8351152 30.7422581,23.2336866 L30.7307281,23.254424 C30.5123226,23.6570599 30.6597235,24.164129 31.0622765,24.3825346 C31.1889401,24.4512166 31.3252258,24.4838157 31.4595207,24.4838157 C31.7522488,24.4838157 32.035023,24.3285346 32.1847465,24.0524793 L31.4637512,23.6425438 L32.1853272,24.0514839 C32.4111982,23.6529124 32.2712627,23.1468387 31.8726912,22.9209677 Z" id="Path"></path>
                    <path d="M16.83,7.12534562 C16.6251982,6.71557604 16.1267558,6.54942857 15.717318,6.75439631 L15.7099355,6.75804608 C15.3001659,6.96293088 15.1378341,7.45921659 15.3427189,7.86890323 C15.4877972,8.15914286 15.7817696,8.32620276 16.0865253,8.32620276 C16.2121106,8.32620276 16.3395207,8.2978341 16.4590507,8.2381106 C16.8688203,8.03330876 17.0348018,7.53511521 16.83,7.12534562 Z" id="Path"></path>
                    <path d="M19.2294747,6.43379724 C19.1215576,5.98877419 18.6737972,5.71520737 18.2279447,5.82320737 C18.224129,5.82411982 18.2123502,5.82710599 18.2085346,5.82810138 C17.7649217,5.94240553 17.4962488,6.39505991 17.61047,6.83858986 C17.7069401,7.21285714 18.0426359,7.46162212 18.4116774,7.46162212 C18.4800276,7.46162212 18.5495392,7.45307834 18.6188848,7.43524424 C19.0639908,7.32732719 19.3373917,6.87898618 19.2294747,6.43379724 Z" id="Path"></path>
                    <path d="M14.6369032,8.32139171 C14.3500645,7.96495853 13.8278157,7.90896774 13.4709677,8.19514286 L13.9851705,8.84588018 L13.4684793,8.19705069 C13.1101382,8.48239631 13.0509954,9.00414747 13.3362581,9.36248848 C13.5001659,9.56820276 13.7417972,9.67529032 13.9857512,9.67529032 C14.1667465,9.67529032 14.3491521,9.61623041 14.5018618,9.49470968 L14.5128111,9.48591705 C14.8686636,9.1984977 14.9237419,8.67782488 14.6369032,8.32139171 Z" id="Path"></path>
                    <path d="M10.2146267,14.2225714 C9.77267281,14.102129 9.31678341,14.3625069 9.19625806,14.8044608 C9.19418433,14.8120092 9.19020276,14.8276866 9.18829493,14.835318 C9.08046083,15.280341 9.35386175,15.7278525 9.79880184,15.8359355 C9.8644977,15.8518618 9.93019355,15.8594931 9.99489401,15.8594931 C10.3670046,15.8594931 10.705106,15.6069954 10.7993364,15.2306544 C10.9130599,14.7920184 10.6531797,14.3421843 10.2146267,14.2225714 Z" id="Path"></path>
                    <path d="M9.68623963,16.6595392 C9.2277788,16.6340737 8.83675576,16.9823779 8.81021198,17.4395945 C8.80954839,17.4502949 8.80913364,17.4609124 8.80880184,17.47153 C8.79536406,17.9291613 9.155447,18.3104793 9.61316129,18.3241659 C9.62162212,18.3244147 9.62991705,18.3245806 9.63829493,18.3245806 C10.0829032,18.3245806 10.4502857,17.9717972 10.4667097,17.5251982 C10.487447,17.0723779 10.1400553,16.6859171 9.68623963,16.6595392 Z" id="Path"></path>
                    <path d="M11.2584608,11.9559816 C10.8527558,11.7431336 10.3514931,11.8994931 10.1387281,12.3051152 L10.1252074,12.3318249 C9.92305991,12.7426728 10.0926083,13.2388756 10.5033733,13.4411889 C10.6209954,13.4991705 10.7456682,13.5265438 10.868682,13.5265438 C11.1732719,13.5265438 11.4664977,13.3579908 11.6118249,13.0676682 C11.8183687,12.6634562 11.6614286,12.1674194 11.2584608,11.9559816 Z" id="Path"></path>
                    <path d="M12.7563594,9.96047005 C12.4039078,9.66790783 11.8809954,9.71643318 11.5884332,10.0688018 C11.5844516,10.0736959 11.5753272,10.084977 11.5713456,10.089871 C11.2869954,10.4487926 11.3477972,10.9695484 11.706553,11.2540645 C11.8588479,11.3749217 12.0405069,11.4334839 12.2210046,11.4334839 C12.4642949,11.4334839 12.7055115,11.326977 12.8693364,11.1227558 C13.1566728,10.77047 13.1069032,10.2515392 12.7563594,9.96047005 Z" id="Path"></path>
                    <path d="M10.6235668,19.8272074 C10.5428571,19.3762949 10.1116037,19.0762673 9.66094009,19.1570599 C9.21002765,19.2378525 8.91,19.6687742 8.99070968,20.1196866 L8.99220276,20.1278157 C9.06403687,20.5287097 9.41217512,20.8071705 9.80543779,20.8071705 C9.85446083,20.8071705 9.90414747,20.8028571 9.95408295,20.7938986 C10.4049954,20.7131889 10.7043594,20.2781198 10.6235668,19.8272074 Z" id="Path"></path>
                    <path d="M24.0828387,13.531106 C23.0032535,13.531106 22.0029677,13.9762949 21.2901843,14.7275668 C20.577318,13.9762949 19.5771152,13.531106 18.49753,13.531106 C16.3737788,13.531106 14.6460276,15.2588571 14.6460276,17.3826083 C14.6460276,18.528553 15.1514378,19.6070599 16.0325253,20.341659 C16.0378341,20.3461382 16.0433088,20.3505346 16.0487834,20.3549309 L20.775318,24.0969401 C20.9261198,24.2163871 21.1081106,24.2760276 21.2901014,24.2760276 C21.4729217,24.2760276 21.6557419,24.2158065 21.8068756,24.0953641 L26.7336498,20.1710323 C26.757788,20.151871 26.780765,20.1312995 26.8025806,20.1095668 C27.5324516,19.3816866 27.934341,18.4132535 27.934341,17.3826083 C27.934341,15.2588571 26.2065899,13.531106 24.0828387,13.531106 Z M25.6611982,18.9048111 L21.2886912,22.3876866 L17.0873088,19.0615023 C16.5899447,18.643106 16.3048479,18.0318525 16.3048479,17.3827742 C16.3048479,16.1736221 17.2884608,15.1899263 18.49753,15.1899263 C19.387659,15.1899263 20.1830599,15.7215484 20.5239816,16.5442396 C20.65247,16.8540553 20.9548203,17.0561198 21.2901843,17.0561198 C21.6255484,17.0561198 21.9278986,16.8541382 22.0563871,16.5442396 C22.3973088,15.7215484 23.1927097,15.1899263 24.0828387,15.1899263 C25.2919078,15.1899263 26.2756037,16.1736221 26.2756037,17.3826912 C26.2756037,17.9552074 26.0576959,18.4940461 25.6611982,18.9048111 Z" id="Shape"></path>
                    <circle id="Oval" cx="0.829410138" cy="30.1736406" r="1"></circle>
                    <circle id="Oval" cx="41.640553" cy="5.82635945" r="1"></circle>
                </g>
            </g>
        </g>
    </g>
</svg>