<?xml version="1.0" encoding="UTF-8"?>
<svg width="64px" height="64px" viewBox="0 0 64 64" version="1.1" xmlns="http://www.w3.org/2000/svg" xmlns:xlink="http://www.w3.org/1999/xlink">
    <!-- Generator: sketchtool 61.2 (101010) - https://sketch.com -->
    <title>848EDD3E-A068-45E6-97DA-85AB58FCDDF4</title>
    <desc>Created with sketchtool.</desc>
    <g id="Proceso-E-Commerce-Propuesta" stroke="none" stroke-width="1" fill="none" fill-rule="evenodd">
        <g id="Oncosalud_Wireframes_Desktop_SeresQueridos1" transform="translate(-768.000000, -463.000000)">
            <g id="icon_conyuge_conviviente" transform="translate(768.000000, 463.000000)">
                <circle id="Oval" fill-opacity="0.1" fill="#30C7DB" cx="32" cy="32" r="32"></circle>
                <g id="grandparents" transform="translate(11.130435, 9.739130)" fill-rule="nonzero">
                    <path d="M23.5816522,35.9607826 C23.5816522,35.9607826 21.5332174,36.5712174 20.8304348,35.8684348 C20.1276522,35.1656522 20.8304348,33.3627826 20.8304348,33.3627826 L24.3104348,31.9386957 L23.5816522,35.9607826 Z" id="Path" fill="#FFFFFF"></path>
                    <path d="M39.0810435,33.3628696 C39.0810435,33.3628696 39.7838261,35.1657391 39.0810435,35.8685217 C38.3782609,36.5713043 36.3298261,35.9608696 36.3298261,35.9608696 L35.431913,32.2093913 L39.0810435,33.3628696 Z" id="Path" fill="#FFFFFF"></path>
                    <path d="M36.2923478,33.3624348 C36.2923478,33.3624348 32.104087,36.8107826 29.9561739,34.662087 C27.8074783,36.8107826 23.6191304,33.3624348 23.6191304,33.3624348 L20.830087,33.3624348 C20.830087,25.5654783 23.996,22.9904348 24.5444348,22.6023478 L35.3669565,22.6023478 C35.9153913,22.9905217 39.0813043,25.5654783 39.0813043,33.3624348 L36.2923478,33.3624348 Z" id="Path" fill="#FFFFFF"></path>
                    <path d="M35.3410435,41.8343478 L31.0193043,41.8343478 C31.0193043,41.8343478 32.1032174,36.8107826 29.9553043,34.662087 C27.8074783,36.8107826 28.8913043,41.8343478 28.8913043,41.8343478 L24.5686957,41.8343478 C23.185913,38.2906957 23.6182609,33.3624348 23.6182609,33.3624348 C23.6182609,32.8746087 23.6641739,32.3894783 23.7317391,31.9388696 L36.1787826,31.9388696 C36.2463478,32.3893913 36.2922609,32.8746087 36.2922609,33.3624348 C36.2923478,33.3624348 36.7238261,38.2906957 35.3410435,41.8343478 Z" id="Path" fill="#FFFFFF"></path>
                    <path d="M23.2732174,43.8695652 L28.8915652,43.8695652 L28.8915652,41.8346087 L25.308087,41.8346087 C24.1842609,41.8346087 23.2732174,42.7457391 23.2732174,43.8695652 Z" id="Path" fill="#FFFFFF"></path>
                    <path d="M36.6383478,43.8695652 L31.02,43.8695652 L31.02,41.8346087 L34.6034783,41.8346087 C35.7272174,41.8346087 36.6383478,42.7457391 36.6383478,43.8695652 Z" id="Path" fill="#FFFFFF"></path>
                    <path d="M39.5986087,16.0073913 L39.612087,16.0073913 C40.7716522,16.0073913 41.7113043,15.0670435 41.7113043,13.9081739 C41.7113043,12.7486087 40.7717391,11.8081739 39.612087,11.8081739 C39.5969565,11.8081739 39.581913,11.8081739 39.5667826,11.8089565 L20.3446957,11.8089565 C20.3295652,11.8081739 20.3145217,11.8081739 20.2993913,11.8081739 C19.1398261,11.8081739 18.2001739,12.7485217 18.2001739,13.9081739 C18.2001739,15.0669565 19.1397391,16.0073913 20.2993913,16.0073913 L20.3128696,16.0073913" id="Path" fill="#FFFFFF"></path>
                    <path d="M29.9555652,0.652173913 C34.8926957,0.652173913 38.5635652,2.96121739 39.1,6.35495652 C39.5729565,10.1450435 39.7124348,13.9357391 39.5178261,17.7257391 C39.3765217,20.4849565 37.168087,22.6813913 34.4089565,22.8113043 C32.9242609,22.8813043 31.4396522,22.9166957 29.9555652,22.9166957 C28.4714783,22.9166957 26.9868696,22.8813913 25.5021739,22.8113043 C22.7429565,22.6813913 20.5345217,20.4849565 20.3933043,17.7257391 C20.1987826,13.9356522 20.3382609,10.1449565 20.8111304,6.35495652 C21.3475652,2.96121739 25.0184348,0.652173913 29.9555652,0.652173913 Z" id="Path" fill="#FFFFFF"></path>
                    <path d="M39.5177391,17.726087 C39.376,20.4852174 37.1681739,22.6808696 34.4090435,22.8113043 C32.9238261,22.8808696 31.4394783,22.9165217 29.956,22.9165217 C29.0768696,22.9165217 28.1977391,22.9043478 27.3186087,22.8791304 L27.3107826,22.8791304 C26.7081739,22.8626087 26.1046957,22.8391304 25.502087,22.8113043 C22.7429565,22.6808696 20.5351304,20.4852174 20.3933913,17.726087 C20.3273043,16.4426087 20.3003478,15.1591304 20.3107826,13.8747826 L20.3116522,13.873913 C21.8046957,13.873913 22.7446957,15.8052174 24.3290435,16.3782609 C24.6055652,16.4782609 24.9012174,16.5373913 25.2229565,16.5373913 C27.3907826,16.5373913 27.5412174,14.8034783 29.956,14.8034783 C32.3707826,14.8034783 32.5212174,16.5373913 34.6881739,16.5373913 C36.8551304,16.5373913 37.8455652,13.873913 39.6003478,13.873913 C39.6107826,15.1582609 39.5838261,16.4426087 39.5177391,17.726087 L39.5177391,17.726087 Z" id="Path" fill="#FFFFFF"></path>
                    <path d="M20.3612174,10.2550435 C19.6633913,8.858 19.8226957,4.31904348 22.2912174,3.36347826 C24.7597391,2.40791304 25.6643478,7.51130435 20.3612174,10.2550435 Z" id="Path" fill="#FFFFFF"></path>
                    <path d="M39.549913,10.2550435 C40.2477391,8.858 40.0884348,4.31904348 37.619913,3.36347826 C35.1513913,2.40791304 34.2466957,7.51130435 39.549913,10.2550435 Z" id="Path" fill="#FFFFFF"></path>
                    <path d="M5.33104348,35.9607826 C5.33104348,35.9607826 3.2826087,36.5712174 2.57982609,35.8684348 C1.87704348,35.1656522 2.57982609,33.3627826 2.57982609,33.3627826 L6.05982609,31.9386957 L5.33104348,35.9607826 Z" id="Path" fill="#FFFFFF"></path>
                    <path d="M20.8304348,33.3628696 C20.8304348,33.3628696 21.5332174,35.1657391 20.8304348,35.8685217 C20.1276522,36.5713043 18.0792174,35.9608696 18.0792174,35.9608696 L17.1813043,32.2093913 L20.8304348,33.3628696 Z" id="Path" fill="#FFFFFF"></path>
                    <path d="M18.041913,33.3626087 C18.041913,33.3626087 18.474087,38.2904348 17.0914783,41.833913 L6.31930435,41.833913 C4.93582609,38.2904348 5.36886957,33.3626087 5.36886957,33.3626087 L2.57930435,33.3626087 C2.57930435,25.5652174 5.7453913,22.9904348 6.29408696,22.6026087 L17.1166957,22.6026087 C17.6645217,22.9904348 20.8306087,25.5652174 20.8306087,33.3626087 L18.041913,33.3626087 Z" id="Path" fill="#FFFFFF"></path>
                    <path d="M6.08678261,43.8695652 L11.7051304,43.8695652 L11.7051304,41.8346087 L8.12165217,41.8346087 C6.99782609,41.8346087 6.08678261,42.7457391 6.08678261,43.8695652 Z" id="Path" fill="#FFFFFF"></path>
                    <path d="M17.3234783,43.8695652 L11.7051304,43.8695652 L11.7051304,41.8346087 L15.2886087,41.8346087 C16.4124348,41.8346087 17.3234783,42.7457391 17.3234783,43.8695652 Z" id="Path" fill="#FFFFFF"></path>
                    <circle id="Oval" fill="#FFFFFF" cx="11.725913" cy="3.66026087" r="3.00808696"></circle>
                    <path d="M20.7262609,12.54 L11.7053913,18.466087 L4.95756522,14.0130435 L2.72626087,12.54 C2.72626087,12.54 0.273217391,2.93826087 11.7053913,2.93826087 L11.7471304,2.93826087 C23.1784348,2.93826087 20.7262609,12.54 20.7262609,12.54 L20.7262609,12.54 Z" id="Path" fill="#FFFFFF"></path>
                    <path d="M20.7132174,16.4621739 L20.7258261,16.4621739 C21.8090435,16.4621739 22.6867826,15.5837391 22.6867826,14.5012174 C22.6867826,13.418 21.8090435,12.5394783 20.7258261,12.5394783 C20.7117391,12.5394783 20.6976522,12.5394783 20.6835652,12.5402609 L2.72678261,12.5402609 C2.71269565,12.5394783 2.6986087,12.5394783 2.68452174,12.5394783 C1.60130435,12.5394783 0.723565217,13.417913 0.723565217,14.5012174 C0.723565217,15.5837391 1.60130435,16.4621739 2.68452174,16.4621739 L2.69713043,16.4621739" id="Path" fill="#FFFFFF"></path>
                    <ellipse id="Oval" fill="#FFFFFF" cx="11.7048696" cy="22.9164348" rx="4.424" ry="3.21243478"></ellipse>
                    <path d="M20.6526957,18.0591304 C20.5213913,20.6408696 18.4553043,22.6965217 15.8718261,22.8182609 C13.8396522,22.913913 11.8074783,22.94 9.77443478,22.8956522 C9.77182609,22.8956522 9.76834783,22.8956522 9.76573913,22.8947826 C9.02313043,22.8791304 8.28052174,22.8530435 7.53791304,22.8182609 C4.95530435,22.6965217 2.88921739,20.6408696 2.75704348,18.0591304 C2.66226087,16.2191304 2.65269565,14.38 2.72573913,12.54 L2.7266087,12.54 C2.7266087,12.54 4.84921739,12.4321739 7.52921739,11.8286957 C9.91095652,11.2930435 12.7326957,10.3652174 14.8953043,8.77391304 C14.8953043,8.77391304 17.1509565,12.54 20.684,12.54 C20.757913,14.38 20.7474783,16.2191304 20.6526957,18.0591304 Z" id="Path" fill="#FFFFFF"></path>
                    <path d="M42.3634783,13.9081739 C42.3634783,12.5835652 41.4230435,11.4747826 40.1750435,11.2141739 C40.164,10.9884348 40.1507826,10.7630435 40.1373913,10.5377391 C40.6736522,9.4526087 40.7626087,7.04426087 40.0395652,5.17521739 C39.5831304,3.99530435 38.854087,3.17208696 37.9290435,2.78652174 C36.1481739,1.01443478 33.2535652,0 29.956,0 C26.6587826,0 23.7644348,1.01391304 21.9834783,2.78504348 C21.0328696,3.18 20.3006957,4.02591304 19.8496522,5.22756522 C18.7666087,3.94904348 17.2238261,3.08391304 15.2414783,2.63886957 C14.7966087,1.0853913 13.3847826,0 11.726087,0 C10.066,0 8.65321739,1.08721739 8.20965217,2.64278261 C6.69704348,2.98391304 5.43521739,3.56817391 4.44252174,4.39547826 C4.16582609,4.62608696 4.12852174,5.03730435 4.35913043,5.314 C4.58965217,5.5906087 5.00095652,5.628 5.27765217,5.39747826 C6.71634783,4.19834783 8.87895652,3.59043478 11.7053043,3.59043478 L11.7470435,3.59043478 C15.1846957,3.59043478 17.623913,4.48356522 18.9970435,6.24504348 C20.5214783,8.2006087 20.3506957,10.7738261 20.190087,11.8597391 C19.076087,11.7330435 17.9834783,11.177913 16.9353913,10.2038261 C16.0003478,9.33486957 15.46,8.44652174 15.4552174,8.43843478 C15.3608696,8.28078261 15.2043478,8.17034783 15.0242609,8.13408696 C14.8442609,8.09782609 14.6571304,8.13930435 14.5091304,8.24817391 C10.8369565,10.9503478 5.07469565,11.6775652 3.26008696,11.8446087 C3.12486957,10.924087 2.9873913,8.96973913 3.84895652,7.21721739 C4.00782609,6.894 3.8746087,6.50313043 3.5513913,6.34426087 C3.22817391,6.1853913 2.83730435,6.3186087 2.67834783,6.64182609 C1.6713913,8.69026087 1.80130435,10.8888696 1.96078261,11.990087 C0.871043478,12.3049565 0.0714782609,13.3111304 0.0714782609,14.5012174 C0.0714782609,15.7274783 0.920695652,16.7586087 2.06182609,17.0387826 C2.07373913,17.3908696 2.08765217,17.7425217 2.10556522,18.0929565 C2.21121739,20.1491304 3.38930435,21.9003478 5.09591304,22.8090435 C3.89217391,24.1046957 1.95373913,27.1381739 1.9286087,33.2434783 C1.73243478,33.7904348 1.24008696,35.4507826 2.11886957,36.3295652 C2.52513043,36.7358261 3.14721739,36.8591304 3.75304348,36.8591304 C4.08434783,36.8591304 4.41034783,36.822087 4.69391304,36.7744348 C4.78669565,38.4154783 5.05165217,40.3802609 5.71173913,42.0717391 C5.75434783,42.1808696 5.82521739,42.2722609 5.91269565,42.3423478 C5.61173913,42.7763478 5.43469565,43.3026087 5.43469565,43.8695652 C5.43469565,44.2297391 5.72669565,44.5217391 6.08686957,44.5217391 L17.3234783,44.5217391 C17.6836522,44.5217391 17.9756522,44.2297391 17.9756522,43.8695652 C17.9756522,43.3025217 17.7986957,42.7763478 17.4976522,42.3423478 C17.5851304,42.2723478 17.656087,42.1808696 17.6986957,42.0717391 C18.3587826,40.3802609 18.6237391,38.4154783 18.7165217,36.7744348 C19.000087,36.822087 19.326,36.8591304 19.6573913,36.8591304 C20.063913,36.8591304 20.4774783,36.8030435 20.8286087,36.6437391 C21.1386957,36.7862609 21.5226957,36.8585217 21.9795652,36.8585217 C22.1555652,36.8585217 22.3424348,36.847913 22.5395652,36.8266087 C22.6806957,36.8113913 22.8166957,36.7916522 22.9441739,36.7701739 C23.0290435,38.2752174 23.2593043,40.0526957 23.8057391,41.6426957 C23.0914783,42.1261739 22.6210435,42.943913 22.6210435,43.8694783 C22.6210435,44.2296522 22.9130435,44.5217391 23.2732174,44.5217391 L28.8915652,44.5217391 C29.2517391,44.5217391 29.5437391,44.2296522 29.5437391,43.8694783 L29.5437391,41.8346087 C29.5437391,41.7862609 29.538087,41.7392174 29.528087,41.6938261 C29.2796522,40.5392174 28.9491304,37.496 29.9564348,35.7350435 C30.2143478,36.1833913 30.4013043,36.7421739 30.5145217,37.4053043 C30.5751304,37.7603478 30.912087,37.9988696 31.2671304,37.9384348 C31.6221739,37.8778261 31.8608696,37.5408696 31.8002609,37.1858261 C31.5815652,35.9048696 31.116087,34.9006957 30.4167826,34.2013913 C30.2945217,34.0791304 30.1286087,34.0103478 29.9556522,34.0103478 C29.7826957,34.0103478 29.6167826,34.0790435 29.4945217,34.2013913 C27.6473043,36.0485217 27.896087,39.5985217 28.1188696,41.1824348 L25.026087,41.1825217 C23.8993043,37.8612174 24.2855652,32.8442609 24.3094783,32.5908696 L35.6024348,32.5908696 C35.6258261,32.8394783 36.0144348,37.855913 34.8853913,41.1825217 L31.7910435,41.1824348 C31.837913,40.8463478 31.8863478,40.4210435 31.9161739,39.9422609 C31.9386087,39.5827826 31.6653043,39.2732174 31.3058261,39.2507826 C30.9466087,39.2271304 30.6367826,39.5016522 30.6143478,39.8611304 C30.5490435,40.9097391 30.384,41.6902609 30.3824348,41.6975652 C30.3824348,41.6976522 30.3824348,41.6978261 30.3823478,41.698 C30.3729565,41.742087 30.3677391,41.7877391 30.3677391,41.8346087 L30.3677391,43.8695652 C30.3677391,44.2297391 30.6597391,44.5217391 31.019913,44.5217391 L36.6382609,44.5217391 C36.9984348,44.5217391 37.2904348,44.2297391 37.2904348,43.8695652 C37.2904348,42.943913 36.819913,42.126087 36.1054783,41.6426087 C36.6513043,40.054087 36.8816522,38.2785217 36.9666957,36.7744348 C37.2502609,36.8221739 37.5764348,36.8592174 37.907913,36.8592174 C38.5136522,36.8592174 39.135913,36.735913 39.542087,36.3296522 C40.4211304,35.4506087 39.9281739,33.7893043 39.732087,33.2429565 C39.7075652,27.3109565 37.877913,24.2798261 36.669913,22.9243478 C38.656,22.0178261 40.0506087,20.0698261 40.1685217,17.7595652 C40.1884348,17.3711304 40.2036522,16.9816522 40.2166087,16.5917391 C41.443913,16.3153043 42.3634783,15.2174783 42.3634783,13.9081739 L42.3634783,13.9081739 Z M11.7052174,2.28608696 C11.0176522,2.28608696 10.3655652,2.32217391 9.7453913,2.39008696 C10.169913,1.73504348 10.9102609,1.30434783 11.726087,1.30434783 C12.5408696,1.30434783 13.2802609,1.73391304 13.7051304,2.38756522 C13.0865217,2.32043478 12.4341739,2.28608696 11.7469565,2.28608696 L11.7052174,2.28608696 Z M24.0890435,43.2173913 C24.321913,42.784 24.7792174,42.4883478 25.3044348,42.4869565 L28.2393913,42.4869565 L28.2393913,43.2173913 L24.0890435,43.2173913 Z M31.672087,43.2173913 L31.672087,42.4869565 L34.6069565,42.4869565 C35.1321739,42.4883478 35.5895652,42.783913 35.8224348,43.2173913 L31.672087,43.2173913 Z M38.8230435,5.64582609 C39.2944348,6.86434783 39.3330435,8.34747826 39.166087,9.28686957 C37.7610435,8.40730435 37.0604348,7.42678261 36.714,6.718 C36.2048696,5.67617391 36.2473913,4.80817391 36.4568696,4.34321739 C36.5908696,4.04591304 36.7827826,3.89843478 37.0388696,3.89843478 C37.1432174,3.89843478 37.2582609,3.92295652 37.3844348,3.97173913 C38.1533913,4.2693913 38.5912174,5.04634783 38.8230435,5.64582609 L38.8230435,5.64582609 Z M36.0137391,2.9026087 C35.7034783,3.10817391 35.4453043,3.41347826 35.2678261,3.80721739 C34.8388696,4.75913043 34.9414783,6.06130435 35.5421739,7.2906087 C35.9952174,8.21782609 36.9306087,9.5186087 38.8350435,10.608087 C38.8886087,11.5075652 38.9233913,12.4108696 38.9388696,13.3152174 C38.1817391,13.5286957 37.5714783,14.0789565 36.9778261,14.6165217 C36.257913,15.2684348 35.5778261,15.8842609 34.6886957,15.8842609 C33.8426957,15.8842609 33.4012174,15.5706087 32.8424348,15.1734783 C32.2015652,14.718 31.403913,14.1512174 29.9557391,14.1512174 C28.508087,14.1512174 27.7106087,14.718 27.0698261,15.1733913 C26.5110435,15.5705217 26.0696522,15.8842609 25.2235652,15.8842609 C24.5093913,15.8842609 23.9324348,15.491913 23.3008696,14.9434783 C23.3254783,14.7995652 23.3390435,14.651913 23.3390435,14.5011304 C23.3390435,13.325913 22.5595652,12.3295652 21.4906087,12.0016522 C21.5533913,11.5734783 21.6123478,10.9769565 21.6009565,10.2866957 C24.8462609,8.16765217 25.3315652,5.21052174 24.6087826,3.73382609 C24.432,3.37252174 24.1884348,3.09304348 23.9006957,2.90026087 C25.4414783,1.87547826 27.5701739,1.3046087 29.956,1.3046087 C32.3430435,1.30478261 34.4727826,1.87643478 36.0137391,2.9026087 L36.0137391,2.9026087 Z M18.3145217,22.8091304 C19.2761739,22.2971304 20.0697391,21.518 20.5981739,20.5668696 C21.2226087,21.6061739 22.1450435,22.4252174 23.2414783,22.9247826 C22.4828696,23.7765217 21.4787826,25.2889565 20.8305217,27.7654783 C20.152,25.1727826 19.0833913,23.6366087 18.3145217,22.8091304 L18.3145217,22.8091304 Z M18.670087,32.7106957 C18.5473913,30.9701739 17.9877391,29.4582609 17.9611304,29.3873043 C17.8346087,29.05 17.4586087,28.8793043 17.1214783,29.0056522 C16.7842609,29.1321739 16.6133043,29.508 16.7398261,29.8453043 C16.7463478,29.8626087 18.7166087,36.7745217 16.6347826,41.1825217 L15.2886957,41.1825217 L12.3572174,41.1825217 L12.3572174,26.7486957 C13.4306087,26.6452174 14.4282609,26.288 15.2166957,25.7155652 C16.0827826,25.0867826 16.6136522,24.2651304 16.7471304,23.3670435 C16.8226087,23.3521739 16.8978261,23.3365217 16.9721739,23.3187826 C17.3358261,23.6326087 17.9789565,24.3004348 18.5995652,25.5033043 C19.5748696,27.3936522 20.1026087,29.816 20.1708696,32.7107826 L18.670087,32.7107826 L18.670087,32.7106957 Z M11.7048696,25.4765217 C9.95052174,25.4765217 8.43086957,24.6133043 8.03426087,23.4917391 C9.25373913,23.542 10.4793043,23.5686957 11.7051304,23.5686957 C12.9309565,23.5686957 14.1563478,23.542 15.3754783,23.4917391 C14.9788696,24.6133043 13.4592174,25.4765217 11.7048696,25.4765217 L11.7048696,25.4765217 Z M21.3628696,13.3582609 C21.7631304,13.5825217 22.0346957,14.0105217 22.0346957,14.5012174 C22.0346957,14.9846087 21.7706087,15.4066087 21.3797391,15.6332174 C21.388087,14.8733043 21.3826957,14.113913 21.3628696,13.3582609 Z M22.5268696,3.97165217 C22.9488696,3.80817391 23.2466957,3.918 23.4373043,4.3073913 C23.6433913,4.72843478 23.7130435,5.52904348 23.2906087,6.5133913 C23.0268696,7.12791304 22.5014783,7.96947826 21.4613913,8.78434783 C21.3421739,8.10034783 21.1348696,7.38347826 20.7955652,6.68347826 C20.9523478,5.88573913 21.3905217,4.41113043 22.5268696,3.97165217 L22.5268696,3.97165217 Z M1.37565217,14.5012174 C1.37565217,14.0106087 1.64704348,13.5826957 2.04721739,13.3584348 C2.02747826,14.1153043 2.02208696,14.8746087 2.03034783,15.6331304 C1.63965217,15.4064348 1.37565217,14.9845217 1.37565217,14.5012174 L1.37565217,14.5012174 Z M3.408,18.0261739 C3.32530435,16.4102609 3.30834783,14.7716522 3.35730435,13.1470435 C4.11678261,13.0793913 5.53165217,12.9190435 7.22113043,12.5638261 C10.2846957,11.9197391 12.8062609,10.952087 14.7293043,9.68382609 C15.0148696,10.0687826 15.4506087,10.6004348 16.0191304,11.1328696 C17.270087,12.3045217 18.6529565,12.9958261 20.0530435,13.1562609 C20.101913,14.7715652 20.0847826,16.4069565 20.001913,18.0262609 C19.8866957,20.2803478 18.098,22.0606087 15.8413043,22.1671304 C13.0970435,22.2967826 10.3138261,22.2967826 7.56869565,22.1671304 C5.31252174,22.0605217 3.52382609,20.2803478 3.408,18.0261739 Z M6.44,23.3192174 C6.51356522,23.3367826 6.58808696,23.3522609 6.66278261,23.3669565 C6.79626087,24.2650435 7.32713043,25.0866957 8.19321739,25.7155652 C8.98165217,26.288 9.97930435,26.6452174 11.0526957,26.7486957 L11.0526957,41.1825217 L8.12156522,41.1825217 L6.77547826,41.1825217 C4.65104348,35.4566957 6.66408696,29.8621739 6.67043478,29.8453043 C6.79695652,29.508087 6.626,29.1321739 6.28878261,29.0056522 C5.95165217,28.8792174 5.57556522,29.050087 5.44913043,29.3873043 C5.42252174,29.4583478 4.86286957,30.9702609 4.74017391,32.7106957 L3.23973913,32.7106957 C3.38965217,26.5093913 5.65756522,24.0023478 6.44,23.3192174 Z M3.04095652,35.4073043 C2.85826087,35.2246087 2.89808696,34.5991304 3.05373913,34.0150435 L4.67530435,34.0150435 C4.65913043,34.384 4.646,34.8788696 4.65104348,35.4566957 C3.87973913,35.6093913 3.20669565,35.5730435 3.04095652,35.4073043 L3.04095652,35.4073043 Z M8.12165217,42.4868696 L11.0529565,42.4868696 L11.0529565,43.2173913 L6.9026087,43.2173913 C7.136,42.7829565 7.59486957,42.4868696 8.12165217,42.4868696 L8.12165217,42.4868696 Z M12.3573043,43.2173913 L12.3573043,42.4868696 L15.2886087,42.4868696 C15.8153913,42.4868696 16.2742609,42.7829565 16.5076522,43.2173913 L12.3573043,43.2173913 Z M18.7591304,35.4567826 C18.7641739,34.8789565 18.7510435,34.384 18.7348696,34.0150435 L20.3598261,34.0150435 C20.5493043,34.7051304 20.5095652,35.2669565 20.3693043,35.4073043 C20.2034783,35.5731304 19.5302609,35.6093913 18.7591304,35.4567826 L18.7591304,35.4567826 Z M21.7218261,35.5413043 C21.8488696,35.0371304 21.7953913,34.475913 21.6993043,34.0147826 L22.9261739,34.0147826 C22.91,34.3837391 22.8968696,34.8787826 22.901913,35.4567826 C22.4454783,35.5471304 22.0246087,35.5710435 21.7218261,35.5413043 L21.7218261,35.5413043 Z M24.5394783,29.0055652 C24.2023478,28.8791304 23.8263478,29.05 23.6998261,29.3872174 C23.6732174,29.4582609 23.1135652,30.97 22.9908696,32.7103478 L21.4904348,32.7103478 C21.6371304,26.6424348 23.8128696,24.1107826 24.6388696,23.3651304 C24.9106957,23.4156522 25.1884348,23.4493043 25.4713043,23.4626957 C26.7523478,23.5226957 28.0377391,23.5558261 29.304087,23.5646957 L29.304087,31.2865217 L24.5165217,31.2865217 C24.6991304,30.4478261 24.9175652,29.8549565 24.9212174,29.8451304 C25.0475652,29.508 24.8766957,29.132087 24.5394783,29.0055652 L24.5394783,29.0055652 Z M38.619913,35.4073043 C38.4541739,35.5731304 37.7806087,35.6093913 37.0093913,35.4566957 C37.0144348,34.8787826 37.0013043,34.3837391 36.9851304,34.0147826 L38.6104348,34.0147826 C38.8,34.7049565 38.7602609,35.2669565 38.619913,35.4073043 L38.619913,35.4073043 Z M36.850087,25.5033043 C37.8252174,27.3936522 38.3528696,29.8158261 38.4211304,32.7104348 L36.9207826,32.7104348 C36.798087,30.970087 36.2384348,29.4582609 36.2118261,29.3873043 C36.0853043,29.05 35.7093043,28.8793043 35.3721739,29.0056522 C35.0349565,29.1321739 34.864,29.508 34.9905217,29.8453043 C34.9942609,29.8553913 35.2133043,30.4469565 35.396,31.2866957 L30.6084348,31.2866957 L30.6084348,23.5648696 C31.8744348,23.556 33.1594783,23.5228696 34.4404348,23.4628696 C34.7247826,23.4493913 35.0035652,23.4162609 35.2758261,23.3654783 C35.6466087,23.6961739 36.2583478,24.3562609 36.850087,25.5033043 L36.850087,25.5033043 Z M34.3790435,22.1598261 C32.8983478,22.2291304 31.410087,22.2643478 29.9556522,22.2643478 C28.5013043,22.2643478 27.0130435,22.2292174 25.5325217,22.1598261 C23.5018261,22.0637391 21.7891304,20.7091304 21.2276522,18.7733043 C21.2657391,18.5506087 21.2926087,18.323913 21.3044348,18.0928696 C21.3223478,17.7422609 21.3362609,17.3906957 21.3481739,17.0388696 C21.8983478,16.903913 22.3806087,16.5946087 22.7326087,16.1726087 C23.3752174,16.6935652 24.1855652,17.1886087 25.2233913,17.1886087 C26.4858261,17.1886087 27.1974783,16.6828696 27.8253043,16.2366087 C28.4149565,15.8175652 28.9241739,15.4556522 29.9555652,15.4556522 C30.9875652,15.4556522 31.4969565,15.8176522 32.0867826,16.2367826 C32.7146957,16.6829565 33.4263478,17.1886957 34.6886087,17.1886957 C36.0806087,17.1886957 37.0223478,16.335913 37.8533043,15.5834783 C38.2411304,15.2323478 38.5961739,14.9111304 38.947913,14.7170435 C38.9433043,15.7116522 38.9167826,16.7050435 38.866,17.6927826 C38.741913,20.1243478 36.8127826,22.0447826 34.3790435,22.1598261 L34.3790435,22.1598261 Z M40.247913,15.206 C40.2583478,14.3375652 40.2512174,13.468 40.2271304,12.5995652 C40.717913,12.8314783 41.0591304,13.330087 41.0591304,13.9081739 C41.0591304,14.4777391 40.7274783,14.970087 40.247913,15.206 L40.247913,15.206 Z" id="Shape" fill="#30C7DB"></path>
                    <path d="M25.486,14.4733913 C25.9688696,14.4733913 26.3616522,13.8890435 26.3616522,13.1707826 C26.3616522,12.4525217 25.9688696,11.8682609 25.486,11.8682609 C25.0031304,11.8682609 24.6103478,12.4526087 24.6103478,13.1707826 C24.6103478,13.8889565 25.0031304,14.4733913 25.486,14.4733913 Z" id="Path" fill="#30C7DB"></path>
                    <path d="M34.4255652,14.4733913 C34.9084348,14.4733913 35.3012174,13.8890435 35.3012174,13.1707826 C35.3012174,12.4525217 34.9084348,11.8682609 34.4255652,11.8682609 C33.9426957,11.8682609 33.549913,12.4526087 33.549913,13.1707826 C33.549913,13.8889565 33.9426957,14.4733913 34.4255652,14.4733913 Z" id="Path" fill="#30C7DB"></path>
                    <path d="M32.1993043,16.940087 C31.874,16.7857391 31.4849565,16.9242609 31.3305217,17.2496522 C31.0797391,17.777913 30.540087,18.1193043 29.9554783,18.1193043 C29.3708696,18.1193043 28.8312174,17.777913 28.5804348,17.2496522 C28.426087,16.9242609 28.0372174,16.7857391 27.7116522,16.940087 C27.3862609,17.0945217 27.2476522,17.4835652 27.402087,17.8089565 C27.8676522,18.7898261 28.8698261,19.4236522 29.9553913,19.4236522 C31.0409565,19.4236522 32.0432174,18.7898261 32.5086957,17.8089565 C32.6633043,17.4834783 32.5247826,17.0945217 32.1993043,16.940087 L32.1993043,16.940087 Z" id="Path" fill="#30C7DB"></path>
                    <path d="M11.7051304,19.1181739 C12.7357391,19.1181739 13.6872174,18.5164348 14.1291304,17.5852174 C14.2835652,17.2598261 14.1450435,16.8708696 13.8195652,16.7164348 C13.494087,16.562 13.1052174,16.7006087 12.9507826,17.026 C12.7235652,17.5046087 12.2346087,17.813913 11.7050435,17.813913 C11.1754783,17.813913 10.6865217,17.5046957 10.4593913,17.026087 C10.3049565,16.7006957 9.916,16.562 9.5906087,16.7164348 C9.26521739,16.8708696 9.1266087,17.259913 9.28095652,17.5853043 C9.72304348,18.5164348 10.6745217,19.1181739 11.7051304,19.1181739 L11.7051304,19.1181739 Z" id="Path" fill="#30C7DB"></path>
                    <path d="M8.34904348,14.2472174 C8.34904348,13.5754783 7.98147826,13.0289565 7.52965217,13.0289565 C7.07782609,13.0289565 6.71026087,13.5754783 6.71026087,14.2472174 C6.71026087,14.9189565 7.07782609,15.4654783 7.52965217,15.4654783 C7.98147826,15.4654783 8.34904348,14.9189565 8.34904348,14.2472174 Z" id="Path" fill="#30C7DB"></path>
                    <path d="M15.8806957,15.4654783 C16.3325217,15.4654783 16.700087,14.9189565 16.700087,14.2472174 C16.700087,13.5754783 16.3325217,13.0289565 15.8806957,13.0289565 C15.4288696,13.0289565 15.0613043,13.5754783 15.0613043,14.2472174 C15.0613043,14.9189565 15.4288696,15.4654783 15.8806957,15.4654783 Z" id="Path" fill="#30C7DB"></path>
                </g>
            </g>
        </g>
    </g>
</svg>