<?xml version="1.0" encoding="UTF-8"?>
<svg width="64px" height="64px" viewBox="0 0 64 64" version="1.1" xmlns="http://www.w3.org/2000/svg" xmlns:xlink="http://www.w3.org/1999/xlink">
    <!-- Generator: sketchtool 61.2 (101010) - https://sketch.com -->
    <title>42F07120-ABD8-44F9-B81E-669353DF229D</title>
    <desc>Created with sketchtool.</desc>
    <g id="Proceso-E-Commerce-Propuesta" stroke="none" stroke-width="1" fill="none" fill-rule="evenodd">
        <g id="Oncosalud_Wireframes_Desktop_SeresQueridos4_+60años" transform="translate(-688.000000, -112.000000)">
            <g id="Group-13">
                <g id="icon_lo_sentimos" transform="translate(688.000000, 112.000000)">
                    <circle id="Oval" fill-opacity="0.1" fill="#30C7DB" cx="32" cy="32" r="32"></circle>
                    <g id="alarm" transform="translate(15.000000, 14.000000)" fill-rule="nonzero">
                        <circle id="Oval" fill="#FFFFFF" cx="16.0965614" cy="12.7146667" r="1.14975439"></circle>
                        <path d="M22.4202105,31.1107368 L22.4202105,32.8353684 C22.4183164,33.469574 21.9046618,33.9832287 21.2704561,33.9851228 L2.87438596,33.9851228 C2.24018037,33.9832287 1.72652568,33.469574 1.72463158,32.8353684 L1.72463158,31.1107368 C1.72463158,27.9357778 4.29844444,25.3619646 7.47340351,25.3619646 L8.0482807,25.3619646 C8.0482807,27.5844362 9.84994973,29.3861053 12.0724211,29.3861053 C14.2948924,29.3861053 16.0965614,27.5844362 16.0965614,25.3619646 L16.6714386,25.3619646 C18.436192,25.3614284 20.1028825,26.1735689 21.1899733,27.5637446 C21.1842246,27.5694933 21.1842246,27.5809909 21.1784758,27.5867396 C20.9197915,28.0209893 20.7552694,28.5047626 20.6955789,29.0066863 C20.6955789,29.5470709 21.3279439,30.0357165 22.3742204,30.4093867 C22.4040337,30.6419946 22.4193932,30.8762275 22.4202105,31.1107368 L22.4202105,31.1107368 Z" id="Shape" fill="#FFFFFF"></path>
                        <path d="M22.3742204,30.4093867 C21.3279439,30.0357165 20.6955789,29.5470709 20.6955789,29.0066863 C20.7552694,28.5047626 20.9197915,28.0209893 21.1784758,27.5867396 C21.1842246,27.5809909 21.1842246,27.5694933 21.1899733,27.5637446 C20.1028825,26.1735689 18.436192,25.3614284 16.6714386,25.3619646 L16.0965614,25.3619646 C16.0965614,25.4033561 16.0913875,25.4430226 16.0902378,25.4844138 C17.4264283,25.7549138 18.6227983,26.4919722 19.4653418,27.5637446 C19.459593,27.5694933 19.459593,27.5809909 19.4538442,27.5867396 C19.1951599,28.0209893 19.0306378,28.5047626 18.9709474,29.0066863 C18.9709474,29.5470709 19.6033123,30.0357165 20.6495888,30.4093867 C20.6794021,30.6419946 20.6947616,30.8762275 20.6955789,31.1107368 L20.6955789,32.8353684 C20.6936848,33.469574 20.1800302,33.9832287 19.5458246,33.9851228 L21.2704561,33.9851228 C21.9046618,33.9832287 22.4183164,33.469574 22.4202105,32.8353684 L22.4202105,31.1107368 C22.4193932,30.8762275 22.4040337,30.6419946 22.3742204,30.4093867 Z" id="Shape" fill="#F4F5F6"></path>
                        <path d="M16.0965614,25.3619649 C16.0965614,27.5844362 14.2948924,29.3861053 12.0724211,29.3861053 C9.84994973,29.3861053 8.0482807,27.5844362 8.0482807,25.3619649 L10.3305432,25.3619649 C10.284553,24.0454961 10.15808,23.5511018 10.031607,22.3553572 C10.7080301,22.4462924 11.389919,22.4904711 12.0724211,22.4875789 C12.7549231,22.4904711 13.436812,22.4462924 14.1132351,22.3553572 C13.9867621,23.5511018 13.8602891,24.0454961 13.8142989,25.3619649 L16.0965614,25.3619649 Z" id="Shape" fill="#FFFFFF"></path>
                        <path d="M3.57573614,16.0489544 C3.34978368,16.1252566 3.11287393,16.1640942 2.87438596,16.1639303 C1.60440234,16.1639303 0.574877193,15.1344047 0.574877193,13.8644211 C0.574877193,12.5944374 1.60440234,11.5649123 2.87438596,11.5649123 C3.06854338,11.563157 3.26200798,11.5883074 3.44926316,11.6396463 L3.44926316,13.387273 C3.43347823,14.2763066 3.47572565,15.1654229 3.57573614,16.0489544 L3.57573614,16.0489544 Z" id="Shape" fill="#FFFFFF"></path>
                        <path d="M23.5699649,13.8644211 C23.5699649,15.1344047 22.5404398,16.1639303 21.2704561,16.1639303 C21.0319682,16.1640942 20.7950584,16.1252566 20.569106,16.0489544 C20.6691164,15.1654229 20.7113639,14.2763066 20.6955789,13.387273 L20.6955789,11.6396463 C20.8828341,11.5883074 21.0762987,11.563157 21.2704561,11.5649123 C22.5404398,11.5649123 23.5699649,12.5944374 23.5699649,13.8644211 L23.5699649,13.8644211 Z" id="Shape" fill="#FFFFFF"></path>
                        <path d="M18.9709474,7.88569825 C12.2391354,7.57526456 9.60619789,5.49420912 9.60619789,5.49420912 C9.60619789,5.49420912 8.9910793,8.5295607 3.44926316,8.5295607 L3.44926316,13.387273 C3.43347823,14.2763066 3.47572565,15.1654229 3.57573614,16.0489544 C3.93216,18.704887 5.22563368,21.705746 10.031607,22.3553572 C10.5632668,22.4292371 11.0988459,22.4714691 11.6355144,22.4818302 C11.7792337,22.4877122 11.922953,22.4877122 12.0724211,22.4877122 C12.7549231,22.4904711 13.436812,22.4462924 14.1132351,22.3553572 C18.9192084,21.705746 20.2126821,18.704887 20.569106,16.0489544 C20.6691164,15.1654229 20.7113639,14.2763066 20.6955789,13.387273 L20.6955789,7.92593965 C20.0919579,7.92593965 19.5170807,7.91444211 18.9709474,7.88569825 Z M8.0482807,13.8644211 C7.41328889,13.8644211 6.89852632,13.3496585 6.89852632,12.7146667 C6.89852632,12.0796749 7.41328889,11.5649123 8.0482807,11.5649123 C8.68327252,11.5649123 9.19803509,12.0796749 9.19803509,12.7146667 C9.19614098,13.3488723 8.68248631,13.8625269 8.0482807,13.8644211 Z M16.0965614,11.5649123 C16.7315532,11.5649123 17.2463158,12.0796749 17.2463158,12.7146667 C17.2463158,13.3496585 16.7315532,13.8644211 16.0965614,13.8644211 C15.4615696,13.8644211 14.946807,13.3496585 14.946807,12.7146667 C14.9487011,12.0804611 15.4623558,11.5668064 16.0965614,11.5649123 Z" id="Shape" fill="#FFFFFF"></path>
                        <path d="M20.6955789,7.92593965 L20.6955789,13.387273 C20.7113639,14.2763066 20.6691164,15.1654229 20.569106,16.0489544 C20.2126821,18.704887 18.9192084,21.705746 14.1132351,22.3553572 C13.436812,22.4462924 12.7549231,22.4904711 12.0724211,22.4877122 C11.922953,22.4877122 11.7792337,22.4877122 11.6355144,22.4818302 C11.4917951,22.4760814 11.3480758,22.4645839 11.2101053,22.4588351 C11.6240168,22.43584 12.0206821,22.4070961 12.3886035,22.3553572 C17.1945768,21.705746 18.4880505,18.704887 18.8444744,16.0489544 C18.9444849,15.1654229 18.9867323,14.2763066 18.9709474,13.387273 L18.9709474,7.88569825 C19.5170807,7.91444211 20.0919579,7.92593965 20.6955789,7.92593965 Z" id="Shape" fill="#F4F5F6"></path>
                        <circle id="Oval" fill="#FFFFFF" cx="8.0482807" cy="12.7146667" r="1.14975439"></circle>
                        <path d="M20.6955789,7.01188491 L20.6955789,7.92593965 C12.6875396,7.92593965 9.60619789,5.49420912 9.60619789,5.49420912 C9.60619789,5.49420912 8.9910793,8.5295607 3.44926316,8.5295607 L3.44926316,5.79889404 C3.44926316,3.62010947 6.53060491,0.642245614 12.0724211,0.642245614 C14.274807,0.557419081 16.4518801,1.1362361 18.3213361,2.3036407 C19.498773,3.01153111 20.3450938,4.15996154 20.6725839,5.49420912 C20.6840814,5.54594807 20.6840814,5.90237193 20.6898302,6.25304702 C20.6955789,6.60372211 20.6955789,6.96589474 20.6955789,7.01188491 L20.6955789,7.01188491 Z" id="Shape" fill="#FFFFFF"></path>
                        <path d="M20.6898302,6.25304702 C20.6840814,5.90237193 20.6840814,5.54594807 20.6725839,5.49420912 C20.3450938,4.15996154 19.498773,3.01153111 18.3213361,2.3036407 C16.4518801,1.1362361 14.274807,0.557419081 12.0724211,0.642245614 C11.7849825,0.642245614 11.5084665,0.654892912 11.2342501,0.670414596 C13.1365075,0.720071505 14.9897202,1.28449875 16.5967046,2.3036407 C17.7741414,3.01153111 18.6204622,4.15996154 18.9479523,5.49420912 C18.9594498,5.54594807 18.9594498,5.90237193 18.9651986,6.25304702 C18.9709474,6.60372211 18.9709474,6.96589474 18.9709474,7.01188491 L18.9709474,7.88224898 C19.5211048,7.90811846 20.0896584,7.92593965 20.6955789,7.92593965 L20.6955789,7.01188491 C20.6955789,6.96589474 20.6955789,6.60947088 20.6898302,6.25304702 Z" id="Shape" fill="#F4F5F6"></path>
                        <path d="M33.9177544,29.0066863 C33.9177544,29.8804996 32.2448618,30.6335888 29.8533726,30.9497712 C28.1623514,31.1643949 26.4509819,31.1643949 24.7599607,30.9497712 C23.9484559,30.8509583 23.1490992,30.6698992 22.3742204,30.4093867 C21.3279439,30.0357165 20.6955789,29.5470709 20.6955789,29.0066863 C20.7552694,28.5047626 20.9197915,28.0209893 21.1784758,27.5867396 C21.1842246,27.5809909 21.1842246,27.5694933 21.1899733,27.5637446 C21.2762049,27.4142765 21.3509389,27.2648084 21.425673,27.1153404 C22.1717224,27.4229353 22.9430278,27.6652906 23.7309305,27.8396856 C24.904617,28.1030705 26.1037903,28.2360978 27.3066667,28.2363509 C29.3209625,28.2456033 31.3180126,27.8649339 33.1876604,27.1153404 C33.2681432,27.276306 33.348626,27.4315228 33.4348575,27.5867396 C33.6943299,28.020625 33.8589106,28.5045709 33.9177544,29.0066863 L33.9177544,29.0066863 Z" id="Shape" fill="#FFFFFF"></path>
                        <path d="M33.1876604,27.1153404 C31.3180126,27.8649339 29.3209625,28.2456033 27.3066667,28.2363509 C26.1037903,28.2360978 24.904617,28.1030705 23.7309305,27.8396856 C22.9430278,27.6652906 22.1717224,27.4229353 21.425673,27.1153404 C22.1146382,25.7813812 22.4827426,24.3050268 22.5006933,22.8037614 L22.5006933,21.5447804 C22.4991448,19.6692863 23.590537,17.9648281 25.2945965,17.1814625 C27.1221151,16.3387439 29.281187,16.7242105 30.7041909,18.1472561 C31.6068729,19.0473571 32.1137296,20.2700194 32.11264,21.5447804 L32.11264,22.8037614 C32.1305907,24.3050268 32.4986951,25.7813812 33.1876604,27.1153404 L33.1876604,27.1153404 Z" id="Shape" fill="#FFFFFF"></path>
                        <path d="M32.11264,22.8037614 L32.11264,21.5447804 C32.1117443,19.6700015 31.021124,17.9667487 29.3187368,17.1814625 C28.688759,16.8877437 28.0017479,16.7366012 27.3066667,16.7387832 C27.0173142,16.7407595 26.7287197,16.768657 26.4443509,16.8221642 C26.8414221,16.8921392 27.2278439,17.012896 27.5941053,17.1814625 C29.2964924,17.9667487 30.3871128,19.6700015 30.3880084,21.5447804 L30.3880084,22.8037614 C30.4059591,24.3050268 30.7740635,25.7813812 31.4630288,27.1153404 C29.8631434,27.7587105 28.1667656,28.1294652 26.4443509,28.212206 C26.7317895,28.2271528 27.0192281,28.2363509 27.3066667,28.2363509 C29.3209625,28.2456033 31.3180126,27.8649339 33.1876604,27.1153404 C32.4986951,25.7813812 32.1305907,24.3050268 32.11264,22.8037614 L32.11264,22.8037614 Z" id="Shape" fill="#F4F5F6"></path>
                        <path d="M29.3187368,15.8764912 L29.3187368,17.1814625 C28.0422717,16.5912907 26.5710616,16.5912907 25.2945965,17.1814625 L25.2945965,15.8764912 C25.2945965,14.7652556 26.195431,13.8644211 27.3066667,13.8644211 C28.4179023,13.8644211 29.3187368,14.7652556 29.3187368,15.8764912 Z" id="Shape" fill="#FFFFFF"></path>
                        <path d="M29.893614,31.3981754 C29.893614,32.826907 28.7353983,33.9851228 27.3066667,33.9851228 C25.8779351,33.9851228 24.7197193,32.826907 24.7197193,31.3981754 C24.7183295,31.2477467 24.7318089,31.0975488 24.7599607,30.9497712 C26.4509819,31.1643949 28.1623514,31.1643949 29.8533726,30.9497712 C29.8815245,31.0975488 29.8950038,31.2477467 29.893614,31.3981754 Z" id="Shape" fill="#FFFFFF"></path>
                        <path d="M3.44926316,32.8353684 L3.44926316,31.1107368 C3.44926316,27.9357778 6.02307602,25.3619649 9.19803509,25.3619649 L7.47340351,25.3619649 C4.29844444,25.3619649 1.72463158,27.9357778 1.72463158,31.1107368 L1.72463158,32.8353684 C1.72652568,33.469574 2.24018037,33.9832287 2.87438596,33.9851228 L4.59901754,33.9851228 C3.96481195,33.9832287 3.45115726,33.469574 3.44926316,32.8353684 Z" id="Shape" fill="#FFFFFF"></path>
                        <path d="M5.30036772,16.0489544 C5.20035723,15.1654229 5.1581098,14.2763066 5.17389474,13.387273 L5.17389474,5.79889404 C5.17389474,3.73508491 7.93905404,0.952679298 12.9462344,0.670989474 C12.6645446,0.647994386 12.3713572,0.642245614 12.0724211,0.642245614 C6.53060491,0.642245614 3.44926316,3.62010947 3.44926316,5.79889404 L3.44926316,13.387273 C3.43347823,14.2763066 3.47572565,15.1654229 3.57573614,16.0489544 C3.93216,18.704887 5.22563368,21.705746 10.031607,22.3553572 C10.5632668,22.4292371 11.0988459,22.4714691 11.6355144,22.4818302 C11.7792337,22.4875789 11.922953,22.4875789 12.0724211,22.4875789 C12.3713572,22.4875789 12.6587958,22.4818302 12.9347368,22.4645839 C12.5208253,22.4473375 12.1299088,22.4070961 11.7562386,22.3553572 C6.95026526,21.705746 5.65679158,18.704887 5.30036772,16.0489544 Z" id="Shape" fill="#FFFFFF"></path>
                        <path d="M7.77176477,1.95756463 L7.35842807,0.884843789 C8.86877843,0.334698768 10.4650232,0.0578865691 12.0724211,0.0673684211 L12.0724211,1.21712281 C10.6063992,1.20812383 9.15036662,1.45880823 7.77176477,1.95756463 Z" id="Shape" fill="#FFFFFF"></path>
                        <g id="Group" transform="translate(0.000000, 0.067368)" fill="#30C7DB">
                            <path d="M12.0724211,18.1086316 C13.3400692,18.1042143 14.5158966,18.769278 15.1652604,19.8579829 C15.2767838,20.0305053 15.4718753,20.1304256 15.6770458,20.1201046 C15.8822163,20.1097837 16.0662956,19.9907897 16.1599426,19.8079463 C16.2535897,19.625103 16.2425775,19.4061887 16.131054,19.2336662 C15.2663689,17.8206498 13.7290126,16.9590587 12.0724211,16.9590587 C10.4158295,16.9590587 8.87847322,17.8206498 8.01378807,19.2336662 C7.8413878,19.5003628 7.91783003,19.8563211 8.1845266,20.0287214 C8.45122316,20.2011217 8.80718149,20.1246794 8.97958175,19.8579829 C9.6289455,18.769278 10.8047729,18.1042143 12.0724211,18.1086316 L12.0724211,18.1086316 Z" id="Shape"></path>
                            <path d="M9.48547368,14.3719298 C9.80296956,14.3719298 10.0603509,14.1145485 10.0603509,13.7970526 C10.0590673,13.5482221 9.8959652,13.3291993 9.65793684,13.2566681 C9.73314958,13.0622694 9.7721178,12.8557381 9.77291228,12.6472982 C9.77291228,11.6948106 9.00076839,10.9226667 8.0482807,10.9226667 C7.09579301,10.9226667 6.32364912,11.6948106 6.32364912,12.6472982 C6.3255545,12.8435841 6.36133934,13.038067 6.42942653,13.2221754 L6.32364912,13.2221754 C6.00615324,13.2221754 5.74877193,13.4795568 5.74877193,13.7970526 C5.74877193,14.1145485 6.00615324,14.3719298 6.32364912,14.3719298 L9.48547368,14.3719298 Z M7.47340351,12.6472982 C7.47340351,12.3298024 7.73078482,12.0724211 8.0482807,12.0724211 C8.36577658,12.0724211 8.62315789,12.3298024 8.62315789,12.6472982 C8.62315789,12.9647941 8.36577658,13.2221754 8.0482807,13.2221754 C7.73078482,13.2221754 7.47340351,12.9647941 7.47340351,12.6472982 Z" id="Shape"></path>
                            <path d="M14.3719298,14.3719298 L17.821193,14.3719298 C18.1386889,14.3719298 18.3960702,14.1145485 18.3960702,13.7970526 C18.3960702,13.4795568 18.1386889,13.2221754 17.821193,13.2221754 L17.7154156,13.2221754 C17.7835028,13.038067 17.8192876,12.8435841 17.821193,12.6472982 C17.821193,11.6948106 17.0490491,10.9226667 16.0965614,10.9226667 C15.1440737,10.9226667 14.3719298,11.6948106 14.3719298,12.6472982 C14.3738352,12.8435841 14.40962,13.038067 14.4777072,13.2221754 L14.3719298,13.2221754 C14.0544339,13.2221754 13.7970526,13.4795568 13.7970526,13.7970526 C13.7970526,14.1145485 14.0544339,14.3719298 14.3719298,14.3719298 Z M15.5216842,12.6472982 C15.5216842,12.3298024 15.7790655,12.0724211 16.0965614,12.0724211 C16.4140573,12.0724211 16.6714386,12.3298024 16.6714386,12.6472982 C16.6714386,12.9647941 16.4140573,13.2221754 16.0965614,13.2221754 C15.7790655,13.2221754 15.5216842,12.9647941 15.5216842,12.6472982 Z" id="Shape"></path>
                            <path d="M11.4975439,15.5216842 L12.6472982,15.5216842 C12.9647941,15.5216842 13.2221754,15.2643029 13.2221754,14.946807 C13.2221754,14.6293111 12.9647941,14.3719298 12.6472982,14.3719298 L11.4975439,14.3719298 C11.180048,14.3719298 10.9226667,14.6293111 10.9226667,14.946807 C10.9226667,15.2643029 11.180048,15.5216842 11.4975439,15.5216842 Z" id="Shape"></path>
                            <path d="M9.79130835,1.33774657 C9.47381247,1.33932671 9.21514424,1.08323233 9.21354943,0.765736421 C9.21196931,0.448240514 9.4680637,0.189572319 9.78555958,0.187984842 L9.79130835,0.187984842 C10.1088042,0.187984842 10.3661855,0.445366128 10.3661855,0.762862035 C10.3661855,1.08035794 10.1088042,1.33774657 9.79130835,1.33774657 L9.79130835,1.33774657 Z" id="Shape"></path>
                            <path d="M32.6892418,22.7352432 L32.6892418,21.4791366 C32.6875942,19.5142934 31.6162301,17.706215 29.893614,16.7611194 L29.893614,15.8091228 C29.893614,14.3803912 28.7353983,13.2221754 27.3066667,13.2221754 C25.8779351,13.2221754 24.7197193,14.3803912 24.7197193,15.8091228 L24.7197193,16.7611194 C22.9971032,17.706215 21.9257392,19.5142934 21.9240915,21.4791366 L21.9240915,22.7375427 C21.9116869,24.0390838 21.6139982,25.3220692 21.0520028,26.4960898 C19.8797157,25.354788 18.3075378,24.7172514 16.6714386,24.7197193 L14.4196446,24.7197193 C14.4541373,24.2057791 14.5035767,23.8171621 14.5599147,23.3837047 C14.5840595,23.1991691 14.6087792,22.9991119 14.6340738,22.7858324 C19.0646524,22.0149221 20.5380626,19.2089465 21.0261333,16.6547672 C21.107191,16.6616657 21.1865241,16.6714386 21.2704561,16.6714386 C22.8579356,16.6714386 24.1448421,15.3845321 24.1448421,13.7970526 C24.1448421,12.2095731 22.8579356,10.9226667 21.2704561,10.9226667 L21.2704561,6.94624112 C21.2704561,6.93244407 21.2675818,5.51364716 21.2371133,5.33658498 C20.8806894,3.19056842 18.1459986,5.32907052e-15 12.0724211,5.32907052e-15 C11.7549252,5.32907052e-15 11.4975439,0.257381286 11.4975439,0.574877193 C11.4975439,0.8923731 11.7549252,1.14975439 12.0724211,1.14975439 C17.3934844,1.14975439 19.8217656,3.83270625 20.0994313,5.49525109 C20.1109288,5.63954526 20.1207018,6.75998091 20.1207018,6.94624112 L20.1207018,7.27104674 C12.8933457,7.1560713 9.99136561,4.99855719 9.96434639,4.97786161 C9.8091365,4.85638851 9.60224412,4.8235726 9.4170633,4.89105516 C9.23051094,4.95771154 9.09075777,5.11479847 9.04626751,5.30784112 C9.02557193,5.40901951 8.44379621,7.69415635 4.02414035,7.87581754 L4.02414035,5.73325025 C4.04314009,5.30081889 4.17065409,4.88012156 4.39493614,4.50991158 C4.62605851,4.09954461 4.92212115,3.72932071 5.27162386,3.41362077 C5.99995624,2.75065934 6.84866158,2.23351307 7.77176477,1.89019621 C8.05890673,1.7778033 8.20736595,1.4598932 8.10921768,1.16757558 C8.05852323,1.02056931 7.95043758,0.900370406 7.80962158,0.834403524 C7.66880559,0.768436648 7.50727234,0.762329457 7.36187733,0.817475368 C6.29964938,1.21430746 5.32375924,1.81194258 4.48749137,2.57774933 C4.05100206,2.97297769 3.68102477,3.43593457 3.39177544,3.94883144 C3.07076895,4.48929402 2.89270881,5.10261225 2.87438596,5.73095074 L2.87438596,10.9226667 C1.28690643,10.9226667 -8.8817842e-16,12.2095731 -8.8817842e-16,13.7970526 C-8.8817842e-16,15.3845321 1.28690643,16.6714386 2.87438596,16.6714386 C2.95831804,16.6714386 3.03765109,16.6616657 3.11870877,16.6547672 C3.60677951,19.2089465 5.08018975,22.0149221 9.51076828,22.7858324 C9.53606288,22.9991119 9.5607826,23.1991691 9.58492744,23.3837047 C9.64241516,23.8171621 9.69070484,24.2057791 9.72519747,24.7197193 L7.47340351,24.7197193 C3.98265575,24.7238374 1.15387252,27.5526206 1.14975439,31.0433684 L1.14975439,32.768 C1.14975439,33.7204877 1.92189824,34.4926316 2.87438596,34.4926316 L21.2704561,34.4926316 C22.2229438,34.4926316 22.9950877,33.7204877 22.9950877,32.768 L22.9950877,31.1347739 C23.3595599,31.227904 23.7424281,31.3072371 24.1448421,31.3739228 C24.2096397,33.0720032 25.6050509,34.4151821 27.3043672,34.4151821 C29.0036834,34.4151821 30.3990946,33.0720032 30.4638922,31.3739228 C32.7059133,31.0054265 34.4880326,30.2126709 34.4880326,28.9398928 C34.4308185,28.3394418 34.2413656,27.7591073 33.9332761,27.2405558 C33.1391344,25.8703041 32.7107356,24.3188432 32.6892418,22.7352432 Z M25.8694737,15.8091228 C25.8694737,15.015383 26.5129269,14.3719298 27.3066667,14.3719298 C28.1004064,14.3719298 28.7438596,15.015383 28.7438596,15.8091228 L28.7438596,16.2971935 C27.8044017,16.0296946 26.8089317,16.0296946 25.8694737,16.2971935 L25.8694737,15.8091228 Z M23.0738459,21.4791366 C23.073846,19.1414143 24.9689444,17.2463159 27.3066667,17.2463159 C29.644389,17.2463159 31.5394874,19.1414143 31.5394874,21.4791366 L31.5394874,22.7352432 C31.5495039,24.1086086 31.8430751,25.4651032 32.4018032,26.7197171 C29.6535122,27.6735573 26.6939599,27.8435504 23.8545291,27.2106622 C23.2962256,27.0828383 22.7466707,26.9194312 22.2092306,26.7214417 C22.7683559,25.4671604 23.0619471,24.1107691 23.0715464,22.7375427 L23.0738459,21.4791366 Z M22.9950877,13.7970526 C22.9950877,14.7495403 22.2229438,15.5216842 21.2704561,15.5216842 C21.2417123,15.5216842 21.2169926,15.5113364 21.1888236,15.5101867 C21.2704561,14.6771896 21.2704561,13.9149025 21.2704561,13.3181799 L21.2704561,12.0724211 C22.2229438,12.0724211 22.9950877,12.8445649 22.9950877,13.7970526 Z M2.87438596,15.5216842 C1.92189824,15.5216842 1.14975439,14.7495403 1.14975439,13.7970526 C1.14975439,12.8445649 1.92189824,12.0724211 2.87438596,12.0724211 L2.87438596,13.3181799 C2.87438596,13.9149025 2.87438596,14.6771896 2.95601853,15.5101867 C2.92784954,15.5113364 2.90312982,15.5216842 2.87438596,15.5216842 Z M4.02414035,13.3181799 L4.02414035,9.02557193 C7.86661951,8.87782849 9.33658049,7.25724968 9.87696505,6.27765895 C11.11755,6.97670961 14.2816741,8.34261782 20.1207018,8.42769965 L20.1207018,13.3181799 C20.1207018,16.2983433 20.1207018,21.8454435 12.0724211,21.8454435 C11.4466504,21.8477832 10.8213873,21.8093764 10.2006209,21.7303579 C10.1948721,21.7303579 10.1879736,21.7303579 10.1822248,21.7303579 C4.02816449,20.9117328 4.02414035,16.0430978 4.02414035,13.3181799 Z M9.77291228,26.4443509 C9.77291228,26.7618468 10.0302936,27.0192281 10.3477895,27.0192281 C10.6652854,27.0192281 10.9226667,26.7618468 10.9226667,26.4443509 C10.9226667,25.9993959 10.9157681,25.6257258 10.9048455,25.2945965 L10.9048455,25.2905724 C10.8824047,24.6027627 10.8225289,23.9166851 10.7254838,23.2353864 C10.7134114,23.1405316 10.7001892,23.0364789 10.6875419,22.9353005 C11.1261732,22.9720926 11.5837754,22.9927882 12.0729959,22.9927882 C12.5622164,22.9927882 13.0198187,22.9697931 13.45845,22.9353005 C13.4458027,23.0364789 13.4325805,23.1405316 13.4205081,23.2353864 C13.323463,23.9166851 13.2635871,24.6027627 13.2411464,25.2905724 L13.2411464,25.2945965 C13.2302237,25.6234262 13.2233252,25.9970964 13.2233252,26.4443509 C13.2233252,26.7618468 13.4807065,27.0192281 13.7982024,27.0192281 C14.1156983,27.0192281 14.3730796,26.7618468 14.3730796,26.4443509 C14.3730796,26.2373951 14.3730796,26.0471107 14.3771037,25.8694737 L15.4693704,25.8694737 C15.1903648,27.528423 13.7540937,28.74331 12.0718462,28.74331 C10.3895986,28.74331 8.95332752,27.528423 8.67432196,25.8694737 L9.76658863,25.8694737 C9.77291228,26.0471107 9.77291228,26.2373951 9.77291228,26.4443509 Z M21.8453333,31.0433684 L21.8453333,32.768 C21.8453333,33.0854959 21.587952,33.3428772 21.2704561,33.3428772 L19.5458246,33.3428772 L19.5458246,29.8821165 C19.5458246,29.5646206 19.2884432,29.3072393 18.9709474,29.3072393 C18.6534515,29.3072393 18.3960702,29.5646206 18.3960702,29.8821165 L18.3960702,33.3428772 L5.74877193,33.3428772 L5.74877193,31.0433684 C5.74877193,30.7258725 5.49139064,30.4684912 5.17389474,30.4684912 C4.85639883,30.4684912 4.59901754,30.7258725 4.59901754,31.0433684 L4.59901754,33.3428772 L2.87438596,33.3428772 C2.55689006,33.3428772 2.29950877,33.0854959 2.29950877,32.768 L2.29950877,31.0433684 C2.30267699,28.1872186 4.6172537,25.8726419 7.47340351,25.8694729 L7.51307004,25.8694729 C7.8010846,28.1683756 9.75554771,29.8932555 12.0724211,29.8932555 C14.3892944,29.8932555 16.3437575,28.1683756 16.6317721,25.8694729 L16.6714386,25.8694729 C18.1356872,25.8686562 19.5305228,26.4934873 20.5047197,27.5866319 C20.2900805,28.0085134 20.1596472,28.4681542 20.1207018,28.9398928 C20.1207018,29.7188514 20.7927332,30.3167236 21.8257875,30.7490313 C21.8321112,30.8473353 21.8453333,30.9513881 21.8453333,31.0433684 Z M27.3066667,33.3428772 C26.2734509,33.3394834 25.4114542,32.5525944 25.3141423,31.5239658 C25.9695023,31.5866274 26.6426835,31.6182456 27.3066667,31.6182456 C27.9706498,31.6182456 28.643831,31.5866274 29.299191,31.5239658 C29.2018791,32.5525944 28.3398825,33.3394834 27.3066667,33.3428772 Z M27.3066667,30.4684912 C23.3239175,30.4684912 21.2704561,29.3969201 21.2704561,28.9398928 C21.3326825,28.5358776 21.4726617,28.1477621 21.6826431,27.7970369 C21.6895416,27.7843896 21.6952904,27.7717423 21.7021889,27.759095 C22.3225783,27.994007 22.958352,28.1860836 23.6050324,28.3339722 C24.8199833,28.6069059 26.0614365,28.7443738 27.3066667,28.7438596 C29.2188737,28.747882 31.1170233,28.4171261 32.9151686,27.7665684 C32.9214922,27.778066 32.9266661,27.7895635 32.9329898,27.8004862 C33.1418277,28.1502973 33.2810145,28.5372091 33.3428772,28.9398928 C33.3428772,29.3969201 31.2894159,30.4684912 27.3066667,30.4684912 L27.3066667,30.4684912 Z" id="Shape"></path>
                            <path d="M24.7197193,21.8453333 C25.0372152,21.8453333 25.2945965,21.587952 25.2945965,21.2704561 C25.3415875,20.4687144 25.8689213,19.7750693 26.6288865,19.5153561 C26.9305076,19.4142336 27.0930438,19.0877455 26.9919214,18.7861244 C26.890799,18.4845032 26.5643108,18.321967 26.2626897,18.4230894 C26.1758832,18.4535579 24.1448421,19.1554829 24.1448421,21.2704561 C24.1448421,21.587952 24.4022234,21.8453333 24.7197193,21.8453333 Z" id="Shape"></path>
                        </g>
                    </g>
                </g>
            </g>
        </g>
    </g>
</svg>