<?xml version="1.0" encoding="UTF-8"?>
<svg width="64px" height="64px" viewBox="0 0 64 64" version="1.1" xmlns="http://www.w3.org/2000/svg" xmlns:xlink="http://www.w3.org/1999/xlink">
    <!-- Generator: sketchtool 61.2 (101010) - https://sketch.com -->
    <title>1AC76724-1A13-4B2E-B978-D3E2828CEFA3</title>
    <desc>Created with sketchtool.</desc>
    <g id="Proceso-E-Commerce-Propuesta" stroke="none" stroke-width="1" fill="none" fill-rule="evenodd">
        <g id="Oncosalud_Wireframes_Desktop_SeresQueridos1" transform="translate(-768.000000, -625.000000)">
            <g id="icon_mama_papa" transform="translate(768.000000, 625.000000)">
                <circle id="Oval-Copy-2" fill-opacity="0.1" fill="#30C7DB" cx="32" cy="32" r="32"></circle>
                <g id="Group-14" transform="translate(8.888889, 8.888889)" fill-rule="nonzero">
                    <g id="Group-12" transform="translate(18.463768, 0.000000)">
                        <g id="grandparents-(1)" transform="translate(0.700483, 0.850242)">
                            <path d="M5.87043478,36.3743478 C5.87043478,36.3743478 3.76017391,37.0032174 3.03617391,36.2792174 C2.31217391,35.5552174 3.03617391,33.698 3.03617391,33.698 L6.62121739,32.2309565 L5.87043478,36.3743478 Z" id="Path" stroke="#30C7DB" stroke-width="1.39130435" fill="#FFFFFF"></path>
                            <path d="M21.8373043,36.2793913 C21.4708696,36.6457391 20.7471304,36.6654783 20.1236522,36.5956522 C19.5163478,36.5275652 19.0029565,36.3743478 19.0029565,36.3743478 L18.0785217,32.5098261 L19.2546957,32.8815652 L21.8373043,33.6976522 C21.8373043,33.6976522 22.562,35.5555652 21.8373043,36.2793913 L21.8373043,36.2793913 Z" id="Path" stroke="#30C7DB" stroke-width="1.39130435" fill="#FFFFFF"></path>
                            <path d="M18.9646957,33.6974783 C18.9646957,33.6974783 14.65,37.249913 12.4373043,35.0363478 C10.2237391,37.249913 5.90904348,33.6974783 5.90904348,33.6974783 L3.03582609,33.6974783 C3.03582609,25.6652174 6.29730435,23.0125217 6.86226087,22.6126087 L18.0113913,22.6126087 C18.5764348,23.0125217 21.8378261,25.6652174 21.8378261,33.6974783 L18.9646957,33.6974783 Z" id="Path" stroke="#30C7DB" stroke-width="1.39130435" fill="#FFFFFF"></path>
                            <g id="Group" transform="translate(11.347826, 22.086957)" fill="#30C7DB">
                                <polygon id="Path" points="0.417652174 0.0123478261 1.7613913 0.0123478261 1.7613913 10.9811304 0.417652174 10.9811304"></polygon>
                            </g>
                            <path d="M17.9846957,42.4250435 L17.7206087,42.9518261 L13.5325217,42.4250435 C13.5325217,42.4250435 14.6491304,37.249913 12.4364348,35.0363478 C10.2237391,37.249913 11.3403478,42.4250435 11.3403478,42.4250435 L8.94765217,42.8178261 L6.88730435,42.4250435 C5.46278261,38.7744348 5.90817391,33.6974783 5.90817391,33.6974783 C5.90817391,33.1949565 5.95547826,32.6951304 6.02513043,32.2309565 L18.8478261,32.2309565 C18.9174783,32.6951304 18.9647826,33.1949565 18.9647826,33.6974783 C18.9646957,33.6974783 19.4092174,38.7744348 17.9846957,42.4250435 L17.9846957,42.4250435 Z" id="Path" stroke="#30C7DB" stroke-width="1.39130435" fill="#FFFFFF"></path>
                            <path d="M5.5526087,44.5217391 L11.3405217,44.5217391 L11.3405217,42.4253913 L7.64886957,42.4253913 C6.49121739,42.4253913 5.5526087,43.364 5.5526087,44.5217391 Z" id="Path" stroke="#30C7DB" stroke-width="1.39130435" fill="#FFFFFF"></path>
                            <path d="M19.3211304,44.5217391 L13.5332174,44.5217391 L13.5332174,42.4253913 L17.2248696,42.4253913 C18.3826087,42.4253913 19.3211304,43.364 19.3211304,44.5217391 Z" id="Path" stroke="#30C7DB" stroke-width="1.39130435" fill="#FFFFFF"></path>
                            <path d="M22.3707826,15.8186087 L22.3846957,15.8186087 C23.5793043,15.8186087 24.5472174,14.8498261 24.5472174,13.656087 C24.5472174,12.4614783 23.5793043,11.4926957 22.3846957,11.4926957 C22.3691304,11.4926957 22.3535652,11.4926957 22.338087,11.4934783 L2.53573913,11.4934783 C2.52017391,11.4926957 2.5046087,11.4926957 2.48913043,11.4926957 C1.29452174,11.4926957 0.326608696,12.4614783 0.326608696,13.656087 C0.326608696,14.8498261 1.29452174,15.8186087 2.48913043,15.8186087 L2.50304348,15.8186087" id="Path" stroke="#30C7DB" stroke-width="1.39130435" fill="#FFFFFF"></path>
                            <path d="M12.4366957,0 C17.5227826,0 21.3045217,2.37869565 21.8571304,5.87486957 C22.3443478,9.77930435 22.488,13.6844348 22.2875652,17.5888696 C22.142,20.4313043 19.8669565,22.694087 17.0244348,22.827913 C15.4949565,22.900087 13.9654783,22.9364348 12.4366087,22.9364348 C10.9077391,22.9364348 9.37826087,22.900087 7.84878261,22.827913 C5.00634783,22.694087 2.73121739,20.4313043 2.58565217,17.5888696 C2.38521739,13.6844348 2.52895652,9.77930435 3.01608696,5.87486957 C3.56886957,2.37869565 7.3506087,0 12.4366957,0 L12.4366957,0 Z" id="Path" stroke="#30C7DB" stroke-width="1.39130435" fill="#FFFFFF"></path>
                            <path d="M22.2874783,17.5892174 C22.1414783,20.4316522 19.8669565,22.6935652 17.0246087,22.827913 C15.4945217,22.8995652 13.9653913,22.9363478 12.4371304,22.9363478 C11.5314783,22.9363478 10.6258261,22.9238261 9.72017391,22.8978261 L9.71208696,22.8978261 C9.09130435,22.8807826 8.46965217,22.8566087 7.84878261,22.827913 C5.00634783,22.6935652 2.73191304,20.4316522 2.58591304,17.5892174 C2.51782609,16.2670435 2.49008696,14.9447826 2.50078261,13.6216522 L2.50173913,13.6207826 C4.03982609,13.6207826 5.00817391,15.6103478 6.64034783,16.2006957 C6.92521739,16.3037391 7.22973913,16.3646087 7.56121739,16.3646087 C9.79443478,16.3646087 9.94947826,14.5783478 12.4371304,14.5783478 C14.9247826,14.5783478 15.0797391,16.3646087 17.312087,16.3646087 C19.5444348,16.3646087 20.5647826,13.6207826 22.3725217,13.6207826 C22.3833043,14.943913 22.3555652,16.2670435 22.2874783,17.5892174 L22.2874783,17.5892174 Z" id="Path" stroke="#30C7DB" stroke-width="1.39130435" fill="#FFFFFF"></path>
                            <path d="M4.72643478,8.36330435 C4.15669565,8.91156522 3.43913043,9.43382609 2.55321739,9.89243478 C1.83391304,8.45373913 1.99782609,3.77765217 4.54104348,2.79313043 C5.28095652,2.50643478 5.88565217,2.74921739 6.23417391,3.30643478 C6.88982609,4.35365217 6.64791304,6.51078261 4.72643478,8.36330435 Z" id="Path" stroke="#30C7DB" stroke-width="1.39130435" fill="#FFFFFF"></path>
                            <path d="M22.3205217,9.89269565 C23.0393913,8.45347826 22.8753043,3.77756522 20.3322609,2.79313043 C17.7892174,1.80878261 16.8573043,7.06608696 22.3205217,9.89269565 Z" id="Path" stroke="#30C7DB" stroke-width="1.39130435" fill="#FFFFFF"></path>
                            <path d="M7.83217391,11.5546087 C7.33478261,11.5546087 6.93017391,12.1566087 6.93017391,12.8965217 C6.93017391,13.6364348 7.33478261,14.2384348 7.83217391,14.2384348 C8.32956522,14.2384348 8.73426087,13.6364348 8.73426087,12.8965217 C8.73426087,12.1566087 8.32965217,11.5546087 7.83217391,11.5546087 Z" id="Path" fill="#30C7DB"></path>
                            <path d="M17.0416522,11.5546087 C16.5442609,11.5546087 16.1395652,12.1566087 16.1395652,12.8965217 C16.1395652,13.6364348 16.5442609,14.2384348 17.0416522,14.2384348 C17.5390435,14.2384348 17.9436522,13.6364348 17.9436522,12.8965217 C17.9436522,12.1566087 17.5390435,11.5546087 17.0416522,11.5546087 Z" id="Path" fill="#30C7DB"></path>
                            <path d="M12.4366957,19.338 C11.3183478,19.338 10.285913,18.6850435 9.80626087,17.6745217 C9.64713043,17.3393043 9.78991304,16.9385217 10.1251304,16.7794783 C10.4601739,16.6205217 10.8610435,16.7631304 11.0201739,17.0983478 C11.2785217,17.6426087 11.8344348,17.9942609 12.4366957,17.9942609 C13.0389565,17.9942609 13.5948696,17.6426087 13.8532174,17.0983478 C14.0123478,16.7631304 14.4129565,16.6203478 14.7482609,16.7794783 C15.0834783,16.9385217 15.2262609,17.3393043 15.0671304,17.6745217 C14.5874783,18.6850435 13.5550435,19.338 12.4366957,19.338 Z" id="Path" fill="#30C7DB"></path>
                        </g>
                    </g>
                    <g id="grandparents-(1)" transform="translate(0.000000, 0.850242)">
                        <path d="M4.76486957,36.3743478 C4.76486957,36.3743478 2.6546087,37.0032174 1.9306087,36.2792174 C1.2066087,35.5552174 1.9306087,33.698 1.9306087,33.698 L5.51565217,32.2309565 L4.76486957,36.3743478 Z" id="Path" stroke="#30C7DB" stroke-width="1.39130435" fill="#FFFFFF"></path>
                        <path d="M20.732087,33.697913 C20.732087,33.697913 21.456087,35.5552174 20.732087,36.2791304 C20.008087,37.0031304 17.8978261,36.3742609 17.8978261,36.3742609 L16.9727826,32.5095652 L20.732087,33.697913 Z" id="Path" stroke="#30C7DB" stroke-width="1.39130435" fill="#FFFFFF"></path>
                        <path d="M17.8591304,33.6976522 C17.8591304,33.6976522 18.3043478,38.7741739 16.88,42.4246087 L16.0594783,43.9510435 L6.31034783,43.754 L6.20913043,43.7521739 L5.78269565,42.4246087 C4.44791304,39.0061739 4.75434783,34.3381739 4.79817391,33.7576522 C4.79904348,33.7478261 4.8,33.7397391 4.80086957,33.7326087 C4.80269565,33.7093043 4.80356522,33.6976522 4.80356522,33.6976522 L1.92982609,33.6976522 C1.92982609,25.6649565 5.19147826,23.0124348 5.75669565,22.6128696 L16.905913,22.6128696 C17.4702609,23.0124348 20.731913,25.6648696 20.731913,33.6976522 L17.8591304,33.6976522 Z" id="Path" stroke="#30C7DB" stroke-width="1.39130435" fill="#FFFFFF"></path>
                        <path d="M11.3310435,43.5866957 C10.96,43.5866957 10.6592174,43.2691304 10.6592174,42.8773043 L10.6592174,25.7935652 C10.6592174,25.4018261 10.96,25.0841739 11.3310435,25.0841739 C11.702087,25.0841739 12.0028696,25.4017391 12.0028696,25.7935652 L12.0028696,42.8773043 C12.0029565,43.2690435 11.702087,43.5866957 11.3310435,43.5866957 L11.3310435,43.5866957 Z" id="Path" fill="#30C7DB"></path>
                        <path d="M5.5433913,44.5217391 L11.3313043,44.5217391 L11.3313043,42.4253913 L7.63965217,42.4253913 C6.48191304,42.4253913 5.5433913,43.364 5.5433913,44.5217391 Z" id="Path" stroke="#30C7DB" stroke-width="1.39130435" fill="#FFFFFF"></path>
                        <path d="M17.1192174,44.5217391 L11.3313043,44.5217391 L11.3313043,42.4253913 L15.0229565,42.4253913 C16.1806957,42.4253913 17.1192174,43.364 17.1192174,44.5217391 Z" id="Path" stroke="#30C7DB" stroke-width="1.39130435" fill="#FFFFFF"></path>
                        <circle id="Oval" stroke="#30C7DB" stroke-width="1.39130435" fill="#FFFFFF" cx="11.3527826" cy="3.09886957" r="3.09886957"></circle>
                        <path d="M20.6246957,12.2466087 L11.3315652,18.3515652 L4.38008696,13.764087 L2.08147826,12.2466087 C2.08147826,12.2466087 -0.445565217,2.35504348 11.3316522,2.35504348 L11.3746087,2.35504348 C23.1508696,2.35504348 20.6246957,12.2466087 20.6246957,12.2466087 Z" id="Path" stroke="#30C7DB" stroke-width="1.39130435" fill="#FFFFFF"></path>
                        <path d="M2.08191304,12.2466087 L9.83426087,12.2466087 L9.83426087,16.2876522 L2.038,16.2876522 C0.922695652,16.2876522 0.0179130435,15.382 0.0179130435,14.2666957 C0.0179130435,13.1513913 0.922695652,12.2457391 2.038,12.2457391 C2.05330435,12.2457391 2.06756522,12.2457391 2.08191304,12.2466087 Z" id="Path" stroke="#30C7DB" stroke-width="1.39130435" fill="#FFFFFF"></path>
                        <path d="M22.6443478,14.2666957 C22.6443478,15.382 21.7404348,16.2876522 20.6242609,16.2876522 L11.968087,16.2876522 L11.968087,12.2466087 L20.5804348,12.2466087 C20.5956522,12.2457391 20.61,12.2457391 20.6243478,12.2457391 C21.7404348,12.2457391 22.6443478,13.1513913 22.6443478,14.2666957 Z" id="Path" stroke="#30C7DB" stroke-width="1.39130435" fill="#FFFFFF"></path>
                        <ellipse id="Oval" fill="#30C7DB" cx="11.3310435" cy="22.9361739" rx="4.55747826" ry="3.3093913"></ellipse>
                        <ellipse id="Oval" fill="#FFFFFF" cx="11.3310435" cy="22.9361739" rx="3.21382609" ry="1.96565217"></ellipse>
                        <path d="M20.5489565,17.9323478 C20.4136522,20.592 18.2852174,22.7097391 15.6238261,22.8351304 C13.5303478,22.9336522 11.4367826,22.9605217 9.34243478,22.9148696 C9.33973913,22.9148696 9.33617391,22.9148696 9.33347826,22.914 C8.56843478,22.897913 7.8033913,22.8710435 7.03843478,22.8351304 C4.37791304,22.7097391 2.2493913,20.592 2.11330435,17.9323478 C2.01565217,16.0367826 2.00582609,14.1421739 2.08104348,12.2466087 L2.08191304,12.2466087 C2.08191304,12.2466087 4.2686087,12.1355652 7.02947826,11.5138261 C9.48313043,10.962 12.39,10.0061739 14.617913,8.36686957 C14.617913,8.36686957 16.9416522,12.2466087 20.5813043,12.2466087 C20.6573913,14.1421739 20.6466087,16.0367826 20.5489565,17.9323478 L20.5489565,17.9323478 Z" id="Path" stroke="#30C7DB" stroke-width="1.39130435" fill="#FFFFFF"></path>
                        <path d="M11.3313043,19.0233043 C10.2696522,19.0233043 9.28947826,18.4033913 8.83408696,17.444087 C8.67495652,17.1088696 8.81773913,16.7081739 9.15295652,16.5490435 C9.48817391,16.39 9.88886957,16.5327826 10.048,16.867913 C10.282087,17.3609565 10.7857391,17.6795652 11.3313043,17.6795652 C11.8768696,17.6795652 12.3805217,17.3609565 12.6145217,16.867913 C12.7735652,16.5326957 13.1744348,16.3898261 13.5095652,16.5489565 C13.8447826,16.708 13.9875652,17.1087826 13.8285217,17.444 C13.3732174,18.4033913 12.3930435,19.0233043 11.3313043,19.0233043 L11.3313043,19.0233043 Z" id="Path" fill="#30C7DB"></path>
                        <path d="M7.02982609,12.7502609 C6.56434783,12.7502609 6.18565217,13.3133043 6.18565217,14.0053043 C6.18565217,14.6973913 6.56434783,15.2603478 7.02982609,15.2603478 C7.49530435,15.2603478 7.874,14.6973043 7.874,14.0053043 C7.87391304,13.3133043 7.49530435,12.7502609 7.02982609,12.7502609 Z" id="Path" fill="#30C7DB"></path>
                        <path d="M15.6329565,12.7502609 C15.1674783,12.7502609 14.7887826,13.3133043 14.7887826,14.0053043 C14.7887826,14.6973913 15.1674783,15.2603478 15.6329565,15.2603478 C16.0984348,15.2603478 16.4771304,14.6973043 16.4771304,14.0053043 C16.4770435,13.3133043 16.0984348,12.7502609 15.6329565,12.7502609 Z" id="Path" fill="#30C7DB"></path>
                        <ellipse id="Oval" fill="#30C7DB" cx="17.0806087" cy="16.5883478" rx="1.37034783" ry="1"></ellipse>
                        <ellipse id="Oval" fill="#30C7DB" cx="5.58191304" cy="16.5883478" rx="1.37034783" ry="1"></ellipse>
                        <path d="M16.3942609,36.3014783 L14.1611304,36.3014783 C13.790087,36.3014783 13.4893043,36.0006957 13.4893043,35.6296522 C13.4893043,35.2586087 13.790087,34.9578261 14.1611304,34.9578261 L16.3942609,34.9578261 C16.7653043,34.9578261 17.066087,35.2586087 17.066087,35.6296522 C17.066087,36.0006087 16.7653043,36.3014783 16.3942609,36.3014783 Z" id="Path" fill="#30C7DB"></path>
                        <path d="M8.50113043,36.3014783 L6.268,36.3014783 C5.89695652,36.3014783 5.59617391,36.0006957 5.59617391,35.6296522 C5.59617391,35.2586087 5.89695652,34.9578261 6.268,34.9578261 L8.50113043,34.9578261 C8.87217391,34.9578261 9.17295652,35.2586087 9.17295652,35.6296522 C9.17295652,36.0006087 8.87217391,36.3014783 8.50113043,36.3014783 Z" id="Path" fill="#30C7DB"></path>
                    </g>
                </g>
            </g>
        </g>
    </g>
</svg>