<?xml version="1.0" encoding="UTF-8"?>
<svg width="64px" height="64px" viewBox="0 0 64 64" version="1.1" xmlns="http://www.w3.org/2000/svg" xmlns:xlink="http://www.w3.org/1999/xlink">
    <!-- Generator: sketchtool 61.2 (101010) - https://sketch.com -->
    <title>E0D40A6F-87D1-411A-B768-1506D810465B</title>
    <desc>Created with sketchtool.</desc>
    <g id="Proceso-E-Commerce-Propuesta" stroke="none" stroke-width="1" fill="none" fill-rule="evenodd">
        <g id="Oncosalud_Wireframes_Desktop_Confirmación" transform="translate(-688.000000, -256.000000)" fill="#30C7DB">
            <g id="icon_Pago_exitoso" transform="translate(688.000000, 256.000000)">
                <circle id="Oval" fill-opacity="0.1" cx="32" cy="32" r="32"></circle>
                <g id="email" transform="translate(14.000000, 15.000000)" fill-rule="nonzero">
                    <path d="M22.2923077,4.15384615 C22.6744291,4.15384615 22.9846154,3.84365984 22.9846154,3.46153846 C22.9846154,3.07941708 22.6744291,2.76923077 22.2923077,2.76923077 C21.9101863,2.76923077 21.6,3.07941708 21.6,3.46153846 C21.6,3.84365984 21.9101863,4.15384615 22.2923077,4.15384615 Z" id="Path"></path>
                    <path d="M25.0615385,12.4615385 L10.3846154,12.4615385 C9.22986775,12.4615385 8.30769231,13.4018329 8.30769231,14.5384615 L8.30769231,24.2307692 C8.30769231,25.3757812 9.23933292,26.3076923 10.3846154,26.3076923 L25.0615385,26.3076923 C25.6267428,26.3076923 26.1708534,26.0740385 26.5591947,25.668119 C26.5613581,25.6656851 26.5640625,25.6637921 26.5664964,25.6613581 C26.5705529,25.6573017 26.5740685,25.6527043 26.578125,25.6486479 C26.5797476,25.6467548 26.5816406,25.6448618 26.5835337,25.6429688 C26.5894831,25.6364784 26.5951623,25.6297175 26.6011118,25.6232271 C26.6054387,25.6183594 26.6097656,25.613762 26.6138221,25.6086238 C26.9521334,25.2286658 27.1384615,24.7413462 27.1384615,24.2307692 L27.1384615,14.5384615 C27.1384615,13.3899339 26.2030348,12.4615385 25.0615385,12.4615385 L25.0615385,12.4615385 Z M18.2293269,19.9673979 C18.082482,20.1072115 17.9323919,20.1867188 17.7230769,20.1867188 C17.5129507,20.1867188 17.3628606,20.1064002 17.2168269,19.9673979 L10.7867488,13.8461538 L24.659405,13.8461538 L18.2293269,19.9673979 Z M13.8685998,18.6917669 L9.69230769,23.703155 L9.69230769,14.7158654 L13.8685998,18.6917669 Z M14.8735277,19.6485577 L16.2554387,20.9639423 C16.6478365,21.3557993 17.1684195,21.5713342 17.7230769,21.5713342 C18.2777344,21.5713342 18.7983173,21.3557993 19.1907152,20.9639423 L20.3622296,19.8486779 L24.9222656,24.9230769 L10.4779146,24.9230769 L14.8735277,19.6485577 Z M21.3655348,18.8935096 L25.7538462,14.7158654 L25.7538462,23.7767127 L21.3655348,18.8935096 Z" id="Shape"></path>
                    <path d="M33.3692308,0 L2.07692308,0 C0.931640608,0 0,0.931640608 0,2.07692308 L0,31.1538462 C0,32.2991286 0.931640608,33.2307692 2.07692308,33.2307692 L33.3692308,33.2307692 C34.5145132,33.2307692 35.4461538,32.2991286 35.4461538,31.1538462 L35.4461538,2.07692308 C35.4461538,0.931640608 34.5145132,0 33.3692308,0 Z M2.07692308,1.38461538 L33.3692308,1.38461538 C33.7510817,1.38461538 34.0615385,1.69507212 34.0615385,2.07692308 L34.0615385,5.53846154 L1.38461538,5.53846154 L1.38461538,2.07692308 C1.38461538,1.69507212 1.69507212,1.38461538 2.07692308,1.38461538 Z M33.3692308,31.8461538 L2.07692308,31.8461538 C1.69507212,31.8461538 1.38461538,31.5356971 1.38461538,31.1538462 L1.38461538,6.92307692 L34.0615385,6.92307692 L34.0615385,31.1538462 C34.0615385,31.5356971 33.7510817,31.8461538 33.3692308,31.8461538 Z" id="Shape"></path>
                    <path d="M25.0615385,4.15384615 L26.4461538,4.15384615 C26.8285457,4.15384615 27.1384615,3.84393032 27.1384615,3.46153846 C27.1384615,3.0791466 26.8285457,2.76923077 26.4461538,2.76923077 L25.0615385,2.76923077 C24.6791466,2.76923077 24.3692308,3.0791466 24.3692308,3.46153846 C24.3692308,3.84393032 24.6791466,4.15384615 25.0615385,4.15384615 Z" id="Path"></path>
                    <path d="M29.2153846,4.15384615 L30.6,4.15384615 C30.9823919,4.15384615 31.2923077,3.84393032 31.2923077,3.46153846 C31.2923077,3.0791466 30.9823919,2.76923077 30.6,2.76923077 L29.2153846,2.76923077 C28.8329928,2.76923077 28.5230769,3.0791466 28.5230769,3.46153846 C28.5230769,3.84393032 28.8329928,4.15384615 29.2153846,4.15384615 Z" id="Path"></path>
                    <path d="M31.9846154,18.6923077 L29.2153846,18.6923077 C28.8329928,18.6923077 28.5230769,19.0022235 28.5230769,19.3846154 C28.5230769,19.7670072 28.8329928,20.0769231 29.2153846,20.0769231 L31.9846154,20.0769231 C32.3670072,20.0769231 32.6769231,19.7670072 32.6769231,19.3846154 C32.6769231,19.0022235 32.3670072,18.6923077 31.9846154,18.6923077 Z" id="Path"></path>
                    <path d="M6.23076923,18.6923077 L3.46153846,18.6923077 C3.0791466,18.6923077 2.76923077,19.0022235 2.76923077,19.3846154 C2.76923077,19.7670072 3.0791466,20.0769231 3.46153846,20.0769231 L6.23076923,20.0769231 C6.61316109,20.0769231 6.92307692,19.7670072 6.92307692,19.3846154 C6.92307692,19.0022235 6.61316109,18.6923077 6.23076923,18.6923077 Z" id="Path"></path>
                    <path d="M29.9222957,22.5738281 C29.651863,22.3036658 29.2134916,22.3036658 28.9433293,22.5738281 C28.6728966,22.8442608 28.6728966,23.2826322 28.9433293,23.5530649 L30.9009916,25.5109976 C31.1714243,25.7811598 31.6097957,25.7811598 31.8802284,25.5109976 C32.1503906,25.2405649 32.1506611,24.8021935 31.8802284,24.5317608 L29.9222957,22.5738281 Z" id="Path"></path>
                    <path d="M5.52385814,16.1954027 C5.79429083,16.4655649 6.23266228,16.4655649 6.50282455,16.1954027 C6.77325725,15.92497 6.77325725,15.4865985 6.50282455,15.2161658 L4.54516228,13.2582331 C4.27472958,12.9880709 3.83635814,12.9880709 3.56592545,13.2582331 C3.29576324,13.5286658 3.29549275,13.9670373 3.56592545,14.23747 L5.52385814,16.1954027 Z" id="Path"></path>
                    <path d="M29.9222957,16.1954027 L31.8802284,14.23747 C32.1503906,13.9670373 32.1503906,13.5286658 31.8802284,13.2582331 C31.6097957,12.9880709 31.1714243,12.9880709 30.9009916,13.2582331 L28.9433293,15.2161658 C28.6728966,15.4865985 28.6728966,15.92497 28.9433293,16.1954027 C29.213762,16.4655649 29.651863,16.4655649 29.9222957,16.1954027 L29.9222957,16.1954027 Z" id="Path"></path>
                    <path d="M5.52385814,22.5738281 L3.56592545,24.5317608 C3.29576324,24.8021935 3.29576324,25.2405649 3.56592545,25.5109976 C3.83635814,25.7811598 4.27472958,25.7811598 4.54516228,25.5109976 L6.50282455,23.5530649 C6.77325725,23.2826322 6.77325725,22.8442608 6.50282455,22.5738281 C6.23239186,22.3036658 5.79429083,22.3036658 5.52385814,22.5738281 Z" id="Path"></path>
                </g>
            </g>
        </g>
    </g>
</svg>