<?xml version="1.0" encoding="UTF-8"?>
<svg width="24px" height="24px" viewBox="0 0 24 24" version="1.1" xmlns="http://www.w3.org/2000/svg" xmlns:xlink="http://www.w3.org/1999/xlink">
    <!-- Generator: sketchtool 61.2 (101010) - https://sketch.com -->
    <title>60C6983D-C62B-4B89-82B7-2A1FBAA609F9</title>
    <desc>Created with sketchtool.</desc>
    <g id="Proceso-E-Commerce-Propuesta" stroke="none" stroke-width="1" fill="none" fill-rule="evenodd">
        <g id="Oncosalud_Wireframes_Desktop_Cotización" transform="translate(-931.000000, -174.000000)" fill-rule="nonzero">
            <g id="Programa_ONCOPLUS" transform="translate(791.000000, 162.000000)">
                <g id="Recomendado">
                    <g transform="translate(98.000000, 0.000000)">
                        <g id="icon_recomendado" transform="translate(42.000000, 12.000000)">
                            <path d="M13.4157473,1.16705007 C13.9523989,1.93129538 14.9595915,2.20115649 15.8065653,1.80756388 C17.0182309,1.24435968 18.421545,2.05466564 18.5398576,3.3857277 C18.6224055,4.31597194 19.3597369,5.05312273 20.2898005,5.13567061 C21.6208626,5.25380261 22.4311685,6.65729727 21.8679643,7.86896294 C21.4743717,8.71593674 21.7442328,9.72312932 22.5084781,10.2597809 C23.6020118,11.0276388 23.6020118,12.6480701 22.5084781,13.4159279 C21.7442328,13.9523989 21.4743717,14.9595915 21.8679643,15.8065653 C22.4311685,17.0182309 21.6208626,18.4217256 20.2898005,18.5398576 C19.3595563,18.6224055 18.6224055,19.3597369 18.5398576,20.2899811 C18.4217256,21.6208626 17.0182309,22.4311685 15.8065653,21.8679643 C14.9595915,21.4743717 13.9523989,21.7442328 13.4157473,22.5084781 C12.6478894,23.6021924 11.0274581,23.6021924 10.2596003,22.5084781 C9.72312932,21.7442328 8.71593674,21.4743717 7.86896294,21.8679643 C6.65729727,22.4311685 5.25380261,21.6208626 5.13567061,20.2899811 C5.05312273,19.3597369 4.31579127,18.6224055 3.38554708,18.5398576 C2.05466564,18.4217256 1.24435968,17.0184116 1.80756388,15.8065653 C2.20115649,14.9597721 1.93129538,13.9523989 1.16705007,13.4159279 C0.0733357809,12.6480701 0.0733357809,11.0276388 1.16705007,10.2597809 C1.93129538,9.72312932 2.20115649,8.71593674 1.80756388,7.86896294 C1.24435968,6.65729727 2.05466564,5.25398323 3.38554708,5.13567061 C4.31579127,5.05312273 5.05312273,4.31579127 5.13567061,3.3857277 C5.25380261,2.05466564 6.65711665,1.24435968 7.86896294,1.80756388 C8.71575612,2.20115649 9.72312932,1.93129538 10.2596003,1.16705007 C11.0274581,0.0733357809 12.6480701,0.0733357809 13.4157473,1.16705007 Z" id="Path" fill="#FFFFFF"></path>
                            <path d="M20.6590081,11.8377641 C20.6590081,16.7095344 16.7095344,20.6590081 11.8377641,20.6590081 C6.96599383,20.6590081 3.01652009,16.7095344 3.01652009,11.8377641 C3.01652009,6.96599383 6.96599383,3.01652009 11.8377641,3.01652009 C16.7095344,3.01652009 20.6590081,6.96599383 20.6590081,11.8377641 Z" id="Path" fill="#F8FBFF"></path>
                            <path d="M11.8377641,3.01652009 C11.4210508,3.01652009 11.0112015,3.0461434 10.6098417,3.10195804 C14.9003448,3.69966252 18.2031634,7.38270713 18.2031634,11.8377641 C18.2031634,16.2928211 14.9003448,19.9758657 10.6098417,20.5735702 C11.0112015,20.6293848 11.4210508,20.6590081 11.8377641,20.6590081 C16.7095344,20.6590081 20.6590081,16.7095344 20.6590081,11.8377641 C20.6590081,6.96599383 16.7095344,3.01652009 11.8377641,3.01652009 Z" id="Path" fill="#E4EAF7"></path>
                            <path d="M16.8101452,9.06726202 L11.8375835,9.06726202 L12.512417,7.41955564 C12.7860713,6.85400327 12.6860023,6.17880855 12.2600769,5.71711841 C11.9448776,5.37554717 11.3919694,5.42485914 11.1423388,5.81664548 L8.84364213,9.61619639 C8.79089818,9.69892493 8.71431109,9.76142287 8.62634429,9.79772947 L8.62634429,15.5152092 L8.62706681,15.5152092 C8.67854638,15.5152092 8.72966462,15.5236988 8.77843473,15.5403167 L10.606771,16.1636707 C11.3144792,16.4048116 12.0572295,16.5280013 12.8050375,16.5280013 L15.75057,16.5280013 C16.1409113,16.5280013 16.4571943,16.2117182 16.4571943,15.8213769 L16.4571943,15.3694408 C16.4571943,14.9792801 16.1409113,14.6628164 15.75057,14.6628164 L16.2034092,14.6628164 C16.5937505,14.6628164 16.9102142,14.3465334 16.9102142,13.9561921 L16.9102142,13.504256 C16.9102142,13.1140953 16.5937505,12.7976316 16.2034092,12.7976316 L16.5634047,12.7976316 C16.9537461,12.7976316 17.2700291,12.4811679 17.2700291,12.0910073 L17.2700291,11.6390712 C17.2700291,11.2489105 16.9537461,10.9324468 16.5634047,10.9324468 L16.8099646,10.9324468 C17.2003059,10.9324468 17.516589,10.6159832 17.516589,10.2258225 L17.516589,9.77388637 C17.5167696,9.38372569 17.2003059,9.06726202 16.8101452,9.06726202 L16.8101452,9.06726202 Z" id="Path" fill="#FFFFFF"></path>
                            <path d="M16.8999183,14.0719759 L12.8050375,14.0719759 C12.0572295,14.0719759 11.3146598,13.9489669 10.606771,13.7076453 L8.62634429,13.1563627 L8.62634429,15.5150286 L8.62706681,15.5150286 C8.678727,15.5150286 8.72984524,15.5235181 8.77861535,15.5401361 L10.606771,16.16349 C11.3146598,16.4048116 12.0572295,16.5280013 12.8050375,16.5280013 L15.75057,16.5280013 C16.1409113,16.5280013 16.457375,16.2115376 16.457375,15.8213769 L16.457375,15.3694408 C16.457375,14.9790995 16.1409113,14.6628164 15.75057,14.6628164 L16.2035899,14.6628164 C16.5541926,14.6628164 16.844465,14.4070444 16.8999183,14.0719759 L16.8999183,14.0719759 Z" id="Path" fill="#E4EAF7"></path>
                            <path d="M8.27032266,16.1723409 L6.77922249,16.1723409 C6.58269711,16.1723409 6.42320086,16.0130253 6.42320086,15.8164999 L6.42320086,9.58856002 C6.42320086,9.39131212 6.58378087,9.23163525 6.78102877,9.23271352 L8.2723096,9.24337618 C8.46811246,9.24445999 8.62634429,9.40341434 8.62634429,9.59939782 L8.62634429,15.8164999 C8.62634429,16.0130253 8.46684804,16.1723409 8.27032266,16.1723409 Z" id="Path" fill="#FFFFFF"></path>
                            <path d="M6.42338148,15.8164999 C6.42338148,16.0130253 6.58269711,16.1723409 6.77922249,16.1723409 L8.27050332,16.1723409 C8.4670287,16.1723409 8.62634429,16.0130253 8.62634429,15.8164999 L8.62634429,13.7164962 L6.42338148,13.7164962 L6.42338148,15.8164999 Z" id="Path" fill="#E4EAF7"></path>
                            <path d="M17.8635791,10.2258225 L17.8635791,9.77388637 C17.8635791,9.19316108 17.3910511,8.72045253 16.8101452,8.72045253 L12.3543657,8.72045253 L12.8294225,7.56026638 C13.1614203,6.86411854 13.038592,6.04947751 12.5149458,5.4819382 C12.2911453,5.23935222 11.974501,5.11706571 11.6459351,5.14632779 C11.3171886,5.17577048 11.0270969,5.3520653 10.8498989,5.63041604 C10.8484539,5.6325836 10.8470089,5.63493178 10.8455638,5.63709934 L8.75549471,9.09182769 C8.63013751,8.97188941 8.46088726,8.89765049 8.27483844,8.89674735 L6.78301571,8.88590951 L6.77904183,8.88590951 C6.59208987,8.88590951 6.4163369,8.95852277 6.28357392,9.09038265 C6.15008838,9.22332629 6.07657198,9.40016298 6.07657198,9.58856002 L6.07657198,15.8164999 C6.07657198,16.2039511 6.39177122,16.5191504 6.77922249,16.5191504 L8.27050332,16.5191504 C8.60611374,16.5191504 8.88753521,16.2825252 8.95671645,15.9675066 L10.4949611,16.4918753 C11.2402402,16.7460216 12.0174909,16.8748108 12.8050375,16.8748108 L15.7507506,16.8748108 C16.3316565,16.8748108 16.8041845,16.4022828 16.8041845,15.8213769 L16.8041845,15.3694408 C16.8041845,15.1973005 16.7626396,15.0347335 16.6891232,14.8909521 C17.0263593,14.7151991 17.2570237,14.3620676 17.2570237,13.9561921 L17.2570237,13.504256 C17.2570237,13.3156783 17.2071699,13.1384803 17.1201062,12.9851255 C17.4181457,12.798896 17.6170192,12.4678014 17.6170192,12.0910073 L17.6170192,11.6392518 C17.6170192,11.4275535 17.55416,11.2303056 17.4463239,11.0650292 C17.6997477,10.8722971 17.8635791,10.5677549 17.8635791,10.2258225 L17.8635791,10.2258225 Z M17.1699601,10.2258225 C17.1699601,10.4241542 17.0084769,10.5856373 16.8101452,10.5856373 L14.1550657,10.5856373 C13.9635979,10.5856373 13.8082562,10.7409791 13.8082562,10.9324468 C13.8082562,11.1239146 13.9635979,11.2792563 14.1550657,11.2792563 L16.5635854,11.2792563 C16.761917,11.2792563 16.9234002,11.4407395 16.9234002,11.6390712 L16.9234002,12.0910073 C16.9234002,12.289339 16.761917,12.4508221 16.5635854,12.4508221 L14.1550657,12.4508221 C13.9635979,12.4508221 13.8082562,12.6059832 13.8082562,12.7976316 C13.8082562,12.9890994 13.9635979,13.1444411 14.1550657,13.1444411 L16.2035899,13.1444411 C16.4021022,13.1444411 16.5634047,13.3057437 16.5634047,13.504256 L16.5634047,13.9560115 C16.5634047,14.1545238 16.4021022,14.316007 16.2035899,14.316007 L14.1550657,14.316007 C13.9635979,14.316007 13.8082562,14.4711681 13.8082562,14.6628164 C13.8082562,14.8542842 13.9635979,15.0096259 14.1550657,15.0096259 L15.7507506,15.0096259 C15.9490823,15.0096259 16.1105655,15.1709285 16.1105655,15.3694408 L16.1105655,15.8211963 C16.1105655,16.0197086 15.9490823,16.1810111 15.7507506,16.1810111 L12.8050375,16.1810111 C12.0938973,16.1810111 11.3917888,16.0646854 10.7187616,15.8352854 L8.97315379,15.2401098 L8.97315379,12.2862683 C8.97315379,12.0948005 8.81781203,11.9394588 8.62634429,11.9394588 C8.43469593,11.9394588 8.2795348,12.0948005 8.2795348,12.2862683 L8.2795348,15.8164999 C8.2795348,15.8215576 8.27538034,15.8255314 8.27032266,15.8255314 L6.77922249,15.8255314 C6.77416485,15.8255314 6.77001035,15.8215576 6.77001035,15.8164999 L6.77001035,9.58856002 C6.77001035,9.58711498 6.77001035,9.5847668 6.77271981,9.58205734 C6.77542927,9.57934788 6.77777745,9.5795285 6.77849997,9.5795285 L8.27050332,9.59018568 C8.27538034,9.59018568 8.2795348,9.59434018 8.2795348,9.59939782 L8.2795348,10.879161 C8.2795348,11.0706287 8.43469593,11.2259705 8.62634429,11.2259705 C8.81781203,11.2259705 8.97315379,11.0706287 8.97315379,10.879161 L8.97315379,9.98865536 C9.03619362,9.9357308 9.09110513,9.87323281 9.13608202,9.80260649 C9.13752706,9.80025832 9.1389721,9.79791014 9.14023647,9.79574258 L11.436585,6.0001655 C11.4974573,5.9064186 11.5960813,5.84717197 11.7075299,5.83723732 C11.8200624,5.82730266 11.9284404,5.86902819 12.0050275,5.95211796 C12.336664,6.31157157 12.4132511,6.82817317 12.2002884,7.26836838 C12.1972177,7.27487106 12.194147,7.28137374 12.1914376,7.28805704 L11.5167847,8.93576342 C11.4728916,9.04287697 11.4853551,9.16462153 11.5496593,9.26053604 C11.6141442,9.35645055 11.7219803,9.41407152 11.8375835,9.41407152 L16.8101452,9.41407152 C17.0086576,9.41407152 17.1699601,9.57555466 17.1699601,9.77388637 L17.1699601,10.2258225 Z" id="Shape" fill="#30C7DB"></path>
                            <path d="M11.8377641,23.6755282 C11.0863435,23.6755282 10.4077168,23.3227579 9.97583062,22.7077129 C9.53509356,22.0802045 8.71051787,21.8592941 8.01527322,22.1824411 C7.3337564,22.4990854 6.56951109,22.4653076 5.91888205,22.0895973 C5.26807235,21.713887 4.85677797,21.0690381 4.79030615,20.3205076 C4.72256991,19.5566235 4.11872399,18.9529583 3.35502063,18.8852221 C2.60649014,18.8187502 1.96164121,18.4074559 1.58593092,17.7566462 C1.21022063,17.1058364 1.17644282,16.3417718 1.49308711,15.660255 C1.81623411,14.9648297 1.59532368,14.140254 0.967815271,13.6996976 C0.352770272,13.2678114 0,12.5891847 0,11.8377641 C0,11.0863435 0.352770272,10.4077168 0.967815271,9.97583062 C1.59532368,9.53527418 1.81641473,8.71051787 1.49308711,8.01527322 C1.17644282,7.3337564 1.21022063,6.56969176 1.58593092,5.91888205 C1.96164121,5.26807235 2.60649014,4.85677797 3.35502063,4.79030615 C4.11890466,4.72256991 4.72256991,4.11872399 4.79030615,3.35502063 C4.85677797,2.60630947 5.26807235,1.96164121 5.91888205,1.58593092 C6.56969176,1.21022063 7.3337564,1.1762622 8.01527322,1.49308711 C8.71069849,1.81623411 9.53527418,1.59532368 9.97583062,0.967634606 C10.4077168,0.352770272 11.0863435,0 11.8377641,0 C12.5891847,0 13.2678114,0.352770272 13.6996976,0.967815271 L13.699517,0.967815271 C14.140254,1.59532368 14.9648297,1.81623411 15.660255,1.49308711 C16.3417718,1.17644282 17.1058364,1.21022063 17.7566462,1.58593092 C18.4074559,1.96164121 18.8187502,2.60649014 18.8852221,3.35502063 C18.9529583,4.11890466 19.5566235,4.72256991 20.3205076,4.79030615 C21.0690381,4.85677797 21.7137064,5.26807235 22.0895973,5.91888205 C22.4653076,6.56969176 22.4990854,7.3337564 22.1824411,8.01527322 C21.8591135,8.71069849 22.0800239,9.53527418 22.7077129,9.97583062 C23.3227579,10.4077168 23.6755282,11.0863435 23.6755282,11.8377641 C23.6755282,12.5891847 23.3227579,13.2678114 22.7077129,13.6996976 C22.0802045,14.140254 21.8591135,14.9648297 22.1824411,15.660255 C22.4990854,16.3417718 22.4653076,17.1058364 22.0895973,17.7566462 C21.713887,18.4074559 21.0690381,18.8187502 20.3205076,18.8852221 C19.5566235,18.9529583 18.9529583,19.5568042 18.8852221,20.3205076 C18.8187502,21.0690381 18.4074559,21.713887 17.7566462,22.0895973 C17.1058364,22.4653076 16.3417718,22.4990854 15.660255,22.1824411 C14.9650103,21.8592941 14.1404346,22.0802045 13.6996976,22.7078936 C13.2678114,23.3227579 12.5891847,23.6755282 11.8377641,23.6755282 Z M8.68197831,21.3407055 C9.40377558,21.3407055 10.1055229,21.6853475 10.5435506,22.3092433 C10.8437575,22.7367944 11.3153823,22.9819092 11.8377641,22.9819092 C12.3601459,22.9819092 12.8317707,22.7367944 13.1319776,22.3092433 C13.7658081,21.4062742 14.9521856,21.0883655 15.9526949,21.5534876 C16.4263066,21.7734949 16.9575393,21.750013 17.4098367,21.4888221 C17.862134,21.2276312 18.1482519,20.7794883 18.1943125,20.2592741 C18.2918527,19.1603215 19.1603215,18.2918527 20.2592741,18.1943125 C20.7794883,18.1480713 21.2276312,17.862134 21.4890027,17.4098367 C21.750013,16.9575393 21.7734949,16.4263066 21.5534876,15.9526949 C21.0883655,14.9521856 21.4062742,13.7659888 22.3092433,13.1319776 C22.7366137,12.8317707 22.9819092,12.3601459 22.9819092,11.8377641 C22.9819092,11.3153823 22.7366137,10.8437575 22.3092433,10.5435506 C21.4062742,9.90972009 21.0883655,8.72334261 21.553307,7.72283333 C21.7734949,7.24922159 21.750013,6.71798893 21.4888221,6.26569155 C21.2276312,5.81339416 20.7794883,5.52727633 20.2590934,5.48121568 C19.1603215,5.38367551 18.2918527,4.51520673 18.1943125,3.41625415 C18.1480713,2.8960399 17.862134,2.44789702 17.4098367,2.1867061 C16.9575393,1.92551522 16.4263066,1.90185268 15.9526949,2.1220406 C14.952005,2.58716272 13.7658081,2.26907335 13.1319776,1.36628491 C13.1319776,1.36628491 13.1319776,1.36628491 13.131797,1.36628491 C12.8317707,0.938733815 12.3601459,0.69361899 11.8377641,0.69361899 C11.3153823,0.69361899 10.8437575,0.938733815 10.5435506,1.36628491 C9.90972009,2.26907335 8.72334261,2.58698205 7.72283333,2.1220406 C7.24922159,1.9020333 6.71798893,1.92551522 6.26569155,2.1867061 C5.81339416,2.44789702 5.52727633,2.8960399 5.48121568,3.41625415 C5.38367551,4.51520673 4.51520673,5.38367551 3.41625415,5.48121568 C2.8960399,5.52745695 2.44789702,5.81339416 2.1867061,6.26569155 C1.92551522,6.71798893 1.9020333,7.24922159 2.1220406,7.72283333 C2.58716272,8.72334261 2.26925402,9.90972009 1.36628491,10.5435506 C0.938733815,10.8437575 0.69361899,11.3153823 0.69361899,11.8377641 C0.69361899,12.3601459 0.938733815,12.8317707 1.36628491,13.1319776 C2.26925402,13.7658081 2.58716272,14.9521856 2.1220406,15.9526949 C1.9020333,16.4263066 1.92551522,16.9575393 2.1867061,17.4098367 C2.44789702,17.862134 2.8960399,18.1482519 3.41625415,18.1943125 C4.51520673,18.2918527 5.38367551,19.1603215 5.48121568,20.2592741 C5.52745695,20.7794883 5.81339416,21.2276312 6.26569155,21.4888221 C6.71798893,21.750013 7.24922159,21.7734949 7.72283333,21.5534876 C8.03207179,21.4097062 8.35901197,21.3407055 8.68197831,21.3407055 Z" id="Shape" fill="#30C7DB"></path>
                            <path d="M11.8377641,21.0058176 C9.51612742,21.0058176 7.30124301,20.1364457 5.60097335,18.5575593 C3.90973516,16.9873432 2.87906071,14.8600643 2.6982501,12.5675091 C2.68325785,12.3765832 2.82595548,12.2096812 3.01688137,12.1946889 C3.20762659,12.1789741 3.37470928,12.3222136 3.3898822,12.5131395 C3.55678427,14.6315675 4.50960724,16.5977244 6.07277876,18.0492667 C7.64443991,19.508576 9.69169973,20.3121986 11.8377641,20.3121986 C13.9836479,20.3121986 16.0310883,19.508576 17.6025688,18.0492667 C19.165921,16.5977244 20.1187439,14.6315675 20.285646,12.5131395 C20.3006383,12.3222136 20.467721,12.1791547 20.6586468,12.1946889 C20.8495727,12.2096812 20.9920897,12.3765832 20.9770974,12.5675091 C20.7964675,14.8600643 19.7656124,16.9873432 18.0745549,18.5575593 C16.3742852,20.1364457 14.1594008,21.0058176 11.8377641,21.0058176 L11.8377641,21.0058176 Z" id="Path" fill="#30C7DB"></path>
                            <path d="M3.04451774,11.4801168 C3.03548622,11.4801168 3.02609346,11.4797555 3.01688137,11.4790331 C2.82595548,11.4638601 2.68343847,11.2969581 2.69843077,11.1060322 C2.87960261,8.81401882 3.91063829,6.6871012 5.60151525,5.11724633 C7.30178491,3.53890189 9.51648866,2.66971059 11.8377641,2.66971059 C14.1577751,2.66971059 16.3715757,3.53817937 18.0713035,5.11489815 C19.7619998,6.68312736 20.7935774,8.80823866 20.9765555,11.0986264 C20.9917285,11.2895522 20.8492114,11.4566349 20.6582856,11.4719885 C20.4669985,11.4871614 20.300277,11.344825 20.2851042,11.1538992 C20.1160345,9.03727743 19.162489,7.07310742 17.5996787,5.62337146 C16.0285595,4.16604906 13.9822028,3.36332958 11.8377641,3.36332958 C9.69206097,3.36332958 7.64498181,4.16677158 6.07350128,5.62553902 C4.51032971,7.07671998 3.55732617,9.04251568 3.3898822,11.1605824 C3.37561242,11.3422961 3.22370265,11.4801168 3.04451774,11.4801168 Z" id="Path" fill="#30C7DB"></path>
                        </g>
                    </g>
                </g>
            </g>
        </g>
    </g>
</svg>