<?xml version="1.0" encoding="UTF-8"?>
<svg width="64px" height="64px" viewBox="0 0 64 64" version="1.1" xmlns="http://www.w3.org/2000/svg" xmlns:xlink="http://www.w3.org/1999/xlink">
    <!-- Generator: sketchtool 61.2 (101010) - https://sketch.com -->
    <title>9B57E4B6-45ED-4AF6-B36D-F8C932F1580C</title>
    <desc>Created with sketchtool.</desc>
    <g id="Proceso-E-Commerce-Propuesta" stroke="none" stroke-width="1" fill="none" fill-rule="evenodd">
        <g id="Oncosalud_Wireframes_Desktop_FiltroSelectedPreguntas3update" transform="translate(-768.000000, -248.000000)" fill="#30C7DB">
            <g id="Afiliarme-con-seres-queridos" transform="translate(744.000000, 240.000000)">
                <g id="icon_nosoyfumador" transform="translate(24.000000, 8.000000)">
                    <circle id="Oval" fill-opacity="0.1" cx="32" cy="32" r="32"></circle>
                    <g id="no-smoking" transform="translate(11.789474, 11.789474)" fill-rule="nonzero">
                        <path d="M34.5015419,5.91951071 C30.6843133,2.10228205 25.608861,0 20.2105263,0 C14.8121916,0 9.73673929,2.10228205 5.91951071,5.91951071 C2.10228205,9.73673929 -2.84217094e-14,14.8121916 -2.84217094e-14,20.2105263 C-2.84217094e-14,25.608861 2.10228205,30.6843133 5.91951071,34.5015419 C9.73673929,38.3187706 14.8121916,40.4210526 20.2105263,40.4210526 C23.4479852,40.4210526 26.6675575,39.6368215 29.5207648,38.1531662 C32.281764,36.7179276 34.7127878,34.6270559 36.5510897,32.1069079 C36.7462993,31.839227 36.6877056,31.4636102 36.4197163,31.2684005 C36.151727,31.0728824 35.7761102,31.1317846 35.5809005,31.3994654 C33.8514597,33.770662 31.5644531,35.7375617 28.9672081,37.0879934 C26.2839227,38.4831414 23.2558594,39.2204976 20.2105263,39.2204976 C15.1329153,39.2204976 10.3590666,37.2431127 6.76850329,33.6525493 C3.17793995,30.061986 1.20055508,25.2881373 1.20055508,20.2105263 C1.20055508,15.1329153 3.17793995,10.3590666 6.76850329,6.76850329 C10.3590666,3.17793995 15.1329153,1.20055508 20.2105263,1.20055508 C25.2881373,1.20055508 30.061986,3.17793995 33.6525493,6.76850329 C37.2431127,10.3590666 39.2204976,15.1329153 39.2204976,20.2105263 C39.2204976,23.4452097 38.3940173,26.6385691 36.8301809,29.4458265 C36.6688939,29.735403 36.7728207,30.1008429 37.0623972,30.2624383 C37.3522821,30.4237254 37.717722,30.3194901 37.879009,30.0299136 C39.5421464,27.0447163 40.4210526,23.6490543 40.4210526,20.2105263 C40.4210526,14.8121916 38.3187706,9.73673929 34.5015419,5.91951071 Z" id="Path"></path>
                        <path d="M29.2965666,33.9714227 C29.3418996,33.9819079 29.3875412,33.9868421 29.4328742,33.9868421 C29.5553043,33.9868421 29.675884,33.9495272 29.7776522,33.8779811 C34.2329359,30.7537007 36.8927837,25.6443257 36.8927837,20.2105263 C36.8927837,11.0113075 29.4091283,3.52734379 20.2105263,3.52734379 C18.011102,3.52734379 15.8715049,3.95014389 13.8515625,4.78340874 C13.6939761,4.84847858 13.5712377,4.97769324 13.5144943,5.13867189 C13.4577508,5.29965047 13.4722451,5.47697368 13.5539679,5.62654192 L28.9064556,33.6747533 C28.9884868,33.8246299 29.1303454,33.9325658 29.2965666,33.9714227 Z M20.2105263,4.72820724 C28.7470189,4.72820724 35.6922286,11.6734169 35.6922286,20.2105263 C35.6922286,25.0287829 33.438528,29.5725741 29.6305509,32.4970189 L25.4333882,24.8289474 L30.7456825,24.8289474 C31.0771998,24.8289474 31.3458059,24.5600329 31.3458059,24.2285156 L31.3458059,19.0192228 C31.807463,17.8060239 31.7251233,16.1629318 31.1203742,14.6897615 C30.6352796,13.5080181 29.8834293,12.6127673 28.9817023,12.1335321 C28.8765419,11.6626233 28.6224301,10.7448602 28.0913857,9.82154605 C27.0653783,8.03813732 25.5123355,7.09539474 23.6006373,7.09539474 C22.5311472,7.09539474 21.5893298,7.3979235 20.8778783,7.96998355 C20.233347,8.48776729 19.7920436,9.204153 19.6014597,10.0414268 C19.2196752,11.7199836 19.9289679,13.4367804 21.2988281,14.2247122 C21.7863898,15.3379934 23.2475329,17.1099917 25.9477796,17.1099917 C27.5723684,17.1099917 28.1943873,17.7825864 28.4327714,18.3086965 L28.3501233,18.3086965 C28.3488898,18.3086965 28.3479647,18.3086965 28.3467311,18.3086965 C28.3454976,18.3086965 28.344264,18.3086965 28.3430304,18.3086965 L21.864412,18.3086965 L14.9358553,5.65059624 C16.6236636,5.03813732 18.3947368,4.72820724 20.2105263,4.72820724 Z M25.9477796,15.9094367 C23.2006579,15.9094367 22.3754112,13.6927426 22.342722,13.6014597 C22.2902961,13.4500412 22.1795847,13.3260691 22.035259,13.2566818 C21.1686883,12.8406662 20.4566201,11.6943873 20.7721011,10.3078742 C21.0589022,9.04810855 22.1163651,8.29625826 23.6006373,8.29625826 C25.0685649,8.29625826 26.223787,9.00123355 27.0339227,10.3917557 C27.6756785,11.4930099 27.8557772,12.6254112 27.8573191,12.635588 C27.8887746,12.84375 28.0266242,13.020148 28.2212171,13.1006373 C28.9585732,13.4065584 29.5938528,14.1328125 30.0095601,15.1458676 C30.4477796,16.2128906 30.5575658,17.4069696 30.317023,18.3086965 L29.6863693,18.3086965 C29.4550781,17.4331825 28.6628289,15.9094367 25.9477796,15.9094367 L25.9477796,15.9094367 Z M30.1452508,19.5092517 L30.1452508,23.6283923 L28.9468544,23.6283923 L28.9468544,19.5092517 L30.1452508,19.5092517 Z M27.7462993,23.6283923 L24.776213,23.6283923 L22.5215872,19.5092517 L27.7462993,19.5092517 L27.7462993,23.6283923 Z" id="Shape"></path>
                        <path d="M4.72820724,20.2105263 C4.72820724,15.3922697 6.98190789,10.848787 10.7898849,7.92434211 L13.3606086,12.6210938 C13.5197368,12.9119038 13.8845601,13.0186061 14.1753701,12.8594778 C14.4661801,12.7003495 14.5728824,12.3355263 14.4137541,12.0447163 L11.5139803,6.74660771 C11.4319491,6.59673111 11.2900904,6.48910358 11.1235609,6.45024671 C10.9573397,6.41138984 10.7824836,6.4453125 10.6427837,6.54337989 C6.18719163,9.66766034 3.52734379,14.7770353 3.52734379,20.2105263 C3.52734379,29.4097451 11.0113075,36.8937088 20.2105263,36.8937088 C22.4111842,36.8937088 24.5504728,36.4712171 26.5691818,35.6379523 C26.7267681,35.5728824 26.8491982,35.4436678 26.90625,35.2829976 C26.9629934,35.1220189 26.9484992,34.9443873 26.8667763,34.7948191 L15.5671258,14.1513158 C15.4079976,13.8605057 15.0431743,13.7538035 14.7523643,13.9129318 C14.4615543,14.0720601 14.354852,14.4368833 14.5139803,14.7276932 L16.4740954,18.3086965 L14.6857524,18.3086965 C14.6848273,18.3086965 14.6835938,18.3086965 14.6823602,18.3086965 C14.6811267,18.3086965 14.6798931,18.3086965 14.6789679,18.3086965 L8.63240132,18.3086965 C8.30088403,18.3086965 8.032278,18.577611 8.032278,18.9091283 L8.032278,24.2285156 C8.032278,24.5600329 8.30088403,24.8289474 8.63240132,24.8289474 L20.0430715,24.8289474 L25.484889,34.7707648 C23.7980057,35.3829153 22.0269325,35.6928454 20.2105263,35.6928454 C11.6734169,35.6928454 4.72820724,28.7476357 4.72820724,20.2105263 Z M9.23283308,19.5092517 L14.0822368,19.5092517 L14.0822368,23.6283923 L9.23283308,23.6283923 L9.23283308,19.5092517 Z M15.2827919,23.6283923 L15.2827919,19.5092517 L17.1312706,19.5092517 L19.3858964,23.6283923 L15.2827919,23.6283923 Z" id="Shape"></path>
                    </g>
                </g>
            </g>
        </g>
    </g>
</svg>