<?xml version="1.0" encoding="UTF-8"?>
<svg width="54px" height="54px" viewBox="0 0 54 54" version="1.1" xmlns="http://www.w3.org/2000/svg" xmlns:xlink="http://www.w3.org/1999/xlink">
    <!-- Generator: sketchtool 61.2 (101010) - https://sketch.com -->
    <title>2664A439-54B5-4F6E-BDDE-61C23FA6C624</title>
    <desc>Created with sketchtool.</desc>
    <g id="Proceso-E-Commerce-Propuesta" stroke="none" stroke-width="1" fill="none" fill-rule="evenodd">
        <g id="Oncosalud_Wireframes_Desktop_Comparador" transform="translate(-213.000000, -208.000000)">
            <g id="icon_comparador" transform="translate(213.000000, 208.000000)">
                <circle id="Oval" fill-opacity="0.1" fill="#30C7DB" cx="27" cy="27" r="27"></circle>
                <g id="file-(2)" transform="translate(9.000000, 9.000000)" fill-rule="nonzero">
                    <g id="Group" transform="translate(4.545090, 27.126253)" fill="#30C7DB">
                        <path d="M12.3008176,7.29313828 L4.40953106,7.29313828 C2.84248497,7.29313828 1.6111984,6.0618517 1.6111984,4.49480561 L1.6111984,0.857002004 C1.6111984,0.521170341 1.83506212,0.297306613 2.17089379,0.297306613 C2.50672545,0.297306613 2.73058918,0.521170341 2.73058918,0.857002004 L2.73058918,4.49480561 C2.73058918,5.44624449 3.45816433,6.17381964 4.40960321,6.17381964 L12.3008898,6.17381964 C12.6367214,6.17381964 12.8605852,6.39768337 12.8605852,6.73351503 C12.8605852,7.01329058 12.6366493,7.29313828 12.3008176,7.29313828 Z" id="Path"></path>
                        <path d="M3.34619639,2.98374349 L2.17089379,1.47268136 L0.995591182,2.98374349 C0.827711423,3.20760721 0.435895792,3.26359118 0.212032064,3.09571142 C-0.0118316633,2.92783166 -0.0678156313,2.53601603 0.100064128,2.3121523 L1.72309419,0.24139479 C1.94695792,-0.0384529058 2.39468537,-0.0384529058 2.6185491,0.24139479 L4.24157916,2.3121523 C4.40945892,2.53601603 4.40945892,2.92775952 4.12961122,3.09571142 C3.90581964,3.26351904 3.51407615,3.20760721 3.34619639,2.98374349 Z" id="Path"></path>
                    </g>
                    <path d="M17.6294669,0.559695391 L3.41393988,0.559695391 C1.84689379,0.559695391 0.615607214,1.79090982 0.615607214,3.35795591 L0.615607214,22.7223487 C0.615607214,24.2893948 1.84689379,25.5206814 3.41393988,25.5206814 L17.6293948,25.5206814 C19.1964409,25.5206814 20.4277275,24.2893948 20.4277275,22.7223487 L20.4277275,3.35795591 C20.4277275,1.79090982 19.196513,0.559695391 17.6294669,0.559695391 Z" id="Path" fill="#EFEFEF"></path>
                    <path d="M17.6294669,26.0803768 L3.41393988,26.0803768 C1.56704609,26.0803768 0.0559839679,24.5693146 0.0559839679,22.7224208 L0.0559839679,3.35795591 C0.0559839679,1.51106212 1.56704609,0 3.41393988,0 L17.6293948,0 C19.4762886,0 20.9873507,1.51106212 20.9873507,3.35795591 L20.9873507,22.7223487 C20.9873507,24.5693146 19.4763607,26.0803768 17.6294669,26.0803768 Z M3.41393988,1.11931864 C2.18265331,1.11931864 1.17530261,2.12674148 1.17530261,3.35795591 L1.17530261,22.7223487 C1.17530261,23.9536353 2.18272545,24.960986 3.41393988,24.960986 L17.6293948,24.960986 C18.8606814,24.960986 19.8680321,23.9535631 19.8680321,22.7223487 L19.8680321,3.35795591 C19.8680321,2.12666934 18.8606092,1.11931864 17.6293948,1.11931864 L3.41393988,1.11931864 Z" id="Shape" fill="#30C7DB"></path>
                    <path d="M3.41393988,23.2820441 C3.07810822,23.2820441 2.85424449,23.0581804 2.85424449,22.7223487 L2.85424449,3.35795591 C2.85424449,3.02212425 3.07810822,2.79826052 3.41393988,2.79826052 L17.6293948,2.79826052 C17.9652265,2.79826052 18.1890902,3.02212425 18.1890902,3.35795591 L18.1890902,22.7223487 C18.1890902,23.0581804 17.9652265,23.2820441 17.6293948,23.2820441 L3.41393988,23.2820441 Z" id="Path" fill="#FFFFFF"></path>
                    <g id="Group" transform="translate(4.833667, 5.699399)" fill="#30C7DB">
                        <rect id="Rectangle" x="0.0354228457" y="0.00916232465" width="11.3612104" height="1"></rect>
                        <rect id="Rectangle" x="0.0354228457" y="2.80749499" width="11.3612104" height="1"></rect>
                        <rect id="Rectangle" x="0.0354228457" y="5.54984369" width="11.3612104" height="1"></rect>
                        <rect id="Rectangle" x="0.0354228457" y="8.34817635" width="11.3612104" height="1"></rect>
                        <rect id="Rectangle" x="0.0354228457" y="11.146509" width="11.3612104" height="1"></rect>
                        <rect id="Rectangle" x="0.0354228457" y="13.8888577" width="11.3612104" height="1"></rect>
                    </g>
                    <path d="M28.8227255,12.0328016 L18.6928016,12.0328016 C17.6294669,12.0328016 16.7899238,12.8722725 16.7899238,13.9356794 L16.7899238,33.5239359 C16.7899238,34.5872705 17.6293948,35.4268136 18.6928016,35.4268136 L33.4119679,35.4268136 C34.4753026,35.4268136 35.3148457,34.5873427 35.3148457,33.5239359 L35.3148457,18.4689379 L28.8227255,12.0328016 Z" id="Path" fill="#FFFFFF"></path>
                    <path d="M33.4119679,35.9304529 L18.6928016,35.9304529 C17.3496192,35.9304529 16.2303006,34.8111343 16.2303006,33.4679519 L16.2303006,13.8796954 C16.2303006,12.536513 17.3496192,11.4171944 18.6928016,11.4171944 L28.8227255,11.4171944 C28.9906052,11.4171944 29.1025731,11.4731784 29.2144689,11.5850741 L35.7065892,18.0771944 C35.818485,18.1891623 35.8744689,18.3010581 35.8744689,18.4689379 L35.8744689,33.4679519 C35.8744689,34.8671182 34.7551503,35.9304529 33.4119679,35.9304529 Z M18.6928016,12.5924248 C17.9652265,12.5924248 17.3496192,13.2080321 17.3496192,13.9356072 L17.3496192,33.5238637 C17.3496192,34.2514389 17.9652265,34.8670461 18.6928016,34.8670461 L33.4119679,34.8670461 C34.1395431,34.8670461 34.7551503,34.2514389 34.7551503,33.5238637 L34.7551503,18.7487134 L28.5988617,12.5924248 L18.6928016,12.5924248 L18.6928016,12.5924248 Z" id="Shape" fill="#30C7DB"></path>
                    <path d="M28.7108297,12.6484088 L28.7108297,16.6780281 C28.7108297,17.7413627 29.6062846,18.6368898 30.6696914,18.6368898 L34.6993106,18.6368898 L28.7108297,12.6484088 Z" id="Path" fill="#EFEFEF"></path>
                    <g id="Group" transform="translate(18.829659, 15.511022)" fill="#30C7DB">
                        <rect id="Rectangle" x="0.702613226" y="0.0476873747" width="7.83530261" height="1"></rect>
                        <rect id="Rectangle" x="0.366853707" y="2.67806814" width="7.83530261" height="1"></rect>
                        <rect id="Rectangle" x="0.0310220441" y="5.81223246" width="14.1595431" height="1"></rect>
                        <rect id="Rectangle" x="0.0310220441" y="9.00230862" width="14.1595431" height="1"></rect>
                        <rect id="Rectangle" x="0.0310220441" y="12.1364008" width="14.1595431" height="1"></rect>
                        <rect id="Rectangle" x="0.0310220441" y="15.2705651" width="7.05174349" height="1"></rect>
                    </g>
                    <g id="Group" transform="translate(19.839679, 2.741483)" fill="#30C7DB">
                        <path d="M10.8859238,7.05268136 C10.5500922,7.05268136 10.3262285,6.82881764 10.3262285,6.49298597 L10.3262285,2.85518236 C10.3262285,1.90374349 9.59865331,1.17616834 8.64721443,1.17616834 L0.588048096,1.17616834 C0.252216433,1.17616834 0.0283527054,0.952304609 0.0283527054,0.616472946 C0.0283527054,0.280641283 0.252216433,0.0567775551 0.588048096,0.0567775551 L8.64721443,0.0567775551 C10.2142605,0.0567775551 11.4455471,1.28806413 11.4455471,2.85511022 L11.4455471,6.49298597 C11.4455471,6.82881764 11.1657715,7.05268136 10.8859238,7.05268136 Z" id="Path"></path>
                        <path d="M10.8859238,7.05268136 C10.7180441,7.05268136 10.5500922,6.99669739 10.4381964,6.82881764 L8.81516633,4.75806012 C8.64728657,4.53419639 8.64728657,4.14245291 8.92713427,3.974501 C9.150998,3.80662124 9.54274148,3.80662124 9.71069339,4.08646894 L10.885996,5.59753106 L12.0612986,4.08646894 C12.2291784,3.86260521 12.620994,3.80662124 12.8448577,3.974501 C13.0687214,4.14238076 13.1247054,4.53419639 12.9568257,4.75806012 L11.3337956,6.82881764 C11.2216834,6.99669739 11.0538036,7.05268136 10.8859238,7.05268136 Z" id="Path"></path>
                    </g>
                </g>
            </g>
        </g>
    </g>
</svg>