<?xml version="1.0" encoding="UTF-8"?>
<svg width="64px" height="64px" viewBox="0 0 64 64" version="1.1" xmlns="http://www.w3.org/2000/svg" xmlns:xlink="http://www.w3.org/1999/xlink">
    <!-- Generator: sketchtool 61.2 (101010) - https://sketch.com -->
    <title>BE584AE2-B60A-495D-9205-25E9413A98CF</title>
    <desc>Created with sketchtool.</desc>
    <g id="Proceso-E-Commerce-Propuesta" stroke="none" stroke-width="1" fill="none" fill-rule="evenodd">
        <g id="Oncosalud_Wireframes_Desktop_Correo" transform="translate(-768.000000, -424.000000)">
            <g id="Afiliar-a-sere-queridos-Copy" transform="translate(744.000000, 416.000000)">
                <g id="icon_sms" transform="translate(24.000000, 8.000000)">
                    <circle id="Oval-Copy" fill-opacity="0.1" fill="#30C7DB" cx="32" cy="32" r="32"></circle>
                    <g id="text" transform="translate(16.000000, 11.789474)" fill-rule="nonzero">
                        <g id="Group" transform="translate(0.631579, 0.631579)">
                            <rect id="Rectangle" fill="#FFFFFF" x="0.0578684211" y="3.41052632" width="22.9052368" height="31.6631842"></rect>
                            <g fill="#F4FDFD" id="Path">
                                <path d="M22.9631842,1.38947368 L22.9631842,5.43157895 L0.0578684211,5.43157895 L0.0578684211,1.38947368 C0.0600789474,0.646263158 0.662052632,0.0442894737 1.40526316,0.0420789474 L21.6157895,0.0420789474 C22.359,0.0442894737 22.9609737,0.646263158 22.9631842,1.38947368 Z"></path>
                                <path d="M22.9631842,33.0526579 L22.9631842,37.7684211 C22.9609737,38.5116316 22.359,39.1136053 21.6157895,39.1158158 L1.40526316,39.1158158 C0.662052632,39.1136053 0.0600789474,38.5116316 0.0578684211,37.7684211 L0.0578684211,33.0526579 L22.9631842,33.0526579 Z"></path>
                            </g>
                            <g fill="#FFFFFF" id="Path">
                                <path d="M20.9421316,1.38947368 L20.9421316,5.43157895 L0.0578684211,5.43157895 L0.0578684211,1.38947368 C0.0600789474,0.646263158 0.662052632,0.0442894737 1.40526316,0.0420789474 L19.5947368,0.0420789474 C20.3379474,0.0442894737 20.9399211,0.646263158 20.9421316,1.38947368 Z"></path>
                                <path d="M20.9421316,33.0526579 L20.9421316,37.7684211 C20.9399211,38.5116316 20.3379474,39.1136053 19.5947368,39.1158158 L1.40526316,39.1158158 C0.662052632,39.1136053 0.0600789474,38.5116316 0.0578684211,37.7684211 L0.0578684211,33.0526579 L20.9421316,33.0526579 Z"></path>
                            </g>
                            <path d="M12.1841842,12.1683947 L29.7,12.1683947 C30.4441579,12.1683947 31.0473947,12.7716316 31.0473947,13.5157895 L31.0473947,25.6421053 C31.0473947,26.3862632 30.4441579,26.9895 29.7,26.9895 L12.1841842,26.9895 C11.4400263,26.9895 10.8367895,26.3862632 10.8367895,25.6421053 L10.8367895,13.5157895 C10.8367895,12.7716316 11.4401053,12.1683947 12.1841842,12.1683947 Z" id="Path" fill="#F4FDFD"></path>
                            <path d="M29.0263421,13.5157895 L29.0263421,25.6421053 C29.0241316,26.3853158 28.4221579,26.9872895 27.6789474,26.9895 L12.1841842,26.9895 C11.4423158,26.9839737 10.8423158,26.3839737 10.8367895,25.6421053 L10.8367895,13.4820789 C10.851,12.9386053 11.1914211,12.4571842 11.6991316,12.2627368 C11.7289737,12.2475 11.7607105,12.2362105 11.7934737,12.2290263 C11.9196316,12.1882105 12.0515526,12.1676842 12.1841842,12.1683769 L27.6789474,12.1683769 C28.4221579,12.1706053 29.0241316,12.7725789 29.0263421,13.5157895 Z" id="Path" fill="#FFFFFF"></path>
                            <path d="M29.0263421,24.9684474 L29.0263421,25.6421053 C29.0241316,26.3853158 28.4221579,26.9872895 27.6789474,26.9895185 L12.1841842,26.9895185 C11.8267105,26.9913947 11.4838421,26.8479474 11.2342895,26.592 L20.6052632,17.2210263 L21.6157895,17.5578947 L29.0263421,24.9684474 Z" id="Path" fill="#FFFFFF"></path>
                            <path d="M29.0263421,13.5157895 L29.0263421,14.9709474 L23.2663421,19.2084474 L20.9421316,20.9263421 L18.6179211,19.2084474 L10.8368684,13.4821579 C10.8510789,12.9386842 11.1915,12.4572632 11.6992105,12.2628158 C11.7290526,12.2475789 11.7607895,12.2362895 11.7935526,12.2291053 C11.9197105,12.1882895 12.0516316,12.1677632 12.1842632,12.1684559 L27.6789474,12.1684559 C28.4221579,12.1706053 29.0241316,12.7725789 29.0263421,13.5157895 Z" id="Path" fill="#FFFFFF"></path>
                            <path d="M1.40526316,39.1158158 L3.42631579,39.1158158 C2.68310526,39.1136053 2.08113158,38.5116316 2.07892105,37.7684211 L2.07892105,1.38947368 C2.08113158,0.646263158 2.68310526,0.0442894737 3.42631579,0.0420789474 L1.40526316,0.0420789474 C0.662052632,0.0442894737 0.0600789474,0.646263158 0.0578684211,1.38947368 L0.0578684211,37.7684211 C0.0600789474,38.5116316 0.662052632,39.1136053 1.40526316,39.1158158 Z" id="Path" fill="#F4FDFD"></path>
                        </g>
                        <g id="Group">
                            <polygon id="Path" fill="#FFFFFF" points="1.36318421 6.06315789 1.36318421 14.8210263 1.36318421 33.6842368 0.0157894737 33.6842368 0.0157894737 14.8210263 0.0157894737 6.06315789"></polygon>
                            <g fill="#30C7DB">
                                <path d="M0.689447368,9.43160526 C1.06152632,9.43160526 1.36310526,9.12994737 1.36310526,8.75794737 L1.36310526,6.73689474 L3.38415789,6.73689474 C3.75623684,6.73689474 4.05781579,6.43531579 4.05781579,6.06323684 C4.05781579,5.69115789 3.75615789,5.38957895 3.38415789,5.38957895 L1.36310526,5.38957895 L1.36310526,2.02105263 C1.36310526,1.64897368 1.66476316,1.34739474 2.03676316,1.34739474 L22.2472895,1.34739474 C22.6193684,1.34739474 22.9209474,1.64905263 22.9209474,2.02105263 L22.9209474,5.3895 L7.42634211,5.3895 C7.05426316,5.3895 6.75268421,5.69115789 6.75268421,6.06315789 C6.75268421,6.43523684 7.05434211,6.73681579 7.42634211,6.73681579 L23.5947632,6.73681579 C23.9668421,6.73681579 24.2684211,6.43523684 24.2684211,6.06315789 L24.2684211,2.02105263 C24.2684211,0.904894737 23.3635263,0 22.2473684,0 L2.03684211,0 C0.920684211,0 0.0157894737,0.904894737 0.0157894737,2.02105263 L0.0157894737,8.75786842 C0.0157894737,9.12994737 0.317447368,9.43160526 0.689447368,9.43160526 Z" id="Path"></path>
                                <path d="M0.945473684,10.8328421 C0.907263158,10.8134211 0.866447368,10.7997632 0.824210526,10.7924211 C0.779684211,10.7849211 0.734605263,10.7804211 0.689447368,10.7789211 C0.511105263,10.7815263 0.340342105,10.8513158 0.211105263,10.9743158 C0.150236842,11.0387368 0.102157895,11.1142105 0.0696315789,11.1966316 C-0.0319736842,11.4479211 0.0233684211,11.7354474 0.211105263,11.9309211 C0.275526316,11.9917895 0.351,12.0398684 0.433421053,12.0723947 C0.514421053,12.1068947 0.601421053,12.1252105 0.689447368,12.1263271 C0.963157895,12.1278947 1.21057895,11.9637632 1.31557895,11.7109737 C1.4205,11.4581842 1.36215789,11.1670263 1.16778947,10.9743158 L1.06673684,10.8934737 C1.02915789,10.8679737 0.988421053,10.8476053 0.945473684,10.8328421 Z" id="Path"></path>
                                <path d="M11.4684474,36.3789474 C11.0963684,36.3789474 10.7947895,36.6806053 10.7947895,37.0526053 C10.7947895,37.4246842 11.0964474,37.7262632 11.4684474,37.7262632 L12.8158421,37.7262632 C13.1879211,37.7262632 13.4895,37.4246053 13.4895,37.0526053 C13.4895,36.6805263 13.1878421,36.3789474 12.8158421,36.3789474 L11.4684474,36.3789474 Z" id="Path"></path>
                                <path d="M30.3315789,12.1263158 L24.2684211,12.1263158 L24.2684211,10.1052632 C24.2684211,9.73318421 23.9667632,9.43160526 23.5947632,9.43160526 C23.2226842,9.43160526 22.9211053,9.73326316 22.9211053,10.1052632 L22.9211053,12.1263158 L12.8158421,12.1263158 C11.6996842,12.1263158 10.7947895,13.0312105 10.7947895,14.1473684 L10.7947895,26.2736842 C10.7947895,27.3898421 11.6996842,28.2947368 12.8158421,28.2947368 L22.9211053,28.2947368 L22.9211053,33.0105 L20.9000526,33.0105 C20.5279737,33.0105 20.2263947,33.3120789 20.2263947,33.6841579 C20.2263947,34.0562368 20.5280526,34.3578158 20.9000526,34.3578158 L22.9211053,34.3578158 L22.9211053,38.3999211 C22.9211053,38.772 22.6195263,39.0735789 22.2474474,39.0735789 L2.03692105,39.0735789 C1.66484211,39.0735789 1.36326316,38.772 1.36326316,38.3999211 L1.36326316,34.3578158 L16.8580263,34.3578158 C17.2301053,34.3578158 17.5316842,34.0562368 17.5316842,33.6841579 C17.5316842,33.3120789 17.2301053,33.0105 16.8580263,33.0105 L1.36318421,33.0105 L1.36318421,14.1473684 C1.36318421,13.7752895 1.06152632,13.4737105 0.689526316,13.4737105 C0.317526316,13.4737105 0.0157894737,13.7752895 0.0157894737,14.1473684 L0.0157894737,38.4 C0.0157894737,39.5161579 0.920684211,40.4210526 2.03684211,40.4210526 L22.2473684,40.4210526 C23.3635263,40.4210526 24.2684211,39.5162368 24.2684211,38.4 L24.2684211,28.2947368 L30.3315789,28.2947368 C31.4477368,28.2947368 32.3526316,27.3898421 32.3526316,26.2736842 L32.3526316,14.1473684 C32.3526316,13.0312105 31.4478158,12.1263158 30.3315789,12.1263158 Z M31.0052368,26.2736842 C31.0052368,26.6457632 30.7035789,26.9473421 30.3315789,26.9473421 L12.8157632,26.9473421 C12.4436842,26.9473421 12.1421053,26.6457632 12.1421053,26.2736842 L12.1421053,14.1473684 C12.1421053,13.7752895 12.4436842,13.4737105 12.8157632,13.4737105 L30.3315789,13.4737105 C30.7036579,13.4737105 31.0052368,13.7753684 31.0052368,14.1473684 L31.0052368,26.2736842 Z" id="Shape"></path>
                                <path d="M29.5292368,15.7722632 C29.4241579,15.6270789 29.2655526,15.5298158 29.0885526,15.5018684 C28.9115526,15.4739211 28.7306842,15.5176579 28.5860526,15.6233684 L21.5737105,20.7251842 L14.5593158,15.6233684 C14.3646316,15.4818158 14.1091579,15.4549737 13.8892895,15.5527895 C13.6693421,15.6506842 13.5183947,15.8583947 13.4931316,16.0977632 C13.4679474,16.3371316 13.5723158,16.5718421 13.7670789,16.7133158 L21.1776316,22.1028158 C21.1994211,22.1150526 21.2219211,22.1261053 21.2449737,22.1358158 C21.2666842,22.1484474 21.2891842,22.1596579 21.3123158,22.1695263 C21.3943421,22.2077368 21.4832368,22.2288158 21.5737105,22.2315 C21.6650526,22.2291316 21.7549737,22.2080526 21.8377895,22.1695263 C21.8609211,22.1597368 21.8834211,22.1484474 21.9051316,22.1358158 C21.9281842,22.1261053 21.9506842,22.1150526 21.9724737,22.1028158 L29.3830263,16.7133158 C29.6831842,16.4938421 29.7486316,16.0725789 29.5292368,15.7722632 Z" id="Path"></path>
                                <path d="M16.7184474,21.4184211 L13.6868684,24.45 C13.5117632,24.6191842 13.4415,24.8696053 13.5031579,25.1051842 C13.5648158,25.3407632 13.7487632,25.5247105 13.9842632,25.5862895 C14.2197632,25.6479474 14.4702632,25.5776842 14.6394474,25.4025789 L17.6710263,22.371 C17.9263421,22.1066842 17.9227105,21.6864474 17.6628158,21.4266316 C17.403,21.1668158 16.9827632,21.1631053 16.7184474,21.4184211 Z" id="Path"></path>
                                <path d="M26.4288947,21.4184211 C26.1645789,21.1631053 25.7443421,21.1667368 25.4845263,21.4266316 C25.2246316,21.6865263 25.221,22.1066842 25.4763158,22.371 L28.5078947,25.4025789 C28.7722105,25.6578947 29.1924474,25.6542632 29.4522632,25.3943684 C29.7121579,25.1344737 29.7157895,24.7143158 29.4604737,24.45 L26.4288947,21.4184211 Z" id="Path"></path>
                            </g>
                        </g>
                    </g>
                </g>
            </g>
        </g>
    </g>
</svg>