<?xml version="1.0" encoding="UTF-8"?>
<svg width="8px" height="8px" viewBox="0 0 8 8" version="1.1" xmlns="http://www.w3.org/2000/svg" xmlns:xlink="http://www.w3.org/1999/xlink">
    <!-- Generator: sketchtool 61.2 (101010) - https://sketch.com -->
    <title>31191695-D2BC-4748-9894-96E63054F723</title>
    <desc>Created with sketchtool.</desc>
    <g id="Proceso-E-Commerce-Propuesta" stroke="none" stroke-width="1" fill="none" fill-rule="evenodd" opacity="0.503164">
        <g id="Oncosalud_Wireframes_Desktop_Cotización" transform="translate(-285.000000, -405.000000)" fill="#1F6786" fill-rule="nonzero">
            <g id="Group-26" transform="translate(213.000000, 388.000000)">
                <g id="icon_remove" transform="translate(72.000000, 17.000000)">
                    <path d="M7.36396103,0.292893219 C7.75448532,0.683417511 7.75448532,1.31658249 7.36396103,1.70710678 L5.24264069,3.82842712 L7.36396103,5.94974747 C7.75448532,6.34027176 7.75448532,6.97343674 7.36396103,7.36396103 C6.97343674,7.75448532 6.34027176,7.75448532 5.94974747,7.36396103 L3.82842712,5.24264069 L1.70710678,7.36396103 C1.31658249,7.75448532 0.683417511,7.75448532 0.292893219,7.36396103 C-0.0976310729,6.97343674 -0.0976310729,6.34027176 0.292893219,5.94974747 L2.41421356,3.82842712 L0.292893219,1.70710678 C-0.0976310729,1.31658249 -0.0976310729,0.683417511 0.292893219,0.292893219 C0.683417511,-0.0976310729 1.31658249,-0.0976310729 1.70710678,0.292893219 L3.82842712,2.41421356 L5.94974747,0.292893219 C6.34027176,-0.0976310729 6.97343674,-0.0976310729 7.36396103,0.292893219 Z" id="Path"></path>
                </g>
            </g>
        </g>
    </g>
</svg>