<?xml version="1.0" encoding="UTF-8"?>
<svg width="64px" height="64px" viewBox="0 0 64 64" version="1.1" xmlns="http://www.w3.org/2000/svg" xmlns:xlink="http://www.w3.org/1999/xlink">
    <!-- Generator: sketchtool 61.2 (101010) - https://sketch.com -->
    <title>D62212D3-FA73-41AC-993B-B59F2B8FDB26</title>
    <desc>Created with sketchtool.</desc>
    <g id="Proceso-E-Commerce-Propuesta" stroke="none" stroke-width="1" fill="none" fill-rule="evenodd">
        <g id="Oncosalud_Wireframes_Desktop_Correo" transform="translate(-768.000000, -216.000000)">
            <g id="Afiliarme-con-seres-queridos" transform="translate(744.000000, 208.000000)">
                <g id="icon_correo" transform="translate(24.000000, 8.000000)">
                    <circle id="Oval" fill-opacity="0.1" fill="#30C7DB" cx="32" cy="32" r="32"></circle>
                    <g id="email-(1)" transform="translate(11.789474, 16.842105)" fill-rule="nonzero">
                        <g id="Group" transform="translate(0.631579, 0.710526)">
                            <path d="M1.38947368,0.0230526316 L37.7684211,0.0230526316 C38.5125789,0.0230526316 39.1158158,0.626289474 39.1158158,1.37044737 L39.1158158,28.3177895 C39.1158158,29.0619474 38.5125789,29.6651842 37.7684211,29.6651842 L1.38947368,29.6651842 C0.645315789,29.6651842 0.0420789474,29.0619474 0.0420789474,28.3177895 L0.0420789474,1.37036842 C0.0420789474,0.626289474 0.645315789,0.0230526316 1.38947368,0.0230526316 Z" id="Path" fill="#F4FDFD"></path>
                            <path d="M37.0947632,1.37036842 L37.0947632,28.3177105 C37.0925526,29.0609211 36.4905789,29.6628947 35.7473684,29.6651053 L1.38947368,29.6651053 C1.32213158,29.6651053 1.25471053,29.6583947 1.18736842,29.6516053 C1.16715789,29.6448947 1.14023684,29.6448947 1.12002632,29.6381053 C1.05315789,29.6240526 0.987710526,29.6037632 0.924631579,29.5774737 L0.917921053,29.5774737 C0.845210526,29.5506316 0.775263158,29.5168421 0.709105263,29.4764211 C0.648078947,29.4398684 0.589578947,29.3993684 0.533921053,29.3551579 L0.520421053,29.3416579 C0.217578947,29.0877632 0.0424736842,28.7129211 0.0420374791,28.3176316 L0.0420374791,1.37036842 C0.0394736842,1.04431579 0.159710526,0.729236842 0.378947368,0.487894737 C0.412657895,0.454184211 0.446289474,0.413763158 0.486710526,0.380131579 C0.730657895,0.149763158 1.05386842,0.0219473684 1.38947368,0.0230455228 L35.7473684,0.0230455228 C36.4905789,0.0252631579 37.0925526,0.627157895 37.0947632,1.37036842 Z" id="Path" fill="#FFFFFF"></path>
                            <path d="M37.0947632,1.37036842 L37.0947632,1.92276316 L23.7086053,13.3552105 L20.8791316,15.7737632 C20.1280263,16.4070789 19.0298684,16.4070789 18.2786842,15.7737632 L15.4425,13.3552105 L0.378947368,0.487894737 C0.412657895,0.454184211 0.446289474,0.413763158 0.486710526,0.380131579 C0.730657895,0.149763158 1.05386842,0.0219473684 1.38947368,0.0230455228 L35.7473684,0.0230455228 C36.4905789,0.0252631579 37.0925526,0.627157895 37.0947632,1.37036842 Z" id="Path" fill="#FFFFFF"></path>
                            <path d="M37.0947632,27.6912632 L37.0947632,28.3177895 C37.0925526,29.061 36.4905789,29.6629737 35.7473684,29.6651842 L1.38947368,29.6651842 C1.32213158,29.6651842 1.25471053,29.6584737 1.18736842,29.6516842 C1.16715789,29.6449737 1.14023684,29.6449737 1.12002632,29.6381842 C1.05315789,29.6241316 0.987710526,29.6038421 0.924631579,29.5775526 L0.917921053,29.5775526 C0.845210526,29.5507105 0.775263158,29.5169211 0.709105263,29.4765 C0.648078947,29.4399474 0.589578947,29.3994474 0.533921053,29.3552368 L0.520421053,29.3417368 L15.4425,13.3552105 L18.2786842,15.7737632 C19.0297895,16.4070789 20.1279474,16.4070789 20.8791316,15.7737632 L23.7086053,13.3552105 L37.0947632,27.6912632 Z" id="Path" fill="#FFFFFF"></path>
                            <path d="M0.0986842105,28.6815789 C0.116605263,28.7466316 0.139105263,28.8103421 0.166026316,28.8722368 C0.178184211,28.8985263 0.193657895,28.9227632 0.207789474,28.9490526 C0.237473684,29.0056579 0.271026316,29.0601316 0.308131579,29.1120789 C0.324947368,29.1343421 0.343184211,29.1545526 0.361342105,29.1761053 C0.403973684,29.2279737 0.450631579,29.2763684 0.500763158,29.3209737 C0.508184211,29.3276842 0.513552632,29.3358158 0.520973684,29.3418947 L0.534473684,29.3553947 C0.549947368,29.3668421 0.567473684,29.3776579 0.583657895,29.3897368 C0.617368421,29.4146842 0.651,29.4389211 0.687394737,29.4611842 C0.6945,29.4667105 0.701921053,29.4719211 0.709657895,29.4766579 C0.727184211,29.4874737 0.746684211,29.4934737 0.764210526,29.5029474 C0.809131579,29.5281316 0.855473684,29.5505526 0.903,29.5702895 L0.918473684,29.5777105 L0.925184211,29.5777105 C0.988263158,29.604 1.05363158,29.6242895 1.12057895,29.6383421 C1.14078947,29.6450526 1.16771053,29.6450526 1.18792105,29.6518421 C1.25526316,29.6585526 1.32268421,29.6653421 1.39002632,29.6653421 L3.41052632,29.6653421 C3.34318421,29.6653421 3.27576316,29.6586316 3.20842105,29.6518421 C3.18821053,29.6451316 3.16128947,29.6451316 3.14107895,29.6383421 C3.07421053,29.6242895 3.00876316,29.604 2.94568421,29.5777105 L2.93897368,29.5777105 L2.9235,29.5702895 C2.87597368,29.5505526 2.82963158,29.5280526 2.78471053,29.5029474 C2.76718421,29.4935526 2.74768421,29.4874737 2.73015789,29.4766579 C2.7225,29.4718421 2.71507895,29.4667105 2.70789474,29.4611842 C2.6715,29.4389211 2.64055263,29.4146842 2.60415789,29.3897368 C2.58797368,29.3775789 2.57044737,29.3668421 2.55497368,29.3553947 L2.54147368,29.3418947 C2.53405263,29.3358158 2.52868421,29.3277632 2.52126316,29.3209737 C2.47105263,29.2763684 2.42447368,29.2279737 2.38184211,29.1761053 C2.36368421,29.1545526 2.34544737,29.1343421 2.32863158,29.1120789 C2.29144737,29.0601316 2.25789474,29.0056579 2.22828947,28.9490526 C2.21415789,28.9227632 2.19868421,28.8985263 2.18652632,28.8722368 C2.15952632,28.8103421 2.13702632,28.7466316 2.11918421,28.6815789 C2.11176316,28.6552895 2.10102632,28.6310526 2.09494737,28.6047632 C2.07410526,28.5105 2.06352632,28.4142632 2.06328947,28.3177895 L2.06328947,1.37036842 C2.06368421,1.28234211 2.07268421,1.19455263 2.09021053,1.10834211 C2.09021053,1.08884211 2.10102632,1.07060526 2.10568421,1.05110526 C2.12044737,0.987236842 2.14002632,0.924631579 2.16426316,0.863842105 C2.17571053,0.836921053 2.19055263,0.811973684 2.20334211,0.785684211 C2.22465789,0.739342105 2.24873684,0.694342105 2.27542105,0.650921053 C2.30723684,0.603315789 2.34205263,0.557842105 2.37986842,0.514815789 C2.38728947,0.506763158 2.39265789,0.496657895 2.40007895,0.487894737 L2.41089474,0.477078947 C2.49347368,0.383921053 2.58844737,0.302526316 2.69313158,0.235263158 C2.71128947,0.223105263 2.7315,0.215052632 2.75036842,0.204236842 C2.80018421,0.173842105 2.85189474,0.146842105 2.90534211,0.123394737 C2.95318421,0.105631579 3.00197368,0.0905526316 3.05155263,0.0782368421 C3.08392105,0.0688421053 3.11423684,0.0566842105 3.14723684,0.0499736842 C3.23392105,0.0320526316 3.32218421,0.0230526316 3.41068421,0.0230526316 L1.38947368,0.0230526316 C1.30097368,0.0230526316 1.21271053,0.0321315789 1.12602632,0.0499736842 C1.09302632,0.0566842105 1.06271053,0.0688421053 1.03034211,0.0782368421 C0.980842105,0.0905526316 0.931973684,0.105631579 0.884131579,0.123394737 C0.830763158,0.146842105 0.778973684,0.173842105 0.729157895,0.204236842 C0.710289474,0.215052632 0.690078947,0.223105263 0.671921053,0.235263158 C0.567236842,0.302605263 0.472263158,0.384 0.389684211,0.477078947 L0.378947368,0.487894737 C0.371526316,0.496657895 0.366157895,0.506763158 0.358736842,0.514815789 C0.320921053,0.558473684 0.286026316,0.604657895 0.254289474,0.652894737 C0.227526316,0.696315789 0.203526316,0.741315789 0.182210526,0.787657895 C0.169421053,0.813947368 0.154578947,0.838894737 0.143131579,0.865815789 C0.118815789,0.926684211 0.0992368421,0.989289474 0.0845526316,1.05307895 C0.0798157895,1.07257895 0.0723947368,1.09081579 0.0690789474,1.11031579 C0.0517105263,1.19589474 0.0426315789,1.28297368 0.0421578947,1.37036842 L0.0421578947,28.3177105 C0.0426315789,28.4142632 0.0534473684,28.5105 0.0745263158,28.6046842 C0.0805263158,28.6310526 0.0912631579,28.6545789 0.0986842105,28.6815789 Z" id="Path" fill="#FFFFFF"></path>
                        </g>
                        <g id="Group">
                            <polygon id="Path" fill="#FFFFFF" points="2.02105263 0.0598421053 10.7789211 0.0598421053 38.4 0.0598421053 38.4 1.40723684 10.7789211 1.40723684 2.02105263 1.40723684"></polygon>
                            <g fill="#30C7DB" id="Path">
                                <path d="M7.88881579,1.21184211 C7.94968421,1.14742105 7.99776316,1.07194737 8.03028947,0.989526316 C8.06478947,0.908526316 8.08310526,0.821526316 8.08422182,0.7335 C8.08578947,0.459789474 7.92165789,0.212368421 7.66886842,0.107368421 C7.41607895,0.00244736842 7.12492105,0.0607894737 6.93221053,0.255157895 L6.85136842,0.356210526 C6.82586842,0.393789474 6.80542105,0.434526316 6.79073684,0.477473684 C6.77123684,0.515684211 6.75765789,0.5565 6.75031579,0.598736842 C6.74281579,0.643263158 6.73831579,0.688342105 6.73681579,0.7335 C6.73942105,0.911842105 6.80921053,1.08260526 6.93221053,1.21184211 C6.99663158,1.27271053 7.07210526,1.32078947 7.15452632,1.35331579 C7.40581579,1.455 7.69334211,1.39957895 7.88881579,1.21184211 Z"></path>
                                <path d="M38.4,0.0598421053 L10.1052632,0.0598421053 C9.73318421,0.0598421053 9.43160526,0.3615 9.43160526,0.7335 C9.43160526,1.1055 9.73326316,1.40715789 10.1052632,1.40715789 L38.4,1.40715789 C38.7720789,1.40715789 39.0736579,1.70881579 39.0736579,2.08081579 L39.0736579,29.0281579 C39.0736579,29.4002368 38.7720789,29.7018158 38.4,29.7018158 L2.02105263,29.7018158 C1.64897368,29.7018158 1.34739474,29.4001579 1.34739474,29.0281579 L1.34739474,2.08089474 C1.34739474,1.70881579 1.64905263,1.40723684 2.02105263,1.40723684 L4.71576316,1.40723684 C5.08784211,1.40723684 5.38942105,1.10557895 5.38942105,0.733578947 C5.38942105,0.361578947 5.08776316,0.0598421053 4.71576316,0.0598421053 L2.02105263,0.0598421053 C0.904894737,0.0598421053 0,0.964736842 0,2.08089474 L0,29.0282368 C0,30.1443947 0.904894737,31.0492895 2.02105263,31.0492895 L38.4,31.0492895 C39.5161579,31.0492895 40.4210526,30.1443947 40.4210526,29.0282368 L40.4210526,2.08089474 C40.4210526,0.964736842 39.5162368,0.0598421053 38.4,0.0598421053 Z"></path>
                                <path d="M2.85236842,2.99510526 C2.7375,3.132 2.68160526,3.30884211 2.69715789,3.48686842 C2.71271053,3.66489474 2.79836842,3.82942105 2.93518421,3.94428947 L18.4770789,16.9995789 C19.4787632,17.8429737 20.9421316,17.8429737 21.9438947,16.9995789 L37.4857895,3.94428947 C37.7707895,3.70507895 37.8078947,3.28010526 37.5686842,2.99510526 C37.3294737,2.71010526 36.9045,2.673 36.6195,2.91221053 L21.0775263,15.9682105 C20.5762895,16.3895526 19.8446842,16.3895526 19.3434474,15.9682105 L3.80163158,2.91221053 C3.66473684,2.79734211 3.48789474,2.74144737 3.30986842,2.757 C3.13184211,2.77263158 2.96723684,2.85821053 2.85236842,2.99510526 Z"></path>
                                <path d="M12.3075,17.1161842 L2.87589474,27.2214474 C2.70521053,27.3962368 2.64252632,27.6498158 2.71215789,27.8839737 C2.78178947,28.1182105 2.97276316,28.2963158 3.21118421,28.3495263 C3.44968421,28.4027368 3.69821053,28.3226842 3.86084211,28.1403158 L13.2924474,18.0350526 C13.4631316,17.8602632 13.5258158,17.6066842 13.4561842,17.3725263 C13.3865526,17.1382895 13.1955789,16.9601842 12.9571579,16.9069737 C12.7187368,16.8537632 12.4701316,16.9338158 12.3075,17.1161842 Z"></path>
                                <path d="M27.1616053,17.0831842 C26.8897105,17.337 26.8749474,17.7630789 27.1286053,18.0351316 L36.5602105,28.1403947 C36.816,28.4023421 37.2341053,28.4121316 37.5018158,28.1623421 C37.7695263,27.9125526 37.7887105,27.4947632 37.5451579,27.2214474 L28.1135526,17.1161842 C27.8597368,16.8442895 27.4335789,16.8295263 27.1616053,17.0831842 Z"></path>
                            </g>
                        </g>
                    </g>
                </g>
            </g>
        </g>
    </g>
</svg>