<?xml version="1.0" encoding="UTF-8"?>
<svg width="64px" height="64px" viewBox="0 0 64 64" version="1.1" xmlns="http://www.w3.org/2000/svg" xmlns:xlink="http://www.w3.org/1999/xlink">
    <!-- Generator: sketchtool 61.2 (101010) - https://sketch.com -->
    <title>5C1FFE9D-6BF5-484E-9B79-E11780941E6C</title>
    <desc>Created with sketchtool.</desc>
    <g id="Proceso-E-Commerce-Propuesta" stroke="none" stroke-width="1" fill="none" fill-rule="evenodd">
        <g id="Oncosalud_Wireframes_Desktop_FiltroSelectedPreguntas3update" transform="translate(-768.000000, -352.000000)" fill="#30C7DB">
            <g id="Afiliar-a-sere-queridos" transform="translate(744.000000, 344.000000)">
                <g id="icon_sisoyfumador" transform="translate(24.000000, 8.000000)">
                    <circle id="Oval-Copy" fill-opacity="0.1" cx="32" cy="32" r="32"></circle>
                    <g id="smoking" transform="translate(9.263158, 15.157895)" fill-rule="nonzero">
                        <path d="M16.1147064,17.6841123 C16.5751468,17.6841123 16.8820776,17.3771815 16.8820776,16.9167411 C16.8820776,13.386816 18.4935748,10.7777716 20.7189336,10.7777716 L24.5557895,10.7777716 C24.8627203,10.7777716 25.1696511,10.5475956 25.2464059,10.2405764 C25.3999155,9.93364563 25.2464059,9.62671484 25.0162299,9.39645043 C24.4023683,8.93601003 23.7884183,7.32451286 23.7884183,6.17354451 C23.7884183,4.10160694 25.9370222,3.87143095 26.857903,3.87143095 C27.3183434,3.87143095 27.6252742,3.56450017 27.6252742,3.10405977 C27.6252742,2.64361937 27.3183434,2.33668859 26.857903,2.33668859 C24.0953491,2.33668859 22.2536759,3.79467615 22.2536759,6.17354451 C22.2536759,7.17109168 22.5606067,8.32214845 23.0210471,9.24302925 L20.7189336,9.24302925 C17.572694,9.24302925 15.3473353,12.4659352 15.3473353,16.9167411 C15.3473353,17.3771815 15.6543545,17.6841123 16.1147064,17.6841123 Z" id="Path"></path>
                        <path d="M28.8530858,1.49265102 C29.850633,1.95309142 30.6947589,3.33432418 30.6947589,4.63889057 C30.6947589,6.32714254 29.3135262,7.7083753 27.6252742,7.7083753 C27.2415886,7.7083753 26.857903,7.93855129 26.857903,8.32223688 C26.857903,8.70592247 27.0114126,9.01285326 27.3950982,9.16636287 C27.9322934,9.39653885 28.3926454,10.0872437 28.3926454,10.77786 C28.3926454,11.621986 27.702029,12.3126024 26.857903,12.3126024 L22.2536759,12.3126024 C20.335248,12.3126024 18.41682,13.77059 18.41682,16.9168295 C18.41682,17.3772699 18.7237508,17.6842007 19.1841912,17.6842007 C19.6446316,17.6842007 19.9515624,17.3772699 19.9515624,16.9168295 C19.9515624,14.9984016 20.7956884,13.8473448 22.2536759,13.8473448 L26.857903,13.8473448 C28.546155,13.8473448 29.9273878,12.466112 29.9273878,10.77786 C29.9273878,10.1639985 29.6972118,9.47329366 29.3135262,8.93618688 C31.0017782,8.2455705 32.2295013,6.55731853 32.2295013,4.63889057 C32.2295013,2.72046261 31.0784445,0.802034644 29.4669474,0.111418264 C29.0832618,-0.0420913441 28.6228214,0.111418264 28.4694002,0.495103856 C28.315979,0.878789448 28.4694002,1.33914142 28.8530858,1.49265102 Z" id="Path"></path>
                        <path d="M45.2546501,14.4248628 C45.2433314,14.3526178 45.2258228,14.2866511 45.1979682,14.2309419 L44.1034164,12.1590928 L43.1261191,10.2406648 C43.0955233,10.1794732 43.0521939,10.1185469 42.9971922,10.0622188 C42.8088423,9.7553764 42.3992476,9.64855635 42.0518171,9.85697925 L20.8681987,20.753597 L14.5800525,20.753597 C14.1196121,20.753597 13.8126813,21.0605278 13.8126813,21.5209682 L13.8126813,23.8998366 C13.8126813,24.8207173 12.277939,24.8207173 12.277939,23.8998366 L12.277939,21.4442134 C12.277939,20.983773 11.9710082,20.6768422 11.5105678,20.6768422 L8.44108303,20.6768422 L8.44108303,18.4514835 C8.44108303,17.2236719 7.44353586,16.1493699 6.13896948,16.1493699 L3.06948474,16.1493699 C2.60904434,16.1493699 2.30211355,16.4563007 2.30211355,16.9167411 L2.30211355,20.6768422 L2.22535875,20.6768422 C0.920880792,20.9070182 0,21.9046538 0,23.1323769 L0,30.8060888 C0,31.4967052 0.306930788,32.1106552 0.767371184,32.4943408 C1.15105678,32.8780264 1.61149717,33.031536 2.07193757,33.031536 C2.22544718,33.031536 2.30211355,33.031536 2.37886836,33.031536 L32.9201177,33.031536 C33.5339793,33.1082908 34.0711745,32.9547812 34.5316149,32.5710956 C34.9920553,32.18741 35.2989861,31.5735484 35.2989861,30.8828436 L35.2989861,23.2091317 C35.2989861,22.2298006 34.6639904,21.3486236 33.783963,20.953973 L44.8911259,15.3052439 C45.2363456,15.1671206 45.3941882,14.780517 45.2546501,14.4248628 Z M42.0518171,11.5451428 L43.4330499,14.3076967 L36.603464,17.8376219 L35.2232924,15.0771902 L42.0518171,11.5451428 Z M33.856208,15.784254 L35.2573368,18.534605 L30.9250234,20.753597 L24.2489471,20.753597 L33.856208,15.784254 Z M3.83685592,17.6841123 L6.13896948,17.6841123 C6.52265507,17.6841123 6.90634066,17.9910431 6.90634066,18.4514835 L6.90634066,20.6768422 L3.83685592,20.6768422 L3.83685592,17.6841123 Z M2.37886836,22.2883394 L3.06948474,22.2883394 L7.67371184,22.2883394 L10.7431966,22.2883394 L10.7431966,23.8998366 C10.7431966,25.1276481 11.7407438,26.0484405 13.0453101,26.0484405 C14.3498765,26.0484405 15.3474237,25.1275597 15.3474237,23.8998366 L15.3474237,22.2115846 L21.1027076,22.2115846 L31.078533,22.2115846 L32.9202061,22.2115846 C33.3806465,22.3650942 33.7643321,22.672025 33.7643321,23.1324654 L33.7643321,28.4273089 L1.53474237,28.4273089 L1.53474237,23.2092202 C1.53474237,22.7486913 1.91842796,22.3650058 2.37886836,22.2883394 Z M33.5339793,31.343284 C33.3804697,31.4200388 33.3038033,31.4967936 33.0735389,31.4967936 L32.9967841,31.4967936 L2.30211355,31.4967936 L2.22535875,31.4967936 C1.99518276,31.4967936 1.84167316,31.4200388 1.76491835,31.4200388 C1.61140875,31.2665292 1.53474237,31.113108 1.53474237,30.8828436 L1.53474237,29.9619628 L33.7642437,29.9619628 L33.7642437,30.8060888 C33.7642437,31.0362648 33.6874889,31.1897744 33.5339793,31.343284 Z" id="Shape"></path>
                    </g>
                </g>
            </g>
        </g>
    </g>
</svg>