<?xml version="1.0" encoding="UTF-8"?>
<svg width="102px" height="105px" viewBox="0 0 102 105" version="1.1" xmlns="http://www.w3.org/2000/svg" xmlns:xlink="http://www.w3.org/1999/xlink">
    <!-- Generator: sketchtool 61.2 (101010) - https://sketch.com -->
    <title>F1CF44C1-8EEC-4431-BDB3-DDECFFCF1274</title>
    <desc>Created with sketchtool.</desc>
    <g id="Proceso-E-Commerce-Propuesta" stroke="none" stroke-width="1" fill="none" fill-rule="evenodd">
        <g id="Oncosalud_Wireframes_Desktop_Pagando" transform="translate(-669.000000, -272.000000)" fill="#30C7DB" fill-rule="nonzero">
            <g id="Group-17">
                <g id="Group-16" transform="translate(393.000000, 105.000000)">
                    <g id="icon_debit-card" transform="translate(276.000000, 167.000000)">
                        <path d="M85,18.5395 L85,8.75 C84.9940499,3.92 81.192,0.006125 76.5,0 L8.5,0 C3.808,0.006125 0.00595,3.92 0,8.75 L0,47.25 C0.0131750272,51.7190625 3.30395005,55.4566251 7.6228,55.9098749 L14.0131,72.9859375 C15.7012,77.4948125 20.6201501,79.7409375 25.000625,78.0053749 L64.906,62.181 C62.1486,69.5953125 62.9331501,77.9126251 67.0233501,84.6426875 L68,86.2505 L68,103.25 C68,104.216875 68.7607501,105 69.7,105 L100.3,105 C101.23925,105 102,104.216875 102,103.25 L102,45.4846875 C101.98385,39.43275 99.643375,33.6341251 95.486875,29.3540625 L85,18.5395 Z M85,29.0053749 L90.1595,42.79275 C91.170575,45.4991251 89.8603,48.5358125 87.231675,49.5775 L84.2826,50.75 C84.7535,49.6466251 84.9974499,48.454 85,47.25 L85,29.0053749 Z M3.4,47.25 L3.4,8.75 C3.4,5.85112506 5.68395005,3.5 8.5,3.5 L76.5,3.5 C79.3160499,3.5 81.6,5.85112506 81.6,8.75 L81.6,19.873 L81.585125,19.873 L81.6,19.9128125 L81.6,47.25 C81.586825,47.5553749 81.5481501,47.8581251 81.4844,48.1565 L65.9124,32.12475 C62.4121,28.6046251 56.8318499,28.5775 53.3001,32.0608749 C49.7675,35.5464375 49.555425,41.2864375 52.8224,45.0358125 L59.4609,52.5 L8.5,52.5 C5.68395005,52.5 3.4,50.1488749 3.4,47.25 Z M25.1787,56 L13.09,60.7910625 L11.3016,56 L25.1787,56 Z M23.7779,74.7385625 C21.1497,75.7815625 18.198075,74.43275 17.1853,71.72725 L14.3174,64.05 L34.6103,56 L34.6103,55.9895 L62.577,55.9895 L64.786575,58.46925 L23.7779,74.7385625 Z M98.6,101.5 L71.4,101.5 L71.4,87.5 L98.6,87.5 L98.6,101.5 Z M98.6,84 L70.6435,84 L69.906125,82.78725 C65.7611,75.9683749 65.5962,67.35575 69.4756,60.375 C69.8428,59.7143749 69.7527,58.8848749 69.2529,58.324 L55.321825,42.679 C53.244425,40.3383749 53.3613,36.7198125 55.585325,34.5275 C57.8102,32.33475 61.327075,32.3706251 63.508175,34.6071251 L90.5981,62.48725 L93.0019,60.01275 L86.7119,53.53775 L88.4561,52.83775 C92.8327501,51.0995625 95.0138499,46.0403125 93.33,41.5323125 L87.575925,26.1515625 L93.083075,31.8325 C96.602075,35.4541251 98.5864,40.362 98.6,45.4846875 L98.6,84 Z" id="Shape"></path>
                        <path d="M19.58,25 C22.0212,25 24,22.9048 24,20.32 L24,11.68 C24,9.0952 22.0212,7 19.58,7 L11.42,7 C8.9788,7 7,9.0952 7,11.68 L7,20.32 C7,22.9048 8.9788,25 11.42,25 L19.58,25 Z M10.4,20.32 L10.4,17.8 L13.8,17.8 L13.8,14.2 L10.4,14.2 L10.4,11.68 C10.4,11.08375 10.856875,10.6 11.42,10.6 L19.58,10.6 C20.143125,10.6 20.6,11.08375 20.6,11.68 L20.6,14.2 L17.2,14.2 L17.2,17.8 L20.6,17.8 L20.6,20.32 C20.6,20.91625 20.143125,21.4 19.58,21.4 L11.42,21.4 C10.856875,21.4 10.4,20.91625 10.4,20.32 Z" id="Shape"></path>
                        <polygon id="Path" points="8 30 15 30 15 34 8 34"></polygon>
                        <polygon id="Path" points="8 40 15 40 15 44 8 44"></polygon>
                        <polygon id="Path" points="39 40 46 40 46 44 39 44"></polygon>
                        <polygon id="Path" points="19 30 26 30 26 34 19 34"></polygon>
                        <polygon id="Path" points="29 30 36 30 36 34 29 34"></polygon>
                        <polygon id="Path" points="39 30 46 30 46 34 39 34"></polygon>
                        <polygon id="Path" points="72 9 75 9 75 14 72 14"></polygon>
                        <polygon id="Path" points="65 9 68 9 68 14 65 14"></polygon>
                        <polygon id="Path" points="58 9 61 9 61 14 58 14"></polygon>
                        <polygon id="Path" points="51 9 54 9 54 14 51 14"></polygon>
                        <polygon id="Path" points="75 91 78 91 78 95 75 95"></polygon>
                    </g>
                </g>
            </g>
        </g>
    </g>
</svg>