<?xml version="1.0" encoding="UTF-8"?>
<svg width="64px" height="64px" viewBox="0 0 64 64" version="1.1" xmlns="http://www.w3.org/2000/svg" xmlns:xlink="http://www.w3.org/1999/xlink">
    <!-- Generator: sketchtool 61.2 (101010) - https://sketch.com -->
    <title>36941662-84D8-4AFE-89FD-72E8FEDCB752</title>
    <desc>Created with sketchtool.</desc>
    <g id="Proceso-E-Commerce-Propuesta" stroke="none" stroke-width="1" fill="none" fill-rule="evenodd">
        <g id="Oncosalud_Wireframes_Desktop_SeresQueridos1" transform="translate(-768.000000, -544.000000)">
            <g id="icon_hijo_hija" transform="translate(768.000000, 544.000000)">
                <circle id="Oval-Copy" fill-opacity="0.1" fill="#30C7DB" cx="32" cy="32" r="32"></circle>
                <g id="father-(2)" transform="translate(20.869565, 9.739130)" fill-rule="nonzero">
                    <path d="M5.2773913,35.9594783 C5.2773913,35.9594783 3.22895652,36.569913 2.52617391,35.8671304 C1.8233913,35.1643478 2.52617391,33.3614783 2.52617391,33.3614783 L6.00617391,31.9373913 L5.2773913,35.9594783 Z" id="Path" fill="#FFFFFF"></path>
                    <path d="M20.7767826,33.3614783 C20.7767826,33.3614783 21.4795652,35.1643478 20.7767826,35.8671304 C20.074,36.569913 18.0255652,35.9594783 18.0255652,35.9594783 L17.1276522,32.208 L20.7767826,33.3614783 Z" id="Path" fill="#FFFFFF"></path>
                    <path d="M17.988087,33.3611304 C17.988087,33.3611304 18.4204348,38.2893913 17.0376522,41.8330435 L12.715913,41.8330435 C12.715913,41.8330435 13.7998261,36.8094783 11.651913,34.6607826 C9.50321739,36.8094783 10.5870435,41.8330435 10.5870435,41.8330435 L6.26530435,41.8330435 C4.88252174,38.2893913 5.31486957,33.3611304 5.31486957,33.3611304 L2.52582609,33.3611304 C2.52582609,25.5641739 5.69173913,22.9891304 6.24017391,22.6010435 L17.0626957,22.6010435 C17.6111304,22.9892174 20.7770435,25.5641739 20.7770435,33.3611304 L17.988087,33.3611304 Z" id="Path" fill="#FFFFFF"></path>
                    <path d="M19.240087,33.3611304 L17.988087,33.3611304 C17.988087,31.4593043 17.2966957,29.6146957 17.2966957,29.6146957 C17.2966957,29.6146957 19.0303478,30.2255652 19.240087,33.3611304 L19.240087,33.3611304 Z" id="Path" fill="#7AD0DF"></path>
                    <path d="M17.0367826,41.8330435 L12.7150435,41.8330435 C12.7150435,41.8330435 13.7989565,36.8094783 11.6510435,34.6607826 C9.50321739,36.8094783 10.5870435,41.8330435 10.5870435,41.8330435 L6.26443478,41.8330435 C4.88165217,38.2893913 5.314,33.3611304 5.314,33.3611304 C5.314,32.8733043 5.35991304,32.3881739 5.42747826,31.9375652 L17.8745217,31.9375652 C17.942087,32.388087 17.988,32.8733043 17.988,33.3611304 C17.988087,33.3611304 18.4195652,38.2893043 17.0367826,41.8330435 Z" id="Path" fill="#FFFFFF"></path>
                    <polygon id="Path" fill="#FFFFFF" points="13.043913 25.228 10.2590435 25.228 9.76608696 21.884 13.5369565 21.884"></polygon>
                    <path d="M20.6595652,16.4608696 L20.6721739,16.4608696 C21.7553913,16.4608696 22.6331304,15.5824348 22.6331304,14.499913 C22.6331304,13.4166957 21.7553913,12.5381739 20.6721739,12.5381739 C20.658087,12.5381739 20.644,12.5381739 20.629913,12.5389565 L2.67313043,12.5389565 C2.65904348,12.5381739 2.64495652,12.5381739 2.63086957,12.5381739 C1.54765217,12.5381739 0.669913043,13.4166087 0.669913043,14.499913 C0.669913043,15.5824348 1.54765217,16.4608696 2.63086957,16.4608696 L2.64347826,16.4608696" id="Path" fill="#FFFFFF"></path>
                    <path d="M21.5408696,12.7414783 L8.22156522,12.7985217 L1.60756522,12.8263478 C1.1033913,8.22278261 -0.360086957,2.24426087 5.01652174,1.17878261 C6.3073913,0.922782609 7.46982609,0.770869565 8.5146087,0.699565217 C15.5130435,0.224608696 17.253913,3.38469565 17.253913,3.38469565 C17.253913,3.38469565 18.5205217,2.27217391 19.8976522,2.38556522 C20.3954783,2.42617391 20.9082609,2.62808696 21.3803478,3.10017391 C23.8708696,5.59043478 21.5408696,12.7414783 21.5408696,12.7414783 Z" id="Path" fill="#FFFFFF"></path>
                    <path d="M20.6786957,14.9594783 C20.6786957,15.9921739 20.6523478,17.0255652 20.5995652,18.0582609 C20.4676522,20.64 18.4015652,22.6953043 15.8184348,22.8173043 C14.0126957,22.9028696 12.2061739,22.932087 10.4004348,22.9064348 L10.3997391,22.9064348 C9.42765217,22.8928696 8.45634783,22.8629565 7.48426087,22.8173043 C4.90182609,22.6953913 2.83573913,20.64 2.70313043,18.0582609 C2.60895652,16.2182609 2.59904348,14.3789565 2.67243478,12.5389565 L2.67313043,12.5389565 C3.68017391,12.166 4.27921739,11.0063478 4.63504348,9.71695652 C5.00017391,8.394 6.26747826,7.67086957 7.48417391,7.83704348 C7.95843478,7.90191304 8.42556522,8.10234783 8.82782609,8.45469565 C9.63582609,9.16217391 10.6435652,9.51591304 11.6513043,9.51591304 C12.6590435,9.51591304 13.6674783,9.16217391 14.4754783,8.45469565 C14.976087,8.01608696 15.575913,7.81351361 16.1664348,7.81351361 C17.2682609,7.81351361 18.3373043,8.51956522 18.6682609,9.71704348 C19.0233913,11.0064348 19.6225217,12.166087 20.6301739,12.5390435 C20.6629565,13.3462609 20.6786957,14.1528696 20.6786957,14.9594783 Z" id="Path" fill="#FFFFFF"></path>
                    <polygon id="Path" fill="#FFFFFF" points="10.2590435 25.228 13.043913 25.228 13.5369565 28.571913 11.6514783 29.9237391 9.76608696 28.571913"></polygon>
                    <path d="M4.96895652,43.8682609 L10.5873043,43.8682609 L10.5873043,41.8333913 L7.00382609,41.8333913 C5.88,41.8333043 4.96895652,42.7443478 4.96895652,43.8682609 Z" id="Path" fill="#FFFFFF"></path>
                    <g id="Group" transform="translate(12.391304, 41.565217)" fill="#FFFFFF">
                        <path d="M5.94278261,2.30304348 L0.324347826,2.30304348 L0.324347826,0.268173913 L3.90782609,0.268173913 C5.03173913,0.268086957 5.94278261,1.17913043 5.94278261,2.30304348 Z" id="Path"></path>
                    </g>
                    <path d="M7.476,15.0293043 C7.92782609,15.0293043 8.2953913,14.4827826 8.2953913,13.8110435 C8.2953913,13.1393043 7.92782609,12.5927826 7.476,12.5927826 C7.02417391,12.5927826 6.65660868,13.1393043 6.65660868,13.8110435 C6.65652174,14.4828696 7.02408696,15.0293043 7.476,15.0293043 Z" id="Path" fill="#30C7DB"></path>
                    <path d="M15.8270435,15.0293043 C16.2788696,15.0293043 16.6464348,14.4827826 16.6464348,13.8110435 C16.6464348,13.1393043 16.2788696,12.5927826 15.8270435,12.5927826 C15.3752174,12.5927826 15.0076522,13.1393043 15.0076522,13.8110435 C15.0076522,14.4828696 15.3752174,15.0293043 15.8270435,15.0293043 Z" id="Path" fill="#30C7DB"></path>
                    <path d="M21.2507826,18.0915652 C21.2686957,17.7408696 21.2826087,17.3893913 21.2945217,17.0375652 C22.4358261,16.7575652 23.2853043,15.7263478 23.2853043,14.499913 C23.2853043,13.6766957 22.9025217,12.9415652 22.306,12.462087 C22.5015652,11.7783478 22.8469565,10.4431304 23.0413913,8.938 C23.4286087,5.9413913 23.0250435,3.82217391 21.8421739,2.63921739 C20.3689565,1.16591304 18.506087,1.75034783 17.3749565,2.48121739 C16.2847826,1.30643478 12.9830435,-1.06382609 4.89008696,0.538869565 C4.18643478,0.678086957 3.55730435,0.903217391 3.02008696,1.20791304 C2.70678261,1.38556522 2.59686957,1.78365217 2.77452174,2.09695652 C2.95217391,2.41026087 3.35026087,2.52008696 3.66356522,2.34243478 C4.07904348,2.10678261 4.57686957,1.93043478 5.14330435,1.81843478 C7.83226087,1.28591304 11.634,0.900434783 14.4756522,2.088 C16.1307826,2.77973913 16.6813913,3.6973913 16.6828696,3.69965217 C16.7783478,3.87278261 16.9471304,3.99321739 17.1417391,4.02721739 C17.3366957,4.0613913 17.5361739,4.00513043 17.6845217,3.87469565 C17.6894783,3.87034783 18.1978261,3.43321739 18.8726087,3.1886087 C19.6993043,2.88886957 20.3689565,3.01086957 20.9197391,3.56165217 C22.5569565,5.19895652 21.7313043,9.69113043 21.106087,11.9228696 C20.9957391,11.9043478 20.8831304,11.8927826 20.7685217,11.8886087 C19.9926087,11.5348696 19.5404348,10.4285217 19.2963478,9.54356522 C18.9975652,8.4606087 18.1775652,7.62165217 17.1027826,7.2993913 C16.0306957,6.97791304 14.8878261,7.22643478 14.0453913,7.96391304 C12.6804348,9.15878261 10.621913,9.15878261 9.25695652,7.96391304 C8.41452174,7.22643478 7.27156522,6.97808696 6.19956522,7.2993913 C5.12478261,7.62165217 4.30469565,8.4606087 4.006,9.54356522 C3.76191304,10.4284348 3.30973913,11.5347826 2.53382609,11.8886087 C2.40626087,11.8933043 2.28113043,11.9072174 2.15878261,11.9296522 C2.12713043,11.6747826 2.09391304,11.4161739 2.05965217,11.1502609 C1.722,8.52478261 1.37286957,5.81 2.20582609,3.9606087 C2.35373913,3.63217391 2.20747826,3.24608696 1.87904348,3.09817391 C1.5506087,2.95017391 1.16443478,3.09652174 1.0166087,3.42495652 C0.032173913,5.6106087 0.405217391,8.5113913 0.766,11.3166087 C0.819826087,11.7352174 0.871304348,12.136087 0.917478261,12.5286957 C0.366608696,13.0082609 0.0173913043,13.713913 0.0173913043,14.500087 C0.0173913043,15.7263478 0.866608696,16.7574783 2.00773913,17.0376522 C2.01965217,17.3897391 2.03356522,17.7413913 2.05147826,18.0918261 C2.15713043,20.148087 3.3353913,21.8993043 5.04208696,22.808087 C3.83852174,24.1038261 1.89982609,27.1377391 1.87469565,33.242087 C1.67852174,33.7887826 1.18591304,35.4495652 2.06486957,36.3284348 C2.47104348,36.7346957 3.09321739,36.858 3.69904348,36.858 C4.03043478,36.858 4.35652174,36.8209565 4.64008696,36.7732174 C4.72513043,38.2773913 4.95547826,40.0529565 5.5013913,41.6414783 C4.78704348,42.1249565 4.3166087,42.9426957 4.3166087,43.8683478 C4.3166087,44.2285217 4.6086087,44.5206087 4.96878261,44.5206087 L10.5871304,44.5206087 C10.9473043,44.5206087 11.2393043,44.2285217 11.2393043,43.8683478 L11.2393043,41.8333913 C11.2393043,41.785913 11.233913,41.7397391 11.2242609,41.6951304 C10.975913,40.5426957 10.6443478,37.498087 11.6510435,35.7357391 C12.6544348,37.495913 12.3252174,40.541913 12.0783478,41.6952174 C12.0686957,41.7398261 12.0633043,41.786 12.0633043,41.8334783 L12.0633043,43.8684348 C12.0633043,44.2286087 12.3553043,44.5206087 12.7154783,44.5206087 L18.3338261,44.5206087 C18.694,44.5206087 18.986,44.2286087 18.986,43.8684348 C18.986,42.9427826 18.5155652,42.1250435 17.8012174,41.6415652 C18.3471304,40.0530435 18.5774783,38.2774783 18.6625217,36.7733043 C18.946087,36.8210435 19.2721739,36.858 19.6035652,36.858 C20.2093913,36.858 20.8316522,36.7346087 21.2377391,36.3284348 C22.1169565,35.4493043 21.6238261,33.787913 21.4277391,33.2416522 C21.4181739,30.9235652 21.1314783,28.8406087 20.574,27.0501739 C20.4668696,26.7062609 20.1012174,26.5142609 19.7573913,26.6213913 C19.4134783,26.7284348 19.2214783,27.094087 19.3285217,27.437913 C19.8046087,28.9669565 20.0691304,30.7375652 20.1165217,32.7092174 L18.6161739,32.7092174 C18.4934783,30.9687826 17.9338261,29.4570435 17.9072174,29.386 C17.7807826,29.0486957 17.4046087,28.877913 17.0675652,29.0043478 C16.7303478,29.1307826 16.5593913,29.5067826 16.685913,29.844 C16.6896522,29.854087 16.9086957,30.4456522 17.0913913,31.2853913 L12.3038261,31.2853913 L12.3038261,30.2584348 L13.9166957,29.102087 C14.1151304,28.9598261 14.2174783,28.7185217 14.181913,28.4769565 L13.7029565,25.2285217 L13.952087,23.5370435 C14.5857391,23.5207826 15.2183478,23.4986087 15.8488696,23.4688696 C16.2156522,23.4515652 16.5729565,23.4001739 16.9175652,23.3177391 C17.2431304,23.5992174 17.8002609,24.1710435 18.3626957,25.1652174 C18.4826957,25.3773043 18.7034783,25.4963478 18.9309565,25.4963478 C19.0397391,25.4963478 19.150087,25.4691304 19.2514783,25.4117391 C19.5649565,25.2343478 19.6753913,24.8365217 19.498,24.5229565 C19.067913,23.7626087 18.6316522,23.2046087 18.2618261,22.8073913 C19.9683478,21.8981739 21.1457391,20.1472174 21.2507826,18.0915652 L21.2507826,18.0915652 Z M21.326087,15.631913 C21.3344348,14.872 21.3290435,14.1126087 21.3092174,13.3568696 C21.7094783,13.5811304 21.9810435,14.0091304 21.9810435,14.4998261 C21.9809565,14.9833043 21.7168696,15.4053043 21.326087,15.631913 Z M1.322,14.499913 C1.322,14.0093043 1.5933913,13.5813913 1.99356522,13.3571304 C1.97382609,14.114 1.96843478,14.8733043 1.97669565,15.6318261 C1.586,15.4051304 1.322,14.9832174 1.322,14.499913 L1.322,14.499913 Z M2.9873913,35.406 C2.8046087,35.2232174 2.84452174,34.5976522 3.00026087,34.0134783 L4.622,34.0134783 C4.60582609,34.3826087 4.59269565,34.878 4.59773913,35.4562609 C3.82765217,35.6097391 3.15434783,35.5729565 2.9873913,35.406 Z M5.78486957,43.216087 C6.01756522,42.7826957 6.47469565,42.4872174 6.99965217,42.4856522 L9.93513043,42.4856522 L9.93513043,43.216087 L5.78486957,43.216087 Z M13.367913,43.216087 L13.367913,42.4856522 L16.3033913,42.4856522 C16.8283478,42.4872174 17.2854783,42.7826957 17.5181739,43.216087 L13.367913,43.216087 Z M20.3027826,34.0134783 C20.4585217,34.5977391 20.4984348,35.2233043 20.3156522,35.406 C20.149913,35.5718261 19.4764348,35.608087 18.7053043,35.4553913 C18.7103478,34.8774783 18.6972174,34.3824348 18.6810435,34.0134783 L20.3027826,34.0134783 Z M16.5811304,41.1813043 L13.4883478,41.1811304 C13.7111304,39.5972174 13.9598261,36.0473043 12.1126087,34.2001739 C11.857913,33.9454783 11.4449565,33.9454783 11.1903478,34.2001739 C9.34313043,36.0473043 9.59182609,39.5973043 9.8146087,41.1811304 L6.72182609,41.1813043 C5.59504348,37.86 5.98147826,32.8393043 6.00513043,32.5896522 L17.298,32.5896522 C17.3215652,32.8389565 17.7101739,37.8546957 16.5811304,41.1813043 Z M6.21217391,31.2853043 C6.39478261,30.4466087 6.61321739,29.8537391 6.61686957,29.843913 C6.7433913,29.5066957 6.57243478,29.1306957 6.23521739,29.0042609 C5.898,28.8777391 5.522,29.0486087 5.39556522,29.385913 C5.36895652,29.4569565 4.80930435,30.9686957 4.6866087,32.7091304 L3.18634783,32.7091304 C3.33626087,26.5091304 5.60426087,24.0013043 6.38652174,23.318 C6.7306087,23.4001739 7.08730435,23.4513913 7.45347826,23.4686957 C8.08426087,23.4984348 8.71721739,23.5206087 9.35104348,23.5368696 L9.6,25.2273913 L9.12095652,28.4768696 C9.08530435,28.7184348 9.18773913,28.9596522 9.38617391,29.102 L10.9998261,30.2589565 L10.9998261,31.2853043 L6.21217391,31.2853043 Z M11.6514783,29.1213043 L10.4693043,28.2736522 L10.8221739,25.8801739 L12.4808696,25.8801739 L12.8337391,28.2736522 L11.6514783,29.1213043 Z M12.4809565,24.5755652 L10.8223478,24.5755652 L10.6730435,23.5615652 C10.9991304,23.5651304 11.3253913,23.5673043 11.6516522,23.5673043 C11.977913,23.5673043 12.3042609,23.5651304 12.6303478,23.5615652 L12.4809565,24.5755652 Z M15.7875652,22.1657391 C13.0432174,22.2953913 10.259913,22.2953913 7.51495652,22.1657391 C5.25886957,22.0592174 3.47017391,20.2789565 3.35434783,18.0248696 C3.26852174,16.3463478 3.25347826,14.6436522 3.30965217,12.9574783 C4.18486957,12.4513913 4.84104348,11.4222609 5.26365217,9.89017391 C5.44226087,9.2426087 5.93226087,8.74113043 6.57443478,8.5486087 C7.21365217,8.35695652 7.8953913,8.50513043 8.39808696,8.94513043 C9.32556522,9.75704348 10.4883478,10.1629565 11.6514783,10.1627826 C12.8143478,10.1626957 13.9775652,9.75678261 14.9048696,8.94513043 C15.4074783,8.50513043 16.0893043,8.35686957 16.7285217,8.5486087 C17.3706957,8.74113043 17.8606957,9.24269565 18.0393043,9.89017391 C18.4618261,11.4221739 19.118,12.4512174 19.9931304,12.9573913 C20.0494783,14.6367826 20.0345217,16.3395652 19.9482609,18.0248696 C19.8329565,20.2790435 18.0443478,22.0592174 15.7875652,22.1657391 L15.7875652,22.1657391 Z" id="Shape" fill="#30C7DB"></path>
                </g>
            </g>
        </g>
    </g>
</svg>