<?xml version="1.0" encoding="UTF-8"?>
<svg width="54px" height="54px" viewBox="0 0 54 54" version="1.1" xmlns="http://www.w3.org/2000/svg" xmlns:xlink="http://www.w3.org/1999/xlink">
    <!-- Generator: sketchtool 61.2 (101010) - https://sketch.com -->
    <title>9CD4197C-3319-4635-B0C6-AE05A8CE7FF4</title>
    <desc>Created with sketchtool.</desc>
    <g id="Proceso-E-Commerce-Propuesta" stroke="none" stroke-width="1" fill="none" fill-rule="evenodd">
        <g id="Oncosalud_Wireframes_Desktop_SeresQueridos" transform="translate(-213.000000, -208.000000)">
            <g id="icon_family" transform="translate(213.000000, 208.000000)">
                <circle id="Oval" fill-opacity="0.1" fill="#30C7DB" cx="27" cy="27" r="27"></circle>
                <g id="family" transform="translate(9.000000, 9.000000)" fill-rule="nonzero">
                    <path d="M1.94638596,16.0714386 C-1.28764912,8.57607018 4.56954386,5.62645614 7.80533333,5.62645614 L7.80533333,5.62645614 C9.5954386,5.62645614 10.2519298,6.1562807 10.9557895,7.11087719 C10.9557895,7.11087719 12.0270175,6.38519298 13.5176842,6.58940351 C16.2720702,6.96673684 18.8734737,9.64105263 16.5602807,16.046807" id="Path" fill="#FFFFFF"></path>
                    <path d="M15.5857544,15.6487018 C15.4369123,15.6487018 15.2938246,15.6725614 15.1593684,15.7157895 C15.1055439,16.5210526 14.8910175,17.2819649 14.5470877,17.9671579 C14.8021754,18.253193 15.1723509,18.4342456 15.5857544,18.4342456 C16.3549474,18.4342456 16.9785263,17.8106667 16.9785263,17.0414737 C16.9785263,16.2722807 16.3549474,15.6487018 15.5857544,15.6487018 Z" id="Path" fill="#FFFFFF"></path>
                    <path d="M3.34729825,15.7157895 C3.21284211,15.6725614 3.06975439,15.6487018 2.92091228,15.6487018 C2.1517193,15.6487018 1.52814035,16.2722807 1.52814035,17.0414737 C1.52814035,17.8106667 2.1517193,18.4342456 2.92091228,18.4342456 C3.33431579,18.4342456 3.70449123,18.2531228 3.95957895,17.9671579 C3.61564912,17.2819649 3.40112281,16.5211228 3.34729825,15.7157895 Z" id="Path" fill="#FFFFFF"></path>
                    <path d="M32.4075088,23.3859649 C35.3901053,22.3779649 35.6293333,14.0284912 34.4626667,10.9849825 C33.2261053,7.75908772 30.1326316,5.62645614 26.6778246,5.62645614 L26.6778246,5.62645614 L26.6778246,5.62645614 L26.6778246,5.62645614 L26.6778246,5.62645614 L26.6778246,5.62645614 L26.6778246,5.62645614 L26.6778246,5.62645614 L26.6778246,5.62645614 C23.2230175,5.62645614 20.129614,7.75908772 18.8929825,10.9849825 C17.7263158,14.0284211 17.965614,22.3778947 20.9482105,23.3859649 L32.4075088,23.3859649 Z" id="Path" fill="#FFFFFF"></path>
                    <path d="M18.5269474,1.41038596 C18.1598596,0.239087719 15.8313684,0.049122807 15.5682807,1.972 C15.2691228,4.15901754 18.5269474,5.74294737 18.5269474,5.74294737 C18.5269474,5.74294737 21.7847719,4.15901754 21.485614,1.972 C21.2225965,0.0491929825 18.8940351,0.239087719 18.5269474,1.41038596 Z" id="Path" fill="#FFFFFF"></path>
                    <path d="M15.1743158,14.2507368 C12.3051228,13.7574035 10.3999298,10.906386 10.3999298,10.906386 C10.3999298,10.906386 9.03719298,14.2507368 3.3322807,14.2507368 L3.3322807,15.3155088 C3.3322807,18.585614 5.98322807,21.2364912 9.25326316,21.2364912 L9.25326316,21.2364912 C12.5233684,21.2364912 15.1743158,18.5855439 15.1743158,15.3155088 C15.1743158,15.3155088 15.1743158,14.2507368 15.1743158,14.2507368 Z" id="Path" fill="#FFFFFF"></path>
                    <path d="M32.598807,14.2507368 C29.7296842,13.7574035 27.8244211,10.906386 27.8244211,10.906386 C27.8244211,10.906386 26.4616842,14.2507368 20.7567719,14.2507368 L20.7567719,15.3155088 C20.7567719,18.585614 23.4077193,21.2364912 26.6777544,21.2364912 L26.6777544,21.2364912 C29.9478596,21.2364912 32.598807,18.5855439 32.598807,15.3155088 L32.598807,14.2507368 L32.598807,14.2507368 Z" id="Path" fill="#FFFFFF"></path>
                    <path d="M17.9655439,29.9695439 L0.541122807,29.9695439 L0.541122807,29.9487719 C0.541122807,25.1371228 4.44168421,21.2365614 9.25333333,21.2365614 L9.25333333,21.2365614 C14.0649825,21.2365614 17.9655439,25.1371228 17.9655439,29.9487719 L17.9655439,29.9695439 Z" id="Path" fill="#FFFFFF"></path>
                    <path d="M11.446386,21.5150877 C10.7456842,21.3334035 10.0108772,21.2365614 9.25333333,21.2365614 L9.25333333,21.2365614 C8.49585965,21.2365614 7.76098246,21.3334035 7.06035088,21.5150877 C7.19740351,22.6046316 8.12659649,23.4476491 9.25333333,23.4476491 C10.3800702,23.4476491 11.3092632,22.6046316 11.446386,21.5150877 Z" id="Path" fill="#FFFFFF"></path>
                    <path d="M35.3900351,29.9695439 L17.9655439,29.9695439 L17.9655439,29.9487719 C17.9655439,25.1371228 21.8661754,21.2365614 26.6777544,21.2365614 L26.6777544,21.2365614 C31.4894035,21.2365614 35.3900351,25.1371228 35.3900351,29.9487719 L35.3900351,29.9695439 L35.3900351,29.9695439 Z" id="Path" fill="#FFFFFF"></path>
                    <path d="M28.870807,21.5150877 C28.1701053,21.3334035 27.4352982,21.2365614 26.6778246,21.2365614 L26.6778246,21.2365614 C25.9203509,21.2365614 25.1854737,21.3334035 24.4848421,21.5150877 C24.6218947,22.6046316 25.5510877,23.4476491 26.6778246,23.4476491 C27.8045614,23.4476491 28.7337544,22.6046316 28.870807,21.5150877 Z" id="Path" fill="#FFFFFF"></path>
                    <circle id="Oval" fill="#FFFFFF" cx="17.8008421" cy="29.2813333" r="6.12350877"></circle>
                    <path d="M24.1332632,29.8170526 C24.0532632,29.8170526 23.9751579,29.8244211 23.8989474,29.8375439 C23.8218246,30.6941053 23.5685614,31.4999298 23.1752281,32.2181754 C23.4248421,32.4557895 23.7614035,32.6026667 24.1332632,32.6026667 C24.9024561,32.6026667 25.5260351,31.9790877 25.5260351,31.2098947 C25.5261053,30.4406316 24.9025263,29.8170526 24.1332632,29.8170526 Z" id="Path" fill="#FFFFFF"></path>
                    <path d="M11.702807,29.8375439 C11.6265965,29.8244211 11.5484211,29.8170526 11.4684912,29.8170526 C10.6992982,29.8170526 10.0757193,30.4406316 10.0757193,31.2098947 C10.0757193,31.9790877 10.6992982,32.6026667 11.4684912,32.6026667 C11.8403509,32.6026667 12.1769123,32.4557895 12.4265263,32.2181754 C12.033193,31.4998596 11.7799298,30.6941053 11.702807,29.8375439 Z" id="Path" fill="#FFFFFF"></path>
                    <g id="Group" fill="#30C7DB">
                        <path d="M24.2310877,15.5204912 C23.7605614,15.5204912 23.3778246,15.9032982 23.3778246,16.3738246 C23.3778246,16.8443509 23.7605614,17.2270877 24.2310877,17.2270877 C24.701614,17.2270877 25.0844211,16.8442807 25.0844211,16.3738246 C25.0844211,15.9032982 24.701614,15.5204912 24.2310877,15.5204912 Z" id="Path"></path>
                        <path d="M29.1245614,15.5204912 C28.6540351,15.5204912 28.2712281,15.9032982 28.2712281,16.3738246 C28.2712281,16.8443509 28.6540351,17.2270877 29.1245614,17.2270877 C29.5950877,17.2270877 29.9778246,16.8442807 29.9778246,16.3738246 C29.9778246,15.9032982 29.5950877,15.5204912 29.1245614,15.5204912 Z" id="Path"></path>
                        <path d="M6.80659649,15.5204912 C6.33607018,15.5204912 5.95326316,15.9032982 5.95326316,16.3738246 C5.95326316,16.8443509 6.33607018,17.2270877 6.80659649,17.2270877 C7.27712281,17.2270877 7.65985965,16.8442807 7.65985965,16.3738246 C7.65985965,15.9032982 7.27712281,15.5204912 6.80659649,15.5204912 Z" id="Path"></path>
                        <path d="M11.7000702,15.5204912 C11.2295439,15.5204912 10.8467368,15.9032982 10.8467368,16.3738246 C10.8467368,16.8443509 11.2295439,17.2270877 11.7000702,17.2270877 C12.1705965,17.2270877 12.5534035,16.8442807 12.5534035,16.3738246 C12.5533333,15.9032982 12.1705965,15.5204912 11.7000702,15.5204912 Z" id="Path"></path>
                        <path d="M35.6233684,27.6322105 C35.5507368,27.350807 35.264,27.1813333 34.9821754,27.2541754 C34.7007018,27.3268772 34.5314386,27.6138947 34.6041404,27.8953684 C34.7345263,28.4003509 34.8162105,28.9190877 34.8482807,29.4432281 L24.8828772,29.4432281 C24.7461053,29.3849825 24.6010526,29.3425263 24.4502456,29.3173333 C24.4503158,29.3053333 24.4507368,29.2934035 24.4507368,29.2813333 C24.4507368,26.9396491 23.2338947,24.8769123 21.3995088,23.6917895 C22.2047018,23.0102456 23.1213333,22.497614 24.1060351,22.1729825 C24.4917193,23.232 25.5093333,23.9738947 26.6778947,23.9738947 C27.8449123,23.9738947 28.8614035,23.2340351 29.2482807,22.1772632 C31.1962807,22.8213333 32.8647018,24.1853333 33.8761404,26.0472281 C34.0221754,26.3161404 34.3772632,26.4029474 34.6317895,26.2330526 C34.8548772,26.0841404 34.9289825,25.7801404 34.801193,25.5447719 C34.3894035,24.786807 33.8809123,24.1023158 33.2962105,23.5021754 C33.7825965,23.1390175 34.2023158,22.5856842 34.5492632,21.8475789 C35.9260351,18.9187368 35.9227368,13.3230877 34.9542456,10.7966316 C34.3090526,9.11354386 33.1839298,7.684 31.7007018,6.66259649 C30.2164912,5.64049123 28.4796491,5.10014035 26.6779649,5.10014035 C24.5277895,5.10014035 22.4527719,5.88189474 20.8350175,7.30126316 C20.6165614,7.49298246 20.594807,7.82547368 20.7865263,8.044 C20.9781754,8.26252632 21.3107368,8.28421053 21.5292632,8.09249123 C22.9548772,6.84168421 24.7834386,6.15284211 26.6779649,6.15284211 C28.2654035,6.15284211 29.7958596,6.62891228 31.1037193,7.52954386 C32.4110175,8.42982456 33.4026667,9.68982456 33.9713684,11.1734035 C34.8489123,13.462807 34.8484211,18.7367018 33.5965614,21.3997895 C33.2788772,22.0755088 32.9089825,22.534807 32.4943158,22.7711579 C31.5931228,22.0409825 30.5611228,21.4844912 29.4507368,21.1353684 C31.6218246,20.0967719 33.125193,17.8785263 33.125193,15.3155088 L33.125193,14.2507368 C33.125193,13.9944561 32.9406316,13.7754386 32.688,13.732 C30.0826667,13.2840702 28.2795789,10.6400702 28.2620351,10.6139649 C28.0319298,10.2697544 27.493193,10.3246316 27.3370526,10.7077895 C27.3247018,10.7379649 26.0465965,13.7244211 20.7567719,13.7244211 C20.4660351,13.7244211 20.2304561,13.9600702 20.2304561,14.2507368 L20.2304561,15.3155088 C20.2304561,17.8768421 21.7318596,20.0938947 23.9007018,21.1333333 C22.7988772,21.4790175 21.7696842,22.0312281 20.8607018,22.7707368 C20.4463158,22.5342456 20.0766316,22.0750877 19.7591579,21.3997193 C18.5073684,18.7366316 18.5068772,13.4627368 19.3844211,11.1734035 C19.6008421,10.6088421 19.8822456,10.0701754 20.2207018,9.57242105 C20.3841404,9.33207018 20.3217544,9.00470175 20.0814035,8.84126316 C19.8411228,8.67789474 19.5136842,8.74014035 19.3502456,8.9805614 C18.9661754,9.54533333 18.6470877,10.1563509 18.4015439,10.7965614 C17.4331228,13.3229474 17.4297544,18.9185965 18.8065965,21.8474386 C18.9819649,22.2204912 19.1762807,22.5452632 19.388,22.8232982 C18.9272281,22.7100351 18.4478596,22.6446316 17.9553684,22.6334035 C17.9028772,22.2214035 17.8670175,21.638386 17.9670175,21.1841404 C18.0295439,20.9002807 17.8500351,20.6195088 17.5661754,20.5569825 C17.2824561,20.4945263 17.0015439,20.6739649 16.9390175,20.9578246 C16.8411228,21.4024561 16.8384561,21.8958596 16.8668772,22.3122807 C16.0403509,21.7828772 15.8821754,20.9826667 15.873193,20.9334035 C15.8248421,20.6485614 15.5555789,20.4556491 15.2696842,20.5021754 C14.982807,20.5489123 14.7880702,20.8193684 14.834807,21.1062456 C14.8440702,21.1633684 15.0157895,22.1381754 15.9042807,22.9074386 C15.7407719,22.9562105 15.5799298,23.0110175 15.4218947,23.0717193 C14.4303158,22.1809123 13.2753684,21.5252632 12.0290526,21.1339649 C13.1312281,20.6061053 14.0609123,19.7739649 14.7091228,18.7471579 C14.9778947,18.8857544 15.2781053,18.9604912 15.5858947,18.9604912 C16.6440702,18.9604912 17.5049825,18.0995789 17.5049825,17.0414035 C17.5049825,16.6315088 17.3753684,16.2515088 17.1555789,15.9393684 C18.529193,11.9508772 17.9232281,9.61452632 17.1584561,8.35031579 C16.3955789,7.08933333 15.128,6.27873684 13.5892632,6.06792982 C12.4950175,5.91796491 11.5999298,6.21003509 11.0981053,6.43915789 C10.3662456,5.56778947 9.53319298,5.10014035 7.80547368,5.10014035 C5.82259649,5.10014035 3.01122807,6.1285614 1.52421053,8.38659649 C-0.125684211,10.8919298 0.472140351,13.8378246 1.33249123,15.9658947 C1.12392982,16.2729123 1.00189474,16.6431579 1.00189474,17.0414737 C1.00189474,18.0996491 1.86280702,18.9605614 2.92105263,18.9605614 C3.22877193,18.9605614 3.52905263,18.8857544 3.79775439,18.7472281 C4.44512281,19.7727719 5.37333333,20.6041404 6.47368421,21.1321404 C5.01270175,21.5900351 3.68217544,22.4115789 2.58736842,23.5522105 C2.40463158,23.7425965 2.39305263,24.049193 2.56168421,24.2524211 C2.75964912,24.4908772 3.13207018,24.5047719 3.34680702,24.2811228 C4.28954386,23.2988772 5.42968421,22.5841404 6.68126316,22.1722105 C7.06673684,23.2316491 8.08442105,23.9739649 9.25333333,23.9739649 C10.4214035,23.9739649 11.4385965,23.2327018 11.8246316,22.1744561 C12.7517895,22.4803509 13.6196491,22.9524211 14.3901053,23.5750877 C12.4514386,24.7382456 11.1510175,26.8607018 11.1510175,29.2814035 C11.1510175,29.2934737 11.1514386,29.3054035 11.1515088,29.3174035 C11.0007018,29.3425965 10.8556491,29.3850526 10.7188772,29.4432982 L1.08301754,29.4432982 C1.16077193,28.1836491 1.52792982,26.9562807 2.1565614,25.8659649 C2.30175439,25.6141754 2.21536842,25.2922807 1.96357895,25.1470877 C1.71185965,25.0019649 1.38989474,25.0882807 1.24470175,25.3401404 C0.440070175,26.7355088 0.0148070175,28.3291228 0.0148070175,29.9487719 L0.0148070175,29.9695439 C0.0148070175,30.2602105 0.25045614,30.4958596 0.541122807,30.4958596 L9.68764912,30.4958596 C9.59880702,30.7167018 9.54933333,30.9575439 9.54933333,31.2098246 C9.54933333,32.268 10.4102456,33.1289123 11.4684211,33.1289123 C11.745614,33.1289123 12.0152281,33.0694737 12.2618947,32.9567719 C13.4545263,34.7482105 15.492,35.9311579 17.8007719,35.9311579 C20.109614,35.9311579 22.1470877,34.7482105 23.3397193,32.9567719 C23.586386,33.0694737 23.856,33.1289123 24.133193,33.1289123 C25.1913684,33.1289123 26.0523509,32.268 26.0523509,31.2098246 C26.0523509,30.9575439 26.0029474,30.7167018 25.9140351,30.4958596 L35.3899649,30.4958596 C35.6807018,30.4958596 35.9162807,30.2602105 35.9162807,29.9695439 L35.9162807,29.9487719 C35.9162807,29.1644211 35.8178246,28.3849825 35.6233684,27.6322105 Z M15.5857544,17.908 C15.4473684,17.908 15.3155789,17.8750175 15.1965614,17.8144561 C15.4138947,17.2994386 15.5658947,16.7504561 15.642807,16.1779649 C16.0939649,16.2075789 16.4522105,16.5830175 16.4522105,17.0415439 C16.4522807,17.5192982 16.0635088,17.908 15.5857544,17.908 Z M2.40322807,8.96561404 C3.67592982,7.03305263 6.09564912,6.15284211 7.80533333,6.15284211 C9.47494737,6.15284211 9.94933333,6.63277193 10.5321404,7.42329825 C10.6984561,7.64898246 11.0148772,7.70287719 11.2486316,7.5482807 C11.2578246,7.54210526 12.1879298,6.93831579 13.4462456,7.11094737 C14.6640702,7.27775439 15.6625263,7.91150877 16.2576842,8.89529825 C17.1438596,10.3602105 17.1476491,12.5489825 16.2758596,15.2512982 C16.0955789,15.1815439 15.9023158,15.1381754 15.7006316,15.1261754 L15.7006316,14.2507368 C15.7006316,13.9944561 15.5160702,13.7754386 15.2635088,13.732 C12.6581053,13.2840702 10.8550175,10.6400702 10.8374737,10.6139649 C10.608,10.2705263 10.0702456,10.3204912 9.91382456,10.7044912 C9.91066667,10.712 9.58378947,11.4661754 8.62421053,12.2085614 C7.34252632,13.2002105 5.51263158,13.7243509 3.3322807,13.7243509 C3.04161404,13.7243509 2.80596491,13.96 2.80596491,14.2506667 L2.80596491,15.1261053 C2.58863158,15.1390175 2.38098246,15.1882105 2.18891228,15.2677895 C1.23529825,12.7494737 1.30624561,10.6313684 2.40322807,8.96561404 Z M2.92091228,17.908 C2.44308772,17.908 2.05438596,17.5192982 2.05438596,17.0415439 C2.05438596,16.5830175 2.41263158,16.2075789 2.86378947,16.1779649 C2.94063158,16.7501053 3.09249123,17.2987368 3.30961404,17.8134737 C3.18989474,17.8742456 3.05719298,17.908 2.92091228,17.908 Z M3.87185965,15.6740351 C3.87164912,15.6715088 3.87150877,15.6689825 3.87129825,15.6665263 C3.86378947,15.550386 3.85866667,15.433614 3.85866667,15.3155789 L3.85866667,14.7677895 C7.85108772,14.6248421 9.70554386,12.8687719 10.454386,11.8393684 C11.1787368,12.7 12.6608421,14.1744561 14.6480702,14.6767018 L14.6480702,15.3155789 C14.6480702,15.433614 14.6428772,15.550386 14.6354386,15.6665263 C14.6352281,15.6690526 14.6350877,15.6715789 14.6348772,15.6741053 C14.4495439,18.4820351 12.1074386,20.7102456 9.25340351,20.7102456 C6.39929825,20.7102456 4.05719298,18.4820351 3.87185965,15.6740351 Z M9.25333333,22.9213333 C8.56926316,22.9213333 7.96954386,22.5082807 7.70842105,21.9074386 C8.21185965,21.8121404 8.72835088,21.7628772 9.25333333,21.7628772 C9.77691228,21.7628772 10.2934737,21.8122807 10.7977544,21.9083509 C10.5364211,22.5087018 9.93705263,22.9213333 9.25333333,22.9213333 Z M26.6778246,22.9213333 C25.9940351,22.9213333 25.3944561,22.5085614 25.1331228,21.908 C25.6370526,21.8122807 26.153614,21.762807 26.6778246,21.762807 C27.2018246,21.762807 27.7180351,21.8138246 28.2213333,21.9103158 C27.9595088,22.509614 27.3607018,22.9213333 26.6778246,22.9213333 Z M21.2830877,15.3155088 L21.2830877,14.7677193 C25.2755088,14.6247719 27.1300351,12.8687018 27.878807,11.8392982 C28.6031579,12.6999298 30.0853333,14.174386 32.0724912,14.6766316 L32.0724912,15.3155088 C32.0724912,18.2901754 29.6524912,20.7101754 26.6778246,20.7101754 C23.7031579,20.7101754 21.2830877,18.2901754 21.2830877,15.3155088 Z M11.4684211,32.0762807 C10.9906667,32.0762807 10.6019649,31.6875789 10.6019649,31.2098246 C10.6019649,30.8106667 10.873614,30.4746667 11.2414035,30.3745263 C11.3377544,30.9547368 11.509193,31.5098246 11.7458246,32.0292632 C11.6572632,32.0595789 11.564,32.0762807 11.4684211,32.0762807 Z M17.8008421,34.8785263 C14.7145263,34.8785263 12.2036491,32.3676491 12.2036491,29.2813333 C12.2036491,26.1950175 14.7145263,23.6841404 17.8008421,23.6841404 C20.8871579,23.6841404 23.3980351,26.1950175 23.3980351,29.2813333 C23.3980351,32.3676491 20.8871579,34.8785263 17.8008421,34.8785263 Z M24.1332632,32.0762807 C24.0377544,32.0762807 23.9444912,32.0595789 23.8559298,32.0292632 C24.0925614,31.5098246 24.264,30.9546667 24.3603509,30.3745263 C24.7281404,30.4746667 24.9997895,30.8107368 24.9997895,31.2098246 C24.9997895,31.6875789 24.6110877,32.0762807 24.1332632,32.0762807 Z" id="Shape"></path>
                        <path d="M15.3541053,29.0572632 C14.8835789,29.0572632 14.5007719,29.4400702 14.5007719,29.9105965 C14.5007719,30.3811228 14.8835789,30.7638596 15.3541053,30.7638596 C15.8246316,30.7638596 16.2074386,30.3810526 16.2074386,29.9105965 C16.2074386,29.44 15.8247018,29.0572632 15.3541053,29.0572632 Z" id="Path"></path>
                        <path d="M20.2475789,29.0572632 C19.7770526,29.0572632 19.3943158,29.4400702 19.3943158,29.9105965 C19.3943158,30.3811228 19.7770526,30.7638596 20.2475789,30.7638596 C20.7181053,30.7638596 21.1009123,30.3810526 21.1009123,29.9105965 C21.1009123,29.44 20.7181053,29.0572632 20.2475789,29.0572632 Z" id="Path"></path>
                        <path d="M16.5919298,5.07642105 C17.4114386,5.78231579 18.2610526,6.19894737 18.2968421,6.21635088 C18.4408421,6.28638596 18.6131228,6.28638596 18.7571228,6.21635088 C18.7929123,6.19894737 19.6425263,5.78231579 20.4620351,5.07642105 C21.6205614,4.07845614 22.154807,2.98035088 22.0071579,1.90070175 C21.8302456,0.607929825 20.9124912,0.0755087719 20.1125614,0.00828070175 C19.5055439,-0.0429473684 18.930807,0.148491228 18.5270175,0.499368421 C18.1232982,0.148491228 17.5483509,-0.0428070175 16.9414737,0.00828070175 C16.1415439,0.0755087719 15.2237895,0.607929825 15.0469474,1.90070175 C14.8991579,2.98035088 15.4334737,4.07845614 16.5919298,5.07642105 Z M16.0897544,2.04336842 C16.1990175,1.24484211 16.7254737,1.08273684 17.0295439,1.05719298 C17.0636491,1.05431579 17.097614,1.05287966 17.1313684,1.05287966 C17.5492632,1.05287966 17.9305263,1.26736842 18.0247018,1.56778947 C18.0934737,1.78729825 18.2968421,1.93670175 18.5269474,1.93670175 C18.7569825,1.93670175 18.9604211,1.78729825 19.029193,1.56778947 C19.1308772,1.24308772 19.5682105,1.01859649 20.0243509,1.05719298 C20.3284211,1.08273684 20.8549474,1.24484211 20.9642105,2.04336842 C21.1493333,3.39677193 19.4390877,4.6442807 18.5270175,5.14926316 C17.6145263,4.64385965 15.9046316,3.3965614 16.0897544,2.04336842 Z" id="Shape"></path>
                    </g>
                </g>
            </g>
        </g>
    </g>
</svg>