<?xml version="1.0" encoding="UTF-8"?>
<svg width="64px" height="64px" viewBox="0 0 64 64" version="1.1" xmlns="http://www.w3.org/2000/svg" xmlns:xlink="http://www.w3.org/1999/xlink">
    <!-- Generator: sketchtool 61.2 (101010) - https://sketch.com -->
    <title>8D188833-3E81-474C-A635-8121373EBA14</title>
    <desc>Created with sketchtool.</desc>
    <g id="Proceso-E-Commerce-Propuesta" stroke="none" stroke-width="1" fill="none" fill-rule="evenodd">
        <g id="Oncosalud_Wireframes_Desktop_FiltroSelectedPreguntas4" transform="translate(-768.000000, -248.000000)">
            <g id="Afiliarme-con-seres-queridos" transform="translate(744.000000, 240.000000)">
                <g id="icon_nohetenido_enfermedad_onco" transform="translate(24.000000, 8.000000)">
                    <circle id="Oval" fill-opacity="0.1" fill="#30C7DB" cx="32" cy="32" r="32"></circle>
                    <g id="lung-cancer-copy" transform="translate(11.789474, 11.789474)" fill-rule="nonzero">
                        <path d="M21.9082614,6.98789147 C20.582918,6.95525522 19.4875827,8.01422448 19.4875827,9.34018944 L19.4875827,23.8319363 C19.4875827,24.1054594 19.5099618,24.3736984 19.5513012,24.6354103 L31.3143451,18.4550333 C30.3790828,12.6128303 27.8999696,7.13491015 21.9082614,6.98789147 Z" id="Path" fill="#FFFFFF"></path>
                        <path d="M10.4877429,6.98789147 C0.0500422599,7.24400848 0.304294379,23.7290544 0.782337981,30.0200839 C0.858178455,31.0153347 2.04800359,31.4859186 2.78527246,30.812679 C4.16127976,29.5563381 5.95751788,28.859476 7.82120428,28.859476 C10.6266801,28.859476 12.9009618,26.5851942 12.9009618,23.7797183 C12.9009618,22.3542904 12.9009618,11.3505837 12.9009618,9.3330406 C12.9009618,8.0111163 11.8093563,6.95525522 10.4877429,6.98789147 Z" id="Path" fill="#FFFFFF"></path>
                        <path d="M28.0187035,18.3655167 C27.3787218,18.0071394 26.2594532,17.3799013 25.5597937,16.9879553 C25.3011901,16.8431124 25.3176637,16.465775 25.5877677,16.3433112 L27.2130539,15.6075965 C27.7302611,15.3735478 27.9596474,14.7646483 27.7255987,14.247752 C27.4915501,13.7305448 26.8826505,13.5011584 26.3654433,13.7352071 L22.8749167,15.3151133 C22.7701697,15.3623582 22.6492601,15.3573851 22.5491756,15.3011264 L17.4162674,12.4257156 C17.3021959,12.3616864 17.2316394,12.2410876 17.2316394,12.1102317 L17.2316394,1.71697859 C17.2316394,1.16371612 16.8064355,0.687537409 16.2534838,0.661428393 C15.6632335,0.63376529 15.1761761,1.10403837 15.1761761,1.6880722 L15.1761761,12.1102317 C15.1761761,12.2410876 15.1053088,12.3616864 14.9912373,12.4257156 L9.85863997,15.3011264 C9.75824457,15.3573851 9.63733498,15.362669 9.53258804,15.3151133 L6.04206136,13.7352071 C5.50993476,13.4943204 4.88052101,13.7445317 4.662635,14.2937536 C4.45842522,14.8078525 4.716718,15.3915755 5.22087062,15.6197185 L6.819737,16.3433112 C7.08984096,16.465775 7.10600376,16.8434233 6.84740018,16.9882661 L4.35336756,18.3854093 C3.87035073,18.6561349 3.66303269,19.2603721 3.91106838,19.7555109 C4.1758884,20.2835968 4.82395144,20.4781712 5.3327664,20.192837 L15.211299,14.6583473 C15.827969,14.3130245 16.5798465,14.3130245 17.1965166,14.6583473 L25.1802805,19.1313811 C26.0717169,18.7528004 27.0243852,18.4910886 28.0187035,18.3655167 Z" id="Path" fill="#FFFFFF"></path>
                        <path d="M29.3769939,39.8286815 C23.4362604,39.8286815 18.6029844,34.9954055 18.6029844,29.0543611 C18.6029844,23.1136277 23.4362604,18.2800407 29.3769939,18.2800407 C35.3180383,18.2800407 40.1513143,23.1136277 40.1513143,29.0543611 C40.1516252,34.9954055 35.3180383,39.8286815 29.3769939,39.8286815 Z" id="Path" fill="#FFFFFF"></path>
                        <path d="M29.3769939,20.1536734 C24.4691207,20.1536734 20.4766171,24.1467987 20.4766171,29.0543611 C20.4766171,33.9622344 24.4694315,37.9550489 29.3769939,37.9550489 C34.2848672,37.9550489 38.2776817,33.9622344 38.2776817,29.0543611 C38.2779925,24.1467987 34.2848672,20.1536734 29.3769939,20.1536734 L29.3769939,20.1536734 Z" id="Path" fill="#FFFFFF"></path>
                        <g id="biceps" transform="translate(22.736842, 21.894737)">
                            <path d="M4.69499307,8.1409396 C4.69499307,8.1409396 3.12143796,6.57796202 1.406475,7.62600741 C-0.286435064,8.66055732 -0.16859519,11.9406583 1.67394346,12.7583267 C3.03667742,13.3630978 7.20472986,13.344552 8.17811527,13.0495876 C9.21266519,12.7360774 13.9337514,10.8403425 14.0403123,8.92235824 C14.1468732,7.00437402 10.6129676,1.5798399 9.0322299,0.717616772 C8.25083931,0.291401173 6.52336288,0.045059723 5.94213173,0.362441782 C5.43948856,0.636896459 5.15016361,2.87734108 5.58695674,3.34597903 C5.96222062,3.74862666 6.86560354,3.52358056 7.32733944,3.02632435 C7.78907535,2.52906814 8.10875809,3.34597903 9.0677502,3.23944618 C9.85710901,3.15173964 8.99670959,6.54263811 9.8846611,7.82131297 C9.8846611,7.82125685 7.28783503,5.90327263 4.69499307,8.1409396 Z" id="Path" fill="#FFFFFF"></path>
                            <g id="Group" fill="#30C7DB" stroke="#30C7DB" stroke-width="0.5">
                                <path d="M13.1046637,5.61175923 C13.0495876,5.50940688 12.9219277,5.47113698 12.8196315,5.52618503 C12.7172791,5.5812892 12.6789812,5.70889295 12.7340853,5.81121724 C13.4647487,7.16867647 13.864282,8.29862057 13.8302487,8.91135986 C13.7895378,9.64390301 12.9329822,10.5063787 11.3531704,11.4054408 C10.0389472,12.1533592 8.6054251,12.7008938 8.11711911,12.848867 C7.76239303,12.9563819 6.91736891,13.0290217 5.91183005,13.038477 C5.79561749,13.0395712 5.70229953,13.1346848 5.70338423,13.2508693 C5.70448799,13.3664085 5.79847931,13.4593337 5.91376599,13.4593337 C5.91443936,13.4593337 5.91511273,13.4593337 5.9157861,13.4593337 C6.97435291,13.4493734 7.84291695,13.3717393 8.23916755,13.2516549 C8.83524091,13.0709952 10.2642738,12.5093759 11.561298,11.7712214 C13.2959571,10.7840318 14.2007148,9.82969721 14.250432,8.93470337 C14.3001773,8.03999011 13.6548076,6.63382373 13.1046637,5.61175923 Z" id="Path"></path>
                                <path d="M5.07746763,13.0316591 C3.56903308,12.9931367 2.32862813,12.8193229 1.75934931,12.5666686 C1.00685755,12.2327609 0.496919523,11.3772714 0.428572397,10.334108 C0.357251216,9.24591287 0.7841963,8.25367308 1.51629054,7.80627436 C2.16233362,7.41145467 2.86306001,7.3687798 3.5991103,7.67951232 C3.93806828,7.8226036 4.20909999,8.01184882 4.37309382,8.14169714 L3.81296162,8.57736799 C3.72121486,8.64871722 3.70468922,8.78092234 3.77606651,8.87264104 C3.8464057,8.96309717 3.98079927,8.97998755 4.07133957,8.90953614 L4.82888161,8.32033678 C4.85110285,8.30305359 4.86880688,8.2821791 4.88199373,8.25920033 C5.88784122,7.41201581 7.00507545,7.10436957 8.20398393,7.34554851 C9.12470614,7.53080962 9.75369049,7.98679382 9.75966666,7.99122684 C9.84251931,8.05241941 9.95744125,8.04461953 10.0313156,7.97290555 C10.1051619,7.90116351 10.1162726,7.78652215 10.057549,7.70192995 C9.63747793,7.09704666 9.64454832,5.8930879 9.65024392,4.92570671 C9.65602368,3.94373582 9.64628787,3.376421 9.37943667,3.13616795 C9.28732517,3.05325918 9.17144929,3.01689716 9.04457503,3.03098183 C8.65261716,3.07441424 8.38430699,2.93931924 8.14750496,2.82007651 C7.86971149,2.68015569 7.52399175,2.50606131 7.17319367,2.88379422 C6.92211056,3.15420867 6.50021576,3.34331361 6.14722922,3.34365029 C6.1469206,3.34365029 6.14661197,3.34365029 6.1463314,3.34365029 C6.02088805,3.34365029 5.84909434,3.31921255 5.74096223,3.20319639 C5.5947005,3.0462449 5.5201247,2.40946067 5.64857016,1.61552855 C5.75875044,0.934470196 5.94900572,0.599159642 6.04305317,0.547815126 C6.52372762,0.285284722 8.17039957,0.487885133 8.93153292,0.903018173 C9.7219579,1.33414377 11.1468384,3.08959314 12.3196257,5.07701872 C12.378742,5.1771265 12.5077486,5.21040223 12.6078003,5.15128589 C12.70788,5.09225373 12.7411557,4.96321907 12.6820675,4.86313935 C11.6788293,3.16304666 10.1402894,1.08300455 9.1330391,0.53359017 C8.73272022,0.315221661 8.0991345,0.135571969 7.43824921,0.0530840573 C7.0226392,0.00115034162 6.2625159,-0.0515128589 5.84135058,0.178443237 C5.47234344,0.37994942 5.30186842,1.12323845 5.23310044,1.54833177 C5.12325684,2.22725778 5.10973331,3.14321028 5.43306348,3.49013648 C5.60062055,3.66992646 5.84752315,3.76366527 6.14759397,3.76450698 C6.61583912,3.76405807 7.15192637,3.52523593 7.48156939,3.17017317 C7.60793863,3.03406811 7.66430537,3.04795638 7.95817556,3.1959296 C8.21848946,3.32704048 8.57503925,3.50657795 9.09100955,3.44922921 C9.09420806,3.44886447 9.0965368,3.44883641 9.09782743,3.44883641 C9.10930279,3.45851611 9.17391832,3.52734021 9.20691348,3.87112401 C9.23387637,4.15239657 9.23168791,4.52679068 9.22935917,4.92320963 C9.22461752,5.7311703 9.2193989,6.61979517 9.42463668,7.31527488 C9.13651818,7.17731806 8.75407168,7.02881176 8.30448451,6.93653192 C7.40163468,6.75124275 6.05604361,6.76894679 4.69931387,7.86395978 C4.52454611,7.71853977 4.20040229,7.47876368 3.77657154,7.29762696 C2.91608795,6.9299385 2.05857842,6.98156359 1.29679975,7.44714331 C0.848222632,7.72131742 0.492037586,8.15547318 0.266738971,8.70275522 C0.0597055359,9.20570702 -0.0295441397,9.77930664 0.0086135336,10.361632 C0.0872576205,11.5614383 0.692673999,12.5537342 1.58864984,12.9513596 C2.47814448,13.3460951 4.31728822,13.4332686 5.06672176,13.4524597 C5.06854547,13.4524597 5.07036918,13.4524597 5.07219289,13.4524597 C5.18590837,13.4524597 5.27953496,13.361751 5.2824529,13.2473902 C5.28542695,13.1312338 5.19365213,13.0346612 5.07746763,13.0316591 Z" id="Path"></path>
                                <path d="M2.88881644,5.86578833 C2.94641769,5.89376127 3.01524179,5.89376127 3.07284304,5.86578833 C3.08833057,5.85824096 3.45632766,5.6779179 3.8331908,5.36934577 C3.92311384,5.29575197 3.93632874,5.16315405 3.86270688,5.07323101 C3.78908502,4.98330796 3.6564871,4.970065 3.56659211,5.04371492 C3.33492453,5.23338101 3.10300444,5.37114143 2.97960926,5.4392641 C2.52561712,5.19362408 1.63199808,4.55277157 1.72899151,3.84376833 C1.78976322,3.39956812 2.10492877,3.32566568 2.23761085,3.31452701 C2.48487819,3.29370863 2.7231953,3.41954478 2.78003901,3.60099013 C2.80753498,3.68875278 2.8888445,3.74848637 2.98084377,3.74848637 C3.07281498,3.74848637 3.15415255,3.68875278 3.18164852,3.60099013 C3.23849224,3.41954478 3.47680935,3.29368058 3.72407668,3.31452701 C3.85675877,3.32569374 4.17192432,3.39956812 4.23269602,3.84376833 C4.26064091,4.04810828 4.21025033,4.25999559 4.08295521,4.47351022 C4.02344608,4.57333743 4.05610456,4.70248432 4.15593176,4.76199346 C4.25575897,4.82153065 4.38490586,4.78887217 4.44444305,4.68901691 C4.62182012,4.39149928 4.69089673,4.08792132 4.64968083,3.78670016 C4.56635121,3.17749607 4.13511339,2.9267216 3.75934448,2.89512929 C3.456496,2.86951315 3.17098682,2.97169715 2.98087183,3.15505038 C2.79078489,2.97169715 2.50513542,2.86951315 2.20237112,2.89512929 C1.82660221,2.9267216 1.39536439,3.17752413 1.31203476,3.78670016 C1.14557191,5.00334074 2.81757943,5.83113779 2.88881644,5.86578833 Z" id="Path"></path>
                            </g>
                        </g>
                        <path d="M31.8256466,17.9278799 C30.772583,11.8429252 28.0367311,6.51792919 21.9147886,6.36749161 C20.2422576,6.32801725 18.8827239,7.66175273 18.8827239,9.31656708 L18.8827239,12.5441387 L17.8200247,11.9486044 L17.8200247,8.35612825 C17.8200247,8.02634654 17.553029,7.75935076 17.2232472,7.75935076 C16.8937763,7.75935076 16.6264697,8.02634654 16.6264697,8.35612825 L16.6264697,12.0866093 C16.6264697,12.4331753 16.814206,12.7533216 17.1166354,12.9227194 L22.2492328,15.798441 C22.5137419,15.9467029 22.8366856,15.960379 23.113006,15.8354288 L26.6035327,14.2555225 C26.8195538,14.1573028 27.0756708,14.2536575 27.1738903,14.4703002 C27.27211,14.6872537 27.1748228,14.9427491 26.9588019,15.040347 L25.3338264,15.7760618 C24.6192476,16.0996271 24.5748,17.1010944 25.2601617,17.4852699 C25.6822575,17.7214943 25.4528711,17.5931249 26.3154011,18.0764525 C25.9657268,18.1740506 25.5781322,18.3024199 25.212606,18.4463303 L17.4799859,14.1140986 C16.6877016,13.6702454 15.7036404,13.6705562 14.9113561,14.1140986 L5.03251276,19.6485883 C4.81866749,19.7682546 4.54794185,19.6868193 4.43635687,19.4645819 C4.33502906,19.262237 4.42485649,19.0011469 4.63683687,18.8824131 L7.13086949,17.4852699 C7.45567806,17.3031284 7.63502211,16.9615354 7.61979187,16.6081312 C7.60425075,16.2438483 7.38791891,15.925567 7.05751551,15.7760618 L5.45896002,15.0524691 C5.23765503,14.9523845 5.12575925,14.6999974 5.20905944,14.4901928 C5.30137344,14.2573874 5.56557177,14.1545055 5.78780924,14.2552117 L9.278336,15.8351179 C9.55434559,15.9600682 9.87728919,15.9467029 10.1417984,15.7981302 C13.934133,13.6736644 14.116896,13.5710933 15.2747066,12.9227194 C15.5768252,12.7533216 15.7645614,12.4328645 15.7645614,12.0866093 L15.7645614,1.66444976 C15.7645614,1.54540506 15.8121171,1.43475257 15.8982147,1.35238486 C15.9843122,1.27032795 16.0983838,1.22898862 16.2171177,1.23396177 C16.4427741,1.24452974 16.6264697,1.45060449 16.6264697,1.69335615 L16.6264697,5.5708558 C16.6264697,5.90063751 16.8934655,6.16763329 17.2232472,6.16763329 C17.553029,6.16763329 17.8200247,5.90063751 17.8200247,5.5708558 L17.8200247,1.69335615 C17.8200247,0.808136195 17.1405687,0.0826785094 16.2733764,0.041650136 C15.8257933,0.020825068 15.3987244,0.179344051 15.0742266,0.488922378 C14.7543911,0.793838361 14.5710064,1.22246139 14.5710064,1.66413888 L14.5710064,11.9486044 L13.4893472,12.5547066 L13.4893472,9.30910736 C13.4893472,7.6449684 12.1145832,6.32397651 10.4647421,6.36749161 C3.69349325,6.534092 1.1018626,13.0364801 0.307402556,19.7928095 C-0.14826189,23.6650252 -0.013676151,27.5033613 0.179033249,30.0415306 C0.231562082,30.7312438 0.663604164,31.3177642 1.30669406,31.5729487 C1.94978396,31.8278224 2.66747113,31.6969664 3.17939426,31.2298016 C4.44847893,30.0710586 6.09427939,29.432631 7.81281207,29.432631 C10.9430966,29.432631 13.489658,26.8860696 13.489658,23.7560959 L13.489658,16.2786603 L15.4947683,15.1553511 C15.9271211,14.913221 16.4642208,14.913221 16.8962629,15.1553511 L18.8827239,16.2680924 L18.8827239,23.8080031 C18.8827239,24.0464033 18.8985757,24.2872901 18.9290363,24.5263119 C18.3303939,25.9082247 17.9978147,27.4312507 17.9978147,29.0307387 C17.9978147,35.3006323 23.0987082,40.4018366 29.3689126,40.4018366 C35.6388062,40.4018366 40.7400105,35.3006323 40.7400105,29.0307387 C40.7400105,23.6041041 36.9187696,19.0536757 31.8256466,17.9278799 L31.8256466,17.9278799 Z M12.2957922,23.7560959 C12.2957922,26.2280602 10.2847763,28.239076 7.81281207,28.239076 C5.79557984,28.239076 3.8641343,28.9881561 2.37436632,30.3483115 C2.20030622,30.5071414 1.96594668,30.5503455 1.74650667,30.4633155 C1.52799905,30.3765962 1.38688608,30.1851301 1.36916919,29.9510815 C0.69157807,21.0364068 1.57213568,7.77986502 10.4942702,7.56073573 C11.4761556,7.53524839 12.296103,8.31789718 12.296103,9.30910736 L12.296103,13.2232839 L9.66220071,14.6987541 L6.28015068,13.1679576 C5.45336519,12.7934176 4.44972222,13.1679576 4.09973712,14.0497585 C3.77959082,14.8566515 4.16034728,15.7748185 4.96692938,16.1397231 L6.14152428,16.6715389 L4.05373544,17.8411606 C3.28072215,18.2741351 2.97984683,19.2221411 3.36930629,19.9991951 C3.79357777,20.8458732 4.82519473,21.1333831 5.61623571,20.6898407 L12.296103,16.9475484 L12.296103,23.7560959 L12.2957922,23.7560959 Z M26.2501286,16.6715389 L27.4511433,16.1279119 C28.265185,15.7592775 28.6307113,14.794798 28.2611444,13.9776479 C27.8915775,13.1617412 26.9274088,12.7983908 26.1111913,13.1676468 L22.7288305,14.6987541 L20.0762788,13.2127159 L20.0762788,9.3162562 C20.0762788,8.32722186 20.8909423,7.53742408 21.8855714,7.56073573 C26.4201479,7.6720099 29.3421819,11.0901152 30.5780086,17.7236701 C29.7819945,17.6385049 28.9614254,17.6372616 28.1340184,17.7267783 L26.2501286,16.6715389 Z M20.0762788,16.9369806 C20.521997,17.1865703 23.4403012,18.8214919 23.8866409,19.0713926 C22.4061977,19.8894751 21.0932872,21.0376501 20.0762788,22.4801732 L20.0762788,16.9369806 Z M29.3689126,39.2082816 C23.7570284,39.2082816 19.1913697,34.6426229 19.1913697,29.0307387 C19.1913697,23.4191652 23.75765,18.8531958 29.3689126,18.8531958 C34.9612151,18.8531958 39.5464555,23.4008268 39.5464555,29.0307387 C39.5464555,34.6426229 34.9807969,39.2082816 29.3689126,39.2082816 Z" id="Shape" fill="#30C7DB"></path>
                    </g>
                </g>
            </g>
        </g>
    </g>
</svg>