<svg xmlns="http://www.w3.org/2000/svg" width="64" height="64" viewBox="0 0 64 64">
    <g fill="none" fill-rule="evenodd">
        <circle cx="32" cy="32" r="32" fill="#30C7DB" fill-opacity=".1"/>
        <g fill-rule="nonzero" transform="translate(18.087 9.74)">
            <ellipse cx="3.185" cy="3.173" fill="#FFF" stroke="#30C7DB" stroke-width="1.391" rx="2.986" ry="1.444" transform="rotate(-45 23.549 11.608)"/>
            <ellipse cx="25.843" cy="20.045" fill="#FFF" stroke="#30C7DB" stroke-width="1.391" rx="1.444" ry="2.986" transform="rotate(-45 25.843 20.045)"/>
            <path fill="#FFF" stroke="#30C7DB" stroke-width="1.391" d="M27.455 10.907c0 6.024-5.793 10.907-12.938 10.907-.482 0-.958-.023-1.427-.066-6.473-.599-11.509-5.224-11.509-10.84C1.581 4.882 7.373 0 14.517 0c7.145 0 12.938 4.883 12.938 10.907zM18.025 38.93l-.297 1.16-.599 2.336-2.611 1.052-1.167-.47-1.444-.582-.599-2.336-.297-1.16 1.762-.945 1.904-1.021z"/>
            <path fill="#30C7DB" d="M14.518 37.312h1.211v5.402h-1.211z"/>
            <path fill="#FFF" stroke="#30C7DB" stroke-width="1.391" d="M9.626 44.522h4.892v-2.097h-2.796a2.096 2.096 0 0 0-2.096 2.097zM19.41 44.522h-4.892v-2.097h2.796c1.157 0 2.096.939 2.096 2.097zM23.919 36.28c-.345.344-1.005.382-1.602.327-.655-.06-1.232-.233-1.232-.233l-1.778-.989-.478-3.752-.416-3.278 1.906.33 1.262.217 1.947.337.391 4.459s.724 1.858 0 2.581zM5.509 29.24l-.392 4.458s-.724 1.857 0 2.581 2.835.095 2.835.095l2.596-7.661-3.813-.715-1.226 1.241z"/>
            <path fill="#FFF" stroke="#30C7DB" stroke-width="1.391" d="M20.89 38.93H8.145c-.451-2.817-.301-5.118-.043-6.699l2.206-.622 4.35-1.229 6.276 1.851c.257 1.581.408 3.882-.044 6.7z"/>
            <path fill="#FFF" stroke="#30C7DB" stroke-width="1.391" d="M20.334 29.838h-.005s.35.859.6 2.393H8.096c.242-1.486.579-2.338.6-2.39v-.002l-1.332-.25-1.861-.35c.884-4.608 2.991-6.313 3.435-6.626h11.149c.444.314 2.551 2.018 3.435 6.626l-1.767.332-1.421.267z"/>
            <ellipse cx="14.518" cy="22.936" fill="#FFF" stroke="#30C7DB" stroke-width="1.391" rx="3.454" ry="2.508"/>
            <path fill="#FFF" stroke="#30C7DB" stroke-width="1.391" d="M23.736 17.932a5.171 5.171 0 0 1-4.925 4.903 90.588 90.588 0 0 1-6.762.067h-.001a88.012 88.012 0 0 1-1.823-.067A5.172 5.172 0 0 1 5.3 17.932c-.097-1.895-.032-9.208-.032-9.208s1.564.854 4.012 1.023c2.497.172 5.916-.368 9.528-3.257 0 0 2.332 3.409 4.973 4.31.012 2.312.019 5.888-.045 7.132z"/>
            <path fill="#30C7DB" d="M10.217 12.302c-.466 0-.844.563-.844 1.255s.378 1.255.844 1.255c.465 0 .844-.563.844-1.255s-.379-1.255-.844-1.255zM18.82 12.302c-.466 0-.844.563-.844 1.255s.378 1.255.844 1.255c.465 0 .844-.563.844-1.255s-.379-1.255-.844-1.255zM14.518 19.023a2.777 2.777 0 0 1-2.497-1.579.672.672 0 1 1 1.214-.576c.234.493.738.812 1.283.812.546 0 1.05-.319 1.283-.812a.672.672 0 0 1 1.214.576 2.777 2.777 0 0 1-2.497 1.58z"/>
            <ellipse cx="20.267" cy="16.588" fill="#30C7DB" rx="1.37" ry="1"/>
            <ellipse cx="8.769" cy="16.588" fill="#30C7DB" rx="1.37" ry="1"/>
        </g>
    </g>
</svg>
