<svg xmlns="http://www.w3.org/2000/svg" width="64" height="64" viewBox="0 0 64 64">
    <g fill="none" fill-rule="evenodd">
        <circle cx="32" cy="32" r="32" fill="#30C7DB" fill-opacity=".1"/>
        <g fill-rule="nonzero">
            <path fill="#30C7DB" d="M49.89 37.053a.6.6 0 0 0-.49-.253H44V19.4a.6.6 0 0 0-.6-.6h-1.8V17a.6.6 0 0 0-.6-.6H26.6a2.4 2.4 0 0 0-4.8 0H20a.6.6 0 0 0-.6.6v19.8h-4.8a.6.6 0 0 0-.525.89l6.6 12a.6.6 0 0 0 .525.31h24a.572.572 0 0 0 .563-.403h.004l4.2-12a.6.6 0 0 0-.078-.544zM41.6 41.6V20h1.2v23.792L41.595 41.6h.005zM24.2 15.2a1.2 1.2 0 0 1 1.2 1.2H23a1.2 1.2 0 0 1 1.2-1.2zm-3.6 2.4h4.8v1.8a.6.6 0 0 1-1.2 0v-.6H23v.6a1.8 1.8 0 1 0 3.6 0v-1.8h13.8v21.828l-1.274-2.317a.6.6 0 0 0-.526-.311h-18V17.6zm.955 31.2L15.615 38h22.63l5.94 10.8h-22.63zm23.525-.867L44 45.973V38h4.554l-3.474 9.933z"/>
            <g stroke="#30C7DB" stroke-linecap="round" stroke-linejoin="round">
                <path fill="#FFF" d="M31.061 19.024a2.467 2.467 0 0 0-2.161 2.392c0 .115 0 .23.023.345.115.92.759 1.747 2.276 1.747 2.185 0 3.15 1.219 3.311 2.598a3.054 3.054 0 0 1-.46 2.024c1.495-1.035 2.392-2.828 2.139-4.76-.368-2.874-3.058-4.598-5.128-4.346"/>
                <path d="M30.869 29.305c1.218-.16 2.138-1.195 2.161-2.391 0-.115 0-.23-.023-.345-.115-.92-.759-1.747-2.276-1.747-2.184 0-3.15-1.196-3.31-2.599a3.055 3.055 0 0 1 .46-2.023c-1.495 1.035-2.391 2.828-2.139 4.76.368 2.874 3.058 4.598 5.127 4.345"/>
            </g>
            <path fill="#30C7DB" d="M44 16.4h-1.2v1.2H44a1.2 1.2 0 0 1 1.2 1.2v8.4h1.2v-8.4a2.4 2.4 0 0 0-2.4-2.4zM45.2 28.4h1.2v1.2h-1.2zM17 26h1.2v8.4H17zM17 23.6h1.2v1.2H17zM22.4 31.4h16.2v1.2H22.4zM22.4 33.8h13.8V35H22.4zM37.898 19.4h1.234v1.2h-1.234zM38 21.8h1.2V23H38z"/>
        </g>
    </g>
</svg>
