<svg xmlns="http://www.w3.org/2000/svg" width="17" height="29" viewBox="0 0 17 29">
    <g fill="none" fill-rule="evenodd">
        <path d="M7.968 6.448a3.445 3.445 0 0 0-3.44-3.441 3.445 3.445 0 0 0-3.44 3.44c0 .965.399 1.837 1.04 2.463l-.002-2.008c-.001-.67.23-1.256.67-1.696a2.429 2.429 0 0 1 1.713-.691c.607 0 1.18.212 1.615.598.495.44.768 1.073.769 1.783l.002 2.044a3.43 3.43 0 0 0 1.073-2.492z"/>
        <path fill="#30C7DB" fill-rule="nonzero" d="M1.087 6.448a3.445 3.445 0 0 1 3.44-3.441 3.445 3.445 0 0 1 3.441 3.44A3.43 3.43 0 0 1 6.896 8.94v1.048a2.938 2.938 0 0 1 .306.011 4.443 4.443 0 0 0 1.773-3.551A4.453 4.453 0 0 0 4.528 2 4.453 4.453 0 0 0 .08 6.448c0 1.57.818 2.95 2.05 3.742l-.002-1.28a3.43 3.43 0 0 1-1.04-2.462z"/>
        <g fill-rule="nonzero">
            <path fill="#30C7DB" d="M16.762 7.365l-2.154-2.153a.562.562 0 0 0-.796.795l1.143 1.143h-5.39a.563.563 0 0 0 0 1.124h5.492l-1.19 1.19a.562.562 0 1 0 .796.796l2.1-2.1a.562.562 0 0 0-.001-.795zM9.167 2.365L11.32.212a.562.562 0 0 1 .795.795L10.974 2.15h5.39a.563.563 0 0 1 0 1.125h-5.493l1.19 1.19a.562.562 0 1 1-.796.795l-2.098-2.1a.562.562 0 0 1 0-.795z"/>
            <path fill="#FFF" d="M15.35 16.98c-.362-2.143-1.905-2.434-2.57-2.458a.569.569 0 0 1-.46-.265c-.503-.792-1.185-1.001-1.764-1.001a2.77 2.77 0 0 0-.701.095.643.643 0 0 1-.696-.241 2.003 2.003 0 0 0-1.695-.871c-.149 0-.29.013-.42.033a.655.655 0 0 1-.757-.646L6.282 7.66c-.001-1.024-.77-1.536-1.538-1.536-.77 0-1.54.514-1.538 1.54l.01 8.448a.652.652 0 0 1-.4.602c-3.05 1.275.716 6.996 1.391 7.976a.655.655 0 0 1 .114.322l.165 2.175c.025.342.31.587.654.587l7.371.01a.647.647 0 0 0 .65-.56l.3-2.282a.648.648 0 0 1 .1-.268c1.971-3.045 2.126-5.708 1.79-7.695z"/>
            <path fill="#30C7DB" d="M14.804 14.021a3.768 3.768 0 0 0-1.697-.603c-.622-.832-1.518-1.287-2.55-1.287-.227 0-.458.022-.69.065a3.128 3.128 0 0 0-2.456-1.082L7.407 7.66c-.001-.794-.306-1.501-.86-1.992A2.705 2.705 0 0 0 4.744 5c-.727 0-1.424.281-1.914.771-.491.492-.75 1.147-.75 1.895l.007 4.986.004 3.163a2.861 2.861 0 0 0-1.432 1.758c-.351 1.194-.071 2.733.856 4.703a22.902 22.902 0 0 0 1.693 2.947l.156 2.07c.07.923.85 1.647 1.776 1.647l7.373-.01a1.786 1.786 0 0 0 1.763-1.549l.287-2.18c1.74-2.73 2.379-5.558 1.897-8.408-.262-1.551-1.045-2.363-1.656-2.772zm-1.343 10.927l-.3 2.287a.638.638 0 0 1-.65.55l-7.37-.01H5.14a.639.639 0 0 1-.654-.587l-.165-2.185a.638.638 0 0 0-.114-.317c-.675-.98-4.442-6.698-1.391-7.974a.65.65 0 0 0 .4-.6l-.01-8.448c-.002-1.026.768-1.54 1.538-1.54.768 0 1.537.513 1.538 1.537l.005 3.965a.655.655 0 0 0 .756.646c.13-.02.272-.033.42-.033.554 0 1.2.185 1.695.87a.643.643 0 0 0 .697.242c.194-.051.437-.095.701-.095.579 0 1.26.209 1.764 1.001.1.16.272.258.46.265.665.024 2.208.315 2.57 2.458.337 1.987.182 4.652-1.788 7.697a.66.66 0 0 0-.1.271z"/>
        </g>
    </g>
</svg>
