<?xml version="1.0" encoding="UTF-8"?>
<svg width="54px" height="54px" viewBox="0 0 54 54" version="1.1" xmlns="http://www.w3.org/2000/svg" xmlns:xlink="http://www.w3.org/1999/xlink">
    <!-- Generator: sketchtool 61.2 (101010) - https://sketch.com -->
    <title>66D7C23A-47A6-48EB-9E29-1EF9B643B199</title>
    <desc>Created with sketchtool.</desc>
    <g id="Proceso-E-Commerce-Propuesta" stroke="none" stroke-width="1" fill="none" fill-rule="evenodd">
        <g id="Oncosalud_Wireframes_Desktop_FiltroSelectedPreguntas1" transform="translate(-213.000000, -278.000000)">
            <g id="icon_welcome" transform="translate(213.000000, 278.000000)">
                <circle id="Oval" fill-opacity="0.1" fill="#30C7DB" cx="27" cy="27" r="27"></circle>
                <g id="friendly-(1)" transform="translate(9.000000, 9.000000)" fill-rule="nonzero">
                    <path d="M4.49564063,13.9402969 L4.49219531,16.3680469 C4.487625,19.5713438 5.75810156,22.6447734 8.02314844,24.9098203 L11.22975,28.1164219 L11.22975,28.1164219 L17.6910469,34.5777188 C18.6518672,35.5385391 20.2095703,35.5385391 21.1704609,34.5777188 L21.1704609,34.5777188 C22.0902891,33.6578906 22.1271328,32.1924375 21.2857734,31.2259219 L22.9374844,32.8775625 C23.8168125,33.7568906 25.227,33.8991328 26.2125703,33.1407422 C27.3691406,32.2507969 27.4885313,30.6177188 26.5769297,29.5704141 L28.0578516,31.0513359 C28.9340859,31.9276406 30.465,32.0384531 31.4143594,31.2418828 C32.5359844,30.30075 32.5905469,28.6252031 31.5779063,27.6127031 L30.0562734,26.0910703 C31.1035781,27.0027422 32.7366563,26.8832813 33.6266016,25.7267813 C34.3849219,24.7412109 34.2426797,23.3310234 33.3634219,22.4516953 L24.4629141,13.5512578 C24.1601484,13.2484922 24.54075,12.7633359 24.9068672,12.9853125 L27.2449688,14.4027422 C28.3827656,15.0924375 29.8853438,14.8246875 30.6543516,13.7389219 C31.4722266,12.5841797 31.1767031,10.9839375 30.0030469,10.1969297 L24.4726875,6.4884375 C22.4818594,5.15341406 20.1382031,4.44220313 17.74125,4.44564844 L13.9850156,4.45099219 L10.2372891,0.703125 L0.747914063,10.1925703 L4.49564063,13.9402969 Z" id="Path" fill="#FFFFFF"></path>
                    <circle id="Oval" fill="#E2F4F7" cx="15.3042187" cy="16.0396172" r="5.62521094"></circle>
                    <path d="M8.52039844,24.4125703 C6.37185937,22.2641016 5.19103125,19.4074453 5.19532031,16.3689609 L5.19876563,13.9412812 C5.19904688,13.7544609 5.1249375,13.5751641 4.99282031,13.4431172 L1.24516406,9.69539062 C0.97059375,9.42082031 0.525375,9.42082031 0.250664063,9.69539062 C-0.02390625,9.96996094 -0.02390625,10.4151797 0.250664063,10.6898906 L3.79202344,14.23125 L3.789,16.3671328 C3.78660938,18.0542812 4.11215625,19.7002969 4.75671094,21.2595469 C5.40126563,22.8187266 6.33297656,24.2142187 7.52596875,25.4071406 L9.74010938,27.6212812 C9.87742969,27.7586016 10.0573594,27.8272266 10.2372891,27.8272266 C10.4172188,27.8272266 10.5972188,27.7586016 10.7344688,27.6212812 C11.0090391,27.3467109 11.0090391,26.9014922 10.7344688,26.6267812 L8.52039844,24.4125703 Z" id="Path" fill="#30C7DB"></path>
                    <path d="M12.3629062,28.5465937 C12.1779844,28.5465937 11.9965781,28.621125 11.8657969,28.7526094 C11.7350156,28.8833906 11.6597812,29.0640938 11.6597812,29.2497187 C11.6597812,29.4346406 11.7350156,29.6160469 11.8657969,29.7468281 C11.9965781,29.8776094 12.1779844,29.9528437 12.3629062,29.9528437 C12.5478281,29.9528437 12.7292344,29.8776094 12.8600156,29.7468281 C12.9907969,29.6160469 13.0660312,29.4346406 13.0660312,29.2497187 C13.0660312,29.0640938 12.9907969,28.8833906 12.8600156,28.7526094 C12.7293047,28.621125 12.5478281,28.5465937 12.3629062,28.5465937 Z" id="Path" fill="#30C7DB"></path>
                    <path d="M33.90525,21.9991641 L26.9552812,15.0492656 C28.3970391,15.9088359 30.2741016,15.5079141 31.2382969,14.1308438 C31.7382891,13.4168203 31.9255312,12.5515547 31.7655,11.6947266 C31.6054687,10.8377578 31.118625,10.0984922 30.3945469,9.61298438 L24.8642578,5.90435156 C22.7547422,4.48973438 20.2983047,3.74245313 17.7588281,3.74245313 C17.7527812,3.74245313 17.7463125,3.74245313 17.7402656,3.74245313 L14.2758281,3.747375 L10.7344687,0.205945313 C10.4598984,-0.068625 10.0146797,-0.068625 9.73996875,0.205945313 C9.46539844,0.480515625 9.46539844,0.925734375 9.73996875,1.20044531 L13.4876953,4.94810156 C13.6195312,5.08000781 13.7984062,5.15404688 13.984875,5.15404688 C13.9851562,5.15404688 13.9855078,5.15404688 13.9858594,5.15404688 L17.7420937,5.14870313 C17.7476484,5.14870313 17.7530625,5.14870313 17.7586172,5.14870313 C20.0180391,5.14870313 22.2039844,5.81371875 24.0809062,7.0723125 L29.6112656,10.7808047 C30.0187969,11.0541094 30.292875,11.4702891 30.3829453,11.9527734 C30.4730156,12.4351875 30.3676172,12.9222422 30.0861562,13.3242188 C29.5407422,14.1032109 28.4764219,14.3272266 27.6633984,13.8341953 L25.2729141,12.3850547 C24.8049141,12.1013438 24.2198438,12.2078672 23.8819922,12.6385313 C23.5441406,13.0691953 23.5798594,13.6627734 23.9669297,14.0499141 L32.9105391,22.9935234 C33.5956641,23.6785781 33.5956641,24.7933828 32.9105391,25.4784375 C32.2670391,26.1219375 31.2445547,26.1608906 30.5550703,25.5956484 L25.2204609,20.2733437 C24.9458906,19.9988437 24.5006719,19.9988437 24.2259609,20.2733437 C23.9513906,20.5479141 23.9513906,20.9931328 24.2259609,21.2678438 L29.431125,26.4730078 C29.484,26.5258828 29.5387031,26.5755937 29.5943203,26.6238984 L31.0803047,28.1098828 C31.7654297,28.7949375 31.7654297,29.9097422 31.0803047,30.5947969 C30.7484297,30.9266719 30.3072188,31.1094141 29.8378125,31.1094141 C29.3684062,31.1094141 28.9271953,30.9266719 28.5953203,30.5947969 L27.1103203,29.1097969 C27.0615234,29.0537578 27.0113906,28.9986328 26.958375,28.9456172 L21.7470938,23.7466406 C21.4725234,23.4720703 21.0273047,23.4720703 20.7525938,23.7466406 C20.4780234,24.0212109 20.4780234,24.4664297 20.7525938,24.7411406 L26.0822109,30.0707578 C26.3389219,30.3837188 26.4784922,30.7724063 26.4784922,31.1826094 C26.4784922,31.6519453 26.2956797,32.0932266 25.9638047,32.4251016 C25.6319297,32.7569766 25.1907188,32.9397188 24.7213125,32.9397188 C24.2519063,32.9397188 23.8106953,32.7569063 23.4788203,32.4250313 L21.8181094,30.7643203 C21.7698047,30.7087734 21.7200234,30.654 21.6671484,30.601125 L18.8987344,27.8327109 C18.8734219,27.8073984 18.8462813,27.78525 18.8182969,27.7645781 L18.2735859,27.2199375 C17.9990156,26.9453672 17.5537969,26.9453672 17.2790859,27.2199375 C17.0045156,27.4945078 17.0045156,27.9397266 17.2790859,28.2143672 L20.7907031,31.7259844 C21.0474844,32.0390156 21.187125,32.4277734 21.187125,32.8380469 C21.187125,33.3073828 21.0043828,33.7486641 20.6725078,34.0805391 C19.9873828,34.7657344 18.8725781,34.7656641 18.1875937,34.0805391 L14.6268984,30.5198438 C14.3523281,30.2452734 13.9071094,30.2452734 13.6323984,30.5198438 C13.3578281,30.7944141 13.3578281,31.2396328 13.6323984,31.5143438 L17.1930937,35.0750391 C17.8100156,35.6916797 18.6201562,36 19.4302266,36 C20.2402969,36 21.0504375,35.6916797 21.6671484,35.0748984 C22.1243906,34.6176563 22.4116875,34.0538906 22.5299531,33.4628438 C23.1220547,34.032375 23.8973906,34.3461094 24.7212422,34.3461094 C25.5661875,34.3461094 26.3606484,34.0170469 26.9580937,33.4195313 C27.4089375,32.9686875 27.7067109,32.4056953 27.8258203,31.7934844 C28.4077969,32.2737891 29.1225937,32.5143281 29.8374609,32.5143281 C30.6475313,32.5143281 31.4576719,32.2060078 32.0743828,31.5892266 C33.235875,30.4277344 33.3032344,28.5805547 32.2772344,27.3390469 C32.8739063,27.22275 33.4433672,26.9341875 33.9046172,26.4729375 C35.1386719,25.2395156 35.1386719,23.2325859 33.90525,21.9991641 Z" id="Path" fill="#30C7DB"></path>
                    <path d="M13.4218828,15.7000078 C13.6068047,15.7000078 13.7882109,15.6247734 13.9189922,15.4939922 C14.0497734,15.3632109 14.1250078,15.1818047 14.1250078,14.9968828 C14.1250078,14.8112578 14.0497734,14.6298516 13.9189922,14.4990703 C13.7882109,14.3682891 13.6075078,14.2937578 13.4218828,14.2937578 C13.2369609,14.2937578 13.0555547,14.3682891 12.9247734,14.4990703 C12.7939922,14.6298516 12.7187578,14.8112578 12.7187578,14.9968828 C12.7187578,15.1818047 12.7939922,15.3632109 12.9247734,15.4939922 C13.0555547,15.6247734 13.2369609,15.7000078 13.4218828,15.7000078 Z" id="Path" fill="#30C7DB"></path>
                    <path d="M17.1865547,15.7000078 C17.3714766,15.7000078 17.5528828,15.6247734 17.6836641,15.4939922 C17.8144453,15.3625078 17.8896797,15.1818047 17.8896797,14.9968828 C17.8896797,14.8112578 17.8144453,14.6305547 17.6836641,14.4990703 C17.5528828,14.3682891 17.3714766,14.2937578 17.1865547,14.2937578 C17.0016328,14.2937578 16.8202266,14.3682891 16.6894453,14.4990703 C16.5586641,14.6305547 16.4834297,14.8112578 16.4834297,14.9968828 C16.4834297,15.1818047 16.5586641,15.3625078 16.6894453,15.4939922 C16.8202266,15.6247734 17.0016328,15.7000078 17.1865547,15.7000078 Z" id="Path" fill="#30C7DB"></path>
                    <path d="M13.6333828,18.1243828 C14.0796563,18.5707266 14.6730938,18.8164688 15.3042891,18.8164688 C15.9354844,18.8164688 16.5289219,18.5706563 16.9751953,18.1243828 C17.2497656,17.8498125 17.2497656,17.4045938 16.9751953,17.1299531 C16.700625,16.8553828 16.2554063,16.8553828 15.9807656,17.1299531 C15.8001328,17.3106563 15.559875,17.4101484 15.3043594,17.4101484 C15.0488438,17.4101484 14.8085859,17.3106563 14.6279531,17.1299531 C14.3533828,16.8553125 13.9081641,16.8554531 13.6335234,17.1299531 C13.3588125,17.4045938 13.3587422,17.8497422 13.6333828,18.1243828 Z" id="Path" fill="#30C7DB"></path>
                    <path d="M15.3042187,22.3678828 C18.7936875,22.3678828 21.632625,19.5289453 21.632625,16.0394766 C21.632625,12.5500078 18.7936875,9.71107031 15.3042187,9.71107031 C11.81475,9.71107031 8.9758125,12.5500078 8.9758125,16.0394766 C8.9758125,19.5289453 11.81475,22.3678828 15.3042187,22.3678828 Z M15.3042188,11.1173906 C18.0182813,11.1173906 20.2263047,13.3254141 20.2263047,16.0394766 C20.2263047,18.7535391 18.0182813,20.9615625 15.3042188,20.9615625 C12.5901562,20.9615625 10.3821328,18.7535391 10.3821328,16.0394766 C10.3821328,13.3254141 12.5901562,11.1173906 15.3042188,11.1173906 Z" id="Shape" fill="#30C7DB"></path>
                </g>
            </g>
        </g>
    </g>
</svg>