<?xml version="1.0" encoding="UTF-8"?>
<svg width="64px" height="64px" viewBox="0 0 64 64" version="1.1" xmlns="http://www.w3.org/2000/svg" xmlns:xlink="http://www.w3.org/1999/xlink">
    <!-- Generator: sketchtool 61.2 (101010) - https://sketch.com -->
    <title>2195F894-8FDA-4333-8BA5-34A17807BBC0</title>
    <desc>Created with sketchtool.</desc>
    <g id="Proceso-E-Commerce-Propuesta" stroke="none" stroke-width="1" fill="none" fill-rule="evenodd">
        <g id="Oncosalud_Wireframes_Desktop_Correo" transform="translate(-768.000000, -320.000000)">
            <g id="Afiliar-a-sere-queridos" transform="translate(744.000000, 312.000000)">
                <g id="icon_wpp" transform="translate(24.000000, 8.000000)">
                    <circle id="Oval" fill-opacity="0.1" fill="#30C7DB" cx="32" cy="32" r="32"></circle>
                    <g id="whatsapp-(2)" transform="translate(11.789474, 11.789474)" fill-rule="nonzero">
                        <path d="M2.82947368,39.1410789 L5.11997368,29.9115789 C3.57047368,26.9473421 2.69471053,23.5789737 2.69471053,20.0757632 C2.69471053,9.43152632 10.5768158,0.673657895 20.1431053,0.673657895 L20.1431053,0.673657895 C9.43152632,0.673657895 0.673657895,9.43152632 0.673657895,20.0757632 C0.673657895,23.5788947 1.61684211,26.9473421 3.36836842,29.9789211 L0.673657895,39.7473947 L2.82947368,39.1410789 Z" id="Path" fill="#FFFFFF"></path>
                        <path d="M11.6547632,37.0526053 L11.0484474,37.2547105 C13.8779211,38.7367895 16.9768421,39.7473158 20.2105263,39.7473158 L20.2105263,39.7473158 C17.1789474,39.7473947 14.2147105,38.6694474 11.6547632,37.0526053" id="Path" fill="#FDCC00"></path>
                        <path d="M11.1831316,33.5494737 L11.7894474,33.8863421 C14.2821316,35.4357632 17.1789474,36.3789474 18.1894737,36.3789474 C27.0147632,36.3789474 36.3771218,29.0358158 36.3771218,20.0757632 C36.3771218,11.1157105 27.7557632,4.04210526 18.8631316,4.04210526 C11.7894474,4.04210526 4.04210526,11.1831316 4.04210526,20.0757632 C4.04210526,23.1746842 4.91786842,26.2062632 6.53471053,28.7662895 L6.93892105,29.3726053 L5.38942105,35.0315526 L11.1831316,33.5494737 Z" id="Path" fill="#FFFFFF"></path>
                        <path d="M14.9557895,11.0484474 L13.6758158,10.9811053 C13.2716053,10.9811053 12.8673947,11.1158684 12.5979474,11.3853158 C11.9916316,11.9242895 10.9811053,12.9348158 10.7116579,14.2821316 C10.2401053,16.3031842 10.9811053,18.7284474 12.7327105,21.1537105 C14.4843158,23.5789737 17.8526842,27.4863158 23.7811579,29.1705789 C25.6674474,29.7095526 27.1496053,29.3726842 28.3622368,28.6316053 C29.3054211,28.0252895 29.9117368,27.0821053 30.1138421,26.0715789 L30.3159474,25.1283947 C30.3832895,24.8589474 30.2486053,24.5220789 29.9790789,24.3873158 L25.7348684,22.4336053 C25.4654211,22.2988421 25.1285526,22.3662632 24.9264474,22.6357105 L23.2421053,24.7916053 C23.1073421,24.9263684 22.9052368,24.9937105 22.7031316,24.9263684 C21.5578421,24.5221579 17.7178421,22.9053158 15.6294474,18.8632105 C15.5621053,18.6611053 15.5621053,18.459 15.6967895,18.3242368 L17.3136316,16.5052895 C17.4483947,16.3031842 17.5157368,16.0337368 17.4483947,15.8316316 L15.4946842,11.4526579 C15.4273421,11.2505526 15.2252368,11.0484474 14.9557895,11.0484474" id="Path" fill="#FFFFFF"></path>
                        <path d="M0.673657895,40.4210526 C0.471552632,40.4210526 0.336789474,40.3537105 0.202105263,40.2189474 C0,40.0168421 0,39.8147368 0,39.5452895 L2.69471053,30.0463421 C0.943184211,26.9473421 0,23.5789737 0,20.0757632 C0,15.6294474 1.41473684,11.3852368 4.17686842,7.81468421 C4.37897368,7.54523684 4.85052632,7.47781579 5.12005263,7.67992105 C5.3895,7.88202632 5.45692105,8.35357895 5.25481579,8.62310526 C2.69478947,11.9915526 1.34747368,15.9662368 1.34747368,20.0757632 C1.34747368,23.3767895 2.29065789,26.6778947 3.97484211,29.5747105 C4.04218421,29.7768158 4.10960526,29.9789211 4.04218421,30.1136842 L1.61684211,38.8042105 L10.5094737,36.3789474 C10.7115789,36.3116053 10.8463421,36.3789474 10.9810263,36.4462895 C14.0126053,38.1304737 17.1789474,39.0736579 20.1431053,39.0736579 C30.3831316,39.0736579 39.0736579,30.3831316 39.0736579,20.0757632 C39.0736579,9.76839474 30.5852368,1.34739474 20.1431842,1.34739474 C16.1684211,1.34739474 12.3958421,2.56002632 9.16215789,4.91794737 C8.89271053,5.12005263 8.42107895,5.05271053 8.21897368,4.78318421 C8.01686842,4.44631579 8.08421053,4.04210526 8.35373684,3.84 C11.7894474,1.34739474 15.8989737,0 20.1431842,0 C31.3263158,0 40.4210526,9.02739474 40.4210526,20.0757632 C40.4210526,31.1241316 31.1242105,40.4210526 20.1431842,40.4210526 C17.0442632,40.4210526 13.7431579,39.4778684 10.5768947,37.7936842 L0.875763158,40.4210526 C0.808421053,40.4210526 0.741078947,40.4210526 0.673657895,40.4210526 Z" id="Path" fill="#30C7DB"></path>
                        <path d="M7.07368421,6.26526316 C7.07368421,5.86105263 6.80423684,5.59160526 6.40002632,5.59160526 C5.99581579,5.59160526 5.72636842,5.86105263 5.72636842,6.26526316 C5.72636842,6.66947368 5.99581579,6.93892105 6.40002632,6.93892105 C6.80423684,6.93892105 7.07368421,6.60213158 7.07368421,6.26526316" id="Path" fill="#30C7DB"></path>
                        <path d="M20.1431842,37.0526053 C17.1789474,37.0526053 14.1473684,36.1768421 11.3853158,34.4925789 L11.0484474,34.2904737 L4.44631579,35.9747368 L6.26526316,29.5747105 L5.99581579,29.2378421 C4.31163158,26.4757105 3.36844737,23.3767895 3.36844737,20.0757632 C3.36844737,10.8462632 10.9136842,3.36836842 20.1431842,3.36836842 C29.4400263,3.36836842 37.0526842,10.8462632 37.0526842,20.0757632 C37.0526842,29.4400263 29.4400263,37.0526053 20.1431842,37.0526053 Z M11.2505526,32.8083947 L12.0589737,33.3473684 C14.619,34.8968684 17.3810526,35.7726316 20.0758421,35.7726316 C28.6990263,35.7052895 35.7052895,28.6989474 35.7052895,20.0757632 C35.7052895,11.6546842 28.6989474,4.71576316 20.1431842,4.71576316 C11.6547632,4.71576316 4.71584211,11.6546842 4.71584211,20.0757632 C4.71584211,23.04 5.52426316,25.9368158 7.14110526,28.4294211 L7.68,29.3052632 L6.33260526,34.0210263 L11.2505526,32.8083947 Z" id="Shape" fill="#30C7DB"></path>
                        <path d="M25.5326053,30.1136842 C24.9262895,30.1136842 24.2526316,30.0463421 23.5788947,29.8442368 C16.8420789,27.9579474 13.3388684,23.1747632 12.1936579,21.5579211 C10.3073684,18.9978947 9.56628947,16.3705263 10.0378421,14.1473684 C10.3747105,12.5978684 11.5199211,11.4526579 12.1262368,10.9136842 C12.5304474,10.5094737 13.1367632,10.3747105 13.6757368,10.3747105 L14.9557105,10.4420526 C15.4946842,10.4420526 15.8988947,10.7789211 16.101,11.2504737 L17.9199474,15.5620263 C18.1220526,16.0335789 18.0547105,16.5725526 17.7178421,16.9767632 L16.2357632,18.7283684 C18.1894737,22.3662632 21.5578421,23.8483421 22.7704737,24.3199737 L24.3873158,22.2315789 C24.7915263,21.7600263 25.3978421,21.5579211 26.0041579,21.8273684 L30.2483684,23.7810789 C30.7873421,24.0505263 31.1241316,24.6568421 30.9894474,25.2631579 L30.7873421,26.2063421 C30.5178947,27.4189737 29.7768158,28.5642632 28.6989474,29.2379211 C27.7557632,29.7768158 26.6778947,30.1136842 25.5326053,30.1136842 Z M13.6083947,11.6547632 C13.4062895,11.6547632 13.2041842,11.7221053 13.0694211,11.8568684 C12.5304474,12.3284211 11.6546842,13.2042632 11.3852368,14.4168947 C10.9810263,16.2358421 11.6546842,18.5263421 13.2715263,20.7495 C14.3493947,22.2315789 17.6505,26.7453158 23.9157632,28.4968421 C25.3978421,28.9010526 26.7452368,28.7662895 27.8905263,28.0252895 C28.6316053,27.5537368 29.1705,26.7453158 29.3726053,25.8694737 L29.6420526,24.9262895 L25.3978421,22.9725789 L23.781,25.1283947 C23.4441316,25.5326053 22.9725789,25.6673684 22.5010263,25.5326053 C21.2883947,25.1283947 17.2462895,23.4442105 15.0231316,19.1325789 C14.8210263,18.7283684 14.8883684,18.1893947 15.1578947,17.8526053 L16.7747368,16.0336579 L14.9557895,11.7894474 L13.6083947,11.6547632 L13.6083947,11.6547632 Z" id="SVGCleanerId_0" fill="#000000"></path>
                        <g id="Group" transform="translate(9.868421, 10.342105)" fill="#30C7DB">
                            <path d="M15.6641842,19.7715789 C15.0578684,19.7715789 14.3842105,19.7042368 13.7104737,19.5021316 C6.97365789,17.6158421 3.47044737,12.8326579 2.32523684,11.2158158 C0.438947368,8.65578947 -0.302131579,6.02842105 0.169421053,3.80526316 C0.506289474,2.25576316 1.6515,1.11055263 2.25781579,0.571578947 C2.66202632,0.167368421 3.26834211,0.0326052632 3.80731579,0.0326052632 L5.08728947,0.0999473684 C5.62626316,0.0999473684 6.03047368,0.436815789 6.23257895,0.908368421 L8.05152632,5.21992105 C8.25363158,5.69147368 8.18628947,6.23044737 7.84942105,6.63465789 L6.36734211,8.38626316 C8.32105263,12.0241579 11.6894211,13.5062368 12.9020526,13.9778684 L14.5188947,11.8894737 C14.9231053,11.4179211 15.5294211,11.2158158 16.1357368,11.4852632 L20.3799474,13.4389737 C20.9189211,13.7084211 21.2557105,14.3147368 21.1210263,14.9210526 L20.9189211,15.8642368 C20.6494737,17.0768684 19.9083947,18.2221579 18.8305263,18.8958158 C17.8873421,19.4347105 16.8094737,19.7715789 15.6641842,19.7715789 Z M3.73997368,1.31265789 C3.53786842,1.31265789 3.33576316,1.38 3.201,1.51476316 C2.66202632,1.98631579 1.78626316,2.86215789 1.51681579,4.07478947 C1.11260526,5.89373684 1.78626316,8.18423684 3.40310526,10.4073947 C4.48097368,11.8894737 7.78207895,16.4032105 14.0473421,18.1547368 C15.5294211,18.5589474 16.8768158,18.4241842 18.0221053,17.6831842 C18.7631842,17.2116316 19.3020789,16.4032105 19.5041842,15.5273684 L19.7736316,14.5841842 L15.5294211,12.6304737 L13.9125789,14.7862895 C13.5757105,15.1905 13.1041579,15.3252632 12.6326053,15.1905 C11.4199737,14.7862895 7.37786842,13.1021053 5.15471053,8.79047368 C4.95260526,8.38626316 5.01994737,7.84728947 5.28947368,7.5105 L6.90631579,5.69155263 L5.08736842,1.44734211 L3.73997368,1.31265789 L3.73997368,1.31265789 Z" id="SVGCleanerId_0_1_"></path>
                        </g>
                    </g>
                </g>
            </g>
        </g>
    </g>
</svg>