<?xml version="1.0" encoding="UTF-8"?>
<svg width="64px" height="64px" viewBox="0 0 64 64" version="1.1" xmlns="http://www.w3.org/2000/svg" xmlns:xlink="http://www.w3.org/1999/xlink">
    <!-- Generator: sketchtool 61.2 (101010) - https://sketch.com -->
    <title>D510B22F-24C6-4E2D-BE6F-73AF6FB104DE</title>
    <desc>Created with sketchtool.</desc>
    <g id="Proceso-E-Commerce-Propuesta" stroke="none" stroke-width="1" fill="none" fill-rule="evenodd">
        <g id="Oncosalud_Wireframes_Desktop_FiltroSelectedPreguntas4" transform="translate(-768.000000, -352.000000)">
            <g id="Afiliar-a-sere-queridos" transform="translate(744.000000, 344.000000)">
                <g id="icon_sihetenido_enfermedad_onco" transform="translate(24.000000, 8.000000)">
                    <circle id="Oval-Copy" fill-opacity="0.1" fill="#30C7DB" cx="32" cy="32" r="32"></circle>
                    <g id="lung-cancer" transform="translate(11.789474, 11.789474)" fill-rule="nonzero">
                        <path d="M21.9082614,6.98789147 C20.582918,6.95525522 19.4875827,8.01422448 19.4875827,9.34018944 L19.4875827,23.8319363 C19.4875827,24.1054594 19.5099618,24.3736984 19.5513012,24.6354103 L31.3143451,18.4550333 C30.3790828,12.6128303 27.8999696,7.13491015 21.9082614,6.98789147 Z" id="Path" fill="#FFFFFF"></path>
                        <path d="M10.4877429,6.98789147 C0.0500422599,7.24400848 0.304294379,23.7290544 0.782337981,30.0200839 C0.858178455,31.0153347 2.04800359,31.4859186 2.78527246,30.812679 C4.16127976,29.5563381 5.95751788,28.859476 7.82120428,28.859476 C10.6266801,28.859476 12.9009618,26.5851942 12.9009618,23.7797183 C12.9009618,22.3542904 12.9009618,11.3505837 12.9009618,9.3330406 C12.9009618,8.0111163 11.8093563,6.95525522 10.4877429,6.98789147 Z" id="Path" fill="#FFFFFF"></path>
                        <path d="M28.0187035,18.3655167 C27.3787218,18.0071394 26.2594532,17.3799013 25.5597937,16.9879553 C25.3011901,16.8431124 25.3176637,16.465775 25.5877677,16.3433112 L27.2130539,15.6075965 C27.7302611,15.3735478 27.9596474,14.7646483 27.7255987,14.247752 C27.4915501,13.7305448 26.8826505,13.5011584 26.3654433,13.7352071 L22.8749167,15.3151133 C22.7701697,15.3623582 22.6492601,15.3573851 22.5491756,15.3011264 L17.4162674,12.4257156 C17.3021959,12.3616864 17.2316394,12.2410876 17.2316394,12.1102317 L17.2316394,1.71697859 C17.2316394,1.16371612 16.8064355,0.687537409 16.2534838,0.661428393 C15.6632335,0.63376529 15.1761761,1.10403837 15.1761761,1.6880722 L15.1761761,12.1102317 C15.1761761,12.2410876 15.1053088,12.3616864 14.9912373,12.4257156 L9.85863997,15.3011264 C9.75824457,15.3573851 9.63733498,15.362669 9.53258804,15.3151133 L6.04206136,13.7352071 C5.50993476,13.4943204 4.88052101,13.7445317 4.662635,14.2937536 C4.45842522,14.8078525 4.716718,15.3915755 5.22087062,15.6197185 L6.819737,16.3433112 C7.08984096,16.465775 7.10600376,16.8434233 6.84740018,16.9882661 L4.35336756,18.3854093 C3.87035073,18.6561349 3.66303269,19.2603721 3.91106838,19.7555109 C4.1758884,20.2835968 4.82395144,20.4781712 5.3327664,20.192837 L15.211299,14.6583473 C15.827969,14.3130245 16.5798465,14.3130245 17.1965166,14.6583473 L25.1802805,19.1313811 C26.0717169,18.7528004 27.0243852,18.4910886 28.0187035,18.3655167 Z" id="Path" fill="#FFFFFF"></path>
                        <path d="M29.3769939,39.8286815 C23.4362604,39.8286815 18.6029844,34.9954055 18.6029844,29.0543611 C18.6029844,23.1136277 23.4362604,18.2800407 29.3769939,18.2800407 C35.3180383,18.2800407 40.1513143,23.1136277 40.1513143,29.0543611 C40.1516252,34.9954055 35.3180383,39.8286815 29.3769939,39.8286815 Z" id="Path" fill="#FFFFFF"></path>
                        <path d="M29.3769939,20.1536734 C24.4691207,20.1536734 20.4766171,24.1467987 20.4766171,29.0543611 C20.4766171,33.9622344 24.4694315,37.9550489 29.3769939,37.9550489 C34.2848672,37.9550489 38.2776817,33.9622344 38.2776817,29.0543611 C38.2779925,24.1467987 34.2848672,20.1536734 29.3769939,20.1536734 L29.3769939,20.1536734 Z" id="Path" fill="#FFFFFF"></path>
                        <path d="M31.2434778,33.3660786 C31.2434778,34.462968 30.3542171,35.3522286 29.2573276,35.3522286 C28.1604382,35.3522286 27.2711776,34.462968 27.2711776,33.3660786 C27.2711776,32.2691891 28.1604382,31.3799285 29.2573276,31.3799285 C30.3542171,31.3799285 31.2434778,32.2691891 31.2434778,33.3660786 Z" id="Path" fill="#FFFFFF"></path>
                        <path d="M33.4919613,29.2066638 C33.4919613,29.8273745 32.9884303,30.3305947 32.3677195,30.3305947 C31.7466979,30.3305947 31.2434778,29.8273745 31.2434778,29.2066638 C31.2434778,28.5856421 31.7466979,28.0824219 32.3677195,28.0824219 C32.9884303,28.0824219 33.4919613,28.5856421 33.4919613,29.2066638 L33.4919613,29.2066638 Z" id="Path" fill="#F25C5C"></path>
                        <path d="M33.0077013,29.2066638 C33.0077013,28.9437086 33.098772,28.7025111 33.2498313,28.511045 C33.0437566,28.2502656 32.7254752,28.0824219 32.3677195,28.0824219 C31.7466979,28.0824219 31.2434778,28.5856421 31.2434778,29.2066638 C31.2434778,29.8273745 31.7466979,30.3309055 32.3677195,30.3309055 C32.725786,30.3309055 33.0437566,30.162751 33.2498313,29.9019717 C33.098772,29.7105056 33.0077013,29.469308 33.0077013,29.2066638 L33.0077013,29.2066638 Z" id="Path" fill="#FFFFFF"></path>
                        <path d="M30.0834915,26.8633796 C30.0834915,28.1150583 29.0689698,29.12958 27.8172911,29.12958 C26.5659233,29.12958 25.5510907,28.1150583 25.5510907,26.8633796 C25.5510907,25.6117009 26.5659233,24.5971792 27.8172911,24.5971792 C29.0689698,24.5971792 30.0834915,25.6117009 30.0834915,26.8633796 L30.0834915,26.8633796 Z" id="Path" fill="#FFFFFF"></path>
                        <path d="M25.4761827,31.2111523 C25.4761827,31.7389274 25.0484922,32.1669287 24.520717,32.1669287 C23.992942,32.1669287 23.5652514,31.7389274 23.5652514,31.2111523 C23.5652514,30.6836881 23.992942,30.2556866 24.520717,30.2556866 C25.0484922,30.2556866 25.4761827,30.6836881 25.4761827,31.2111523 Z" id="Path" fill="#FFFFFF"></path>
                        <path d="M34.5074155,24.8784727 C34.5074155,25.59243 33.9283548,26.1711798 33.2143976,26.1711798 C32.5004404,26.1711798 31.9216905,25.59243 31.9216905,24.8784727 C31.9216905,24.1642047 32.5004404,23.5854548 33.2143976,23.5854548 C33.9283548,23.5854548 34.5074155,24.1642047 34.5074155,24.8784727 L34.5074155,24.8784727 Z" id="Path" fill="#F25C5C"></path>
                        <path d="M34.1120504,24.8784727 C34.1120504,24.6263965 34.1850935,24.3923477 34.309733,24.1934219 C34.0809683,23.8288282 33.6765894,23.5854548 33.2143976,23.5854548 C32.5004404,23.5854548 31.9216905,24.1642047 31.9216905,24.8784727 C31.9216905,25.59243 32.5004404,26.1711798 33.2143976,26.1711798 C33.6765894,26.1711798 34.0809683,25.9278065 34.309733,25.5632128 C34.1850935,25.3645977 34.1120504,25.1302383 34.1120504,24.8784727 L34.1120504,24.8784727 Z" id="Path" fill="#FFFFFF"></path>
                        <path d="M31.8256466,17.9278799 C30.772583,11.8429252 28.0367311,6.51792919 21.9147886,6.36749161 C20.2422576,6.32801725 18.8827239,7.66175273 18.8827239,9.31656708 L18.8827239,12.5441387 L17.8200247,11.9486044 L17.8200247,8.35612825 C17.8200247,8.02634654 17.553029,7.75935076 17.2232472,7.75935076 C16.8937763,7.75935076 16.6264697,8.02634654 16.6264697,8.35612825 L16.6264697,12.0866093 C16.6264697,12.4331753 16.814206,12.7533216 17.1166354,12.9227194 L22.2492328,15.798441 C22.5137419,15.9467029 22.8366856,15.960379 23.113006,15.8354288 L26.6035327,14.2555225 C26.8195538,14.1573028 27.0756708,14.2536575 27.1738903,14.4703002 C27.27211,14.6872537 27.1748228,14.9427491 26.9588019,15.040347 L25.3338264,15.7760618 C24.6192476,16.0996271 24.5748,17.1010944 25.2601617,17.4852699 C25.6822575,17.7214943 25.4528711,17.5931249 26.3154011,18.0764525 C25.9657268,18.1740506 25.5781322,18.3024199 25.212606,18.4463303 L17.4799859,14.1140986 C16.6877016,13.6702454 15.7036404,13.6705562 14.9113561,14.1140986 L5.03251276,19.6485883 C4.81866749,19.7682546 4.54794185,19.6868193 4.43635687,19.4645819 C4.33502906,19.262237 4.42485649,19.0011469 4.63683687,18.8824131 L7.13086949,17.4852699 C7.45567806,17.3031284 7.63502211,16.9615354 7.61979187,16.6081312 C7.60425075,16.2438483 7.38791891,15.925567 7.05751551,15.7760618 L5.45896002,15.0524691 C5.23765503,14.9523845 5.12575925,14.6999974 5.20905944,14.4901928 C5.30137344,14.2573874 5.56557177,14.1545055 5.78780924,14.2552117 L9.278336,15.8351179 C9.55434559,15.9600682 9.87728919,15.9467029 10.1417984,15.7981302 C13.934133,13.6736644 14.116896,13.5710933 15.2747066,12.9227194 C15.5768252,12.7533216 15.7645614,12.4328645 15.7645614,12.0866093 L15.7645614,1.66444976 C15.7645614,1.54540506 15.8121171,1.43475257 15.8982147,1.35238486 C15.9843122,1.27032795 16.0983838,1.22898862 16.2171177,1.23396177 C16.4427741,1.24452974 16.6264697,1.45060449 16.6264697,1.69335615 L16.6264697,5.5708558 C16.6264697,5.90063751 16.8934655,6.16763329 17.2232472,6.16763329 C17.553029,6.16763329 17.8200247,5.90063751 17.8200247,5.5708558 L17.8200247,1.69335615 C17.8200247,0.808136195 17.1405687,0.0826785094 16.2733764,0.041650136 C15.8257933,0.020825068 15.3987244,0.179344051 15.0742266,0.488922378 C14.7543911,0.793838361 14.5710064,1.22246139 14.5710064,1.66413888 L14.5710064,11.9486044 L13.4893472,12.5547066 L13.4893472,9.30910736 C13.4893472,7.6449684 12.1145832,6.32397651 10.4647421,6.36749161 C3.69349325,6.534092 1.1018626,13.0364801 0.307402556,19.7928095 C-0.14826189,23.6650252 -0.013676151,27.5033613 0.179033249,30.0415306 C0.231562082,30.7312438 0.663604164,31.3177642 1.30669406,31.5729487 C1.94978396,31.8278224 2.66747113,31.6969664 3.17939426,31.2298016 C4.44847893,30.0710586 6.09427939,29.432631 7.81281207,29.432631 C10.9430966,29.432631 13.489658,26.8860696 13.489658,23.7560959 L13.489658,16.2786603 L15.4947683,15.1553511 C15.9271211,14.913221 16.4642208,14.913221 16.8962629,15.1553511 L18.8827239,16.2680924 L18.8827239,23.8080031 C18.8827239,24.0464033 18.8985757,24.2872901 18.9290363,24.5263119 C18.3303939,25.9082247 17.9978147,27.4312507 17.9978147,29.0307387 C17.9978147,35.3006323 23.0987082,40.4018366 29.3689126,40.4018366 C35.6388062,40.4018366 40.7400105,35.3006323 40.7400105,29.0307387 C40.7400105,23.6041041 36.9187696,19.0536757 31.8256466,17.9278799 L31.8256466,17.9278799 Z M12.2957922,23.7560959 C12.2957922,26.2280602 10.2847763,28.239076 7.81281207,28.239076 C5.79557984,28.239076 3.8641343,28.9881561 2.37436632,30.3483115 C2.20030622,30.5071414 1.96594668,30.5503455 1.74650667,30.4633155 C1.52799905,30.3765962 1.38688608,30.1851301 1.36916919,29.9510815 C0.69157807,21.0364068 1.57213568,7.77986502 10.4942702,7.56073573 C11.4761556,7.53524839 12.296103,8.31789718 12.296103,9.30910736 L12.296103,13.2232839 L9.66220071,14.6987541 L6.28015068,13.1679576 C5.45336519,12.7934176 4.44972222,13.1679576 4.09973712,14.0497585 C3.77959082,14.8566515 4.16034728,15.7748185 4.96692938,16.1397231 L6.14152428,16.6715389 L4.05373544,17.8411606 C3.28072215,18.2741351 2.97984683,19.2221411 3.36930629,19.9991951 C3.79357777,20.8458732 4.82519473,21.1333831 5.61623571,20.6898407 L12.296103,16.9475484 L12.296103,23.7560959 L12.2957922,23.7560959 Z M26.2501286,16.6715389 L27.4511433,16.1279119 C28.265185,15.7592775 28.6307113,14.794798 28.2611444,13.9776479 C27.8915775,13.1617412 26.9274088,12.7983908 26.1111913,13.1676468 L22.7288305,14.6987541 L20.0762788,13.2127159 L20.0762788,9.3162562 C20.0762788,8.32722186 20.8909423,7.53742408 21.8855714,7.56073573 C26.4201479,7.6720099 29.3421819,11.0901152 30.5780086,17.7236701 C29.7819945,17.6385049 28.9614254,17.6372616 28.1340184,17.7267783 L26.2501286,16.6715389 Z M20.0762788,16.9369806 C20.521997,17.1865703 23.4403012,18.8214919 23.8866409,19.0713926 C22.4061977,19.8894751 21.0932872,21.0376501 20.0762788,22.4801732 L20.0762788,16.9369806 Z M29.3689126,39.2082816 C23.7570284,39.2082816 19.1913697,34.6426229 19.1913697,29.0307387 C19.1913697,23.4191652 23.75765,18.8531958 29.3689126,18.8531958 C34.9612151,18.8531958 39.5464555,23.4008268 39.5464555,29.0307387 C39.5464555,34.6426229 34.9807969,39.2082816 29.3689126,39.2082816 Z" id="Shape" fill="#30C7DB"></path>
                        <path d="M31.8318631,33.3421453 C31.8318631,31.9182714 30.6731201,30.7595285 29.2492463,30.7595285 C27.8247508,30.7595285 26.6663187,31.9182714 26.6663187,33.3421453 C26.6663187,34.7666408 27.8247508,35.9250729 29.2492463,35.9250729 C30.6734309,35.9250729 31.8318631,34.7666408 31.8318631,33.3421453 L31.8318631,33.3421453 Z M29.2492463,34.7315179 C28.483071,34.7315179 27.8598737,34.1083206 27.8598737,33.3421453 C27.8598737,32.5762809 28.483071,31.9530835 29.2492463,31.9530835 C30.0151108,31.9530835 30.6383081,32.5762809 30.6383081,33.3421453 C30.6383081,34.1083206 30.0151108,34.7315179 29.2492463,34.7315179 Z" id="Shape" fill="#30C7DB"></path>
                        <path d="M30.6383081,29.1827304 C30.6383081,30.1316689 31.410389,30.9037497 32.3593273,30.9037497 C33.3082657,30.9037497 34.0803467,30.1316689 34.0803467,29.1827304 C34.0803467,28.2337921 33.3082657,27.4617112 32.3593273,27.4617112 C31.410389,27.4617112 30.6383081,28.2337921 30.6383081,29.1827304 L30.6383081,29.1827304 Z M32.3593273,28.6552662 C32.6499456,28.6552662 32.8867917,28.8921122 32.8867917,29.1827304 C32.8867917,29.4736595 32.6499456,29.7101947 32.3593273,29.7101947 C32.0687092,29.7101947 31.8318631,29.4736595 31.8318631,29.1827304 C31.8318631,28.8921122 32.0687092,28.6552662 32.3593273,28.6552662 Z" id="Shape" fill="#30C7DB"></path>
                        <path d="M30.6718768,26.8397572 C30.6718768,25.2610942 29.3875619,23.9767793 27.8092098,23.9767793 C26.2305468,23.9767793 24.9462319,25.2610942 24.9462319,26.8397572 C24.9462319,28.4184202 26.2305468,29.702735 27.8092098,29.702735 C29.3875619,29.702735 30.6718768,28.4184202 30.6718768,26.8397572 L30.6718768,26.8397572 Z M26.1397869,26.8397572 C26.1397869,25.9194144 26.8885561,25.1703343 27.8092098,25.1703343 C28.7295526,25.1703343 29.4783218,25.9191035 29.4783218,26.8397572 C29.4783218,27.7604107 28.7295526,28.50918 27.8092098,28.50918 C26.8885561,28.50918 26.1397869,27.7600999 26.1397869,26.8397572 L26.1397869,26.8397572 Z" id="Shape" fill="#30C7DB"></path>
                        <path d="M24.5126357,29.6352867 C23.656633,29.6352867 22.9600817,30.3318379 22.9600817,31.1875299 C22.9600817,32.0435326 23.656633,32.7400839 24.5126357,32.7400839 C25.3686384,32.7400839 26.0648788,32.0435326 26.0648788,31.1875299 C26.0648788,30.3318379 25.3686384,29.6352867 24.5126357,29.6352867 Z M24.5126357,31.546218 C24.3146424,31.546218 24.1536367,31.3855232 24.1536367,31.1875299 C24.1536367,30.9898473 24.3146424,30.8288417 24.5126357,30.8288417 C24.7103183,30.8288417 24.8713238,30.9895365 24.8713238,31.1875299 C24.8713238,31.3855232 24.7103183,31.546218 24.5126357,31.546218 Z" id="Shape" fill="#30C7DB"></path>
                        <path d="M35.0958008,24.8548503 C35.0958008,23.8126654 34.2481903,22.9650549 33.2063162,22.9650549 C32.1644422,22.9650549 31.3165208,23.8126654 31.3165208,24.8548503 C31.3165208,25.8967243 32.1644422,26.7443349 33.2063162,26.7443349 C34.2481903,26.7443349 35.0958008,25.8964135 35.0958008,24.8548503 L35.0958008,24.8548503 Z M33.2063162,25.5507799 C32.8224516,25.5507799 32.5103867,25.2384042 32.5103867,24.8548503 C32.5103867,24.4709856 32.8224516,24.1586099 33.2063162,24.1586099 C33.5898701,24.1586099 33.9022458,24.4709856 33.9022458,24.8548503 C33.9022458,25.2384042 33.5898701,25.5507799 33.2063162,25.5507799 Z" id="Shape" fill="#30C7DB"></path>
                        <path d="M33.3931201,31.7118859 L33.0089445,32.0960615 C32.7758283,32.3291776 32.7758283,32.7068259 33.0092553,32.9399421 C33.2423716,33.1727475 33.6200198,33.1730584 33.853136,32.9399421 L34.2370008,32.5557666 C34.4701169,32.3226504 34.4701169,31.9446913 34.2370008,31.7118859 C34.0038845,31.4787697 33.6259254,31.4787697 33.3931201,31.7118859 L33.3931201,31.7118859 Z" id="Path" fill="#30C7DB"></path>
                        <path d="M29.3689126,19.5332735 C24.1318793,19.5332735 19.8714474,23.7940161 19.8714474,29.0307387 C19.8714474,31.3037771 20.6904624,33.504705 22.177433,35.2279 C23.6482408,36.9324458 25.6747977,38.0632148 27.8834961,38.4119567 C28.209548,38.4632422 28.5147748,38.2410047 28.5660604,37.9152637 C28.617346,37.5898334 28.3951085,37.2842958 28.0693675,37.2330102 C24.0762422,36.602664 21.0653132,33.0767036 21.0653132,29.0310495 C21.0653132,24.4520255 24.7901994,20.7271393 29.3689126,20.7271393 C33.9476258,20.7271393 37.6728228,24.4520255 37.6728228,29.0310495 C37.6728228,33.0767036 34.661583,36.602664 30.6684577,37.2330102 C30.3430276,37.2842958 30.1207901,37.5898334 30.1720757,37.9152637 C30.2233612,38.2413155 30.5295205,38.4632422 30.8546399,38.4119567 C33.0633383,38.0632148 35.0898953,36.9324458 36.5607031,35.2279 C38.0476737,33.504705 38.8666886,31.3037771 38.8666886,29.0307387 C38.8663778,23.7940161 34.6059459,19.5332735 29.3689126,19.5332735 Z" id="Path" fill="#30C7DB"></path>
                    </g>
                </g>
            </g>
        </g>
    </g>
</svg>