<?xml version="1.0" encoding="UTF-8"?>
<svg width="54px" height="54px" viewBox="0 0 54 54" version="1.1" xmlns="http://www.w3.org/2000/svg" xmlns:xlink="http://www.w3.org/1999/xlink">
    <!-- Generator: sketchtool 61.2 (101010) - https://sketch.com -->
    <title>64CA9C8F-796A-4352-98A2-6083D406331A</title>
    <desc>Created with sketchtool.</desc>
    <g id="Proceso-E-Commerce-Propuesta" stroke="none" stroke-width="1" fill="none" fill-rule="evenodd">
        <g id="Oncosalud_Wireframes_Desktop_FiltroSelectedPreguntas3update" transform="translate(-213.000000, -240.000000)">
            <g id="icon_fumador" transform="translate(213.000000, 240.000000)">
                <circle id="Oval" fill-opacity="0.1" fill="#30C7DB" cx="27" cy="27" r="27"></circle>
                <g id="smoking-area" transform="translate(9.000000, 9.000000)" fill-rule="nonzero">
                    <path d="M22.796129,10.5329032 C22.9354839,10.8812903 22.9993548,11.2470968 22.9993548,11.6129032 C22.9993548,11.9787097 22.9354839,12.3445161 22.796129,12.6929032 C22.4535484,13.5522581 21.7277419,14.1793548 20.8625806,14.4116129 C20.6187097,14.4812903 20.3574194,14.516129 20.096129,14.516129 L12.7741935,14.516129 C11.8103226,14.516129 10.9393548,14.9051613 10.3122581,15.5380645 C9.67935484,16.1651613 9.29032258,17.036129 9.29032258,18 L8.70967742,18.5806452 L7.53096774,17.7909677 C7.16516129,17.5470968 6.73548387,17.4193548 6.29419355,17.4193548 C5.06322581,17.4193548 4.06451613,18.4180645 4.06451613,19.6490323 L4.06451613,20.7406452 C4.06451613,21.2225806 4.22129032,21.6929032 4.5116129,22.076129 L5.80645161,23.8064516 L5.80645161,24.9677419 L3.48387097,27.2903226 L3.35612903,27.4122581 C1.63741935,25.5541935 0.580645161,23.0632258 0.580645161,20.3225806 L0.580645161,18.2496774 C0.580645161,12.5825806 4.98774194,7.75741935 10.6490323,7.55419355 C10.7767742,7.5483871 10.9045161,7.5483871 11.0322581,7.5483871 L14.5509677,7.5483871 C15.9154839,7.5483871 17.2103226,6.93290323 18.063871,5.87032258 L18.5806452,5.22580645 C19.5387097,6.95032258 19.2658065,9.10451613 17.9012903,10.5329032 L17.4193548,11.0322581 L17.82,11.0322581 C18.9696774,11.0322581 20.0787097,10.5909677 20.9206452,9.79548387 L22.0645161,8.70967742 L22.796129,10.5329032 Z" id="Path" fill="#FFFFFF"></path>
                    <path d="M14.516129,30.7741935 L14.516129,36 L5.22580645,36 L5.22580645,29.0090323 C4.54064516,28.5503226 3.91354839,28.016129 3.35612903,27.4122581 L3.48387097,27.2903226 L5.80645161,24.9677419 L5.80645161,23.8064516 L4.5116129,22.076129 C4.22129032,21.6929032 4.06451613,21.2225806 4.06451613,20.7406452 L4.06451613,19.6490323 C4.06451613,18.4180645 5.06322581,17.4193548 6.29419355,17.4193548 C6.73548387,17.4193548 7.16516129,17.5470968 7.53096774,17.7909677 L8.70967742,18.5806452 L9.29032258,18 C9.29032258,17.036129 9.67935484,16.1651613 10.3122581,15.5380645 C10.9393548,14.9051613 11.8103226,14.516129 12.7741935,14.516129 L20.096129,14.516129 C20.3574194,14.516129 20.6187097,14.4812903 20.8625806,14.4116129 L20.8858065,14.5045161 C21.2748387,15.596129 21.483871,16.7748387 21.483871,18 L21.483871,23.8064516 L19.7419355,24.3870968 L19.5329032,26.7096774 L19.3180645,29.0322581 L19.1612903,30.7741935 L14.516129,30.7741935 Z" id="Path" fill="#FFFFFF"></path>
                    <path d="M29.6129032,26.7096774 C30.2516129,26.7096774 30.7741935,27.2322581 30.7741935,27.8709677 C30.7741935,28.1903226 30.6464516,28.4806452 30.4316129,28.6896774 C30.2225806,28.9045161 29.9322581,29.0322581 29.6129032,29.0322581 L19.3180645,29.0322581 L19.5329032,26.7096774 L29.6129032,26.7096774 Z" id="Path" fill="#FFFFFF"></path>
                    <path d="M19.1612903,18 L18,18 C18,18.1445806 17.3821935,18.5806452 16.2580645,18.5806452 C15.1339355,18.5806452 14.516129,18.1445806 14.516129,18 L13.3548387,18 C13.3548387,18.9929032 14.6026452,19.7419355 16.2580645,19.7419355 C17.9134839,19.7419355 19.1612903,18.9929032 19.1612903,18 Z" id="Path" fill="#30C7DB"></path>
                    <path d="M29.6129032,26.1290323 L20.1663871,26.1290323 L20.2854194,24.8179355 L22.0645161,24.2250968 L22.0645161,18 C22.0645161,16.8961935 21.8932258,15.8132903 21.5732903,14.769871 C22.3589032,14.4046452 22.995871,13.752 23.3332258,12.9077419 C23.6670968,12.0727742 23.6670968,11.1536129 23.3332258,10.3192258 L22.2857419,7.69993548 L20.5176774,9.37509677 C20.0334194,9.8343871 19.449871,10.1578065 18.8175484,10.3232903 C19.9219355,8.74567742 20.0485161,6.6716129 19.0875484,4.9436129 L18.6683226,4.18993548 L17.6109677,5.50393548 C16.8625161,6.43412903 15.7476774,6.96774194 14.5532903,6.96774194 L11.0322581,6.96774194 C10.8992903,6.96774194 10.7651613,6.97006452 10.6310323,6.97529032 C4.76883871,7.18316129 0,12.2417419 0,18.2508387 L0,20.3225806 C0,23.9057419 1.73032258,27.2444516 4.64516129,29.3161935 L4.64516129,36 L5.80645161,36 L5.80645161,28.701871 L5.54922581,28.5294194 C5.05335484,28.197871 4.59464516,27.8262581 4.17483871,27.4209677 L6.38709677,25.208129 L6.38709677,23.6130968 L4.9743871,21.7300645 C4.76187097,21.4467097 4.64516129,21.0954194 4.64516129,20.7412258 L4.64516129,19.647871 C4.64516129,18.7391613 5.38432258,18 6.29303226,18 C6.61935484,18 6.93522581,18.0958065 7.20696774,18.2769677 L8.78341935,19.3285161 L9.87096774,18.2403871 L9.87096774,18 C9.87096774,16.3991613 11.1733548,15.0967742 12.7741935,15.0967742 L20.0990323,15.0967742 C20.2186452,15.0967742 20.3347742,15.0822581 20.4520645,15.0706452 C20.745871,16.0159355 20.9032258,16.9983871 20.9032258,18 L20.9032258,23.3878065 L19.197871,23.9562581 L18.6311613,30.1935484 L13.3548387,30.1935484 C11.114129,30.1935484 9.29032258,28.3697419 9.29032258,26.1290323 L9.29032258,25.5483871 L8.12903226,25.5483871 L8.12903226,26.1290323 C8.12903226,29.0107742 10.4730968,31.3548387 13.3548387,31.3548387 L13.9354839,31.3548387 L13.9354839,36 L15.0967742,36 L15.0967742,31.3548387 L19.6914194,31.3548387 L19.8499355,29.6129032 L29.6129032,29.6129032 C30.5732903,29.6129032 31.3548387,28.8313548 31.3548387,27.8709677 C31.3548387,26.9105806 30.5732903,26.1290323 29.6129032,26.1290323 L29.6129032,26.1290323 Z M12.7741935,13.9354839 C10.6159355,13.9354839 8.84554839,15.6257419 8.71722581,17.7520645 L8.63593548,17.8333548 L7.85032258,17.3107742 C7.38754839,17.001871 6.84870968,16.8387097 6.29303226,16.8387097 C4.74387097,16.8387097 3.48387097,18.0987097 3.48387097,19.647871 L3.48387097,20.7412258 C3.48387097,21.3450968 3.6836129,21.9431613 4.04593548,22.4262581 L5.22580645,23.9998065 L5.22580645,24.7273548 L3.38690323,26.5662581 C1.96432258,24.8254839 1.16129032,22.6312258 1.16129032,20.3225806 L1.16129032,18.2508387 C1.16129032,12.8595484 5.42787097,8.32180645 10.6716774,8.13541935 C10.7924516,8.13135484 10.9126452,8.12903226 11.0322581,8.12903226 L14.5532903,8.12903226 C16.0513548,8.12903226 17.4524516,7.4816129 18.4209677,6.34645161 C18.7983871,7.66509677 18.4621935,9.10103226 17.4797419,10.1287742 L16.0606452,11.6129032 L17.8176774,11.6129032 C19.125871,11.6129032 20.3690323,11.1170323 21.3166452,10.2176129 L21.842129,9.72 L22.2543871,10.7506452 C22.4773548,11.3069032 22.4773548,11.9194839 22.2543871,12.4763226 C21.9007742,13.3629677 21.0541935,13.9354839 20.0990323,13.9354839 L12.7741935,13.9354839 Z M29.6129032,28.4516129 L19.9556129,28.4516129 L20.0612903,27.2903226 L29.6129032,27.2903226 C29.9334194,27.2903226 30.1935484,27.5504516 30.1935484,27.8709677 C30.1935484,28.1914839 29.9334194,28.4516129 29.6129032,28.4516129 Z" id="Shape" fill="#30C7DB"></path>
                    <path d="M34.9670323,12.645871 C34.3004516,11.979871 33.4300645,11.6129032 32.5167097,11.6129032 C32.516129,11.6129032 32.5155484,11.6129032 32.5155484,11.6129032 C30.5947742,11.6134839 29.0322581,13.176 29.0322581,15.0967742 L30.1935484,15.0967742 C30.1935484,13.8164516 31.2352258,12.7747742 32.5155484,12.7741935 L32.5167097,12.7741935 C33.12,12.7741935 33.6989032,13.0203871 34.146,13.4669032 C34.5925161,13.9145806 34.8387097,14.4934839 34.8387097,15.0973548 C34.838129,16.3776774 33.7964516,17.4193548 32.516129,17.4193548 L31.9354839,17.4193548 L31.9354839,18.8709677 C31.9354839,19.3511613 31.5447097,19.7419355 31.0645161,19.7419355 C29.943871,19.7419355 29.0322581,20.6535484 29.0322581,21.7741935 L29.0322581,24.9677419 L30.1935484,24.9677419 L30.1935484,21.7741935 C30.1935484,21.294 30.5843226,20.9032258 31.0645161,20.9032258 C32.1851613,20.9032258 33.0967742,19.9916129 33.0967742,18.8709677 L33.0967742,18.5324516 C34.7417419,18.2549032 35.9994194,16.8207097 36.0000007,15.0973548 C36.0005806,14.1834194 35.6330323,13.3130323 34.9670323,12.645871 L34.9670323,12.645871 Z" id="Path" fill="#30C7DB"></path>
                    <path d="M22.6567742,6.92129032 C22.7792903,8.24806452 23.8993548,9.29032258 25.2580645,9.29032258 C26.0587742,9.29032258 26.7096774,9.94122581 26.7096774,10.7419355 L26.7096774,11.9032258 C26.7096774,12.7143871 26.4414194,13.5185806 25.9548387,14.1671613 C25.3184516,15.0160645 24.9677419,16.0681935 24.9677419,17.1290323 C24.9677419,18.189871 25.3184516,19.242 25.9548387,20.0909032 C26.4414194,20.7394839 26.7096774,21.5436774 26.7096774,22.3548387 L26.7096774,24.9677419 L27.8709677,24.9677419 L27.8709677,22.3548387 C27.8709677,21.294 27.5202581,20.241871 26.883871,19.3929677 C26.3972903,18.7443871 26.1290323,17.9401935 26.1290323,17.1290323 C26.1290323,16.317871 26.3972903,15.5136774 26.883871,14.8650968 C27.5208387,14.0161935 27.8709677,12.9646452 27.8709677,11.9032258 L27.8709677,10.7419355 C27.8709677,9.30135484 26.6986452,8.12903226 25.2580645,8.12903226 C24.4573548,8.12903226 23.8064516,7.47812903 23.8064516,6.67741935 L23.8064516,5.80645161 L23.2258065,5.80645161 C21.9454839,5.80645161 20.9038065,4.76477419 20.9032258,3.48445161 C20.9032258,2.88058065 21.1494194,2.30167742 21.5959355,1.854 C22.0430323,1.40748387 22.6219355,1.16129032 23.2252258,1.16129032 L23.2263871,1.16129032 C24.5067097,1.16187097 25.5483871,2.20354839 25.5483871,3.48387097 L26.7096774,3.48387097 C26.7096774,1.56309677 25.1471613,0.000580645161 23.2263871,0 C23.2263871,0 23.2258065,0 23.2252258,0 C22.311871,0 21.4414839,0.366967742 20.7749032,1.03296774 C20.1089032,1.70012903 19.7413548,2.57051613 19.7419348,3.48445161 C19.7425161,5.21129032 21.006,6.6483871 22.6567742,6.92129032 L22.6567742,6.92129032 Z" id="Path" fill="#30C7DB"></path>
                </g>
            </g>
        </g>
    </g>
</svg>