<?xml version="1.0" encoding="UTF-8"?>
<svg width="54px" height="54px" viewBox="0 0 54 54" version="1.1" xmlns="http://www.w3.org/2000/svg" xmlns:xlink="http://www.w3.org/1999/xlink">
    <!-- Generator: sketchtool 61.2 (101010) - https://sketch.com -->
    <title>926338ED-68DC-452D-B16F-5C78551E96A4</title>
    <desc>Created with sketchtool.</desc>
    <g id="Proceso-E-Commerce-Propuesta" stroke="none" stroke-width="1" fill="none" fill-rule="evenodd">
        <g id="Oncosalud_Wireframes_Desktop_CheckoutResumen" transform="translate(-213.000000, -270.000000)">
            <g id="icon_check_info" transform="translate(213.000000, 270.000000)">
                <circle id="Oval" fill-opacity="0.1" fill="#30C7DB" cx="27" cy="27" r="27"></circle>
                <g id="proofreading" transform="translate(9.000000, 11.000000)" fill-rule="nonzero">
                    <polygon id="Path" fill="#FFFFFF" points="0.430338462 28.9385169 21.7859262 28.9385169 21.7859262 31.9846154 0.430338462 31.9846154"></polygon>
                    <path d="M10.6049354,6.70281231 C10.4858031,6.70281231 10.37232,6.65163692 10.2935631,6.56224615 L8.92246154,5.00854154 C8.77059692,4.83657231 8.78704615,4.57404923 8.95918154,4.42218462 C9.13131692,4.27065231 9.39384,4.28710154 9.54537231,4.45890462 L10.6024431,5.65704 L12.7134277,3.22753846 C12.8637969,3.05424 13.12632,3.03579692 13.2994523,3.18649846 C13.4725846,3.33686769 13.4910277,3.59922462 13.3404923,3.77235692 L10.9184677,6.55975385 C10.8398769,6.65014154 10.7262277,6.70214769 10.6064308,6.70264615 C10.6059323,6.70281231 10.6054338,6.70281231 10.6049354,6.70281231 L10.6049354,6.70281231 Z" id="Path" fill="#30C7DB"></path>
                    <g id="Group" transform="translate(17.529231, 15.286154)">
                        <path d="M15.9113908,12.9963877 L12.0920123,9.17717538 C11.6178092,8.70297231 11.6119938,7.938 12.0744,7.45665231 C12.0667569,7.46379692 12.05928,7.47110769 12.0519692,7.47858462 L11.1828185,8.34773538 C10.7028,8.82775385 10.7028,9.60618462 11.1828185,10.0863692 L15.0021969,13.9057477 C15.4823815,14.3859323 16.2608123,14.3859323 16.7408308,13.9057477 L17.6099815,13.0365969 C17.6159631,13.0306154 17.6216123,13.0246338 17.6274277,13.0186523 C17.1457477,13.4764062 16.3840985,13.4690954 15.9113908,12.9963877 L15.9113908,12.9963877 Z" id="Path" fill="#FFFFFF"></path>
                        <path d="M8.27213538,0.0327323077 C7.52826462,0.749187692 6.08322462,1.89016615 4.42218462,1.89016615 C2.76114462,1.89016615 1.31593846,0.749187692 0.572233846,0.0327323077 C0.231784615,0.360553846 0.0382153846,0.599649231 0.0382153846,0.599649231 C0.0382153846,0.599649231 2.00099077,3.024 4.42218462,3.024 C6.84337846,3.024 8.80615385,0.599649231 8.80615385,0.599649231 C8.80615385,0.599649231 8.61241846,0.360553846 8.27213538,0.0327323077 L8.27213538,0.0327323077 Z" id="Path" fill="#FFFFFF"></path>
                        <path d="M4.42218462,0.958375385 C3.87404308,0.958375385 3.40681846,0.615932308 3.21972923,0.133753846 C3.16356923,0.278473846 3.13166769,0.435156923 3.13166769,0.599649231 C3.13166769,1.31228308 3.70938462,1.89016615 4.42218462,1.89016615 C5.13498462,1.89016615 5.71270154,1.31244923 5.71270154,0.599649231 C5.71270154,0.435156923 5.6808,0.278307692 5.62464,0.133753846 C5.43755077,0.615932308 4.97032615,0.958375385 4.42218462,0.958375385 Z" id="Path" fill="#EBE7F2"></path>
                    </g>
                    <g id="Group" fill="#30C7DB">
                        <path d="M21.7859262,25.3967815 C21.5564677,25.3967815 21.3705415,25.5827077 21.3705415,25.8121662 L21.3705415,31.5692308 L0.845723077,31.5692308 L0.845723077,5.19180923 L4.39094769,5.19180923 C4.62040615,5.19180923 4.80633231,5.00588308 4.80633231,4.77642462 C4.80633231,4.54696615 4.62040615,4.36104 4.39094769,4.36104 L0.430338462,4.36104 C0.20088,4.36104 0.0149538462,4.54696615 0.0149538462,4.77642462 L0.0149538462,31.9846154 C0.0149538462,32.2140738 0.20088,32.4 0.430338462,32.4 L21.7859262,32.4 C22.0153846,32.4 22.2013108,32.2140738 22.2013108,31.9846154 L22.2013108,25.8121662 C22.2013108,25.5827077 22.0153846,25.3967815 21.7859262,25.3967815 Z" id="Path"></path>
                        <path d="M17.8253169,5.19180923 L21.3705415,5.19180923 L21.3705415,6.00928615 C21.3705415,6.23874462 21.5564677,6.42467077 21.7859262,6.42467077 C22.0153846,6.42467077 22.2013108,6.23874462 22.2013108,6.00928615 L22.2013108,4.77642462 C22.2013108,4.54696615 22.0153846,4.36104 21.7859262,4.36104 L17.8253169,4.36104 C17.5958585,4.36104 17.4099323,4.54696615 17.4099323,4.77642462 C17.4099323,5.00588308 17.5958585,5.19180923 17.8253169,5.19180923 Z" id="Path"></path>
                        <path d="M11.1082154,9.55268308 C13.74192,9.55268308 15.88464,7.40996308 15.88464,4.77642462 C15.88464,2.14255385 13.7420862,0 11.1082154,0 C8.47451077,0 6.33179077,2.14272 6.33179077,4.77642462 C6.33179077,7.41012923 8.47451077,9.55268308 11.1082154,9.55268308 Z M11.1082154,0.830769231 C13.2838338,0.830769231 15.0538708,2.60080615 15.0538708,4.77642462 C15.0538708,6.95204308 13.2838338,8.72191385 11.1082154,8.72191385 C8.93259692,8.72191385 7.16256,6.95204308 7.16256,4.77642462 C7.16256,2.60080615 8.93259692,0.830769231 11.1082154,0.830769231 Z" id="Shape"></path>
                        <path d="M3.89265231,13.1412738 L11.5445354,13.1412738 C11.7739938,13.1412738 11.95992,12.9553477 11.95992,12.7258892 C11.95992,12.4964308 11.7739938,12.3105046 11.5445354,12.3105046 L3.89265231,12.3105046 C3.66319385,12.3105046 3.47726769,12.4964308 3.47726769,12.7258892 C3.47726769,12.9553477 3.66319385,13.1412738 3.89265231,13.1412738 Z" id="Path"></path>
                        <path d="M3.89265231,16.43976 L10.9643262,16.43976 C11.1937846,16.43976 11.3797108,16.2538338 11.3797108,16.0243754 C11.3797108,15.7949169 11.1937846,15.6089908 10.9643262,15.6089908 L3.89265231,15.6089908 C3.66319385,15.6089908 3.47726769,15.7949169 3.47726769,16.0243754 C3.47726769,16.2538338 3.66319385,16.43976 3.89265231,16.43976 Z" id="Path"></path>
                        <path d="M11.8444431,18.9076431 L3.89265231,18.9076431 C3.66319385,18.9076431 3.47726769,19.0935692 3.47726769,19.3230277 C3.47726769,19.5524862 3.66319385,19.7384123 3.89265231,19.7384123 L11.8442769,19.7384123 C12.0737354,19.7384123 12.2596615,19.5524862 12.2596615,19.3230277 C12.2596615,19.0935692 12.0737354,18.9076431 11.8444431,18.9076431 Z" id="Path"></path>
                        <path d="M13.8946154,22.2061292 L3.89265231,22.2061292 C3.66319385,22.2061292 3.47726769,22.3920554 3.47726769,22.6215138 C3.47726769,22.8509723 3.66319385,23.0368985 3.89265231,23.0368985 L13.8946154,23.0368985 C14.1240738,23.0368985 14.31,22.8509723 14.31,22.6215138 C14.31,22.3920554 14.1240738,22.2061292 13.8946154,22.2061292 Z" id="Path"></path>
                        <path d="M3.47726769,25.92 C3.47726769,26.1494585 3.66319385,26.3353846 3.89265231,26.3353846 L18.3236123,26.3353846 C18.5530708,26.3353846 18.7389969,26.1494585 18.7389969,25.92 C18.7389969,25.6905415 18.5530708,25.5046154 18.3236123,25.5046154 L3.89265231,25.5046154 C3.66319385,25.5046154 3.47726769,25.6905415 3.47726769,25.92 Z" id="Path"></path>
                        <path d="M35.4328062,26.2903569 L31.6134277,22.4709785 C30.97224,21.8297908 29.9287938,21.8299569 29.2872738,22.4711446 L28.4181231,23.3402954 C27.7771015,23.9814831 27.7771015,25.0250954 28.4182892,25.6662831 L32.2376677,29.4854954 C32.5483754,29.7962031 32.9612677,29.9671754 33.4007446,29.9671754 C33.8402215,29.9671754 34.2531138,29.7960369 34.5636554,29.4853292 L35.4328062,28.6163446 C36.07416,27.9748246 36.07416,26.9313785 35.4328062,26.2903569 Z M34.8454523,28.0288246 L33.9763015,28.8978092 C33.8226092,29.0516677 33.6180738,29.1364062 33.4007446,29.1364062 C33.1832492,29.1364062 32.97888,29.0516677 32.8251877,28.8979754 L29.0058092,25.0787631 C28.6884554,24.7614092 28.6882892,24.2448369 29.0056431,23.9274831 L29.8747938,23.0581662 C30.0286523,22.9043077 30.2330215,22.8195692 30.4505169,22.8195692 C30.6680123,22.8195692 30.8723815,22.9043077 31.0260738,23.058 L34.8454523,26.8773785 C35.1628062,27.1950646 35.1628062,27.7113046 34.8454523,28.0288246 Z" id="Shape"></path>
                        <path d="M21.7859262,9.10971692 C18.0757108,9.10971692 15.0571938,12.1282338 15.0571938,15.8384492 C15.0571938,19.5488308 18.0757108,22.5673477 21.7859262,22.5673477 C25.4963077,22.5673477 28.5148246,19.5488308 28.5148246,15.8384492 C28.5148246,12.1282338 25.4963077,9.10971692 21.7859262,9.10971692 Z M21.7859262,21.7365785 C18.5337969,21.7365785 15.8879631,19.0905785 15.8879631,15.8384492 C15.8879631,12.58632 18.5337969,9.94048615 21.7859262,9.94048615 C25.0380554,9.94048615 27.6840554,12.58632 27.6840554,15.8384492 C27.6840554,19.0907446 25.0380554,21.7365785 21.7859262,21.7365785 L21.7859262,21.7365785 Z" id="Shape"></path>
                        <path d="M27.1603385,22.3639754 C27.0144554,22.2179262 26.7833354,22.2011446 26.6181785,22.3247631 C25.2141785,23.3726954 23.5431692,23.9266523 21.7859262,23.9266523 C17.3261908,23.9266523 13.6980554,20.2983508 13.6980554,15.8386154 C13.6980554,11.37888 17.3261908,7.75074462 21.7859262,7.75074462 C26.2456615,7.75074462 29.8737969,11.37888 29.8737969,15.8386154 C29.8737969,17.5958585 29.31984,19.2668677 28.2720738,20.6708677 C28.1486215,20.8361908 28.1652369,21.0671446 28.31112,21.2130277 L28.8667385,21.7689785 C29.0289046,21.9313108 29.2919262,21.9311446 29.4542585,21.7691446 C29.6164246,21.6068123 29.6164246,21.3437908 29.4542585,21.1816246 L29.1475385,20.8747385 C30.1672246,19.3889908 30.7044,17.6555077 30.7044,15.8386154 C30.7044,10.9207938 26.7034154,6.91997538 21.78576,6.91997538 C16.8679385,6.91997538 12.86712,10.9207938 12.86712,15.8386154 C12.86712,20.7564369 16.8681046,24.7574215 21.78576,24.7574215 C23.6026523,24.7574215 25.3359692,24.2204123 26.8217169,23.20056 L27.1284369,23.5074462 C27.2906031,23.6696123 27.5536246,23.6697785 27.7159569,23.5074462 C27.8782892,23.34528 27.8782892,23.0822585 27.7161231,22.9200923 L27.1603385,22.3639754 Z" id="Path"></path>
                        <path d="M26.6582215,15.6244431 C26.5729846,15.5191015 24.5410892,13.0459015 21.9514154,13.0459015 C19.3617415,13.0459015 17.3298462,15.5191015 17.2446092,15.6244431 C17.1211569,15.7768062 17.1211569,15.9948 17.2446092,16.1471631 C17.3298462,16.2525046 19.3619077,18.7255385 21.9514154,18.7255385 C24.5409231,18.7255385 26.5729846,16.2525046 26.6582215,16.1471631 C26.7815077,15.9949662 26.7815077,15.7768062 26.6582215,15.6244431 L26.6582215,15.6244431 Z M21.9514154,17.8947692 C20.2152738,17.8947692 18.6911446,16.4821292 18.1247262,15.8853046 C18.6899815,15.2879815 20.2099569,13.8766708 21.9514154,13.8766708 C23.6873908,13.8766708 25.21152,15.2891446 25.7781046,15.8863015 C25.2128492,16.4836246 23.6927077,17.8947692 21.9514154,17.8947692 Z" id="Shape"></path>
                        <path d="M21.9514154,14.1800677 C21.0108185,14.1800677 20.2455138,14.9452062 20.2455138,15.8859692 C20.2455138,16.8265662 21.0106523,17.5918708 21.9514154,17.5918708 C22.8920123,17.5918708 23.6573169,16.8265662 23.6573169,15.8859692 C23.6571508,14.9452062 22.8920123,14.1800677 21.9514154,14.1800677 L21.9514154,14.1800677 Z M21.9514154,16.7609354 C21.4689046,16.7609354 21.0762831,16.36848 21.0762831,15.8858031 C21.0762831,15.4032923 21.4689046,15.0106708 21.9514154,15.0106708 C22.4339262,15.0106708 22.8265477,15.4031262 22.8265477,15.8858031 C22.8263815,16.36848 22.4339262,16.7609354 21.9514154,16.7609354 Z" id="Shape"></path>
                    </g>
                </g>
            </g>
        </g>
    </g>
</svg>