<?xml version="1.0" encoding="UTF-8"?>
<svg width="64px" height="64px" viewBox="0 0 64 64" version="1.1" xmlns="http://www.w3.org/2000/svg" xmlns:xlink="http://www.w3.org/1999/xlink">
    <!-- Generator: sketchtool 61.2 (101010) - https://sketch.com -->
    <title>DBDD5951-C8B8-4805-A2D2-093A73DACCE2</title>
    <desc>Created with sketchtool.</desc>
    <g id="Proceso-E-Commerce-Propuesta" stroke="none" stroke-width="1" fill="none" fill-rule="evenodd">
        <g id="Oncosalud_Wireframes_Desktop_Cotización_01" transform="translate(-927.000000, -367.000000)" fill-rule="nonzero">
            <g id="Group-5" transform="translate(165.000000, 104.000000)">
                <g id="Group-10-Copy">
                    <g id="Group-10" transform="translate(576.000000, 70.000000)">
                        <g id="Group-14" transform="translate(0.000000, 48.000000)">
                            <g id="Group-7" transform="translate(70.000000, 145.000000)">
                                <g id="Group-9">
                                    <g id="Group-6">
                                        <g id="icon_question_reminder" transform="translate(116.000000, 0.000000)">
                                            <circle id="Oval" fill="#EAF9FB" cx="32" cy="32" r="32"></circle>
                                            <path d="M33.1716535,11.023622 C22.2362205,11.023622 13.3669291,19.8929134 13.3669291,30.8283465 C13.3669291,34.2551181 14.2362205,37.480315 15.7732283,40.2897638 L13.8522437,48.5469806 C13.6853859,49.2642069 14.1315477,49.9808986 14.848774,50.1477563 C15.0475352,50.1939967 15.2542582,50.1939967 15.4530194,50.1477563 L23.7102362,48.2267717 L23.7102362,48.2267717 C26.519685,49.7637795 29.7448819,50.6330709 33.1716535,50.6330709 C44.1070866,50.6330709 52.976378,41.7637795 52.976378,30.8283465 C52.976378,19.8929134 44.1070866,11.023622 33.1716535,11.023622 Z" id="Path" stroke="#30C7DB" stroke-width="1.33333333" fill="#FFFFFF"></path>
                                            <path d="M34.6243094,34.8164251 L31.3867403,34.8164251 L31.3867403,33.1202362 C31.3867403,32.3794954 31.4751381,31.821256 31.6629834,31.4669887 C31.839779,31.101986 32.2375691,30.6296296 32.8563536,30.0391841 L34.9447514,28.0101986 C35.3867403,27.5485776 35.6077348,26.9688674 35.6077348,26.2818035 C35.6077348,25.5947397 35.3756906,25.0257649 34.9226519,24.5748792 C34.4585635,24.1239936 33.8729282,23.8878154 33.1436464,23.8878154 C32.4143646,23.8878154 31.8176796,24.1025228 31.320442,24.5426731 C30.8342541,24.9828234 30.5469613,25.5625335 30.4696133,26.2818035 L27,26.2818035 C27.1878453,24.6285561 27.8508287,23.3403113 28.9889503,22.4063339 C30.1270718,21.4723564 31.5414365,21 33.2430939,21 C34.9447514,21 36.3259669,21.4508857 37.3977901,22.352657 C38.4696133,23.2544283 39,24.510467 39,26.1207729 C39,27.2372517 38.6906077,28.1604938 38.0607735,28.9012346 C37.6961326,29.3413849 37.4198895,29.6634461 37.2320442,29.8459474 C37.0441989,30.0284487 36.7900552,30.2646269 36.4696133,30.554482 C36.1491713,30.8443371 35.8839779,31.0912507 35.6629834,31.3059581 C35.441989,31.5206656 35.2651934,31.7031669 35.1325967,31.8534622 C34.7900552,32.2614063 34.6132597,32.8411165 34.6132597,33.5818572 L34.6132597,34.8164251 L34.6243094,34.8164251 L34.6243094,34.8164251 Z M33.0662983,41 C32.4696133,41 31.9502762,40.7960279 31.5082873,40.3988191 C31.0662983,40.0016103 30.8453039,39.5185185 30.8453039,38.9495437 C30.8453039,38.380569 31.0552486,37.8974772 31.4861878,37.489533 C31.9171271,37.0815888 32.4364641,36.8776167 33.0331492,36.8776167 C33.6298343,36.8776167 34.1491713,37.0815888 34.5911602,37.4787976 C35.0331492,37.8760064 35.2430939,38.3590982 35.2430939,38.928073 C35.2430939,39.4970478 35.0331492,39.9801396 34.6022099,40.3880837 C34.1823204,40.7960279 33.6629834,41 33.0662983,41 Z" id="Shape" fill="#30C7DB"></path>
                                        </g>
                                    </g>
                                </g>
                            </g>
                        </g>
                    </g>
                </g>
            </g>
        </g>
    </g>
</svg>