<?xml version="1.0" encoding="UTF-8"?>
<svg width="24px" height="24px" viewBox="0 0 24 24" version="1.1" xmlns="http://www.w3.org/2000/svg" xmlns:xlink="http://www.w3.org/1999/xlink">
    <!-- Generator: sketchtool 62 (101010) - https://sketch.com -->
    <title>72DD6483-F308-4EDF-B1AF-0851E4EA1FA6</title>
    <desc>Created with sketchtool.</desc>
    <g id="Proceso-E-Commerce-Propuesta" stroke="none" stroke-width="1" fill="none" fill-rule="evenodd">
        <g id="Oncosalud_Wireframes_Desktop_Filtro" transform="translate(-1065.000000, -28.000000)">
            <g id="Menu">
                <g id="wpp" transform="translate(1065.000000, 28.000000)">
                    <rect id="Rectangle-Copy" x="0" y="0" width="24" height="24"></rect>
                    <g id="Icon_wpp" fill-rule="nonzero">
                        <path d="M11.9812865,2.40186343 C6.80308772,2.29976285 2.51823158,6.40609267 2.4,11.5839172 C2.41351111,14.2196319 3.58059415,16.7172786 5.59374971,18.4185558 L5.59374971,21.1652038 C5.59374971,21.3856857 5.77250058,21.5644365 5.99298246,21.5644365 C6.06779883,21.5644365 6.14111813,21.5434026 6.20455673,21.5037675 L8.42981053,20.113695 C9.5635462,20.5473231 10.7674573,20.7684412 11.9812865,20.7660085 C17.1594854,20.868109 21.4443415,16.7617792 21.5625731,11.5839547 C21.4443415,6.40609267 17.1594854,2.29976285 11.9812865,2.40186343 Z" id="Path" fill="#005892" transform="translate(11.981287, 11.982218) rotate(-345.000000) translate(-11.981287, -11.982218) "></path>
                        <g id="Group-42" transform="translate(7.200000, 7.483085)" fill="#FFFFFF">
                            <path d="M9.73325099,6.42368 C9.67501099,6.32832 9.52119766,6.27072 9.29037099,6.15616 C9.05911766,6.0416 7.92290433,5.48672 7.71170433,5.41056 C7.49986433,5.33418667 7.34541099,5.29578667 7.19159766,5.52512 C7.03778433,5.75466667 6.59490433,6.27072 6.45986433,6.42368 C6.32503766,6.57706667 6.19042433,6.59626667 5.95917099,6.48149333 C5.72834433,6.36693333 4.98402433,6.12458667 4.10146433,5.34378667 C3.41474433,4.73621333 2.95095766,3.98613333 2.81613099,3.75637333 C2.68151766,3.52704 2.80205099,3.40309333 2.91746433,3.28896 C3.02157099,3.18613333 3.14871766,3.02122667 3.26413099,2.88746667 C3.37997099,2.75349333 3.41837099,2.65813333 3.49495766,2.50496 C3.57239766,2.352 3.53378433,2.21824 3.47575766,2.10325333 C3.41815766,1.98869333 2.95565099,0.860586667 2.76322433,0.401493333 C2.57079766,-0.0571733333 2.37858433,0.0192 2.24354433,0.0192 C2.10893099,0.0192 1.95469099,-2.27373675e-13 1.80066433,-2.27373675e-13 C1.64663766,-2.27373675e-13 1.39618433,0.0573866667 1.18434433,0.28672 C0.972717661,0.516266667 0.376024327,1.07093333 0.376024327,2.19882667 C0.376024327,3.32693333 1.20354433,4.41685333 1.31938433,4.5696 C1.43479766,4.72234667 2.91725099,7.11253333 5.26605099,8.03050667 C7.61506433,8.94805333 7.61506433,8.64192 8.03874433,8.60352 C8.46199766,8.56533333 9.40535766,8.04906667 9.59863766,7.51402667 C9.79063766,6.97813333 9.79063766,6.51925333 9.73325099,6.42368 Z" id="WhatsApp"></path>
                        </g>
                    </g>
                </g>
            </g>
        </g>
    </g>
</svg>