<svg xmlns="http://www.w3.org/2000/svg" width="530" height="495" viewBox="0 0 530 495">
    <g fill="none" fill-rule="nonzero" opacity=".04">
        <path fill="#1F6786" d="M157.373-70.237C67.975-58.65 3.41 15.849 1.755 101.936c0 8.277 0 16.555 1.655 24.833 8.278 66.22 54.632 125.818 163.896 125.818 157.273 0 226.804 87.742 238.393 187.073 6.622 52.976-6.622 104.297-33.11 145.685 107.608-74.498 172.173-203.628 153.962-342.69C500.063 35.714 306.368-88.449 157.372-70.238"/>
        <path fill="#30C7DB" d="M177.239 644.943C264.98 633.355 331.2 558.857 332.857 472.77c0-8.277 0-16.555-1.656-24.832-8.277-66.22-54.632-125.82-163.895-125.82-157.274 0-226.805-86.086-238.394-187.072C-77.71 82.07-64.466 30.75-37.978-10.639-145.586 63.86-210.15 192.99-191.94 332.051c26.488 206.94 220.183 331.103 369.179 312.892"/>
    </g>
</svg>
