<?xml version="1.0" encoding="UTF-8"?>
<svg width="86px" height="52px" viewBox="0 0 86 52" version="1.1" xmlns="http://www.w3.org/2000/svg" xmlns:xlink="http://www.w3.org/1999/xlink">
    <!-- Generator: sketchtool 61.2 (101010) - https://sketch.com -->
    <title>F1B0A7BE-8F5E-4672-9DDA-82FBB4571E68</title>
    <desc>Created with sketchtool.</desc>
    <g id="Proceso-E-Commerce-Propuesta" stroke="none" stroke-width="1" fill="none" fill-rule="evenodd">
        <g id="Oncosalud_Wireframes_Desktop_CheckoutPago" transform="translate(-846.000000, -285.000000)">
            <g id="Mastercard" transform="translate(827.000000, 279.000000)">
                <g id="Group-3" transform="translate(19.000000, 6.000000)">
                    <rect id="VISA" x="0" y="0" width="86" height="52"></rect>
                    <g id="mastercard" transform="translate(15.000000, 9.000000)" fill-rule="nonzero">
                        <path d="M34.4680851,17.2340426 C34.4680851,26.754199 26.7536157,34.4680851 17.2340426,34.4680851 C7.71446939,34.4680851 0,26.7524979 0,17.2340426 C0,7.71558725 7.71636014,0 17.2340426,0 C26.751725,0 34.4680851,7.71558725 34.4680851,17.2340426 Z" id="Path" fill="#E2574C"></path>
                        <path d="M38.6818906,0 C34.8181446,0 31.261162,1.2874048 28.3866952,3.43654481 L28.400493,3.43824597 C28.9658224,3.98450935 29.589556,4.36897292 30.0703979,4.99783737 L26.4858199,5.05473193 C25.9240816,5.62178734 25.412242,6.23874363 24.9296991,6.87989428 L31.2507665,6.87989428 C31.7316083,7.45715669 32.1761603,7.95881171 32.579508,8.59637101 L23.7837304,8.59637101 C23.461468,9.15132924 23.1633989,9.72178698 22.9031319,10.3145489 L33.5808839,10.3145489 C33.860052,10.9056097 34.1099234,11.3520713 34.3219928,11.9777224 L22.2707039,11.9777224 C22.0794256,12.5723745 21.9157428,13.180636 21.7915631,13.8009946 L34.826839,13.8009946 C34.9544209,14.3973479 35.0525172,14.9487147 35.1198048,15.5106667 L21.5329972,15.5106667 C21.4761051,16.0777221 21.4468085,16.6532833 21.4468085,17.2341371 L35.2179011,17.2341371 C35.2179011,17.8442887 35.1748068,18.4094539 35.1128114,18.9576075 L21.5329972,18.9576075 C21.5915903,19.5418636 21.6777789,20.1157236 21.7915631,20.6810779 L34.8060479,20.6810779 C34.6716617,21.2394384 34.5164843,21.8012013 34.3218038,22.3837563 L22.2310117,22.3837563 C22.4135956,22.9731159 22.6360606,23.5452748 22.8789386,24.1036353 L33.5808839,24.1036353 C33.284516,24.7309876 32.9484559,25.2324536 32.5779959,25.8201121 L23.7529217,25.8201121 C24.1010784,26.42327 24.4853361,26.9988312 24.9022926,27.5503871 L31.2509555,27.6450854 C30.7098193,28.2947419 30.0153959,28.6860101 29.3827789,29.2547667 C29.4171787,29.2823634 28.3711964,29.2513643 26.3117415,29.2186642 C29.4447742,32.4518251 33.823762,34.4680851 38.6817016,34.4680851 C48.1996872,34.4680851 55.9148936,26.7523512 55.9148936,17.2341371 C55.9148936,7.71592297 48.2013882,0 38.6818906,0 Z" id="Path" fill="#F4B459"></path>
                    </g>
                </g>
            </g>
        </g>
    </g>
</svg>