<svg xmlns="http://www.w3.org/2000/svg" width="64" height="64" viewBox="0 0 64 64">
    <g fill="#30C7DB" fill-rule="evenodd">
        <circle cx="32" cy="32" r="32" fill-opacity=".1"/>
        <g fill-rule="nonzero" transform="translate(9.263 11.79)">
            <path d="M31.163 14.279H30.13a.742.742 0 0 0 0 1.483h1.032a.742.742 0 0 0 0-1.483zM40.302 11.917a2.808 2.808 0 0 0-2-.828c-.755 0-1.465.294-1.998.828a.742.742 0 1 0 1.049 1.049c.253-.254.59-.394.95-.394.358 0 .696.14.95.394a.74.74 0 0 0 1.049 0c.29-.29.29-.76 0-1.05zM32.646 11.917a2.83 2.83 0 0 0-3.998 0 .742.742 0 1 0 1.05 1.049c.253-.254.59-.394.949-.394s.696.14.95.394a.74.74 0 0 0 1.049 0c.29-.29.29-.76 0-1.05zM38.818 14.279h-1.031a.742.742 0 0 0 0 1.483h1.031a.742.742 0 0 0 0-1.483z"/>
            <path d="M46.195 13.5a2.752 2.752 0 0 0-2.368-2.72l-.042-.433.53.093a.742.742 0 0 0 .257-1.461l-.951-.167c-.04-.262-.09-.521-.15-.777l.278.046a.742.742 0 0 0 .24-1.464l-1.058-.173a9.247 9.247 0 0 0-2.236-3.09A9.234 9.234 0 0 0 34.475.95a9.235 9.235 0 0 0-4.888 1.396.742.742 0 0 0 .784 1.26 7.753 7.753 0 0 1 4.104-1.172 7.752 7.752 0 0 1 6.649 3.751.742.742 0 0 0-.006 1.465l.735.12c.083.252.152.51.21.77a.741.741 0 0 0-.191 1.47l.396.07.552 5.712a5.722 5.722 0 0 1-1.342 4.282 11.3 11.3 0 0 1-.813-.787c-.72-.742-1.534-1.584-2.81-2.11-.783-.321-1.45-.38-1.997-.312v-1.831a.742.742 0 0 0-1.484 0v2.293a2.29 2.29 0 0 0-.113-.07c-.637-.369-1.704-.682-3.167-.08-1.276.526-2.091 1.368-2.81 2.11-.306.316-.567.58-.814.787a5.726 5.726 0 0 1-1.341-4.282l.552-5.713.396-.07a.742.742 0 0 0-.19-1.47c.057-.26.127-.516.21-.769l.734-.12a.742.742 0 0 0-.004-1.464 7.746 7.746 0 0 1 1.17-1.493.742.742 0 1 0-1.046-1.052 9.252 9.252 0 0 0-1.927 2.802l-1.063.173a.742.742 0 1 0 .24 1.464l.28-.046a9.252 9.252 0 0 0-.153.777l-.95.167a.742.742 0 0 0 .257 1.461l.53-.093-.043.433a2.752 2.752 0 0 0-2.368 2.721c0 1.21.777 2.239 1.868 2.605a7.19 7.19 0 0 0 1.395 4.525.741.741 0 0 0-.224 1.298c.366.277.791.54 1.248.771.001.017.004.034.006.05a6.578 6.578 0 0 0-3.116 5.608v11.246c0 .41.332.742.741.742h19.605c.41 0 .742-.332.742-.742V28.358a6.581 6.581 0 0 0-1.092-3.638.742.742 0 1 0-1.238.818c.553.838.846 1.813.846 2.82v10.504h-2.43V28.426a.742.742 0 0 0-1.483 0v10.436h-4.405v-9.52l1.705-2.026.026.084a.742.742 0 0 0 .948.481c2.065-.705 3.148-2.252 3.656-3.657a.74.74 0 0 0 .558-1.341c-.068-.046-.139-.088-.208-.131l.006-.052a8.378 8.378 0 0 0 1.248-.771.742.742 0 0 0-.225-1.299 7.187 7.187 0 0 0 1.395-4.525 2.742 2.742 0 0 0 1.87-2.604zm-21.434 1.027a1.262 1.262 0 0 1 .21-2.172l-.21 2.172zm8.972 24.335h-4.407V28.426a.742.742 0 0 0-1.483 0v10.436h-2.429V28.358a5.1 5.1 0 0 1 2.008-4.068c.518 1.387 1.6 2.897 3.632 3.591a.741.741 0 0 0 .948-.48l.026-.085 1.705 2.025v9.521zm4.386-12.69l-.184-.59a.742.742 0 0 0-1.276-.257l-2.184 2.594-2.184-2.594a.742.742 0 0 0-1.276.257l-.184.59c-1.345-.722-1.915-1.932-2.157-2.824 1.136.334 2.7.562 4.128-.027a4.034 4.034 0 0 0 1.673-1.267c.44.565.998.99 1.672 1.267.64.264 1.306.364 1.949.364.792 0 1.547-.152 2.173-.336-.244.892-.815 2.102-2.15 2.823zm2.771-4.628c-1.547.695-3.109.846-4.177.406-.721-.298-1.226-.846-1.545-1.677a.742.742 0 1 0-1.385 0c-.32.83-.825 1.38-1.546 1.677-1.069.44-2.63.289-4.177-.406l-.048-.022c.495-.331.92-.77 1.338-1.202.648-.67 1.319-1.362 2.31-1.77.726-.299 1.351-.302 1.858-.008a.938.938 0 0 1 .33.32.742.742 0 0 0 .627.349h.002c.255 0 .492-.131.628-.347a.993.993 0 0 1 .366-.344c.499-.271 1.11-.261 1.82.03.99.408 1.66 1.1 2.308 1.77.418.432.843.87 1.34 1.202l-.049.022zm3.299-7.017l-.21-2.172a1.265 1.265 0 0 1 .21 2.172zM18.792 26.043a.742.742 0 0 0-.704 1.306 5.12 5.12 0 0 1 2.693 4.51v7.003h-2.429v-6.935a.742.742 0 0 0-1.483 0v6.935H6.572v-6.935a.742.742 0 0 0-1.483 0v6.935H2.66v-2.78a.742.742 0 0 0-1.483 0v3.522c0 .41.332.742.741.742h19.605c.41 0 .742-.332.742-.742V31.86c0-2.432-1.33-4.661-3.473-5.817z"/>
            <path d="M15.515 28.273a.742.742 0 0 0-.742.742 3.056 3.056 0 0 1-3.052 3.053 3.056 3.056 0 0 1-3.052-3.053.742.742 0 0 0-1.484 0 4.541 4.541 0 0 0 4.536 4.536 4.541 4.541 0 0 0 4.536-4.536.742.742 0 0 0-.742-.742z"/>
            <path d="M23.441 16.747a2.752 2.752 0 0 0-2.369-2.72l-.141-1.466a9.235 9.235 0 0 0-4.385-7.005 4.87 4.87 0 0 0-4.825-5.48 4.88 4.88 0 0 0-4.767 3.884.742.742 0 0 0 1.454.297A3.391 3.391 0 0 1 11.72 1.56 3.385 3.385 0 0 1 15.1 4.836a9.246 9.246 0 0 0-3.38-.638A9.235 9.235 0 0 0 5.5 6.6a9.235 9.235 0 0 0-2.99 5.96l-.141 1.465A2.751 2.751 0 0 0 0 16.747c0 1.21.777 2.24 1.87 2.605a7.28 7.28 0 0 0 2.983 6.106l.407.296a6.618 6.618 0 0 0-4.083 6.106v2.073a.742.742 0 0 0 1.483 0V31.86a5.127 5.127 0 0 1 4.096-5.019l1.627 1.182a5.67 5.67 0 0 0 6.676 0l3.53-2.565a7.28 7.28 0 0 0 2.983-6.106 2.742 2.742 0 0 0 1.87-2.605zM2.007 17.773a1.262 1.262 0 0 1 .21-2.171l-.21 2.171zM6.497 7.7a7.755 7.755 0 0 1 5.224-2.018c1.935 0 3.79.717 5.223 2.018a7.754 7.754 0 0 1 2.51 5.005l.017.173c-3.057-.527-4.839-3.824-4.858-3.86a.742.742 0 0 0-.652-.396h-.004a.742.742 0 0 0-.653.389c-.02.037-2.036 3.6-9.211 2.966a7.751 7.751 0 0 1 2.405-4.277zm-2.582 5.75c5.867.53 8.77-1.528 9.978-2.801.91 1.282 2.849 3.445 5.725 3.746l.137 1.422-1.47 1.268a3.153 3.153 0 0 0-2.843-1.794 3.154 3.154 0 0 0-3.06 2.407h-1.323A3.154 3.154 0 0 0 8 15.29a3.153 3.153 0 0 0-2.842 1.794l-1.47-1.269.228-2.367zm13.193 4.99c0 .919-.747 1.666-1.666 1.666a1.668 1.668 0 0 1-1.666-1.666c0-.918.748-1.666 1.666-1.666.919 0 1.666.748 1.666 1.666zm-7.443 0c0 .919-.747 1.666-1.666 1.666a1.668 1.668 0 0 1-1.666-1.666c0-.918.748-1.666 1.666-1.666.919 0 1.666.748 1.666 1.666zm8.051 5.82l-3.53 2.564a4.185 4.185 0 0 1-4.931 0l-3.53-2.565a5.788 5.788 0 0 1-2.35-5.22l.137-1.414 1.359 1.173a3.153 3.153 0 0 0 3.128 2.791 3.154 3.154 0 0 0 3.06-2.407h.804v1.394h-.548a.742.742 0 0 0 0 1.484h1.29c.41 0 .741-.332.741-.742v-.53a3.136 3.136 0 0 0 2.096.801 3.153 3.153 0 0 0 3.128-2.791l1.36-1.173.136 1.415a5.788 5.788 0 0 1-2.35 5.22zm3.719-6.486l-.21-2.171a1.265 1.265 0 0 1 .21 2.171z"/>
            <path d="M13.948 22.901a.742.742 0 0 0-1.05 0c-.65.65-1.706.65-2.355 0a.742.742 0 1 0-1.049 1.05c.614.613 1.42.92 2.227.92a3.14 3.14 0 0 0 2.227-.92c.29-.29.29-.76 0-1.05zM15.958 17.267h-1.032a.742.742 0 0 0 0 1.484h1.032a.742.742 0 0 0 0-1.484zM8.515 17.267H7.483a.742.742 0 1 0 0 1.484h1.032a.742.742 0 0 0 0-1.484z"/>
            <circle cx="36.583" cy="30.776" r="1"/>
            <circle cx="36.583" cy="33.82" r="1"/>
            <circle cx="36.583" cy="36.863" r="1"/>
        </g>
    </g>
</svg>
