<?xml version="1.0" encoding="UTF-8"?>
<svg width="25px" height="24px" viewBox="0 0 25 24" version="1.1" xmlns="http://www.w3.org/2000/svg" xmlns:xlink="http://www.w3.org/1999/xlink">
    <!-- Generator: sketchtool 61.2 (101010) - https://sketch.com -->
    <title>E4472E44-8EC9-4F4E-9E86-ED8922289F0D</title>
    <desc>Created with sketchtool.</desc>
    <g id="Asset-Artboard-Page" stroke="none" stroke-width="1" fill="none" fill-rule="evenodd">
        <g id="success_icon" transform="translate(0.673175, 0.000000)" fill="#30C7DB" fill-rule="nonzero">
            <g id="Shape">
                <path d="M12,0 C5.38338462,0 0,5.38292308 0,12 C0,18.6170769 5.38338462,24 12,24 C18.6166154,24 24,18.6170769 24,12 C24,5.38292308 18.6166154,0 12,0 Z M18.69,7.998 L11.3053846,16.3056923 C11.1235385,16.5101538 10.8701538,16.6153846 10.6149231,16.6153846 C10.4123077,16.6153846 10.2087692,16.5489231 10.0384615,16.4132308 L5.42307692,12.7209231 C5.02523077,12.4029231 4.96061538,11.8218462 5.27907692,11.4235385 C5.59707692,11.0252308 6.17861538,10.9606154 6.57646154,11.2790769 L10.5073846,14.4235385 L17.31,6.77076923 C17.6478462,6.38953846 18.2321538,6.35538462 18.6129231,6.69415385 C18.9941538,7.03338462 19.0287692,7.61676923 18.69,7.998 Z"></path>
            </g>
        </g>
    </g>
</svg>