<svg xmlns="http://www.w3.org/2000/svg" width="16" height="16" viewBox="0 0 16 16">
    <g fill="none" fill-rule="nonzero">
        <path d="M0 0h16v16H0z"/>
        <path fill="#30C7DB" d="M8 9.333a3.333 3.333 0 0 1 3.333 3.334V14A.667.667 0 1 1 10 14v-1.333a2 2 0 0 0-2-2H3.333a2 2 0 0 0-2 2V14A.667.667 0 0 1 0 14v-1.333a3.333 3.333 0 0 1 3.333-3.334H8zm7.805-3.804c.26.26.26.682 0 .942l-2.667 2.667a.667.667 0 0 1-.943 0l-1.333-1.333a.667.667 0 0 1 .943-.943l.862.862 2.195-2.195c.26-.26.682-.26.943 0zM6 1.333A3.333 3.333 0 1 1 6 8a3.333 3.333 0 0 1 0-6.667zm0 1.334a2 2 0 1 0 0 4 2 2 0 0 0 0-4z"/>
    </g>
</svg>
