<?xml version="1.0" encoding="UTF-8"?>
<svg width="86px" height="52px" viewBox="0 0 86 52" version="1.1" xmlns="http://www.w3.org/2000/svg" xmlns:xlink="http://www.w3.org/1999/xlink">
    <!-- Generator: sketchtool 61.2 (101010) - https://sketch.com -->
    <title>C3DFC579-3FC5-4D33-9BA1-0987442892B7</title>
    <desc>Created with sketchtool.</desc>
    <g id="Proceso-E-Commerce-Propuesta" stroke="none" stroke-width="1" fill="none" fill-rule="evenodd">
        <g id="Oncosalud_Wireframes_Desktop_CheckoutPago" transform="translate(-708.000000, -285.000000)">
            <g id="Visa" transform="translate(689.000000, 279.000000)">
                <g id="Group-4" transform="translate(19.000000, 6.000000)">
                    <rect id="VISA" x="0" y="0" width="86" height="52"></rect>
                    <g id="visa-pay-logo" transform="translate(6.000000, 14.000000)" fill="#0D337D" fill-rule="nonzero">
                        <polygon id="Path" points="29.9074514 0 26.1 22.5 32.1894162 22.5 36 0"></polygon>
                        <path d="M21.4148043,0.00473817212 L15.4192653,15.3706304 L14.780035,13.0505054 C13.5976164,10.2549839 10.2408703,6.24017268 6.3,3.70998877 L11.7822655,22.5 L18.2595889,22.4889443 L27.9,0 L21.4148043,0.00473817212 Z" id="Path"></path>
                        <path d="M12.3215678,1.81749095 C11.963272,0.454764777 10.9248486,0.0486127865 9.63593526,0 L0.079268964,0 L0,0.44535585 C7.4370142,2.22991556 12.3580315,6.52979493 14.4,11.7 L12.3215678,1.81749095 Z" id="Path"></path>
                        <path d="M49.0573669,4.73561969 C51.0198251,4.70383701 52.4422988,5.1456163 53.5469529,5.60328693 L54.0884803,5.86549406 L54.9,0.951891341 C53.7120339,0.492631579 51.8498586,0 49.5263821,0 C43.5988943,0 39.4209565,3.07497453 39.3885575,7.48164346 C39.3499871,10.7377793 42.3646439,12.5557487 44.6418359,13.6411273 C46.9791977,14.7535212 47.7629468,15.4606859 47.7521471,16.4538947 C47.7336333,17.9715178 45.8884289,18.6675586 44.1651067,18.6675586 C41.7629468,18.6675586 40.4870404,18.3258947 38.5168681,17.4804754 L37.7439187,17.1181528 L36.9,22.1922581 C38.3039599,22.8263226 40.894343,23.3713956 43.5834662,23.4 C49.8889432,23.4 53.9866547,20.3615756 54.0298534,15.6529711 C54.0560813,13.0769847 52.4561841,11.1112258 48.9894832,9.49825467 C46.8912574,8.44624788 45.6076369,7.74702886 45.6199794,6.68548727 C45.6199794,5.74313073 46.7092055,4.73561969 49.0573669,4.73561969 Z" id="Path"></path>
                        <path d="M69.8322636,0 L65.1842407,0 C63.7406304,0 62.6668195,0.400827606 62.0324355,1.86842474 L53.1,22.5 L59.4175358,22.5 C59.4175358,22.5 60.4480229,19.725768 60.6816619,19.1182143 C61.3732951,19.1182143 67.5113467,19.1276827 68.3855587,19.1276827 C68.565043,19.9135573 69.1189685,22.5 69.1189685,22.5 L74.7,22.5 L69.8322636,0 Z M62.4130659,14.5102749 C62.9081948,13.2178426 64.8097994,8.21854398 64.8097994,8.21854398 C64.7773066,8.28008837 65.3002865,6.91664329 65.6112894,6.0692243 L66.0166762,8.01023987 C66.0166762,8.01023987 67.1693983,13.3851171 67.4107736,14.5102749 L62.4130659,14.5102749 Z" id="Shape"></path>
                    </g>
                </g>
            </g>
        </g>
    </g>
</svg>