<?xml version="1.0" encoding="UTF-8"?>
<svg width="119px" height="118px" viewBox="0 0 119 118" version="1.1" xmlns="http://www.w3.org/2000/svg" xmlns:xlink="http://www.w3.org/1999/xlink">
    <!-- Generator: sketchtool 61.2 (101010) - https://sketch.com -->
    <title>0AAE2EA2-5879-4AD2-9903-2C829871BE81</title>
    <desc>Created with sketchtool.</desc>
    <g id="Proceso-E-Commerce-Propuesta" stroke="none" stroke-width="1" fill="none" fill-rule="evenodd">
        <g id="Oncosalud_Wireframes_Desktop_Cotizando" transform="translate(-661.000000, -217.000000)" fill-rule="nonzero">
            <g id="Group-11">
                <g id="Group-10" transform="translate(517.000000, 116.000000)">
                    <g id="yoga_illustration" transform="translate(144.000000, 101.000000)">
                        <path d="M79.4373022,33.455862 L77.7561739,23.0628353 C77.7439984,23.0628353 77.7327599,23.0656451 77.7205844,23.0656451 L74.4585397,23.0656451 C70.4266408,23.0656451 66.967918,20.6240283 65.4731653,17.1400182 C63.720858,19.5226315 60.9064897,21.0754512 57.7221795,21.0754512 L40.8884168,21.0754512 L38.8879207,33.4380675 L38.883238,33.455862 C38.5001842,34.9000405 38.3063159,36.3835545 38.3063159,37.8736244 L38.3063159,37.8745609 C38.3063159,41.5299618 41.3641905,44.4932435 45.1375981,44.4932435 L73.1829424,44.4932435 C76.95635,44.4932435 80.0151611,41.5299618 80.0151611,37.8745609 L80.0151611,37.8736244 C80.0151611,36.3835545 79.8203562,34.899104 79.4373022,33.455862 L79.4373022,33.455862 Z" id="Path" fill="#FFFFFF"></path>
                        <path d="M73.1829424,45.4513461 L45.1375981,45.4513461 C40.8415888,45.4513461 37.34634,42.0525632 37.34634,37.8736244 C37.34634,36.3105025 37.5495739,34.7501906 37.9494859,33.2348337 L39.941553,20.9218551 C40.0164779,20.4573204 40.4173264,20.1164119 40.8874803,20.1164119 L57.7221795,20.1164119 C60.5009585,20.1164119 63.0437237,18.8239565 64.7005018,16.5715254 C64.9037357,16.2943031 65.2418344,16.1463262 65.5818065,16.1865984 C65.9236515,16.2259339 66.2186685,16.4450895 66.3535334,16.7616472 C67.7471374,20.0077707 70.9277014,22.1056692 74.4585397,22.1056692 L77.6756295,22.1056692 C77.7074727,22.103796 77.7318232,22.1028595 77.7561739,22.1028595 C78.2244548,22.1028595 78.6271763,22.4418947 78.7021012,22.9092392 L80.3766738,33.2563744 C80.7728395,34.7651756 80.9732638,36.317995 80.9732638,37.8736244 C80.9742004,42.0525632 77.4789516,45.4513461 73.1829424,45.4513461 L73.1829424,45.4513461 Z M41.7041622,22.0344905 L39.8347848,33.5907269 C39.8291655,33.6263164 39.821673,33.6609691 39.8123073,33.6946853 C39.4479848,35.0648754 39.2653552,36.4687816 39.2653552,37.8736244 C39.2653552,40.995185 41.8999036,43.5342042 45.1375981,43.5342042 L73.1838789,43.5342042 C76.4215733,43.5342042 79.0561217,40.995185 79.0561217,37.8745609 C79.0561217,36.4687816 78.8734921,35.0648754 78.5110426,33.7021778 C78.5035501,33.6712714 78.4960576,33.6413014 78.4913749,33.6094584 L76.9404285,24.0246844 L74.4594762,24.0246844 C70.6654641,24.0246844 67.2020583,22.0344905 65.2755507,18.8492438 C63.2975321,20.8656613 60.5674545,22.035427 57.723116,22.035427 L41.7041622,22.035427 L41.7041622,22.0344905 Z" id="Shape" fill="#30C7DB"></path>
                        <path d="M37.0503865,60.2864857 L35.2887137,71.92233 C35.1885015,72.5844793 34.7633026,73.1510991 34.1564105,73.4330044 L20.8534859,79.6105663 C20.8300719,79.6058836 20.8066579,79.5983911 20.7823074,79.5983911 L19.2884912,79.6105663 C19.276316,79.6105663 19.2641405,79.6124394 19.2519652,79.6124394 L16.1463262,79.9205684 C16.1322777,79.9205684 16.1191659,79.9215049 16.1060539,79.9224414 L8.28763568,79.9074564 C8.05817809,79.9065199 7.87554847,80.0957053 7.89708946,80.3242264 C7.98980914,81.3104259 8.69878639,82.1271078 9.66063546,82.3584387 L11.003665,82.6815525 C11.3530025,82.7658431 11.4138792,83.2350606 11.0982577,83.4055149 L6.19910289,86.0541118 C6.14946518,86.0690968 6.10170046,86.0831451 6.051126,86.0990668 L2.94174069,86.4071956 C1.73263929,86.5270755 0.850398153,87.6041215 0.970278069,88.8122864 C0.990882309,89.0220762 1.17444867,89.1766089 1.38423852,89.1644336 L13.1746155,88.3992627 C13.1952197,88.3964529 13.2167607,88.3927067 13.2373652,88.3898969 L22.0625873,86.3163491 C22.1178445,86.3032372 22.1665457,86.2770134 22.2096274,86.2442339 L39.0312148,83.0318267 C40.7985069,82.6946644 42.2473681,81.4312426 42.8224172,79.7257635 L48.7752042,62.0622069 L37.0503865,60.2864857 Z" id="Path" fill="#FFFFFF"></path>
                        <path d="M1.35801455,90.123473 C0.66589553,90.123473 0.0852271876,89.6046176 0.0159215393,88.9068791 C-0.0674324527,88.0677197 0.181692878,87.246355 0.715533248,86.5935714 C1.25031012,85.9407877 2.00705209,85.5361929 2.847148,85.452839 L5.84320939,85.155949 L9.33939469,83.2669038 C8.02727161,82.909137 7.07010529,81.7749606 6.94179638,80.415073 C6.90714365,80.0404483 7.03170631,79.6658236 7.28457789,79.3886013 C7.54025945,79.1085692 7.90551845,78.9484171 8.28669918,78.9484171 L8.28950893,78.9484171 L16.0788937,78.9634021 L19.156436,78.6580828 C19.1695478,78.6571463 19.2191855,78.6543368 19.2322975,78.6534 L20.665237,78.6402883 L33.7518158,72.5629385 C34.0683736,72.4158982 34.2875289,72.1236909 34.3399764,71.7780996 L36.1016494,60.1422553 C36.1400484,59.8912567 36.2758498,59.6646086 36.4809569,59.5138222 C36.686064,59.3630358 36.9417453,59.2993496 37.1936804,59.3377486 L48.9184982,61.1134698 C49.1985302,61.1556151 49.4457825,61.3195134 49.5937592,61.562083 C49.7407996,61.8037161 49.7735791,62.0987329 49.6836691,62.3675262 L43.730882,80.0329558 C43.047192,82.0624851 41.315489,83.5722228 39.2119712,83.974008 L22.5495994,87.1564451 C22.4634357,87.1976538 22.3744623,87.2285603 22.2817429,87.2510377 L13.4565206,89.3236493 C13.4331066,89.3292685 13.4087558,89.3339513 13.3844053,89.3376975 L13.3113534,89.3489363 C13.2860662,89.351746 13.2617157,89.3545558 13.2364285,89.3564288 L1.44605148,90.1215997 C1.41701801,90.1225365 1.38798453,90.123473 1.35801455,90.123473 Z M9.07903062,80.8674322 C9.26446974,81.141845 9.54824804,81.3460154 9.88447356,81.4265598 L11.2275034,81.7506101 C11.7763287,81.8817288 12.1781137,82.3284687 12.2511654,82.8885328 C12.3232808,83.4476602 12.0507413,83.982437 11.5543634,84.2502936 L6.65427183,86.897954 C6.59901486,86.9288605 6.54001141,86.9532112 6.48007145,86.9719424 L6.3339678,87.0159609 C6.2730911,87.0356286 6.20940513,87.0478039 6.14571869,87.0543599 L3.03539687,87.3624887 C2.7057271,87.3952684 2.40883706,87.5544838 2.19904721,87.8101653 C2.11101051,87.9178698 2.04264132,88.0377497 1.9948766,88.1641856 L13.0650378,87.4467791 L21.7432197,85.407884 C21.8321932,85.3582463 21.9286591,85.3226571 22.0298075,85.3039256 L38.8523315,82.0915186 C40.2777787,81.8199156 41.4503539,80.7962535 41.9139521,79.4213807 L47.5014801,62.8404899 L37.8558297,61.3803899 L36.2374508,72.0684339 C36.0885374,73.0508872 35.4619776,73.8863004 34.5610052,74.3049433 L21.2580806,80.4825055 C21.0866899,80.5630497 20.8956313,80.5902099 20.708319,80.5611764 L19.3240804,80.5724154 L16.2409188,80.8777345 C16.2212511,80.8796077 16.2006466,80.8805442 16.1800424,80.8814807 C16.1688036,80.8814807 16.1172927,80.8833537 16.1041809,80.8833537 L9.07903062,80.8674322 Z" id="Shape" fill="#30C7DB"></path>
                        <path d="M115.378799,86.4071956 L112.269414,86.0990668 C112.219776,86.0831451 112.172012,86.0690968 112.121438,86.0541118 L107.222282,83.4055149 C106.906661,83.2359971 106.967538,82.7658431 107.316875,82.6815525 L108.659905,82.3584387 C109.621754,82.1271078 110.330731,81.3104259 110.423451,80.3242264 C110.444992,80.0957053 110.262362,79.9065199 110.032905,79.9074564 L102.214486,79.9224414 C102.201374,79.9215049 102.188263,79.9205684 102.174214,79.9205684 L99.0676384,79.6124394 C99.0563999,79.6124394 99.045161,79.6105663 99.0339225,79.6105663 L97.538233,79.5983911 C97.512946,79.5983911 97.4904685,79.6058836 97.4670543,79.6105663 L84.1641299,73.4330044 C83.5581743,73.1510991 83.1320389,72.5835428 83.0318267,71.92233 L81.2701539,60.2864857 L69.5453362,62.0612704 L75.4981232,79.7257635 C76.0731721,81.4312426 77.5210968,82.6937279 79.2893256,83.0318267 L96.1109128,86.2432972 C96.1539947,86.2770134 96.2026959,86.3023007 96.2579529,86.3163491 L105.083175,88.3889604 C105.10378,88.3927067 105.125321,88.3955164 105.145925,88.3983259 L116.936302,89.1634971 C117.147028,89.1766089 117.329658,89.0211397 117.350262,88.8113499 C117.470142,87.6041215 116.587901,86.5270755 115.378799,86.4071956 L115.378799,86.4071956 Z" id="Path" fill="#FFFFFF"></path>
                        <path d="M116.963462,90.1244095 C116.934429,90.1244095 116.905395,90.123473 116.875425,90.1215997 L105.084112,89.3564288 C105.058825,89.3545558 105.033538,89.351746 105.00825,89.3489363 L104.935199,89.3376975 C104.910848,89.3339513 104.887434,89.3292685 104.863083,89.3236493 L96.0387976,87.2510377 C95.9460779,87.2294968 95.8571047,87.1976538 95.7709408,87.1564451 L79.1085692,83.974008 C77.0050512,83.5731593 75.2733484,82.0624851 74.5896581,80.0329558 L68.6368713,62.3684627 C68.5460246,62.0996694 68.5788043,61.8046526 68.7267812,61.5630195 C68.8747579,61.3204499 69.1210737,61.1565518 69.4020423,61.1144066 L81.12686,59.3386853 C81.3787951,59.3002861 81.6344764,59.3639723 81.8395835,59.5147587 C82.0437539,59.6655454 82.180492,59.8921932 82.2179545,60.1431918 L83.9805638,71.7799726 C84.0320747,72.1236909 84.2521668,72.4168347 84.5677881,72.563875 L97.6543667,78.6412248 L99.041415,78.651527 C99.0582729,78.651527 99.0751309,78.6524635 99.0919892,78.6543368 C99.1041644,78.6543368 99.1509926,78.6571463 99.1622314,78.6590195 L102.24071,78.9634021 L110.030095,78.9484171 L110.032905,78.9484171 C110.415022,78.9484171 110.780281,79.1085692 111.035026,79.3886013 C111.287897,79.6667601 111.413397,80.0404483 111.377807,80.415073 C111.250435,81.7749606 110.292332,82.9100738 108.981146,83.2669038 L112.476395,85.1568855 L115.473392,85.4537755 C116.312552,85.5361929 117.069294,85.9417244 117.60407,86.5935714 C118.138847,87.246355 118.387973,88.0677197 118.304619,88.9068791 C118.235313,89.6046176 117.654645,90.1244095 116.963462,90.1244095 L116.963462,90.1244095 Z M105.254566,87.4458426 L116.324727,88.1632491 C116.276962,88.0368132 116.20953,87.9169333 116.120556,87.8092286 C115.910767,87.5535473 115.613877,87.3943316 115.284207,87.3615522 L112.173885,87.0534234 C112.110199,87.0468674 112.047449,87.0337554 111.985636,87.0150242 L111.840469,86.9710059 C111.779593,86.9522745 111.721526,86.927924 111.665332,86.8970175 L106.766177,84.2493571 C106.269799,83.9815005 105.996323,83.4467237 106.069375,82.8866596 C106.142427,82.3275322 106.544212,81.8807923 107.0921,81.7496736 L108.43513,81.4265598 C108.772292,81.3450789 109.056071,81.141845 109.24151,80.8674322 L102.216359,80.8805442 C102.202311,80.8805442 102.181707,80.8805442 102.164849,80.8796077 C102.149864,80.878671 102.094606,80.8758612 102.079621,80.8749247 L98.998333,80.5686689 L97.6122215,80.5583669 C97.4258456,80.5864637 97.2338505,80.5593034 97.0615231,80.4796957 L83.7595352,74.3021338 C82.8585628,73.8844271 82.2320028,73.0480775 82.0830896,72.0656241 L80.4647107,61.3775804 L70.8190603,62.8386169 L76.4065883,79.4195077 C76.8701863,80.7943805 78.0427617,81.817106 79.4682089,82.0896454 L96.2907326,85.3011161 C96.3909448,85.3207838 96.4883473,85.3563731 96.5773207,85.406011 L105.254566,87.4458426 Z" id="Shape" fill="#30C7DB"></path>
                        <path d="M33.9353817,93.5999905 L59.159802,97.8707125 L84.3851585,93.5999905 C84.4413522,93.5906248 84.4984827,93.5878153 84.5546761,93.5812593 L84.5471836,93.5793863 L75.6292419,90.9542034 L65.5986644,90.9542034 C62.5707601,90.9542034 60.0092634,92.9518897 59.159802,95.7006988 C58.3112768,92.9518897 55.7497804,90.9542034 52.7218757,90.9542034 L42.692235,90.9542034 L33.7733565,93.5793863 L33.765864,93.5812593 C33.8220578,93.5878153 33.8791882,93.5906248 33.9353817,93.5999905 L33.9353817,93.5999905 Z" id="Path" fill="#FFFFFF"></path>
                        <path d="M59.159802,98.8297519 C59.106418,98.8297519 59.0530338,98.8250691 58.9996498,98.8166401 L33.6628424,94.5346791 C33.2095464,94.4859782 32.8527164,94.1244652 32.8115075,93.6692962 C32.7693622,93.2150636 33.0531405,92.7936108 33.490515,92.6634287 L42.4215687,90.0344995 C42.5096054,90.0082758 42.6004521,89.9951641 42.692235,89.9951641 L52.7218757,89.9951641 C55.3798384,89.9951641 57.7671344,91.3288281 59.1607385,93.4623159 C60.5543425,91.3288281 62.9416386,89.9951641 65.5996012,89.9951641 L75.6292419,89.9951641 C75.7210248,89.9951641 75.8118715,90.0082758 75.8999082,90.0344995 L84.8197232,92.6596824 C85.2580341,92.7889279 85.5483684,93.2103808 85.5071597,93.6664865 C85.4668875,94.1216554 85.1128672,94.4859782 84.6586346,94.5346791 L84.5865194,94.5421716 L59.3218271,98.8166401 C59.2675064,98.8250691 59.2141224,98.8297519 59.159802,98.8297519 Z M38.0412688,93.3227682 L59.159802,96.8985615 L80.2783349,93.3227682 L75.4906307,91.9132427 L65.5986644,91.9132427 C63.0484067,91.9132427 60.828755,93.5494163 60.0766958,95.9844771 C59.9521332,96.3862621 59.5803182,96.6606746 59.159802,96.6606746 C58.7392858,96.6606746 58.368407,96.3862621 58.2438444,95.9844771 C57.4917851,93.5494163 55.2721337,91.9132427 52.7218757,91.9132427 L42.8299097,91.9132427 L38.0412688,93.3227682 Z" id="Shape" fill="#30C7DB"></path>
                        <path d="M36.7984514,60.2480867 L49.6190464,62.1895793 L52.0728384,45.9833132 L49.6705574,45.6199275 C43.9163214,44.7489248 38.5460757,48.7077718 37.6741366,54.4620078 L36.7984514,60.2480867 Z" id="Path" fill="#F9A7A7"></path>
                        <path d="M81.522089,60.2480867 L68.701494,62.1895793 L66.247702,45.9833132 L68.6490465,45.6199275 C74.4032825,44.7489248 79.7744645,48.7077718 80.6464036,54.4620078 L81.522089,60.2480867 Z" id="Path" fill="#F9A7A7"></path>
                        <path d="M74.6374228,23.1799057 C74.6046431,23.1799057 74.5728001,23.1845885 74.5400204,23.1845885 L74.5400204,21.731981 C74.5400204,13.2373652 67.6544177,6.35176253 59.159802,6.35176253 C50.6661224,6.35176253 43.7805198,13.2373652 43.7805198,21.731981 L43.7805198,23.1845885 C43.7477403,23.1845885 43.7158971,23.1799057 43.6831173,23.1799057 C41.0916509,23.1799057 38.9909426,25.2806138 38.9909426,27.8720804 C38.9909426,30.4635471 41.0916509,32.5642551 43.6831173,32.5642551 C43.8526352,32.5642551 44.0212163,32.5539531 44.1860512,32.5361584 C45.7735234,39.3412169 51.8724141,44.4108261 59.159802,44.4108261 C66.4481261,44.4108261 72.5470168,39.3412169 74.1344892,32.5361584 C74.2993241,32.5539531 74.4679052,32.5642551 74.6374228,32.5642551 C77.2288895,32.5642551 79.3295978,30.4635471 79.3295978,27.8720804 C79.3295978,25.2806138 77.2288895,23.1799057 74.6374228,23.1799057 Z" id="Path" fill="#FFFFFF"></path>
                        <path d="M59.159802,45.3708019 C51.7909334,45.3708019 45.4401076,40.5362695 43.4499135,33.5195485 C40.4416769,33.3959221 38.0319033,30.910287 38.0319033,27.8730169 C38.0319033,25.0492829 40.1120071,22.7031956 42.8214804,22.2864256 L42.8214804,21.731981 C42.8214804,12.7222561 50.1510135,5.39272321 59.159802,5.39272321 C68.1695269,5.39272321 75.4990597,12.7231926 75.4990597,21.731981 L75.4990597,22.2864256 C78.2085331,22.7031956 80.2886371,25.0492829 80.2886371,27.8730169 C80.2886371,30.910287 77.8788633,33.3959221 74.8706269,33.5195485 C72.8804328,40.5362695 66.529607,45.3708019 59.159802,45.3708019 L59.159802,45.3708019 Z M44.1869877,31.5780556 C44.6271717,31.5780556 45.0177181,31.8815016 45.1198033,32.3198126 C46.6482722,38.874809 52.4221759,43.4527232 59.159802,43.4527232 C65.8974277,43.4527232 71.6713317,38.874809 73.1998006,32.3198126 C73.3093783,31.8477854 73.7533085,31.5359104 74.2365744,31.5836751 C74.3686298,31.5977233 74.5016214,31.6061526 74.6374228,31.6061526 C76.6959859,31.6061526 78.3705585,29.93158 78.3705585,27.8730169 C78.3705585,25.8191369 76.7034784,24.147374 74.6514713,24.138945 C74.6261841,24.140818 74.5718636,24.1436278 74.5606249,24.1436278 C74.2993241,24.1548665 74.053945,24.0509081 73.8694421,23.8710882 C73.6849395,23.6903319 73.5809811,23.4430795 73.5809811,23.185525 L73.5809811,21.7329175 C73.5809811,13.7805708 67.1121484,7.31173836 59.159802,7.31173836 C51.2083918,7.31173836 44.7395591,13.7805708 44.7395591,21.731981 L44.7395591,23.1845885 C44.7395591,23.4430795 44.6346642,23.6903319 44.4510983,23.8701517 C44.2665954,24.0509081 44.0230893,24.1529933 43.7599155,24.1436278 C43.743994,24.1436278 43.6831173,24.1398815 43.6671958,24.138945 C41.6245545,24.138945 39.9499819,25.8135174 39.9499819,27.8720804 C39.9499819,29.9306435 41.6245545,31.6052158 43.6831173,31.6052158 C43.818919,31.6052158 43.9519106,31.5967868 44.083966,31.5827383 C44.1186188,31.5799288 44.1532715,31.5780556 44.1869877,31.5780556 Z" id="Shape" fill="#30C7DB"></path>
                        <path d="M53.8981974,50.7166969 L64.4223428,50.7166969 L66.2083663,46.0114102 L66.1971275,46.0114102 C66.2270975,45.8887205 66.247702,45.7641579 66.247702,45.6367855 L66.247702,42.6809963 C64.127326,43.7852028 61.7175522,44.4117626 59.1607385,44.4117626 C56.6039248,44.4117626 54.194151,43.7852028 52.0737749,42.6809963 L52.0737749,45.6452145 C52.0737749,45.7697774 52.0934429,45.8915303 52.1215397,46.0104737 L52.1121739,46.0104737 L53.8981974,50.7166969 Z" id="Path" fill="#F9CFCF"></path>
                        <path d="M66.3507237,3.81274332 L64.6836436,3.81274332 L64.6836436,4.00848469 C62.9303998,2.17001373 60.463496,1.01804278 57.7221795,1.01804278 L54.7008311,1.01804278 C46.5265193,1.01804278 39.8994075,7.64515438 39.8994075,15.8194661 L39.8994075,20.6539983 C39.8994075,20.8872023 40.0885931,21.0754512 40.3217969,21.0754512 L57.7221795,21.0754512 C60.9064897,21.0754512 63.720858,19.5226315 65.4731653,17.1400182 C66.967918,20.6240283 70.4275775,23.0656451 74.4585397,23.0656451 L77.7205844,23.0656451 C78.1691976,23.0656451 78.5335201,22.7022591 78.5335201,22.2536459 L78.5335201,15.9955398 C78.5335201,9.26727949 73.0789839,3.81274332 66.3507237,3.81274332 Z" id="Path" fill="#FFFFFF"></path>
                        <path d="M77.7205844,24.0246844 L74.4594762,24.0246844 C70.6682739,24.0246844 67.2067413,22.0382368 65.2792969,18.8576728 C63.302215,20.8675344 60.5712005,22.0344905 57.7221795,22.0344905 L40.3217969,22.0344905 C39.5603722,22.0344905 38.9413049,21.415423 38.9413049,20.6539983 L38.9413049,15.8194661 C38.9413049,7.12910874 46.0114102,0.059003456 54.7017676,0.059003456 L57.7221795,0.059003456 C60.4101121,0.059003456 62.9275903,1.04613952 64.8859409,2.85370399 L66.3516604,2.85370399 C73.5978393,2.85370399 79.4925594,8.74936085 79.4925594,15.9955398 L79.4925594,22.2536459 C79.4925594,23.2304799 78.6974185,24.0246844 77.7205844,24.0246844 L77.7205844,24.0246844 Z M65.4769115,16.1912811 C65.512501,16.1912811 65.5490267,16.1931541 65.5864892,16.1978371 C65.9273977,16.2371726 66.2224148,16.4563282 66.3582162,16.771013 C67.7527569,20.0124534 70.9333207,22.1066057 74.4594762,22.1066057 L77.5744808,22.1066057 L77.5744808,15.9955398 C77.5744808,9.80673911 72.5395243,4.77178265 66.3507237,4.77178265 L65.2521367,4.77178265 C65.187514,4.81954712 65.1172718,4.85981934 65.0404738,4.89072606 C64.6770876,5.03682947 64.2612544,4.94598303 63.9896513,4.66220473 C62.3366197,2.93050194 60.1113488,1.97708211 57.7221795,1.97708211 L54.7017676,1.97708211 C47.0687885,1.97708211 40.8593836,8.18742375 40.8593836,15.8194661 L40.8593836,20.1164119 L57.7221795,20.1164119 C60.465369,20.1164119 63.0746305,18.7958596 64.7051846,16.5818274 C64.8868774,16.3355115 65.174402,16.1912811 65.4769115,16.1912811 Z" id="Shape" fill="#30C7DB"></path>
                        <path d="M36.7984514,60.2480867 L49.6190464,62.1895793 L52.0728384,45.9833132 L49.6705574,45.6199275 C43.9163214,44.7489248 38.5460757,48.7077718 37.6741366,54.4620078 L36.7984514,60.2480867 Z" id="Path" fill="#F9A7A7"></path>
                        <path d="M81.522089,60.2480867 L68.701494,62.1895793 L66.247702,45.9833132 L68.6490465,45.6199275 C74.4032825,44.7489248 79.7744645,48.7077718 80.6464036,54.4620078 L81.522089,60.2480867 Z" id="Path" fill="#F9A7A7"></path>
                        <path d="M53.8981974,50.7166969 L64.4223428,50.7166969 L66.2083663,46.0114102 L66.1971275,46.0114102 C66.2270975,45.8887205 66.247702,45.7641579 66.247702,45.6367855 L66.247702,42.6809963 C64.127326,43.7852028 61.7175522,44.4117626 59.1607385,44.4117626 C56.6039248,44.4117626 54.194151,43.7852028 52.0737749,42.6809963 L52.0737749,45.6452145 C52.0737749,45.7697774 52.0934429,45.8915303 52.1215397,46.0104737 L52.1121739,46.0104737 L53.8981974,50.7166969 Z" id="Path" fill="#F9CFCF"></path>
                        <path d="M68.0224867,45.9767575 L50.8187821,45.9767575 C46.0676039,45.9767575 42.2155251,49.8288363 42.2155251,54.5800144 L42.2155251,61.4618708 C42.2155251,62.1118449 42.2810843,62.7599457 42.4112665,63.3949345 C42.4552849,63.6065976 42.5058592,63.8173239 42.5629896,64.0261773 L45.0102256,72.8813693 C45.1301056,73.314061 45.2200155,73.7533085 45.280892,74.1981754 C45.3408319,74.6421056 45.3708019,75.0897823 45.3708019,75.5383955 L45.3708019,80.5443184 C45.3708019,81.0744126 45.3286567,81.6016967 45.2453027,82.1224251 C45.1619485,82.6431535 45.0373859,83.1582626 44.8716145,83.6611963 L43.0200318,89.2918061 C43.0200318,89.2918061 58.8376247,101.778985 75.9130202,89.2918061 L74.010863,83.695849 C73.8357259,83.1816766 73.7036707,82.655329 73.6146973,82.1205521 C73.5257239,81.5867117 73.4807689,81.0453791 73.4798324,80.5031097 L73.4760862,78.0249672 L73.4714034,75.547761 C73.4704669,75.0963383 73.5004369,74.6449153 73.5603768,74.1981754 C73.6212533,73.7504987 73.7111632,73.3084415 73.8319797,72.8729403 L76.2764062,64.0261773 C76.3344729,63.8173239 76.3850474,63.6065976 76.4281291,63.3949345 C76.5583112,62.7590089 76.6248074,62.1118449 76.6248074,61.4618708 L76.6248074,54.5800144 C76.6257437,49.8288363 72.7746014,45.9767575 68.0224867,45.9767575 L68.0224867,45.9767575 Z" id="Path" fill="#FFFFFF"></path>
                        <path d="M36.7984514,60.2480867 L49.6190464,62.1895793 L52.0728384,45.9833132 L49.6705574,45.6199275 C43.9163214,44.7489248 38.5460757,48.7077718 37.6741366,54.4620078 L36.7984514,60.2480867 Z" id="Path" fill="#FFFFFF"></path>
                        <path d="M81.522089,60.2480867 L68.701494,62.1895793 L66.247702,45.9833132 L68.6490465,45.6199275 C74.4032825,44.7489248 79.7744645,48.7077718 80.6464036,54.4620078 L81.522089,60.2480867 Z" id="Path" fill="#FFFFFF"></path>
                        <path d="M53.8981974,50.7166969 L64.4223428,50.7166969 L66.2083663,46.0114102 L66.1971275,46.0114102 C66.2270975,45.8887205 66.247702,45.7641579 66.247702,45.6367855 L66.247702,42.6809963 C64.127326,43.7852028 61.7175522,44.4117626 59.1607385,44.4117626 C56.6039248,44.4117626 54.194151,43.7852028 52.0737749,42.6809963 L52.0737749,45.6452145 C52.0737749,45.7697774 52.0934429,45.8915303 52.1215397,46.0104737 L52.1121739,46.0104737 L53.8981974,50.7166969 Z" id="Path" fill="#FFFFFF"></path>
                        <g id="Group" transform="translate(35.724215, 25.174782)" fill="#30C7DB">
                            <path d="M6.38079577,36.8368504 C6.33303106,36.8368504 6.28526658,36.8321676 6.23656537,36.8256116 L0.930942351,36.0220417 C0.679944017,35.9836425 0.453295932,35.8478411 0.302509535,35.642734 C0.151722899,35.4385636 0.0880369331,35.1819455 0.126435909,34.9300105 L1.00305779,29.1439315 C1.46290948,26.1075979 3.07660559,23.4318408 5.54912886,21.6102278 C8.02071562,19.7876786 11.055176,19.0393656 14.0905729,19.4973443 L16.4919174,19.8607305 C17.0154556,19.9403382 17.3760318,20.4292234 17.2964241,20.9527615 C17.2177529,21.4762997 16.7288677,21.8359394 16.2053296,21.7572682 L13.8030483,21.3938822 C11.2733948,21.0098918 8.74655111,21.6355151 6.68611505,23.1536817 C4.6266155,24.6718487 3.2817127,26.9008659 2.89865896,29.4305193 L2.16626748,34.2687979 L6.52315317,34.929074 C7.0466913,35.0086817 7.40726755,35.4975671 7.32765985,36.021105 C7.25648115,36.4959419 6.84720369,36.8359139 6.38079577,36.8368504 Z" id="Path"></path>
                            <path d="M40.9005923,36.7750372 C40.4341844,36.7750372 40.0258434,36.4341289 39.9537282,35.959292 C39.8741205,35.4348174 40.2346967,34.9468685 40.7582349,34.8672608 L44.7058431,34.2687979 L43.9725151,29.4305193 C43.5894614,26.9008659 42.2445583,24.6718487 40.185059,23.1536817 C38.1255595,21.6355151 35.5987155,21.0108283 33.0681255,21.3938822 L30.666781,21.7572682 C30.1413698,21.8368759 29.6543577,21.4762997 29.5747497,20.9527615 C29.4960788,20.4292234 29.8557185,19.9403382 30.3792564,19.8607305 L32.780601,19.4973443 C35.8169346,19.0374926 38.8504582,19.7867421 41.3229815,21.6102278 C43.7945683,23.4318408 45.4092009,26.1075979 45.8690528,29.1439315 L46.7456747,34.9300105 C46.8252824,35.4535486 46.4647061,35.9424338 45.941168,36.0220417 L41.0448227,36.7637987 C40.9970582,36.7703544 40.9483568,36.7750372 40.9005923,36.7750372 Z" id="Path"></path>
                            <path d="M30.4841513,21.7956672 L30.4729126,21.7956672 C30.1778958,21.7956672 29.8988003,21.6598658 29.7171071,21.4275985 C29.5354143,21.1953311 29.4698548,20.8928216 29.5410338,20.6062335 C29.5569552,20.5444206 29.5644477,20.4957194 29.5644477,20.4620031 L29.5644477,19.0028397 C25.6880182,20.5697078 21.1840924,20.5697078 17.3076628,19.0028397 L17.3076628,20.4713686 C17.3076628,20.5032119 17.3151553,20.5519131 17.3292038,20.6127895 C17.45283,21.1269622 17.1353355,21.6448808 16.6202263,21.768507 C16.1041809,21.8911966 15.5871988,21.5746386 15.4635726,21.0595297 C15.4139347,20.8488031 15.3895842,20.656808 15.3895842,20.4704321 L15.3895842,17.506214 C15.3895842,17.1709249 15.5637846,16.8599862 15.8503726,16.6857858 C16.1378972,16.5125219 16.4937907,16.5012832 16.7906807,16.6558158 C18.8576728,17.7319253 21.0932457,18.2779409 23.4346505,18.2779409 C25.7769916,18.2779409 28.0116281,17.7319253 30.0795566,16.6558158 C30.3773834,16.5012832 30.7332769,16.5125219 31.0198647,16.6857858 C31.3064528,16.8599862 31.4806531,17.1709249 31.4806531,17.506214 L31.4806531,20.4620031 C31.4806531,20.6155993 31.4637952,20.7738782 31.4300789,20.9415228 C31.380441,21.4210425 30.978656,21.7956672 30.4841513,21.7956672 L30.4841513,21.7956672 Z" id="Path"></path>
                            <path d="M24.1436278,70.5896027 C14.1186698,70.5905392 6.81161422,64.9552466 6.70203654,64.8690829 C6.38641526,64.6190209 6.25997935,64.1994412 6.38547852,63.8163874 L8.23706146,58.1857776 C8.38597462,57.7343547 8.49929878,57.2660738 8.57516023,56.7959199 C8.65008518,56.3257657 8.68848415,55.846246 8.68848415,55.3695361 L8.68848415,50.3636131 C8.68848415,49.9599549 8.66038742,49.5525505 8.60606671,49.151702 C8.55174624,48.7517903 8.4702653,48.3518783 8.36256063,47.9622686 L5.91438809,39.1070763 C5.85163839,38.8776187 5.79544468,38.6453514 5.74767997,38.4121475 C5.60532257,37.7153455 5.53227086,36.999812 5.53227086,36.286152 L5.53227086,29.4052321 C5.53227086,28.8760747 5.96215281,28.4461928 6.49131019,28.4461928 C7.02046757,28.4461928 7.45034952,28.8760747 7.45034952,29.4052321 L7.45034952,36.286152 C7.45034952,36.8696301 7.50935273,37.4559177 7.62642314,38.0272205 C7.66575862,38.2182792 7.71071359,38.4074645 7.76316105,38.5957134 L10.2113338,47.4509057 C10.3415157,47.9238694 10.4407914,48.4090085 10.5063506,48.8941477 C10.5728466,49.3802231 10.6056263,49.8747277 10.6056263,50.3636131 L10.6056263,55.3695361 C10.6056263,55.9473947 10.5597348,56.5289998 10.4679517,57.0993659 C10.3771052,57.6687955 10.2384941,58.2363519 10.0586742,58.7851772 L8.42343709,63.7564475 C11.2527906,65.7466413 24.5219988,73.9143971 39.0518191,63.750828 L37.3781832,58.8282589 C37.1880611,58.2681951 37.0419575,57.6875267 36.9454916,57.1031122 C36.8480891,56.5177608 36.7975147,55.921171 36.7965782,55.3292639 L36.7881492,50.3739151 C36.7881492,49.8794105 36.8199922,49.3820963 36.8864881,48.8941477 C36.9520476,48.4071355 37.0522595,47.9182501 37.1843149,47.4424767 L39.6287412,38.5957134 C39.6811886,38.4074645 39.7270801,38.2182792 39.7654793,38.028157 C39.883486,37.4559177 39.9424895,36.8696301 39.9424895,36.286152 L39.9424895,29.4052321 C39.9424895,28.8760747 40.3723714,28.4461928 40.9015288,28.4461928 C41.4306862,28.4461928 41.8605681,28.8760747 41.8605681,29.4052321 L41.8605681,36.286152 C41.8605681,36.999812 41.7884529,37.7153455 41.6451588,38.413084 C41.5973943,38.6453514 41.5421371,38.8776187 41.4775144,39.1070763 L39.0330878,47.9529028 C38.9244467,48.3453223 38.8420292,48.7480438 38.7877088,49.1507655 C38.7333881,49.5525505 38.7062278,49.9637012 38.7071643,50.3711056 L38.7155933,55.3264542 C38.7165301,55.8134663 38.7577388,56.306098 38.838283,56.7884274 C38.9178907,57.2707568 39.0387073,57.7493397 39.195113,58.2110646 L41.0972701,63.8079582 C41.2321351,64.2041239 41.0944606,64.6424349 40.7554251,64.8906239 C34.9131525,69.1632189 29.183267,70.5886659 24.1436278,70.5896027 L24.1436278,70.5896027 Z" id="Path"></path>
                            <path d="M23.435587,12.8842812 C21.2524613,12.8842812 19.4767401,11.4438492 19.4767401,9.67281071 C19.4767401,9.27477199 19.7979808,8.95353121 20.1960196,8.95353121 C20.5931218,8.95353121 20.9152991,9.27477199 20.9152991,9.67281071 C20.9152991,10.633723 22.0691433,11.4457222 23.435587,11.4457222 C24.8029673,11.4457222 25.9568115,10.633723 25.9568115,9.67281071 C25.9568115,9.27477199 26.2789888,8.95353121 26.676091,8.95353121 C27.0731932,8.95353121 27.3953705,9.27477199 27.3953705,9.67281071 C27.3953705,11.4438492 25.6196493,12.8842812 23.435587,12.8842812 L23.435587,12.8842812 Z" id="Path"></path>
                            <path d="M15.7632724,3.96165671 C13.7805708,3.96165671 12.166875,2.5633697 12.166875,0.844778902 C12.166875,0.447676681 12.4890522,0.125499407 12.8861544,0.125499407 C13.2841932,0.125499407 13.6054339,0.447676681 13.6054339,0.844778902 C13.6054339,1.7710385 14.5738388,2.52309772 15.7632724,2.52309772 C16.9536426,2.52309772 17.9211109,1.7710385 17.9211109,0.844778902 C17.9211109,0.447676681 18.2432882,0.125499407 18.6403904,0.125499407 C19.0384291,0.125499407 19.3596699,0.447676681 19.3596699,0.844778902 C19.3596699,2.5633697 17.7469103,3.96165671 15.7632724,3.96165671 Z" id="Path"></path>
                            <path d="M31.1079017,3.96165671 C29.1252001,3.96165671 27.5115042,2.5633697 27.5115042,0.844778902 C27.5115042,0.447676681 27.8336815,0.125499407 28.2307837,0.125499407 C28.6288224,0.125499407 28.9500632,0.447676681 28.9500632,0.844778902 C28.9500632,1.7710385 29.918468,2.52309772 31.1079017,2.52309772 C32.2982718,2.52309772 33.2657401,1.7710385 33.2657401,0.844778902 C33.2657401,0.447676681 33.5879174,0.125499407 33.9850196,0.125499407 C34.3830584,0.125499407 34.7042991,0.447676681 34.7042991,0.844778902 C34.7042991,2.5633697 33.0915395,3.96165671 31.1079017,3.96165671 Z" id="Path"></path>
                        </g>
                        <path d="M13.4480916,40.1962978 C11.8306492,43.7299455 9.14833608,46.6735595 5.81042967,48.6187984 C5.21103009,48.9681359 5.21103009,49.8147878 5.81042967,50.1641253 C9.14833608,52.1084279 11.8306492,55.0529783 13.4480916,58.5866261 C13.7618398,59.2731259 14.7396102,59.2731259 15.0542949,58.5866261 C16.6717373,55.0529783 19.3531139,52.1084279 22.6919568,50.1641253 C23.2904199,49.8147878 23.2904199,48.9681359 22.6919568,48.6187984 C19.3531139,46.6735595 16.6717373,43.7299455 15.0542949,40.1962978 C14.7396102,39.5097978 13.7618398,39.5097978 13.4480916,40.1962978 Z" id="Path" stroke="#30C7DB" stroke-width="2" fill="#FFFFFF"></path>
                        <path d="M21.7788092,26.6198973 C20.6474425,29.0933571 18.7696358,31.1547296 16.432914,32.5164907 C16.0133343,32.7609332 16.0133343,33.3537768 16.432914,33.5982194 C18.7696358,34.959044 20.6474425,37.0204165 21.7788092,39.4938763 C21.9989011,39.9743324 22.6835278,39.9743324 22.9036199,39.4938763 C24.0349866,37.0204165 25.9118566,34.9599805 28.2495149,33.5982194 C28.6681579,33.3537768 28.6681579,32.7609332 28.2495149,32.5164907 C25.9118566,31.1547296 24.0349866,29.0942936 22.9036199,26.6198973 C22.6835278,26.1394411 21.9989011,26.1394411 21.7788092,26.6198973 Z" id="Path" stroke="#30C7DB" stroke-width="2" fill="#FFFFFF"></path>
                        <path d="M104.872449,40.1962978 C106.489891,43.7299455 109.172204,46.6735595 112.510111,48.6187984 C113.10951,48.9681359 113.10951,49.8147878 112.510111,50.1641253 C109.172204,52.1084279 106.489891,55.0529783 104.872449,58.5866261 C104.558701,59.2731259 103.58093,59.2731259 103.266245,58.5866261 C101.648803,55.0529783 98.9674265,52.1084279 95.6285834,50.1641253 C95.0301205,49.8147878 95.0301205,48.9681359 95.6285834,48.6187984 C98.9674265,46.6735595 101.648803,43.7299455 103.266245,40.1962978 C103.58093,39.5097978 104.558701,39.5097978 104.872449,40.1962978 L104.872449,40.1962978 Z" id="Path" stroke="#30C7DB" stroke-width="2" fill="#FFFFFF"></path>
                        <path d="M96.5417312,26.6198973 C97.6730979,29.0933571 99.5509046,31.1547296 101.887626,32.5164907 C102.307206,32.7609332 102.307206,33.3537768 101.887626,33.5982194 C99.5509046,34.959044 97.6730979,37.0204165 96.5417312,39.4938763 C96.3216394,39.9743324 95.6370126,39.9743324 95.4169205,39.4938763 C94.2855538,37.0204165 92.4077474,34.9599805 90.0710255,33.5982194 C89.6523823,33.3537768 89.6523823,32.7609332 90.0710255,32.5164907 C92.4077474,31.1547296 94.2855538,29.0942936 95.4169205,26.6198973 C95.6370126,26.1394411 96.3216394,26.1394411 96.5417312,26.6198973 Z" id="Path" stroke="#30C7DB" stroke-width="2" fill="#FFFFFF"></path>
                        <path d="M95.4984014,97.4033681 C95.2211791,96.8657817 94.9757998,96.5389217 94.8943189,96.439646 C94.8371887,96.3871986 94.7828682,96.3328779 94.7201185,96.2869864 C93.4651256,94.9308448 90.4044415,92.9209833 83.4954249,93.3948834 C83.4120709,93.3967567 83.3333995,93.3995664 83.262221,93.4033124 L83.1938518,93.4145514 C82.9831255,93.4314094 82.7611604,93.4548234 82.543878,93.4754279 L82.543878,93.4707449 C82.543878,93.4707449 82.4970498,93.4773009 82.4296174,93.4866666 C82.300372,93.4997784 82.1767458,93.5082073 82.0456271,93.5222558 L82.0446904,93.5400506 C80.833716,93.7095682 77.6091335,94.1900244 74.7704147,94.8409349 L46.0395072,99.7045005 C45.6648824,99.7681869 45.280892,99.7503922 44.9137597,99.6539263 L38.5797919,97.976544 C38.4074645,97.929716 38.2267082,97.9203502 38.0487613,97.9456375 L36.7591157,98.1320133 C36.0623137,98.233162 35.5640628,98.8597218 35.6240027,99.5621431 L36.279596,107.260682 L36.9351893,114.960157 C36.9951293,115.661641 37.5917191,116.195481 38.2960136,116.17675 L39.5987712,116.143034 C39.7776546,116.138351 39.9537282,116.097142 40.1166898,116.023154 L46.0760329,113.298696 C46.4216244,113.141353 46.7962491,113.058936 47.1764931,113.057999 L86.1768015,112.971836 C86.4100053,112.971836 86.6413362,112.939056 86.8651743,112.880989 C91.6725461,112.144852 95.6023599,108.325552 95.6913331,108.239389 C95.6932063,108.236579 95.6960158,108.234706 95.6978891,108.232833 C95.6978891,108.232833 95.6997623,108.23096 95.6997623,108.23096 C95.8683432,108.059569 96.0060178,107.866637 96.1090398,107.659657 C98.2237963,104.013622 96.3778328,99.2661898 95.5096402,97.4352113 C95.5077669,97.4239726 95.5012109,97.4146069 95.4984014,97.4033681 L95.4984014,97.4033681 Z" id="Path" fill="#FFFFFF"></path>
                        <path d="M38.2604244,117.136726 C37.0766102,117.136726 36.0810449,116.227325 35.9798962,115.041637 L34.6696462,99.643624 C34.5666245,98.4373324 35.4245151,97.3565401 36.6223778,97.1832763 L37.9120234,96.9969004 C38.2182792,96.9528819 38.5264079,96.9697399 38.8261077,97.0493479 L45.1600755,98.7267302 C45.3923429,98.7885431 45.6414682,98.7997819 45.879355,98.7604462 L74.5831024,93.9006268 C77.3141167,93.27594 80.3813566,92.8095323 81.7393714,92.6147275 C81.8039941,92.5931865 81.87049,92.577265 81.9407322,92.5697725 C82.0240862,92.560407 82.1046304,92.553851 82.1842383,92.5463585 L82.4202519,92.5210713 C82.4623971,92.515452 82.4942401,92.515452 82.5448145,92.5126423 L82.635661,92.5032766 C82.7836379,92.4882916 82.9316145,92.4742431 83.0749087,92.4630046 L83.1030054,92.4573851 C83.1376581,92.4517656 83.1732476,92.4480196 83.2088368,92.4461463 C83.2912543,92.4414636 83.3821009,92.4377173 83.4766936,92.4358441 C90.7275553,91.9366567 94.030809,94.1638009 95.3719655,95.5798824 C95.4197302,95.6192179 95.4665582,95.6613631 95.5115132,95.7035083 C95.5442929,95.7334783 95.6107889,95.7990377 95.6388856,95.8336905 C95.7222398,95.9357756 96.0181931,96.3188296 96.3506726,96.9622474 C96.3694038,96.9969004 96.3843888,97.0324896 96.3984373,97.0690156 C97.3518571,99.0947989 99.2521413,104.115707 96.9538184,108.115763 C96.8086515,108.398604 96.6204024,108.659905 96.3937546,108.893109 C96.3881351,108.898728 96.3825158,108.904348 96.3768963,108.909967 C96.1923937,109.090723 92.1361443,113.023347 87.0571694,113.821297 C86.7640256,113.893413 86.4690088,113.929939 86.179611,113.930875 L47.1783664,114.016102 C46.9339235,114.017039 46.6969735,114.06855 46.4750084,114.170635 L40.5156653,116.895093 C40.2337602,117.023402 39.933124,117.092708 39.6240584,117.101137 L38.3213008,117.13579 C38.3006966,117.136726 38.2800921,117.136726 38.2604244,117.136726 Z M38.2398201,98.8906283 C38.2220254,98.8906283 38.2042307,98.8925016 38.1873727,98.8953111 L36.8967903,99.0816869 C36.702922,99.1097839 36.5633743,99.2849208 36.5802323,99.4806624 L37.8914189,114.878676 C37.9082771,115.074417 38.0834143,115.233633 38.2707266,115.217711 L39.5734842,115.183995 C39.6240584,115.183058 39.6727596,115.170883 39.7186511,115.150279 L45.6770577,112.42582 C46.1500213,112.209474 46.6548282,112.09896 47.1746199,112.098024 L86.1758647,112.01186 C86.3200954,112.01186 86.4708818,111.991255 86.6235414,111.95192 C86.6553844,111.943491 86.6881641,111.936935 86.7209439,111.931315 C91.2126945,111.243879 94.9823558,107.591288 95.0198183,107.553825 C95.0216913,107.551952 95.0235645,107.550079 95.0263743,107.548206 C95.1190937,107.45174 95.1949554,107.345909 95.2511491,107.232585 C95.2595781,107.213853 95.2698804,107.196059 95.2801826,107.178264 C97.1617353,103.932141 95.4618755,99.5696356 94.6433205,97.8454253 C94.6348913,97.8266941 94.6273988,97.8088993 94.6199063,97.7901683 C94.424165,97.4202263 94.2555838,97.181403 94.1853416,97.0877468 C94.1731664,97.0765081 94.1609911,97.0652693 94.1478791,97.0549671 C94.1057339,97.0231241 94.05235,96.9762959 94.0167605,96.9369604 C92.9425242,95.7774968 90.1571892,93.8978171 83.5619208,94.3511132 C83.4748204,94.3529863 83.4158169,94.3548593 83.3661792,94.357669 L83.3530675,94.3595422 C83.325907,94.364225 83.2978103,94.3679712 83.2697135,94.3698442 C83.1254829,94.3810832 82.975633,94.3960682 82.8257831,94.4110532 L82.635661,94.4297842 C82.6150567,94.4316574 82.595389,94.4325939 82.575721,94.4335307 L82.3116107,94.4597542 C82.2685287,94.4719297 82.2245103,94.4822317 82.1776823,94.4887877 C80.9442304,94.6620515 77.7720954,95.135952 74.9848873,95.7746872 C74.9670926,95.77937 74.9483614,95.7821797 74.9305669,95.7859257 L46.1996591,100.649492 C45.6939157,100.735655 45.1638218,100.711305 44.6674439,100.580186 L38.3344128,98.9028036 C38.3035061,98.8953111 38.2716631,98.8906283 38.2398201,98.8906283 L38.2398201,98.8906283 Z" id="Shape" fill="#30C7DB"></path>
                        <path d="M22.822139,97.4033681 C23.0993613,96.8657817 23.3447406,96.5389217 23.4262213,96.439646 C23.4833515,96.3871986 23.5376722,96.3328779 23.6004219,96.2869864 C24.8554148,94.9308448 27.9160989,92.9209833 34.8251155,93.3948834 C34.9084695,93.3967567 34.9871407,93.3995664 35.0583194,93.4033124 L35.1266883,93.4145514 C35.3374149,93.4314094 35.55938,93.4548234 35.7766624,93.4754279 L35.7766624,93.4707449 C35.7766624,93.4707449 35.8234904,93.4773009 35.8909228,93.4866666 C36.0201685,93.4997784 36.1428581,93.5082073 36.2749133,93.5222558 L36.2758498,93.5400506 C37.4868242,93.7095682 40.7114067,94.1900244 43.5501257,94.8409349 L72.2810333,99.7045005 C72.655658,99.7681869 73.0396485,99.7503922 73.4067807,99.6539263 L79.7398118,97.976544 C79.9130759,97.929716 80.0938323,97.9203502 80.2717789,97.9456375 L81.5614247,98.1320133 C82.2582267,98.233162 82.7555409,98.8597218 82.6956009,99.5621431 L82.0409444,107.260682 L81.3853509,114.960157 C81.3254109,115.661641 80.7288211,116.195481 80.0245266,116.17675 L78.7217692,116.143034 C78.5428858,116.138351 78.3668122,116.097142 78.2038503,116.023154 L72.2445073,113.298696 C71.898916,113.141353 71.5242913,113.058936 71.1440473,113.057999 L32.1437389,112.971836 C31.9105351,112.971836 31.6792043,112.939056 31.4553659,112.880989 C26.647994,112.144852 22.717244,108.325552 22.6292071,108.239389 C22.6273341,108.236579 22.6245244,108.234706 22.6226514,108.232833 C22.6226514,108.232833 22.6207781,108.23096 22.6207781,108.23096 C22.452197,108.059569 22.3145223,107.866637 22.2115007,107.659657 C20.0967439,104.013622 21.9427073,99.2661898 22.8109002,97.4352113 C22.8127735,97.4239726 22.8193292,97.4146069 22.822139,97.4033681 L22.822139,97.4033681 Z" id="Path" fill="#FFFFFF"></path>
                        <path d="M80.060116,117.136726 C80.0395116,117.136726 80.0198438,117.136726 79.9992393,117.136726 L78.696482,117.102073 C78.3874165,117.094581 78.0867802,117.024339 77.8048751,116.89603 L71.8455321,114.170635 C71.623567,114.069486 71.3866169,114.017975 71.1421741,114.017039 L32.1409294,113.930875 C31.8515316,113.930875 31.5565148,113.893413 31.2633708,113.821297 C26.2368436,113.031776 22.2105642,109.171268 21.9633118,108.930571 C21.9558193,108.924016 21.9492633,108.916523 21.9427073,108.909967 C21.7048208,108.668334 21.5128254,108.403287 21.366722,108.115763 C19.0683991,104.116643 20.968683,99.0957354 21.9221031,97.0699521 C21.9352149,97.0334264 21.9511366,96.9978369 21.9698676,96.9631842 C22.3023471,96.3197661 22.5992371,95.9367124 22.6816546,95.8355637 C22.7106881,95.7981012 22.7434678,95.7634483 22.779057,95.7316053 C22.84368,95.6707288 22.8970639,95.6229641 22.9476384,95.5808189 C24.2878582,94.1656739 27.5957946,91.9366567 34.890675,92.4395903 C34.9403127,92.4442731 35.0292859,92.4424001 35.1107668,92.4461463 C35.1472928,92.4480196 35.1819455,92.4527023 35.217535,92.4583216 L35.2446953,92.4630046 C35.3879892,92.4742431 35.535966,92.4892281 35.6839427,92.5042131 L35.7766624,92.5126423 C35.8272368,92.510769 35.8590798,92.515452 35.9002885,92.5210713 L36.1363021,92.5463585 C36.2159098,92.553851 36.2964543,92.560407 36.3798082,92.5697725 C36.4519234,92.577265 36.5202924,92.5931865 36.5867883,92.615664 C37.9466761,92.8104688 41.01017,93.2768768 43.737438,93.9006268 L72.4411854,98.7604462 C72.679072,98.8007184 72.927261,98.7894796 73.1604649,98.7276667 L79.4944327,97.0502844 C79.7941325,96.9706767 80.1022613,96.9528819 80.408517,96.9978369 L81.6981626,97.1842128 C82.8960253,97.3574766 83.7539159,98.4382689 83.650894,99.6445605 L82.3406442,115.042574 C82.2394953,116.227325 81.2439302,117.136726 80.060116,117.136726 L80.060116,117.136726 Z M23.3054049,107.559445 C23.6678544,107.904099 27.3035873,111.274786 31.6005331,111.932252 C31.6333128,111.937871 31.6651558,111.944427 31.696999,111.952856 C31.8496586,111.992192 32.000445,112.012796 32.1446754,112.012796 L71.1459203,112.09896 C71.6666487,112.099897 72.1705191,112.210411 72.6434827,112.426757 L78.6028258,115.151215 C78.6487173,115.171819 78.6974185,115.183058 78.7470562,115.184931 L80.0498138,115.218648 C80.2493014,115.238315 80.4131998,115.074417 80.4291213,114.878676 L81.7403079,99.4815989 C81.7571661,99.2858575 81.6176182,99.1097839 81.4237501,99.0816869 L80.1341042,98.8953111 C80.0844665,98.8878186 80.0348288,98.8915651 79.9861276,98.9037403 L73.6521598,100.581122 C73.1567186,100.713178 72.6266245,100.737528 72.1208814,100.651365 L43.3899735,95.787799 C43.3712423,95.7840527 43.3534476,95.781243 43.3356531,95.7765603 C40.548445,95.1378252 37.37631,94.6639248 36.1419216,94.4906609 C36.0960299,94.4841049 36.0501384,94.4738027 36.00612,94.4616274 L35.7476289,94.4354037 C35.7270247,94.4344672 35.7064202,94.4335307 35.6858159,94.4316574 L35.4956938,94.4129262 C35.3449074,94.3979412 35.195994,94.3829562 35.0517634,94.3717175 C35.0227302,94.3698442 34.9955699,94.3660982 34.9674729,94.3614152 L34.9552977,94.3595422 C34.907533,94.357669 34.8578953,94.355796 34.8054478,94.3548593 C28.1624147,93.8987538 25.3780162,95.7784333 24.3047164,96.9388334 C24.2644442,96.9819154 24.2204257,97.0221874 24.172661,97.0577769 C24.1604858,97.0671423 24.1483105,97.0783813 24.1351986,97.0896198 C24.0649566,97.1832763 23.8963755,97.4220993 23.7015706,97.7920413 C23.6931414,97.8107726 23.6856489,97.8285673 23.6772199,97.8472985 C22.8586649,99.5724453 21.1588051,103.934014 23.0412943,107.180137 C23.0506601,107.197932 23.0609623,107.215727 23.0703278,107.234458 C23.1283948,107.351528 23.207066,107.460169 23.3044684,107.559445 C23.3044684,107.558508 23.3054049,107.558508 23.3054049,107.559445 Z" id="Shape" fill="#30C7DB"></path>
                    </g>
                </g>
            </g>
        </g>
    </g>
</svg>